<svg width="100" height="100" viewBox="0 0 100 100" fill="none" xmlns="http://www.w3.org/2000/svg">
<g clip-path="url(#clip0_473_18)">
<path d="M50 0C22.5 0 0 22.5 0 50C0 77.5 22.5 100 50 100C77.5 100 100 77.5 100 50C100 22.5 77.5 0 50 0ZM50 96.5625C24.375 96.5625 3.4375 75.625 3.4375 50C3.4375 24.375 24.375 3.4375 50 3.4375C75.625 3.4375 96.5625 24.375 96.5625 50C96.5625 75.625 75.625 96.5625 50 96.5625Z" fill="black"/>
<path d="M15.9375 48.4375H84.375V51.875H15.9375V48.4375Z" fill="black"/>
<path d="M48.4375 15.9375H51.875V84.375H48.4375V15.9375Z" fill="black"/>
</g>
<defs>
<clipPath id="clip0_473_18">
<rect width="100" height="100" fill="white"/>
</clipPath>
</defs>
</svg>
