<svg xmlns="http://www.w3.org/2000/svg" version="1.1" xmlns:xlink="http://www.w3.org/1999/xlink" width="512" height="512" x="0" y="0" viewBox="0 0 512 512" style="enable-background:new 0 0 512 512" xml:space="preserve" class=""><g><path d="M398.64 285.27a113.27 113.27 0 0 0-96.58 54l-82.79-42.74a113.72 113.72 0 0 0 0-81l82.79-42.74a113.13 113.13 0 1 0-14.24-35.42l-87.95 45.41a113.37 113.37 0 1 0 0 146.52l87.95 45.41a113.37 113.37 0 1 0 110.82-89.4zm-.7-246.59A33.35 33.35 0 1 1 364.6 72a33.34 33.34 0 0 1 33.34-33.32zm-54.37 97.55v-.15a20.46 20.46 0 0 1 5.93-12.35 20.84 20.84 0 0 1 12.45-6c6.89-.73 27.88-1.13 38.54-1.12s27.79.39 34.69 1.12a20.84 20.84 0 0 1 12.44 6 20.51 20.51 0 0 1 5.93 12.36v.14a75.54 75.54 0 0 1 .52 8.83 101.63 101.63 0 0 1-.51 10.68v.14a24.12 24.12 0 0 1-5.9 13.23 23.14 23.14 0 0 1-12.41 7.51c-6.88 1.56-24 3.09-34.74 3-10.71.27-31.74-1.4-38.62-3a23.2 23.2 0 0 1-12.41-7.51 24.15 24.15 0 0 1-5.9-13.23v-.15a75.24 75.24 0 0 1-.33-10.66 51.57 51.57 0 0 1 .32-8.84zm-230.9 45.09a33.34 33.34 0 1 1-33.34 33.34 33.34 33.34 0 0 1 33.34-33.34zm55.64 117.05v.14a24.12 24.12 0 0 1-5.9 13.24 23.2 23.2 0 0 1-12.41 7.51c-6.88 1.55-24 3.09-34.74 3-10.71.27-31.74-1.39-38.62-3a23.08 23.08 0 0 1-12.41-7.51 24.12 24.12 0 0 1-5.9-13.23v-.14a75.37 75.37 0 0 1-.33-10.69 51.56 51.56 0 0 1 .33-8.83v-.14a20.51 20.51 0 0 1 5.93-12.36 20.83 20.83 0 0 1 12.45-6c6.89-.73 27.88-1.13 38.54-1.13s27.79.4 34.69 1.13a20.78 20.78 0 0 1 12.44 6 20.46 20.46 0 0 1 5.93 12.35v.15a75.42 75.42 0 0 1 .52 8.82 101.55 101.55 0 0 1-.52 10.69zM397.94 324a33.35 33.35 0 1 1-33.34 33.3 33.34 33.34 0 0 1 33.34-33.3zm55.64 117v.14a24.12 24.12 0 0 1-5.9 13.23 23.14 23.14 0 0 1-12.41 7.51c-6.88 1.56-24 3.09-34.74 3-10.71.27-31.74-1.4-38.62-3a23.2 23.2 0 0 1-12.41-7.51 24.15 24.15 0 0 1-5.9-13.23V441a75.24 75.24 0 0 1-.33-10.66 51.57 51.57 0 0 1 .33-8.83v-.15a20.46 20.46 0 0 1 5.91-12.36 20.84 20.84 0 0 1 12.49-6c6.89-.73 27.88-1.13 38.54-1.12s27.79.39 34.69 1.12a20.84 20.84 0 0 1 12.44 6 20.51 20.51 0 0 1 5.93 12.36v.14a75.54 75.54 0 0 1 .52 8.83 101.63 101.63 0 0 1-.54 10.67z" data-name="Layer 9" fill="#000000" opacity="1" data-original="#000000" class=""></path></g></svg>