<svg width="16" height="16" viewBox="0 0 16 16" fill="none" xmlns="http://www.w3.org/2000/svg">
<path d="M8.00003 11C7.93436 11.0001 7.86933 10.9872 7.80866 10.962C7.748 10.9369 7.6929 10.9 7.64653 10.8535L2.64653 5.8535C2.45116 5.65813 2.45116 5.34175 2.64653 5.1465C2.84191 4.95125 3.15828 4.95113 3.35353 5.1465L8.00003 9.793L12.6465 5.1465C12.8419 4.95113 13.1583 4.95113 13.3535 5.1465C13.5488 5.34188 13.5489 5.65825 13.3535 5.8535L8.35353 10.8535C8.30716 10.9 8.25206 10.9369 8.1914 10.962C8.13073 10.9872 8.0657 11.0001 8.00003 11Z" fill="white"/>
</svg>
