<svg width="50" height="26" viewBox="0 0 50 26" fill="none" xmlns="http://www.w3.org/2000/svg">
<g clip-path="url(#clip0_147_2)">
<path d="M48.1292 0.365162L24.9867 23.3578L1.8442 0.365162C1.41246 -0.0491665 0.724347 -0.0372214 0.307279 0.391684C-0.0994967 0.810163 -0.0994967 1.47351 0.307279 1.89189L24.2193 25.6469C24.6437 26.0684 25.3317 26.0684 25.7562 25.6469L49.6683 1.89189C50.1 1.47756 50.1119 0.794068 49.695 0.365061C49.2779 -0.0638446 48.5899 -0.0756885 48.1581 0.338539C48.149 0.347245 48.1401 0.356052 48.1314 0.365061L48.1292 0.365162Z" fill="#FFC107"/>
<path d="M24.9867 25.9645C24.8439 25.9647 24.7024 25.937 24.5703 25.8829C24.4383 25.8288 24.3183 25.7494 24.2172 25.6491L0.30512 1.89414C-0.111947 1.46523 -0.0999235 0.781638 0.331817 0.367309C0.753063 -0.0367954 1.4208 -0.0367954 1.84194 0.367309L24.9866 23.3578L48.1291 0.365183C48.5462 -0.0637225 49.2342 -0.0755664 49.666 0.338661C50.0978 0.752989 50.1097 1.43649 49.6927 1.86549C49.684 1.8745 49.6751 1.88331 49.666 1.89201L25.7541 25.647C25.5507 25.8496 25.2747 25.9638 24.9867 25.9645Z" fill="black"/>
</g>
<defs>
<clipPath id="clip0_147_2">
<rect width="50" height="26" fill="white"/>
</clipPath>
</defs>
</svg>
