<svg width="49" height="49" viewBox="0 0 49 49" fill="none" xmlns="http://www.w3.org/2000/svg">
<g clip-path="url(#clip0_307_191)">
<path d="M17.6368 14.4869C19.1281 14.4869 20.3415 13.2736 20.3415 11.7822C20.3415 10.2909 19.1281 9.07787 17.6368 9.07787C16.1454 9.07787 14.9324 10.2909 14.9324 11.7822C14.9324 13.2736 16.1454 14.4869 17.6368 14.4869ZM17.6368 10.4647C18.3636 10.4647 18.9548 11.0558 18.9548 11.7824C18.9548 12.5092 18.3637 13.1004 17.6368 13.1004C16.9103 13.1004 16.3191 12.5094 16.3191 11.7824C16.3191 11.0558 16.9102 10.4647 17.6368 10.4647ZM33.0565 14.4869C34.5479 14.4869 35.7609 13.2736 35.7609 11.7822C35.7609 10.2909 34.5479 9.07787 33.0565 9.07787C31.5652 9.07787 30.3518 10.2909 30.3518 11.7822C30.3518 13.2736 31.5653 14.4869 33.0565 14.4869ZM33.0565 10.4647C33.783 10.4647 34.3742 11.0558 34.3742 11.7824C34.3742 12.5092 33.7831 13.1004 33.0565 13.1004C32.3297 13.1004 31.7385 12.5094 31.7385 11.7824C31.7387 11.0558 32.3297 10.4647 33.0565 10.4647ZM28.3633 9.76705C29.8398 9.76705 31.0408 8.56585 31.0408 7.08957C31.0408 5.61346 29.8396 4.41244 28.3633 4.41244C26.8872 4.41244 25.6862 5.61363 25.6862 7.08957C25.6862 8.56585 26.8874 9.76705 28.3633 9.76705ZM28.3633 5.79893C29.0749 5.79893 29.6542 6.37786 29.6542 7.08939C29.6542 7.80093 29.0749 8.38021 28.3633 8.38021C27.6518 8.38021 27.0729 7.80093 27.0729 7.08939C27.0729 6.37786 27.6518 5.79893 28.3633 5.79893ZM22.33 9.76705C23.8061 9.76705 25.0071 8.56585 25.0071 7.08957C25.0071 5.61346 23.8059 4.41244 22.33 4.41244C20.8535 4.41244 19.6525 5.61363 19.6525 7.08957C19.6523 8.56585 20.8535 9.76705 22.33 9.76705ZM22.33 5.79893C23.0415 5.79893 23.6204 6.37786 23.6204 7.08939C23.6204 7.80093 23.0415 8.38021 22.33 8.38021C21.6184 8.38021 21.0391 7.80093 21.0391 7.08939C21.0391 6.37786 21.6182 5.79893 22.33 5.79893ZM8.35998 4.11291C8.54387 4.11291 8.72022 4.03987 8.85024 3.90984C8.98027 3.77982 9.05332 3.60347 9.05332 3.41958V2.03292C9.05332 1.84903 8.98027 1.67268 8.85024 1.54265C8.72022 1.41263 8.54387 1.33958 8.35998 1.33958C8.1761 1.33958 7.99975 1.41263 7.86972 1.54265C7.7397 1.67268 7.66665 1.84903 7.66665 2.03292V3.41958C7.66665 3.60347 7.7397 3.77982 7.86972 3.90984C7.99975 4.03987 8.1761 4.11291 8.35998 4.11291ZM8.35998 5.49958C8.1761 5.49958 7.99975 5.57263 7.86972 5.70265C7.7397 5.83268 7.66665 6.00903 7.66665 6.19291V7.57958C7.66665 7.76347 7.7397 7.93982 7.86972 8.06984C7.99975 8.19987 8.1761 8.27291 8.35998 8.27291C8.54387 8.27291 8.72022 8.19987 8.85024 8.06984C8.98027 7.93982 9.05332 7.76347 9.05332 7.57958V6.19291C9.05332 6.00903 8.98027 5.83268 8.85024 5.70265C8.72022 5.57263 8.54387 5.49958 8.35998 5.49958ZM5.58665 5.49958H6.97332C7.1572 5.49958 7.33355 5.42653 7.46358 5.29651C7.5936 5.16648 7.66665 4.99013 7.66665 4.80625C7.66665 4.62236 7.5936 4.44601 7.46358 4.31599C7.33355 4.18596 7.1572 4.11291 6.97332 4.11291H5.58665C5.40276 4.11291 5.22641 4.18596 5.09639 4.31599C4.96636 4.44601 4.89331 4.62236 4.89331 4.80625C4.89331 4.99013 4.96636 5.16648 5.09639 5.29651C5.22641 5.42653 5.40276 5.49958 5.58665 5.49958ZM9.74665 5.49958H11.1333C11.3172 5.49958 11.4936 5.42653 11.6236 5.29651C11.7536 5.16648 11.8266 4.99013 11.8266 4.80625C11.8266 4.62236 11.7536 4.44601 11.6236 4.31599C11.4936 4.18596 11.3172 4.11291 11.1333 4.11291H9.74665C9.56277 4.11291 9.38641 4.18596 9.25639 4.31599C9.12636 4.44601 9.05332 4.62236 9.05332 4.80625C9.05332 4.99013 9.12636 5.16648 9.25639 5.29651C9.38641 5.42653 9.56277 5.49958 9.74665 5.49958ZM17.3823 2.54338C17.5789 2.54338 17.7674 2.46529 17.9064 2.3263C18.0454 2.1873 18.1235 1.99878 18.1235 1.80221C18.1235 1.60564 18.0454 1.41712 17.9064 1.27812C17.7674 1.13912 17.5789 1.06104 17.3823 1.06104C17.1858 1.06104 16.9972 1.13912 16.8582 1.27812C16.7192 1.41712 16.6412 1.60564 16.6412 1.80221C16.6412 1.99878 16.7192 2.1873 16.8582 2.3263C16.9972 2.46529 17.1858 2.54338 17.3823 2.54338ZM32.5265 18.5887C32.5265 15.7987 27.5313 11.5246 25.7814 10.2474C25.6628 10.1606 25.5197 10.1138 25.3727 10.1138C25.2258 10.1138 25.0827 10.1606 24.9641 10.2474C23.2141 11.5246 18.219 15.7987 18.219 18.5887C18.219 21.3112 20.2688 23.5262 22.7886 23.5262C23.7166 23.5262 24.6143 23.2212 25.3726 22.6568C26.131 23.2212 27.0289 23.5262 27.9567 23.5262C30.4766 23.5262 32.5265 21.3112 32.5265 18.5887ZM25.3726 21.0526C25.1909 21.0525 25.0164 21.1239 24.8868 21.2512C24.3032 21.8241 23.558 22.1396 22.7886 22.1396C21.0336 22.1396 19.6057 20.5468 19.6057 18.5887C19.6057 16.9339 22.8817 13.5884 25.3726 11.6735C27.8636 13.5884 31.1396 16.9339 31.1396 18.5887C31.1396 20.5468 29.7117 22.1396 27.9567 22.1396C27.1873 22.1396 26.4421 21.8241 25.8585 21.2512C25.7289 21.1238 25.5544 21.0525 25.3726 21.0526ZM43.8493 11.9143C43.4637 11.6624 43.0211 11.5113 42.562 11.475C42.1029 11.4386 41.642 11.5181 41.2216 11.7061L40.4192 12.0627C39.5367 12.4534 38.7653 13.0575 38.1745 13.8206C37.5837 14.5837 37.1921 15.4818 37.0349 16.434L36.1476 21.7562L28.5771 27.5628C27.232 28.5413 26.4286 30.1185 26.4286 31.7821V42.2464C26.4286 42.4303 26.5016 42.6067 26.6317 42.7367C26.7617 42.8667 26.938 42.9397 27.1219 42.9397H34.0133C34.1972 42.9397 34.3736 42.8667 34.5036 42.7367C34.6336 42.6067 34.7067 42.4303 34.7067 42.2464C34.7067 39.8577 35.8448 37.5725 37.7514 36.1336L39.6794 34.678C43.0778 32.2799 45.1067 28.3654 45.1067 24.2061V14.2309C45.1075 13.7704 44.9928 13.3171 44.7732 12.9124C44.5535 12.5077 44.2359 12.1645 43.8493 11.9143ZM38.4025 16.6617C38.5978 15.4884 39.2511 14.4675 40.1954 13.7896L39.6654 20.1523C39.0462 19.9727 38.3571 20.0682 37.7684 20.4654L38.4025 16.6617ZM43.72 24.2061C43.72 27.915 41.9106 31.4065 38.862 33.5579L36.916 35.0266C34.8495 36.5862 33.5474 38.9879 33.347 41.5529H27.8153V31.7819C27.8153 30.5605 28.4049 29.4022 29.4068 28.6734L37.221 22.6802L38.5654 21.5983C38.9103 21.3578 39.3582 21.406 39.6538 21.7144C39.9831 22.059 40.015 22.6102 39.7283 22.9964L33.948 30.7686C33.8383 30.9162 33.7916 31.1012 33.8184 31.2831C33.8451 31.465 33.943 31.6289 34.0905 31.7386C34.1634 31.7931 34.2465 31.8326 34.3348 31.8549C34.4231 31.8773 34.5149 31.8819 34.605 31.8687C34.6951 31.8555 34.7817 31.8246 34.8599 31.7778C34.938 31.731 35.0062 31.6693 35.0604 31.5961L40.8411 23.8239C41.4179 23.0477 41.4462 21.9931 40.9709 21.1847L41.65 13.0333L41.7849 12.9734C42.2189 12.7811 42.6959 12.8193 43.0937 13.077C43.4919 13.3356 43.72 13.7565 43.72 14.2311V24.2061ZM21.4378 27.5739L13.8481 21.731L12.9651 16.4338C12.8079 15.4816 12.4162 14.5835 11.8254 13.8204C11.2346 13.0573 10.4632 12.4532 9.58077 12.0625L8.77841 11.7063C8.35801 11.5182 7.89714 11.4387 7.43803 11.475C6.97893 11.5114 6.53628 11.6623 6.15068 11.9141C5.76412 12.1644 5.44648 12.5076 5.22682 12.9123C5.00716 13.3171 4.8925 13.7704 4.89331 14.2309V24.2061C4.89331 28.3654 6.92218 32.2803 10.3025 34.665L12.2485 36.1336C14.1552 37.5725 15.2933 39.8575 15.2933 42.2462C15.2933 42.4301 15.3664 42.6065 15.4964 42.7365C15.6264 42.8665 15.8028 42.9396 15.9866 42.9396H22.878C23.0619 42.9396 23.2383 42.8665 23.3683 42.7365C23.4983 42.6065 23.5714 42.4301 23.5714 42.2462V31.7819C23.5714 30.1185 22.768 28.5411 21.4378 27.5739ZM11.5975 16.6621L12.2309 20.4633L12.2281 20.4608C11.9561 20.2701 11.6445 20.1432 11.3166 20.0897C10.9887 20.0362 10.6529 20.0575 10.3344 20.152L9.8042 13.7896C10.7487 14.4673 11.402 15.4884 11.5975 16.6621ZM22.1847 41.5529H16.6529C16.4526 38.9877 15.1505 36.5862 13.084 35.0266L11.1201 33.5451C8.08941 31.4065 6.27998 27.9156 6.27998 24.2061V14.2309C6.27998 13.7563 6.50809 13.3355 6.90623 13.0768C7.30438 12.8186 7.78209 12.7803 8.21508 12.9735L8.34976 13.0333L9.02905 21.1849C8.55377 21.9931 8.58202 23.0477 9.15922 23.8237L14.9395 31.596C15.0493 31.7434 15.2132 31.8412 15.395 31.868C15.5769 31.8947 15.762 31.8481 15.9095 31.7384C15.9826 31.6841 16.0442 31.6159 16.0909 31.5378C16.1377 31.4596 16.1685 31.373 16.1817 31.283C16.195 31.1929 16.1903 31.1011 16.1681 31.0128C16.1458 30.9245 16.1064 30.8415 16.052 30.7685L10.272 22.9962C9.98498 22.6098 10.0167 22.0588 10.3466 21.7142C10.6421 21.4052 11.09 21.3577 11.4025 21.574L20.6072 28.6838C21.0952 29.0398 21.4923 29.5059 21.7665 30.0441C22.0406 30.5824 22.1839 31.1777 22.1849 31.7818V41.5529H22.1847Z" fill="#6C8B57"/>
</g>
<defs>
<clipPath id="clip0_307_191">
<rect width="48" height="48.0627" fill="white" transform="translate(0.542236)"/>
</clipPath>
</defs>
</svg>
