<svg width="50" height="50" viewBox="0 0 50 50" fill="none" xmlns="http://www.w3.org/2000/svg">
<path d="M42.1875 23.4375H11.0164L22.9524 12.0688C23.101 11.9272 23.2202 11.7578 23.3034 11.5702C23.3865 11.3826 23.4319 11.1804 23.4369 10.9752C23.4419 10.7701 23.4064 10.5659 23.3325 10.3745C23.2587 10.183 23.1478 10.008 23.0063 9.85938C22.8647 9.71078 22.6953 9.5915 22.5077 9.50836C22.3201 9.42523 22.1179 9.37986 21.9127 9.37485C21.7076 9.36985 21.5034 9.4053 21.312 9.47919C21.1205 9.55307 20.9455 9.66395 20.7969 9.80548L7.16563 22.7899C6.87457 23.0795 6.6438 23.4239 6.48664 23.8033C6.32948 24.1827 6.24905 24.5894 6.25001 25C6.25001 25.8344 6.57579 26.6195 7.19298 27.2359L20.7977 40.1938C21.1 40.482 21.4875 40.625 21.875 40.625C22.1875 40.6255 22.4929 40.5322 22.7518 40.3572C23.0106 40.1823 23.2111 39.9337 23.3272 39.6436C23.4433 39.3535 23.4697 39.0353 23.403 38.73C23.3363 38.4247 23.1796 38.1465 22.9531 37.9313L10.9672 26.5625H42.1875C42.6019 26.5625 42.9993 26.3979 43.2924 26.1049C43.5854 25.8118 43.75 25.4144 43.75 25C43.75 24.5856 43.5854 24.1882 43.2924 23.8952C42.9993 23.6021 42.6019 23.4375 42.1875 23.4375Z" fill="black"/>
</svg>
