<svg width="730" height="476" viewBox="0 0 730 476" fill="none" xmlns="http://www.w3.org/2000/svg">
<path d="M487.726 0C444.375 0 401.758 11.2389 364.632 32.9963C328.258 11.9053 285.66 0 242.383 0C108.751 0 0.10791 106.518 0.10791 237.639C0.10791 368.759 108.751 475.349 242.383 475.349C285.569 475.349 328.019 464.182 365.054 442.587C402.09 464.182 444.54 475.349 487.726 475.349C621.357 475.349 730 368.759 730 237.639C730 106.518 621.376 0 487.726 0ZM365.054 418.955C326.772 393.777 298.109 358.656 281.659 318.472L376.09 411.121C372.509 413.805 368.781 416.416 365.036 418.939L365.054 418.955ZM393.293 396.784L269.044 274.957C266.878 262.729 265.813 250.264 265.813 237.639C265.813 234.702 265.904 231.767 265.978 228.831L414.152 374.775C407.763 382.591 400.786 389.941 393.312 396.784H393.293ZM427.593 356.855L269.044 200.716C271.118 188.9 274.111 177.409 278.095 166.242L443.549 328.576C438.903 338.357 433.579 347.813 427.593 356.855ZM452.435 306.17L287.313 144.089C291.885 134.723 297.118 125.663 303.013 116.946L460.9 271.859C458.991 283.603 456.163 295.076 452.435 306.17ZM316.47 99.097C323.025 91.2802 330.169 83.8597 337.898 76.8534L459.651 196.321C462.221 209.775 463.563 223.536 463.563 237.639C463.563 239.511 463.563 241.386 463.47 243.348L316.452 99.115L316.47 99.097ZM355.249 62.7506C358.316 60.4632 361.565 58.2659 364.797 56.0686C401.832 79.9513 429.667 113.362 446.193 151.906L355.249 62.7506ZM20.4522 237.639C20.4522 117.27 119.713 19.8842 242.383 19.8842C279.087 19.8842 314.304 28.2775 346.29 45.1539C282.999 89.6413 246.295 160.947 246.295 237.639C246.295 314.329 283.842 385.635 346.29 430.123C314.23 446.999 278.262 455.393 242.383 455.393C119.713 455.483 20.4522 358.097 20.4522 237.639ZM487.726 455.464C451.021 455.464 415.805 447.071 383.819 430.196C447.11 385.708 483.814 314.402 483.814 237.71C483.814 161.019 447.11 89.6413 383.819 45.2259C415.877 28.3495 451.021 19.9563 487.726 19.9563C610.396 19.9563 709.656 117.342 709.656 237.71C709.749 358.079 610.488 455.464 487.726 455.464Z" fill="#2A0917" fill-opacity="0.05"/>
</svg>
