<svg width="48" height="48" viewBox="0 0 48 48" fill="none" xmlns="http://www.w3.org/2000/svg">
<g clip-path="url(#clip0_304_90)">
<path d="M47.5353 31.2608C47.353 31.1517 47.1399 31.1058 46.9289 31.1301C46.7179 31.1544 46.5208 31.2476 46.3681 31.3953C44.9324 32.5508 43.121 33.1362 41.2806 33.0397C39.4134 33.0397 38.4591 31.9934 37.2487 30.6687C35.8701 29.1593 34.1544 27.2795 30.7203 27.2795C29.3437 27.2462 27.9852 27.5981 26.7978 28.2954C25.6104 28.9928 24.6415 30.0079 24.0001 31.2264C23.3588 30.0079 22.3899 28.9926 21.2025 28.2953C20.0151 27.5979 18.6565 27.2461 17.2799 27.2795C13.8453 27.2795 12.1296 29.1593 10.752 30.6687C9.54258 31.9935 8.58808 33.0397 6.71963 33.0397C4.88199 33.1364 3.0731 32.553 1.63821 31.4009C1.48733 31.2502 1.29054 31.154 1.07891 31.1276C0.867289 31.1012 0.6529 31.1461 0.469614 31.2551C0.286188 31.364 0.144265 31.5309 0.0662519 31.7295C-0.0117609 31.928 -0.0214191 32.1469 0.0388022 32.3516C0.068803 32.4542 3.19261 42.6399 13.4398 42.6399C20.9813 42.6399 23.0317 40.3131 24.0001 39.0966C24.969 40.313 27.0194 42.6399 34.5604 42.6399C44.8081 42.6399 47.9319 32.4542 47.9619 32.3516C48.021 32.1482 48.0112 31.9309 47.934 31.7336C47.8568 31.5364 47.7167 31.3701 47.5353 31.2608ZM34.5605 40.7199C27.732 40.7199 26.1747 38.7502 25.4251 37.8032C25.2798 37.5457 25.0743 37.3272 24.8261 37.1664C24.5779 37.0056 24.2945 36.9072 24.0001 36.8798C23.7058 36.9073 23.4224 37.0057 23.1744 37.1665C22.9263 37.3273 22.7208 37.5457 22.5755 37.8032C21.826 38.7502 20.2715 40.7199 13.4398 40.7199C9.03857 40.7228 5.00682 38.2579 3.00372 34.3386C4.19699 34.7595 5.45435 34.9696 6.71963 34.9597C9.43374 34.9597 10.8873 33.3682 12.1699 31.9634C13.5237 30.4802 14.6928 29.1997 17.2799 29.1997C22.1368 29.1997 23.019 33.9584 23.0536 34.161C23.092 34.3841 23.2079 34.5865 23.381 34.7324C23.5541 34.8783 23.7732 34.9583 23.9996 34.9583C24.2261 34.9583 24.4452 34.8783 24.6184 34.7324C24.7916 34.5865 24.9077 34.3841 24.9461 34.161C24.9793 33.9584 25.8282 29.2033 30.7194 29.2033C33.3115 29.2033 34.476 30.484 35.8298 31.9676C37.1133 33.3682 38.5669 34.9597 41.2806 34.9597C42.546 34.9697 43.8035 34.7595 44.997 34.3386C42.9935 38.2579 38.962 40.7228 34.5604 40.7199H34.5605Z" fill="#6C8B57"/>
<path d="M7.19953 30.1596C9.06054 30.1596 10.8236 29.3285 12.0076 27.8931L23.8082 16.7943L35.6164 27.8876C37.5463 30.2267 40.8787 30.8398 43.515 29.3407C46.1514 27.8412 47.328 24.6638 46.3037 21.8091C45.2795 18.9543 42.3516 17.2494 39.3633 17.7679C36.3753 18.2863 34.1928 20.8781 34.1899 23.9111L25.2183 15.476L32.3431 8.77889C32.5285 8.60437 32.6371 8.36339 32.645 8.10887C32.6529 7.85434 32.5595 7.60709 32.3852 7.42141C32.022 7.035 31.4139 7.0158 31.0277 7.37917L23.8083 14.1589L16.5973 7.37917C16.411 7.20902 16.1652 7.11907 15.9131 7.12877C15.6609 7.13847 15.4227 7.24704 15.25 7.431C15.0773 7.61497 14.984 7.85952 14.9902 8.11177C14.9965 8.36402 15.1017 8.60367 15.2833 8.77889L22.4077 15.4771L13.4398 23.912C13.4355 20.4666 10.6398 17.6765 7.19485 17.6793C3.74955 17.6822 0.957913 20.4769 0.959473 23.9223C0.960673 27.3676 3.75459 30.1596 7.19965 30.1596H7.19953ZM40.4245 19.5993C42.8105 19.5993 44.7446 21.5334 44.7446 23.9195C44.7446 26.3055 42.8105 28.2396 40.4245 28.2396C38.0385 28.2396 36.1044 26.3055 36.1044 23.9195C36.1044 21.5334 38.0385 19.5993 40.4245 19.5993ZM7.19953 19.5993C9.58555 19.5993 11.5196 21.5334 11.5196 23.9195C11.5196 26.3055 9.58555 28.2396 7.19953 28.2396C4.81398 28.2396 2.87941 26.3055 2.87941 23.9195C2.88229 21.5349 4.81494 19.6022 7.19953 19.5993Z" fill="#6C8B57"/>
</g>
<defs>
<clipPath id="clip0_304_90">
<rect width="48" height="48" fill="white"/>
</clipPath>
</defs>
</svg>
