<svg width="50" height="50" viewBox="0 0 50 50" fill="none" xmlns="http://www.w3.org/2000/svg">
<path d="M22.0703 46.9727C24.4973 46.9727 26.4648 45.0052 26.4648 42.5781C26.4648 40.1511 24.4973 38.1836 22.0703 38.1836C19.6433 38.1836 17.6758 40.1511 17.6758 42.5781C17.6758 45.0052 19.6433 46.9727 22.0703 46.9727Z" fill="white"/>
<path d="M36.8164 46.9727C39.2434 46.9727 41.2109 45.0052 41.2109 42.5781C41.2109 40.1511 39.2434 38.1836 36.8164 38.1836C34.3894 38.1836 32.4219 40.1511 32.4219 42.5781C32.4219 45.0052 34.3894 46.9727 36.8164 46.9727Z" fill="white"/>
<path d="M1.46484 5.95723H7.57349L14.6455 30.7142L14.0908 31.8236C12.6303 34.7415 14.7505 38.1836 18.0219 38.1836H42.6755C43.4852 38.1836 44.1404 37.5284 44.1404 36.7188C44.1404 35.9091 43.4852 35.2539 42.6755 35.2539H18.0219C16.9341 35.2539 16.2231 34.1085 16.7115 33.1339L17.1164 32.3243H42.6755C42.994 32.3242 43.3037 32.2204 43.5579 32.0286C43.8122 31.8369 43.997 31.5675 44.0846 31.2614L49.9439 10.7537C50.006 10.5357 50.0167 10.3062 49.9752 10.0834C49.9338 9.86053 49.8413 9.65029 49.7051 9.46913C49.5682 9.28839 49.3913 9.14178 49.1883 9.04077C48.9853 8.93977 48.7617 8.8871 48.535 8.8869H11.4573L10.0869 4.09035C9.99928 3.7842 9.8144 3.51488 9.56018 3.32312C9.30596 3.13135 8.99622 3.02757 8.67778 3.02747H1.46484C0.655172 3.02747 0 3.68264 0 4.4923C0 5.30196 0.655172 5.95723 1.46484 5.95723Z" fill="white"/>
</svg>
