<svg width="50" height="33" viewBox="0 0 50 33" fill="none" xmlns="http://www.w3.org/2000/svg">
<path d="M33.4034 0C30.4338 0 27.5143 0.77916 24.9711 2.28753C22.4794 0.82536 19.5612 0 16.5966 0C7.44239 0 0 7.38454 0 16.4748C0 25.5649 7.44239 32.9545 16.5966 32.9545C19.555 32.9545 22.463 32.1803 25 30.6832C27.5371 32.1803 30.4451 32.9545 33.4034 32.9545C42.5576 32.9545 50 25.5649 50 16.4748C50 7.38454 42.5589 0 33.4034 0ZM25 29.0449C22.3776 27.2994 20.4141 24.8645 19.2871 22.0787L25.756 28.5017C25.5107 28.6878 25.2553 28.8688 24.9987 29.0437L25 29.0449ZM26.9345 27.5078L18.423 19.0619C18.2746 18.2142 18.2016 17.3501 18.2016 16.4748C18.2016 16.2712 18.2079 16.0677 18.2129 15.8642L28.3634 25.982C27.9257 26.5239 27.4477 27.0334 26.9358 27.5078H26.9345ZM29.2841 24.7396L18.423 13.915C18.5651 13.0959 18.7701 12.2992 19.043 11.5251L30.3771 22.7792C30.0589 23.4572 29.6942 24.1128 29.2841 24.7396ZM30.9859 21.2259L19.6745 9.98923C19.9877 9.33993 20.3462 8.71186 20.75 8.10751L31.5657 18.8471C31.435 19.6613 31.2413 20.4567 30.9859 21.2259ZM21.6719 6.87009C22.1209 6.32818 22.6102 5.81373 23.1398 5.32801L31.4802 13.6103C31.6562 14.543 31.7482 15.4971 31.7482 16.4748C31.7482 16.6046 31.7482 16.7345 31.7418 16.8706L21.6706 6.87134L21.6719 6.87009ZM24.3283 4.35031C24.5384 4.19173 24.761 4.03939 24.9824 3.88706C27.5194 5.54278 29.4262 7.85903 30.5583 10.5311L24.3283 4.35031ZM1.39365 16.4748C1.39365 8.12999 8.19331 1.37851 16.5966 1.37851C19.1109 1.37851 21.5235 1.96039 23.7146 3.13038C19.3789 6.21455 16.8646 11.158 16.8646 16.4748C16.8646 21.7915 19.4367 26.7349 23.7146 29.8191C21.5184 30.9891 19.0545 31.571 16.5966 31.571C8.19331 31.5772 1.39365 24.8258 1.39365 16.4748ZM33.4034 31.5759C30.889 31.5759 28.4766 30.994 26.2855 29.8242C30.6211 26.74 33.1354 21.7966 33.1354 16.4797C33.1354 11.163 30.6211 6.21455 26.2855 3.13537C28.4816 1.96538 30.889 1.38351 33.4034 1.38351C41.8067 1.38351 48.6064 8.13498 48.6064 16.4797C48.6127 24.8245 41.813 31.5759 33.4034 31.5759Z" fill="#2A0917"/>
</svg>
