<svg width="21" height="21" viewBox="0 0 21 21" fill="none" xmlns="http://www.w3.org/2000/svg">
<path d="M4.28333 4.90667H2.08333C1.35 4.90667 0.816667 4.29333 0.816667 3.61185V1.29481C0.75 0.613333 1.28333 0 2.01667 0H4.21667C4.95 0 5.48333 0.613333 5.48333 1.29481V3.61185C5.55 4.29333 4.95 4.90667 4.28333 4.90667ZM4.21667 1.29481L2.01667 1.36296L2.08333 3.61185L4.21667 3.5437V1.29481ZM4.28333 3.5437C4.21667 3.5437 4.21667 3.5437 4.28333 3.5437ZM20.75 2.65778C20.75 2.24889 20.4833 1.9763 20.0833 1.9763H8.08333C7.68333 1.9763 7.41667 2.24889 7.41667 2.65778C7.41667 3.06667 7.68333 3.33926 8.08333 3.33926H20.0833C20.4833 3.33926 20.75 2.99852 20.75 2.65778ZM4.28333 12.6756H2.08333C1.35 12.6756 0.816667 12.0622 0.816667 11.3807V9.13185C0.816667 8.38222 1.41667 7.83704 2.08333 7.83704H4.28333C5.01667 7.83704 5.55 8.45037 5.55 9.13185V11.3807C5.55 12.0622 4.95 12.6756 4.28333 12.6756ZM4.21667 9.0637L2.01667 9.13185L2.08333 11.3807L4.21667 11.3126V9.0637ZM4.28333 11.3126C4.21667 11.3126 4.21667 11.3126 4.28333 11.3126ZM20.75 10.4267C20.75 10.0178 20.4833 9.74518 20.0833 9.74518H8.08333C7.68333 9.74518 7.41667 10.0178 7.41667 10.4267C7.41667 10.8356 7.68333 11.1081 8.08333 11.1081H20.0833C20.4833 11.1081 20.75 10.7674 20.75 10.4267ZM4.28333 20.4444H2.08333C1.28333 20.4444 0.75 19.8311 0.75 19.1496V16.8326C0.75 16.083 1.35 15.5378 2.01667 15.5378H4.21667C4.95 15.5378 5.48333 16.1511 5.48333 16.8326V19.1496C5.55 19.8311 4.95 20.4444 4.28333 20.4444ZM4.21667 16.8326L2.01667 16.9007L2.08333 19.1496L4.21667 19.0815V16.8326ZM4.28333 19.0815C4.21667 19.0815 4.21667 19.0815 4.28333 19.0815ZM20.75 18.1956C20.75 17.7867 20.4833 17.5141 20.0833 17.5141H8.08333C7.68333 17.5141 7.41667 17.7867 7.41667 18.1956C7.41667 18.6044 7.68333 18.877 8.08333 18.877H20.0833C20.4833 18.877 20.75 18.5363 20.75 18.1956Z" fill="black"/>
</svg>
