<svg width="267" height="28" viewBox="0 0 267 28" fill="none" xmlns="http://www.w3.org/2000/svg">
<g clip-path="url(#clip0_1_2152)">
<path d="M28.3878 0C25.8646 0 23.3841 0.662019 21.2232 1.94362C19.1061 0.701273 16.6267 0 14.1078 0C6.32983 0 0.00634766 6.27433 0.00634766 13.9979C0.00634766 21.7214 6.32983 28 14.1078 28C16.6214 28 19.0922 27.3422 21.2478 26.0702C23.4034 27.3422 25.8742 28 28.3878 28C36.1657 28 42.4892 21.7214 42.4892 13.9979C42.4892 6.27433 36.1668 0 28.3878 0ZM21.2478 24.6782C19.0196 23.1951 17.3513 21.1263 16.3938 18.7593L21.8901 24.2167C21.6817 24.3748 21.4647 24.5286 21.2467 24.6772L21.2478 24.6782ZM22.8914 23.3722L15.6596 16.1961C15.5335 15.4758 15.4715 14.7416 15.4715 13.9979C15.4715 13.8249 15.4768 13.652 15.4811 13.4791L24.1055 22.0758C23.7336 22.5362 23.3275 22.9691 22.8925 23.3722H22.8914ZM24.8878 21.0202L15.6596 11.823C15.7803 11.127 15.9545 10.4501 16.1864 9.79236L25.8165 19.3545C25.5461 19.9306 25.2362 20.4876 24.8878 21.0202ZM26.3337 18.0347L16.7229 8.48742C16.989 7.93574 17.2936 7.40209 17.6367 6.8886L26.8264 16.0136C26.7153 16.7054 26.5507 17.3812 26.3337 18.0347ZM18.42 5.83722C18.8015 5.37678 19.2173 4.93968 19.6672 4.52698L26.7537 11.5641C26.9033 12.3566 26.9814 13.1672 26.9814 13.9979C26.9814 14.1082 26.9814 14.2186 26.976 14.3342L18.4189 5.83828L18.42 5.83722ZM20.6771 3.69627C20.8556 3.56153 21.0447 3.4321 21.2328 3.30267C23.3884 4.70946 25.0085 6.67748 25.9704 8.94786L20.6771 3.69627ZM1.19047 13.9979C1.19047 6.9077 6.96785 1.17126 14.1078 1.17126C16.2441 1.17126 18.2939 1.66566 20.1556 2.65975C16.4718 5.28024 14.3355 9.48045 14.3355 13.9979C14.3355 18.5153 16.5209 22.7155 20.1556 25.336C18.2896 26.3301 16.1961 26.8245 14.1078 26.8245C6.96785 26.8298 1.19047 21.0934 1.19047 13.9979ZM28.3878 26.8287C26.2514 26.8287 24.2017 26.3343 22.34 25.3403C26.0238 22.7198 28.1601 18.5196 28.1601 14.0021C28.1601 9.48469 26.0238 5.28024 22.34 2.66399C24.2059 1.6699 26.2514 1.17551 28.3878 1.17551C35.5277 1.17551 41.3051 6.91194 41.3051 14.0021C41.3105 21.0923 35.5331 26.8287 28.3878 26.8287Z" fill="#2A0917"/>
</g>
<path d="M254.778 10.1192H253.054V18.0637C253.054 18.116 253.054 18.1856 253.054 18.2728C253.054 18.7606 253.054 19.1352 253.054 19.3965C253.071 19.6578 253.088 20.0063 253.106 20.4418C253.123 20.8774 253.158 21.2171 253.21 21.461C253.28 21.7049 253.359 21.9663 253.446 22.245C253.533 22.5064 253.646 22.698 253.785 22.82C253.942 22.9419 254.125 23.0029 254.334 23.0029C254.386 23.0029 254.43 22.9942 254.465 22.9768V23.2642C251.625 23.2642 250.205 20.7554 250.205 15.7378V10.1192H248.846V9.88395H249.395C250.005 9.88395 250.571 9.69231 251.094 9.30902C251.634 8.90831 252.034 8.49018 252.296 8.05462C252.557 7.61907 252.688 7.26191 252.688 6.98315H253.054V9.88395H254.778V10.1192Z" fill="#2A0917"/>
<path d="M249.025 22.9246H244.87C245.305 22.5936 245.523 22.1667 245.523 21.6441V17.0446C245.523 14.6578 245.288 12.8981 244.817 11.7657C244.364 10.6158 243.641 10.0409 242.648 10.0409C242.37 10.0409 242.065 10.1106 241.734 10.2499C241.403 10.3893 241.054 10.6071 240.688 10.9033C240.323 11.1994 240.018 11.6524 239.774 12.2622C239.547 12.872 239.434 13.5863 239.434 14.4051V21.6441C239.434 22.1667 239.652 22.5936 240.087 22.9246H235.932C236.368 22.5936 236.585 22.1667 236.585 21.6441V11.3998C236.585 10.8597 236.368 10.4329 235.932 10.1193H236.951C237.474 10.1193 237.953 10.2586 238.389 10.5374C238.842 10.8162 239.19 11.1907 239.434 11.6611C240.41 10.4242 241.481 9.80566 242.648 9.80566C244.443 9.80566 245.845 10.459 246.856 11.7657C247.866 13.0549 248.372 14.7274 248.372 16.7833V21.6441C248.372 22.1667 248.589 22.5936 249.025 22.9246Z" fill="#2A0917"/>
<path d="M234.885 19.9713L235.12 20.0758C233.743 22.2013 231.958 23.2641 229.762 23.2641C227.863 23.2641 226.243 22.6108 224.902 21.3041C223.578 19.98 222.916 18.3859 222.916 16.5217C222.916 14.6575 223.578 13.0721 224.902 11.7654C226.243 10.4413 227.863 9.7793 229.762 9.7793C230.407 9.7793 231.026 9.90125 231.618 10.1452C232.21 10.3891 232.716 10.7375 233.134 11.1905C233.569 11.6435 233.857 12.201 233.996 12.863C234.153 13.5077 234.127 14.2394 233.918 15.0582C233.778 15.5286 233.526 15.9729 233.16 16.391C232.811 16.7917 232.385 17.1315 231.879 17.4102C231.374 17.6716 230.86 17.9068 230.337 18.1158C229.832 18.3249 229.283 18.4991 228.691 18.6385C228.116 18.7779 227.637 18.8824 227.254 18.9521C226.87 19.0218 226.496 19.0741 226.13 19.1089C226.461 20.1717 226.949 21.0428 227.593 21.7222C228.238 22.3843 228.961 22.7327 229.762 22.7676C231.871 22.9418 233.578 22.0097 234.885 19.9713ZM225.764 16.5217C225.764 17.3405 225.869 18.1333 226.078 18.8998C226.426 18.8301 226.783 18.7517 227.149 18.6646C227.515 18.5601 227.959 18.3946 228.482 18.1681C229.022 17.9242 229.501 17.6454 229.919 17.3318C230.355 17.0182 230.756 16.6088 231.121 16.1036C231.487 15.5809 231.74 15.006 231.879 14.3788C232.001 13.9606 232.027 13.5077 231.958 13.0198C231.888 12.5146 231.766 12.0442 231.592 11.6086C231.435 11.1731 231.174 10.8159 230.808 10.5372C230.442 10.241 230.015 10.0929 229.527 10.0929C228.848 10.0929 228.247 10.3194 227.724 10.7724C227.219 11.2253 226.827 11.8003 226.548 12.4972C226.287 13.1766 226.086 13.8648 225.947 14.5617C225.825 15.2412 225.764 15.8945 225.764 16.5217Z" fill="#2A0917"/>
<path d="M217.916 22.9246C218.351 22.5936 218.569 22.1667 218.569 21.6441V17.0446C218.569 14.71 218.299 12.9591 217.759 11.7918C217.219 10.6245 216.444 10.0409 215.433 10.0409C214.963 10.0409 214.458 10.2238 213.917 10.5897C213.395 10.9555 212.977 11.5392 212.663 12.3406C212.471 12.8284 212.463 13.325 212.637 13.8302C212.968 14.7362 213.133 15.7205 213.133 16.7833V21.6441C213.133 22.1667 213.351 22.5936 213.787 22.9246H209.632C210.067 22.5936 210.285 22.1667 210.285 21.6441V17.0446C210.285 14.71 210.015 12.9591 209.475 11.7918C208.935 10.6245 208.159 10.0409 207.149 10.0409C206.853 10.0409 206.539 10.1018 206.208 10.2238C205.894 10.3458 205.555 10.5548 205.189 10.851C204.823 11.1472 204.518 11.6002 204.274 12.2099C204.048 12.8197 203.934 13.5514 203.934 14.4051V21.6441C203.934 22.1667 204.152 22.5936 204.588 22.9246H200.433C200.868 22.5936 201.086 22.1667 201.086 21.6441V11.3998C201.086 10.8597 200.868 10.4329 200.433 10.1193H201.452C201.8 10.1193 202.131 10.189 202.445 10.3283C202.776 10.4503 203.063 10.6245 203.307 10.851C203.569 11.0775 203.778 11.3475 203.934 11.6611C204.91 10.4242 205.982 9.80566 207.149 9.80566C209.083 9.80566 210.607 10.5461 211.722 12.027C212.193 11.365 212.794 10.8336 213.525 10.4329C214.275 10.0147 214.91 9.80566 215.433 9.80566C216.635 9.80566 217.689 10.1106 218.595 10.7203C219.519 11.3301 220.216 12.1577 220.686 13.203C221.174 14.2483 221.418 15.4418 221.418 16.7833V21.6441C221.418 22.1667 221.635 22.5936 222.071 22.9246H217.916Z" fill="#2A0917"/>
<path d="M199.909 10.1192H198.184V18.0637C198.184 18.116 198.184 18.1856 198.184 18.2728C198.184 18.7606 198.184 19.1352 198.184 19.3965C198.201 19.6578 198.219 20.0063 198.236 20.4418C198.254 20.8774 198.289 21.2171 198.341 21.461C198.411 21.7049 198.489 21.9663 198.576 22.245C198.663 22.5064 198.776 22.698 198.916 22.82C199.073 22.9419 199.256 23.0029 199.465 23.0029C199.517 23.0029 199.56 22.9942 199.595 22.9768V23.2642C196.755 23.2642 195.335 20.7554 195.335 15.7378V10.1192H193.977V9.88395H194.525C195.135 9.88395 195.701 9.69231 196.224 9.30902C196.764 8.90831 197.165 8.49018 197.426 8.05462C197.687 7.61907 197.818 7.26191 197.818 6.98315H198.184V9.88395H199.909V10.1192Z" fill="#2A0917"/>
<path d="M193.428 15.8161V21.6438C193.428 22.1665 193.646 22.5933 194.081 22.9244H193.428C192.522 22.9244 191.816 22.6543 191.311 22.1142C190.823 21.5741 190.579 20.8947 190.579 20.0758V19.8668C190.074 21.0341 189.403 21.8965 188.567 22.454C187.748 22.9941 186.886 23.2641 185.98 23.2641C185.771 23.2641 185.57 23.2467 185.379 23.2118C184.299 23.0725 183.401 22.6543 182.687 21.9574C181.99 21.2605 181.711 20.3459 181.851 19.2134C181.92 18.743 182.051 18.3162 182.243 17.9329C182.452 17.5322 182.722 17.1925 183.053 16.9137C183.384 16.6175 183.724 16.3649 184.072 16.1558C184.438 15.9468 184.865 15.7638 185.353 15.607C185.84 15.4502 186.276 15.3196 186.659 15.215C187.043 15.1105 187.487 15.0147 187.992 14.9276C188.375 14.8405 188.689 14.7708 188.933 14.7185C189.787 14.5094 190.17 13.8648 190.083 12.7846C190.065 12.4885 189.987 12.1836 189.848 11.87C189.726 11.5389 189.56 11.2428 189.351 10.9814C189.142 10.7027 188.881 10.4762 188.567 10.302C188.271 10.1277 187.949 10.0406 187.6 10.0406C187.182 10.0406 186.773 10.1452 186.372 10.3542C185.971 10.5633 185.605 10.8682 185.274 11.2689C184.943 11.6522 184.656 12.1052 184.412 12.6278L183.131 11.4257C183.741 10.9205 184.438 10.5197 185.222 10.2236C186.023 9.92739 186.816 9.7793 187.6 9.7793C189.412 9.7793 190.832 10.302 191.86 11.3473C192.905 12.3752 193.428 13.8648 193.428 15.8161ZM190.579 18.1681V16.5217C190.579 15.6506 190.527 14.8492 190.423 14.1174C190.126 14.553 189.334 14.9014 188.044 15.1628C186.842 15.3893 185.901 15.8858 185.222 16.6524C184.542 17.4015 184.168 18.2988 184.098 19.3441C184.046 19.919 184.072 20.4156 184.177 20.8337C184.281 21.2518 184.464 21.6003 184.725 21.879C185.004 22.1404 185.361 22.3146 185.797 22.4017C187.504 22.7501 188.828 22.2275 189.769 20.8337C190.309 20.0497 190.579 19.1612 190.579 18.1681Z" fill="#2A0917"/>
<path d="M180.933 19.9713L181.169 20.0758C179.792 22.2013 178.006 23.2641 175.811 23.2641C173.912 23.2641 172.292 22.6108 170.95 21.3041C169.626 19.98 168.964 18.3859 168.964 16.5217C168.964 14.6575 169.626 13.0721 170.95 11.7654C172.292 10.4413 173.912 9.7793 175.811 9.7793C176.456 9.7793 177.074 9.90125 177.667 10.1452C178.259 10.3891 178.764 10.7375 179.182 11.1905C179.618 11.6435 179.906 12.201 180.045 12.863C180.202 13.5077 180.176 14.2394 179.966 15.0582C179.827 15.5286 179.574 15.9729 179.209 16.391C178.86 16.7917 178.433 17.1315 177.928 17.4102C177.423 17.6716 176.909 17.9068 176.386 18.1158C175.881 18.3249 175.332 18.4991 174.74 18.6385C174.165 18.7779 173.686 18.8824 173.302 18.9521C172.919 19.0218 172.545 19.0741 172.179 19.1089C172.51 20.1717 172.998 21.0428 173.642 21.7222C174.287 22.3843 175.01 22.7327 175.811 22.7676C177.919 22.9418 179.627 22.0097 180.933 19.9713ZM171.813 16.5217C171.813 17.3405 171.917 18.1333 172.126 18.8998C172.475 18.8301 172.832 18.7517 173.198 18.6646C173.564 18.5601 174.008 18.3946 174.531 18.1681C175.071 17.9242 175.55 17.6454 175.968 17.3318C176.404 17.0182 176.804 16.6088 177.17 16.1036C177.536 15.5809 177.789 15.006 177.928 14.3788C178.05 13.9606 178.076 13.5077 178.006 13.0198C177.937 12.5146 177.815 12.0442 177.641 11.6086C177.484 11.1731 177.222 10.8159 176.857 10.5372C176.491 10.241 176.064 10.0929 175.576 10.0929C174.897 10.0929 174.296 10.3194 173.773 10.7724C173.268 11.2253 172.876 11.8003 172.597 12.4972C172.336 13.1766 172.135 13.8648 171.996 14.5617C171.874 15.2412 171.813 15.8945 171.813 16.5217Z" fill="#2A0917"/>
<path d="M165.524 9.80566C166.343 9.80566 167.075 9.95375 167.72 10.2499C168.364 10.5461 168.869 10.9555 169.235 11.4782L168.085 12.6281C168.016 12.2796 167.859 11.9138 167.615 11.5305C167.371 11.1298 167.058 10.7813 166.674 10.4851C166.308 10.189 165.925 10.0409 165.524 10.0409C165.246 10.0409 164.941 10.1106 164.61 10.2499C164.279 10.3719 163.93 10.581 163.564 10.8771C163.199 11.1733 162.894 11.635 162.65 12.2622C162.423 12.872 162.31 13.5863 162.31 14.4051V21.6441C162.31 22.1667 162.528 22.5936 162.963 22.9246H158.808C159.244 22.5936 159.461 22.1667 159.461 21.6441V11.3998C159.461 10.8597 159.244 10.4329 158.808 10.1193H159.827C160.82 10.1193 161.587 10.5287 162.127 11.3475C162.179 11.4172 162.249 11.4608 162.336 11.4782C162.423 11.4782 162.493 11.4521 162.545 11.3998C163.469 10.337 164.462 9.80566 165.524 9.80566Z" fill="#2A0917"/>
<path d="M159.967 7.5582C159.845 7.10522 159.349 6.58255 158.478 5.9902C157.624 5.39784 156.579 5.10167 155.342 5.10167H153.721C154.227 5.32815 154.627 5.6766 154.924 6.147C155.237 6.59998 155.394 7.11393 155.394 7.68887V21.8531C155.394 22.3932 155.612 22.8201 156.047 23.1337H151.892C152.328 22.8201 152.546 22.3932 152.546 21.8531V5.10167C151.326 5.11909 150.289 5.42398 149.436 6.01633C148.582 6.59127 148.094 7.10522 147.972 7.5582V4.84033H159.967V7.5582Z" fill="#2A0917"/>
<path d="M139.425 15.8161V21.6438C139.425 22.1665 139.643 22.5933 140.079 22.9244H139.425C138.519 22.9244 137.814 22.6543 137.309 22.1142C136.821 21.5741 136.577 20.8947 136.577 20.0758V19.8668C136.072 21.0341 135.401 21.8965 134.565 22.454C133.746 22.9941 132.883 23.2641 131.977 23.2641C131.768 23.2641 131.568 23.2467 131.376 23.2118C130.296 23.0725 129.399 22.6543 128.685 21.9574C127.988 21.2605 127.709 20.3459 127.848 19.2134C127.918 18.743 128.049 18.3162 128.24 17.9329C128.449 17.5322 128.719 17.1925 129.05 16.9137C129.381 16.6175 129.721 16.3649 130.07 16.1558C130.436 15.9468 130.862 15.7638 131.35 15.607C131.838 15.4502 132.274 15.3196 132.657 15.215C133.04 15.1105 133.484 15.0147 133.99 14.9276C134.373 14.8405 134.687 14.7708 134.93 14.7185C135.784 14.5094 136.167 13.8648 136.08 12.7846C136.063 12.4885 135.984 12.1836 135.845 11.87C135.723 11.5389 135.558 11.2428 135.349 10.9814C135.14 10.7027 134.878 10.4762 134.565 10.302C134.268 10.1277 133.946 10.0406 133.598 10.0406C133.18 10.0406 132.77 10.1452 132.369 10.3542C131.969 10.5633 131.603 10.8682 131.272 11.2689C130.941 11.6522 130.653 12.1052 130.409 12.6278L129.129 11.4257C129.739 10.9205 130.436 10.5197 131.22 10.2236C132.021 9.92739 132.814 9.7793 133.598 9.7793C135.41 9.7793 136.829 10.302 137.857 11.3473C138.903 12.3752 139.425 13.8648 139.425 15.8161ZM136.577 18.1681V16.5217C136.577 15.6506 136.525 14.8492 136.42 14.1174C136.124 14.553 135.331 14.9014 134.042 15.1628C132.84 15.3893 131.899 15.8858 131.22 16.6524C130.54 17.4015 130.165 18.2988 130.096 19.3441C130.044 19.919 130.07 20.4156 130.174 20.8337C130.279 21.2518 130.462 21.6003 130.723 21.879C131.002 22.1404 131.359 22.3146 131.794 22.4017C133.502 22.7501 134.826 22.2275 135.767 20.8337C136.307 20.0497 136.577 19.1612 136.577 18.1681Z" fill="#2A0917"/>
<path d="M119.981 22.9244H115.826C116.139 22.5934 116.192 22.1666 115.982 21.6439L113.813 15.973C113.709 15.7116 113.526 15.5374 113.265 15.4503C113.021 15.3632 112.785 15.3893 112.559 15.5287C112.333 15.6507 112.115 15.7639 111.906 15.8684V21.6439C111.906 22.184 112.123 22.6108 112.559 22.9244H108.404C108.839 22.6108 109.057 22.184 109.057 21.6439V5.8855C109.057 5.36284 108.839 4.9447 108.404 4.6311H111.906V15.581C113.177 14.9189 114.258 14.222 115.146 13.4903C115.704 13.0199 116.131 12.4624 116.427 11.8178C116.74 11.1557 116.888 10.485 116.871 9.8055H118.57C118.587 10.0668 118.509 10.363 118.334 10.694C118.16 11.0076 117.873 11.3561 117.472 11.7394C117.089 12.1227 116.766 12.4363 116.505 12.6802C116.244 12.9067 115.887 13.2028 115.434 13.5687C115.312 13.6732 115.225 13.7429 115.172 13.7778C114.911 13.9868 114.624 14.2046 114.31 14.4311C114.571 14.3788 114.833 14.3875 115.094 14.4572C115.355 14.5095 115.59 14.6227 115.8 14.797C116.026 14.9712 116.192 15.189 116.296 15.4503L118.831 21.6439C119.04 22.184 119.423 22.6108 119.981 22.9244Z" fill="#2A0917"/>
<path d="M107.485 19.9713L107.72 20.0758C106.344 22.2013 104.558 23.2641 102.363 23.2641C100.464 23.2641 98.8433 22.6108 97.5018 21.3041C96.1777 19.98 95.5156 18.3859 95.5156 16.5217C95.5156 14.6575 96.1777 13.0721 97.5018 11.7654C98.8433 10.4413 100.464 9.7793 102.363 9.7793C104.053 9.7793 105.542 10.3281 106.831 11.4257L105.551 12.6278C105.168 11.8264 104.697 11.1992 104.14 10.7462C103.582 10.2758 102.99 10.0406 102.363 10.0406C101.248 10.0406 100.298 10.6765 99.514 11.9484C98.7474 13.2028 98.3642 14.7272 98.3642 16.5217C98.3642 18.2813 98.7474 19.7448 99.514 20.9121C100.281 22.062 101.23 22.6805 102.363 22.7676C104.471 22.9418 106.178 22.0097 107.485 19.9713Z" fill="#2A0917"/>
<path d="M94.6473 19.9713L94.8825 20.0758C93.5061 22.2013 91.7204 23.2641 89.5252 23.2641C87.6261 23.2641 86.0059 22.6108 84.6644 21.3041C83.3403 19.98 82.6782 18.3859 82.6782 16.5217C82.6782 14.6575 83.3403 13.0721 84.6644 11.7654C86.0059 10.4413 87.6261 9.7793 89.5252 9.7793C90.1698 9.7793 90.7883 9.90125 91.3806 10.1452C91.973 10.3891 92.4782 10.7375 92.8964 11.1905C93.3319 11.6435 93.6194 12.201 93.7588 12.863C93.9156 13.5077 93.8894 14.2394 93.6804 15.0582C93.541 15.5286 93.2884 15.9729 92.9225 16.391C92.574 16.7917 92.1472 17.1315 91.642 17.4102C91.1367 17.6716 90.6228 17.9068 90.1001 18.1158C89.5948 18.3249 89.046 18.4991 88.4537 18.6385C87.8788 18.7779 87.3996 18.8824 87.0164 18.9521C86.6331 19.0218 86.2585 19.0741 85.8926 19.1089C86.2236 20.1717 86.7115 21.0428 87.3561 21.7222C88.0007 22.3843 88.7237 22.7327 89.5252 22.7676C91.6332 22.9418 93.3406 22.0097 94.6473 19.9713ZM85.5268 16.5217C85.5268 17.3405 85.6313 18.1333 85.8404 18.8998C86.1888 18.8301 86.546 18.7517 86.9118 18.6646C87.2777 18.5601 87.722 18.3946 88.2446 18.1681C88.7847 17.9242 89.2638 17.6454 89.682 17.3318C90.1175 17.0182 90.5182 16.6088 90.8841 16.1036C91.25 15.5809 91.5026 15.006 91.642 14.3788C91.7639 13.9606 91.79 13.5077 91.7204 13.0198C91.6507 12.5146 91.5287 12.0442 91.3545 11.6086C91.1977 11.1731 90.9364 10.8159 90.5705 10.5372C90.2046 10.241 89.7778 10.0929 89.29 10.0929C88.6105 10.0929 88.0094 10.3194 87.4868 10.7724C86.9815 11.2253 86.5895 11.8003 86.3108 12.4972C86.0494 13.1766 85.8491 13.8648 85.7097 14.5617C85.5877 15.2412 85.5268 15.8945 85.5268 16.5217Z" fill="#2A0917"/>
<path d="M81.7802 22.9244H77.625C78.0606 22.5934 78.2783 22.1666 78.2783 21.6439V17.0444C78.2783 15.4067 78.1999 14.0914 78.0431 13.0983C77.8863 12.1052 77.6163 11.3474 77.233 10.8247C76.8497 10.302 76.327 10.0407 75.665 10.0407C75.3862 10.0407 75.0901 10.1104 74.7765 10.2498C74.4629 10.3717 74.1406 10.5895 73.8095 10.9031C73.4785 11.1993 73.1823 11.6523 72.921 12.262C72.6771 12.8718 72.5203 13.5861 72.4506 14.405V21.6439C72.4506 22.1666 72.6684 22.5934 73.1039 22.9244H68.9487C69.3843 22.5934 69.6021 22.1666 69.6021 21.6439V5.91164C69.6021 5.37155 69.3843 4.9447 68.9487 4.6311H72.4506V11.661C73.4262 10.424 74.4977 9.8055 75.665 9.8055C77.4421 9.8055 78.7923 10.4501 79.7157 11.7394C80.6565 13.0112 81.1269 14.6924 81.1269 16.7831V21.6439C81.1269 22.1666 81.3446 22.5934 81.7802 22.9244Z" fill="#2A0917"/>
<path d="M63.1968 4.86634C62.2212 4.72697 61.2717 5.01443 60.3483 5.72874C59.4249 6.44306 58.6322 7.47097 57.9702 8.81248C57.3081 10.154 56.8726 11.6523 56.6635 13.3074C56.3325 15.7988 56.6548 17.933 57.6304 19.7101C58.6235 21.4697 59.9824 22.4715 61.7072 22.7154C62.9965 22.8896 64.2422 22.5847 65.4443 21.8007C66.6639 21.0167 67.5263 20.0585 68.0315 18.9261L68.2667 19.0306C67.744 20.2153 66.9078 21.2519 65.7579 22.1405C64.6255 23.029 63.3711 23.4733 61.9947 23.4733C60.4964 23.4733 59.1113 23.0551 57.8395 22.2189C56.5851 21.3652 55.592 20.2153 54.8603 18.7693C54.1286 17.3058 53.7627 15.7204 53.7627 14.013C53.7627 12.2882 54.1286 10.7028 54.8603 9.25674C55.592 7.79328 56.5851 6.64341 57.8395 5.80714C59.1113 4.95346 60.4964 4.52661 61.9947 4.52661C63.1271 4.52661 64.1986 4.77923 65.2091 5.28448C66.237 5.78972 67.1255 6.48661 67.8747 7.37514L65.8102 9.46581C65.8102 8.78634 65.7143 8.1243 65.5227 7.47968C65.3485 6.81763 65.0523 6.23399 64.6342 5.72874C64.2335 5.2235 63.7543 4.93603 63.1968 4.86634Z" fill="#2A0917"/>
<defs>
<clipPath id="clip0_1_2152">
<rect width="266.933" height="28" fill="white"/>
</clipPath>
</defs>
</svg>
