<svg width="40" height="40" viewBox="0 0 40 40" fill="none" xmlns="http://www.w3.org/2000/svg">
<path fill-rule="evenodd" clip-rule="evenodd" d="M17.3431 37.3405C7.77797 37.3405 0.00292969 29.5646 0.00292969 20.0003C0.00292969 10.4361 7.77797 2.66016 17.3431 2.66016C22.158 2.66016 26.6471 4.57946 29.9663 8.09235C30.0381 8.16486 30.0818 8.26062 30.0894 8.36244C30.097 8.46425 30.0681 8.56545 30.0078 8.64784L31.0256 9.97843C31.2193 9.87878 31.4722 9.9 31.6253 10.1427C33.6425 13.0373 34.6833 16.4542 34.6833 19.9994C34.6833 29.5646 26.9083 37.3405 17.3431 37.3405ZM17.3431 33.7612C9.76279 33.7612 3.58133 27.5798 3.58133 20.0003C3.58133 12.4209 9.76279 6.23763 17.3431 6.23763C20.9538 6.23763 24.3698 7.63651 26.9397 10.1408C26.9827 10.1782 27.0179 10.2237 27.0432 10.2748C27.0686 10.3258 27.0836 10.3814 27.0874 10.4383C27.0911 10.4951 27.0836 10.5522 27.0652 10.6062C27.0469 10.6601 27.018 10.7099 26.9803 10.7526L28.2684 12.3517C28.4649 12.2364 28.7372 12.2475 28.8922 12.4837C34.7405 21.3845 28.3939 33.7612 17.3431 33.7612Z" fill="#545454"/>
<path fill-rule="evenodd" clip-rule="evenodd" d="M17.7992 28.9141C17.7076 28.9126 17.6184 28.8841 17.543 28.832C17.4676 28.78 17.4094 28.7067 17.3756 28.6215C17.3433 28.557 14.5456 21.3337 10.2188 18.6006C9.37268 18.0801 8.72215 17.5274 8.98236 16.2909C9.24257 15.0877 10.0555 14.4039 11.5199 14.0791C14.122 13.5255 16.9207 17.5597 17.9607 19.2188C21.6055 13.9167 28.8924 5.58803 39.4984 4.61177C40.0096 4.55179 40.1997 5.31028 39.7263 5.52251C39.5639 5.5871 24.4032 12.5169 18.2541 28.6538C18.2081 28.7336 18.1418 28.7998 18.0618 28.8455C17.9819 28.8912 17.8913 28.9149 17.7992 28.9141Z" fill="#00B42C"/>
</svg>
