<svg width="48" height="48" viewBox="0 0 48 48" fill="none" xmlns="http://www.w3.org/2000/svg">
<g clip-path="url(#clip0_307_176)">
<path d="M11.9355 15.535L9.47988 11.1982C8.27875 9.07689 5.8587 7.95771 3.46443 8.41642C2.34505 8.63083 1.70249 9.78723 2.10609 10.8347C3.04443 13.2693 5.47939 18.6817 5.47939 18.6817C6.55001 22.228 6.44201 26.0504 5.03923 29.4788C4.11655 31.7339 3.85986 34.1965 4.26552 36.5679" stroke="#6C8B57" stroke-width="2" stroke-miterlimit="10" stroke-linecap="round" stroke-linejoin="round"/>
<path d="M26.1048 14.9321L30.3853 6.01025C31.2745 4.15691 30.5502 1.93195 28.7402 0.957232L28.6776 0.923482C27.8162 0.459608 26.7428 0.750138 26.2338 1.58564C24.9925 3.62272 22.67 7.41321 20.511 10.8236" stroke="#6C8B57" stroke-width="2" stroke-miterlimit="10" stroke-linecap="round" stroke-linejoin="round"/>
<path d="M30.4908 12.9661L27.1907 16.3682" stroke="#6C8B57" stroke-width="2" stroke-miterlimit="10" stroke-linecap="round" stroke-linejoin="round"/>
<path d="M32.3005 20.5552L39.2763 12.3732C40.5784 10.8459 40.4882 8.57434 39.069 7.15506L38.8973 6.9834C38.1709 6.25694 36.9903 6.26594 36.275 7.00337L32.8608 10.5232" stroke="#6C8B57" stroke-width="2" stroke-miterlimit="10" stroke-linecap="round" stroke-linejoin="round"/>
<path d="M33.7661 28.3887L43.6437 22.2803C45.385 21.2035 45.9784 18.9518 44.994 17.1567C44.4893 16.2366 43.3186 15.9239 42.4225 16.4701L34.0797 21.5543" stroke="#6C8B57" stroke-width="2" stroke-miterlimit="10" stroke-linecap="round" stroke-linejoin="round"/>
<path d="M5.27393 39.8114C5.89474 41.1511 6.75583 42.4069 7.86086 43.512C12.9074 48.5585 21.0894 48.5585 26.136 43.512L32.2652 37.3827C32.6192 37.0287 33.0485 36.7594 33.5212 36.5946L43.4326 33.1413C45.0238 32.5868 46.0693 31.0618 46.0126 29.3778L46.0101 29.3026C45.9726 28.187 44.9586 27.3614 43.8584 27.5508L34.2746 29.2012" stroke="#6C8B57" stroke-width="2" stroke-miterlimit="10" stroke-linecap="round" stroke-linejoin="round"/>
<path d="M13.9099 12.867C11.8676 14.7515 11.0425 17.5614 11.6262 20.1823C12.1052 22.3332 11.7855 24.5854 10.8025 26.5575C10.8025 26.5575 8.83224 29.4872 8.03818 30.8207C7.69655 31.3944 7.95736 32.1368 8.59233 32.3748C9.25457 32.6229 9.97797 32.6572 10.6607 32.4727C11.3434 32.2883 11.9511 31.8943 12.3983 31.3464L14.3269 28.9831C15.1751 27.9438 16.8251 28.1388 17.3931 29.3541L17.4011 29.3714C18.4861 31.7215 20.4371 36.5915 21.2591 38.6615C21.4739 39.2024 22.0742 39.4802 22.6257 39.2945L22.6658 39.281C23.8247 38.8908 24.4724 37.6588 24.1367 36.4829L21.6049 27.6146L27.6896 36.4909C28.0352 36.995 28.7265 37.1186 29.2252 36.7654L29.3432 36.6819C30.3175 35.992 30.598 34.669 29.9875 33.643L24.9838 25.2334L32.2429 31.556C32.7137 31.9661 33.4314 31.9001 33.8194 31.4111C34.5766 30.4571 34.4543 29.0774 33.5411 28.2714L27.3033 22.7663L34.1953 25.2024C34.8213 25.4238 35.4987 25.0413 35.6325 24.3908L35.6415 24.3471C35.7398 23.8687 35.6827 23.3715 35.4784 22.9279C35.274 22.4844 34.9332 22.1178 34.5057 21.8817L28.6441 18.6449L25.4028 14.0677C23.432 11.2844 19.9489 10.2098 16.8587 11.1658" stroke="#6C8B57" stroke-width="2" stroke-miterlimit="10" stroke-linecap="round" stroke-linejoin="round"/>
</g>
<defs>
<clipPath id="clip0_307_176">
<rect width="48" height="48" fill="white"/>
</clipPath>
</defs>
</svg>
