<svg width="308" height="271" viewBox="0 0 308 271" fill="none" xmlns="http://www.w3.org/2000/svg">
<path d="M289.369 248.752C250.706 256.748 209.61 252.568 171.069 237.655L289.244 237.015C289.39 240.911 289.407 244.854 289.346 248.752L289.369 248.752ZM287.463 217.39L132.031 218.281C121.775 211.981 111.915 204.852 102.487 196.962C100.295 195.127 98.15 193.236 95.9958 191.356L281.849 190.705C284.371 199.551 286.239 208.469 287.473 217.379L287.463 217.39ZM275.44 171.174L76.5919 171.885C68.8454 163.215 61.8172 154.178 55.5456 144.73L262.602 143.612C267.495 152.603 271.793 161.813 275.44 171.174ZM250.481 124.1L43.7845 125.171C39.1626 116.484 35.1123 107.579 31.6605 98.4772L229.251 97.4111C237.029 105.934 244.13 114.856 250.481 124.1ZM25.3143 78.9796C22.8779 70.0312 21.0421 60.9661 19.8205 51.7957L172.196 50.9788C183.576 57.7933 194.547 65.5617 205.078 74.3749C206.477 75.5455 207.875 76.7161 209.294 77.9999L25.3182 79.0023L25.3143 78.9796ZM18.2913 32.2263C18.174 28.896 18.2191 25.5081 18.2548 22.1316C55.3021 14.0986 94.6918 17.7224 132.047 31.5655L18.2913 32.2263Z" fill="#66785F"/>
</svg>
