<svg width="400" height="261" viewBox="0 0 400 261" fill="none" xmlns="http://www.w3.org/2000/svg">
<path d="M267.227 0C243.47 0 220.115 6.15923 199.769 18.0829C179.835 6.52443 156.49 0 132.773 0C59.5391 0 0 58.3745 0 130.232C0 202.089 59.5391 260.504 132.773 260.504C156.44 260.504 179.704 254.384 200 242.549C220.296 254.384 243.56 260.504 267.227 260.504C340.461 260.504 400 202.089 400 130.232C400 58.3745 340.471 0 267.227 0ZM200 229.599C179.02 215.8 163.313 196.553 154.297 174.531L206.048 225.305C204.086 226.776 202.042 228.207 199.99 229.589L200 229.599ZM215.476 217.448L147.384 150.684C146.197 143.982 145.613 137.151 145.613 130.232C145.613 128.623 145.663 127.014 145.704 125.406L226.907 205.387C223.405 209.67 219.582 213.698 215.486 217.448H215.476ZM234.273 195.566L147.384 109.998C148.521 103.522 150.161 97.2246 152.344 91.1052L243.017 180.068C240.471 185.428 237.553 190.611 234.273 195.566ZM247.887 167.789L157.396 78.9644C159.901 73.8317 162.769 68.8668 166 64.0895L252.526 148.986C251.48 155.422 249.93 161.709 247.887 167.789ZM173.375 54.3077C176.967 50.024 180.882 45.9573 185.118 42.1177L251.841 107.589C253.25 114.962 253.985 122.504 253.985 130.232C253.985 131.258 253.985 132.286 253.934 133.361L173.365 54.3176L173.375 54.3077ZM194.627 34.389C196.307 33.1354 198.088 31.9312 199.859 30.7271C220.155 43.8154 235.409 62.1253 244.466 83.2482L194.627 34.389ZM11.1492 130.232C11.1492 64.2672 65.5465 10.8971 132.773 10.8971C152.888 10.8971 172.188 15.4968 189.717 24.7455C155.032 49.1258 134.917 88.2033 134.917 130.232C134.917 172.261 155.494 211.338 189.717 235.719C172.147 244.967 152.436 249.567 132.773 249.567C65.5465 249.616 11.1492 196.247 11.1492 130.232ZM267.227 249.606C247.112 249.606 227.813 245.006 210.284 235.759C244.969 211.378 265.083 172.301 265.083 130.271C265.083 88.2427 244.969 49.1258 210.284 24.785C227.852 15.5362 247.112 10.9366 267.227 10.9366C334.454 10.9366 388.851 64.3066 388.851 130.271C388.902 196.236 334.504 249.606 267.227 249.606Z" fill="#4B5945"/>
</svg>
