<svg width="192" height="375" viewBox="0 0 192 375" fill="none" xmlns="http://www.w3.org/2000/svg">
<path d="M96 363.983C65.0538 339.465 41.885 305.266 28.5863 266.139L104.92 356.354C102.026 358.967 99.013 361.51 95.9852 363.965L96 363.983ZM118.827 342.394L18.3896 223.767C16.6382 211.859 15.7774 199.722 15.7774 187.428C15.7774 184.57 15.8516 181.711 15.9109 178.852L135.688 320.962C130.523 328.574 124.883 335.729 118.842 342.394H118.827ZM146.553 303.512L18.3896 151.475C20.0668 139.971 22.4861 128.781 25.7069 117.908L159.451 275.977C155.696 285.501 151.391 294.708 146.553 303.512ZM166.635 254.16L33.1577 96.3361C36.8534 87.2163 41.0835 78.3947 45.8479 69.9063L173.477 220.75C171.933 232.185 169.647 243.357 166.635 254.16ZM56.7273 52.5262C62.026 44.9147 67.7996 37.6891 74.0482 30.8668L172.468 147.196C174.545 160.297 175.629 173.696 175.629 187.428C175.629 189.252 175.629 191.076 175.555 192.988L56.7124 52.5437L56.7273 52.5262ZM88.0742 17.1346C90.5529 14.9073 93.18 12.7676 95.7922 10.628C125.729 33.8834 148.23 66.4163 161.588 103.948L88.0742 17.1346Z" fill="#B2C9AD"/>
</svg>
