<svg width="100" height="100" viewBox="0 0 100 100" fill="none" xmlns="http://www.w3.org/2000/svg">
<g clip-path="url(#clip0_474_28)">
<path d="M39.0625 0H7.8125C3.50469 0 0 3.50469 0 7.8125V51.5625C0 55.8703 3.50469 59.375 7.8125 59.375H39.0625C43.3703 59.375 46.875 55.8703 46.875 51.5625V7.8125C46.875 3.50469 43.3703 0 39.0625 0ZM43.75 51.5625C43.75 54.1471 41.6473 56.25 39.0625 56.25H7.8125C5.22773 56.25 3.125 54.1471 3.125 51.5625V7.8125C3.125 5.22793 5.22773 3.125 7.8125 3.125H39.0625C41.6473 3.125 43.75 5.22793 43.75 7.8125V51.5625ZM39.0625 65.625H7.8125C3.50469 65.625 0 69.1297 0 73.4375V92.1875C0 96.4953 3.50469 100 7.8125 100H39.0625C43.3703 100 46.875 96.4953 46.875 92.1875V73.4375C46.875 69.1297 43.3703 65.625 39.0625 65.625ZM43.75 92.1875C43.75 94.7721 41.6473 96.875 39.0625 96.875H7.8125C5.22773 96.875 3.125 94.7721 3.125 92.1875V73.4375C3.125 70.8529 5.22773 68.75 7.8125 68.75H39.0625C41.6473 68.75 43.75 70.8529 43.75 73.4375V92.1875ZM100 92.1875V48.4375C100 44.1297 96.4953 40.625 92.1875 40.625H60.9375C56.6297 40.625 53.125 44.1297 53.125 48.4375V92.1875C53.125 96.4953 56.6297 100 60.9375 100H92.1875C96.4953 100 100 96.4953 100 92.1875ZM96.875 92.1875C96.875 94.7721 94.7723 96.875 92.1875 96.875H60.9375C58.3527 96.875 56.25 94.7721 56.25 92.1875V48.4375C56.25 45.8529 58.3527 43.75 60.9375 43.75H92.1875C94.7723 43.75 96.875 45.8529 96.875 48.4375V92.1875ZM100 26.5625V7.8125C100 3.50469 96.4953 0 92.1875 0H60.9375C56.6297 0 53.125 3.50469 53.125 7.8125V26.5625C53.125 30.8703 56.6297 34.375 60.9375 34.375H92.1875C96.4953 34.375 100 30.8703 100 26.5625ZM96.875 26.5625C96.875 29.1471 94.7723 31.25 92.1875 31.25H60.9375C58.3527 31.25 56.25 29.1471 56.25 26.5625V7.8125C56.25 5.22793 58.3527 3.125 60.9375 3.125H92.1875C94.7723 3.125 96.875 5.22793 96.875 7.8125V26.5625Z" fill="black"/>
</g>
<defs>
<clipPath id="clip0_474_28">
<rect width="100" height="100" fill="white"/>
</clipPath>
</defs>
</svg>
