<svg width="262" height="401" viewBox="0 0 262 401" fill="none" xmlns="http://www.w3.org/2000/svg">
<path d="M261.252 267.479C261.252 243.722 255.093 220.367 243.169 200.02C254.728 180.087 261.252 156.742 261.252 133.025C261.252 59.791 202.877 0.251829 131.02 0.251825C59.1626 0.251822 0.748349 59.791 0.748346 133.025C0.748345 156.692 6.86831 179.956 18.7026 200.252C6.86831 220.548 0.748341 243.812 0.74834 267.479C0.748337 340.713 59.1625 400.252 131.02 400.252C202.877 400.252 261.252 340.723 261.252 267.479ZM31.6534 200.252C45.4517 179.272 64.6992 163.564 86.721 154.549L35.947 206.3C34.4761 204.337 33.0452 202.294 31.6627 200.242L31.6534 200.252ZM43.804 215.727L110.568 147.636C117.27 146.449 124.101 145.865 131.02 145.865C132.629 145.865 134.238 145.915 135.846 145.955L55.8653 227.159C51.5819 223.657 47.5543 219.834 43.804 215.738L43.804 215.727ZM65.6863 234.525L151.254 147.636C157.73 148.772 164.027 150.413 170.147 152.596L81.1835 243.269C75.8236 240.723 70.6414 237.805 65.6863 234.525ZM93.4625 248.139L182.288 157.648C187.42 160.153 192.385 163.021 197.162 166.252L112.266 252.778C105.83 251.732 99.5425 250.182 93.4625 248.139ZM206.944 173.627C211.228 177.219 215.295 181.134 219.134 185.37L153.663 252.093C146.29 253.502 138.748 254.237 131.02 254.237C129.993 254.237 128.966 254.237 127.891 254.186L206.934 173.616L206.944 173.627ZM226.863 194.879C228.117 196.559 229.321 198.34 230.525 200.111C217.437 220.407 199.127 235.661 178.004 244.718L226.863 194.879ZM131.02 11.401C196.985 11.401 250.355 65.7983 250.355 133.025C250.355 153.139 245.755 172.439 236.506 189.968C212.126 155.283 173.049 135.169 131.02 135.169C88.9911 135.169 49.9137 155.746 25.5334 189.968C16.2846 172.399 11.6848 152.687 11.6848 133.025C11.6355 65.7983 65.0053 11.401 131.02 11.401ZM11.6458 267.479C11.6458 247.364 16.2455 228.065 25.4934 210.536C49.8737 245.221 88.9511 265.335 130.981 265.335C173.009 265.335 212.126 245.221 236.467 210.536C245.716 228.104 250.315 247.364 250.315 267.479C250.315 334.705 196.945 389.103 130.981 389.103C65.0155 389.154 11.6458 334.756 11.6458 267.479Z" fill="#91AC8F"/>
</svg>
