<svg width="400" height="247" viewBox="0 0 400 247" fill="none" xmlns="http://www.w3.org/2000/svg">
<path d="M267.059 0.5C243.361 0.5 220.064 6.31631 199.769 17.5761C179.885 6.66118 156.599 0.5 132.941 0.5C59.8903 0.5 0.5 55.6244 0.5 123.481C0.5 191.338 59.8903 246.5 132.941 246.5C156.549 246.5 179.755 240.721 200 229.545C220.245 240.721 243.451 246.5 267.059 246.5C340.11 246.5 399.5 191.338 399.5 123.481C399.5 55.6244 340.12 0.5 267.059 0.5ZM200 217.316C179.072 204.285 163.404 186.109 154.411 165.314L206.032 213.261C204.075 214.65 202.038 216.002 199.99 217.307L200 217.316ZM215.437 205.842L147.515 142.794C146.331 136.466 145.749 130.015 145.749 123.481C145.749 121.962 145.799 120.443 145.839 118.923L226.84 194.451C223.347 198.497 219.532 202.3 215.447 205.842H215.437ZM234.187 185.177L147.515 104.373C148.65 98.2587 150.286 92.3119 152.464 86.5329L242.909 170.543C240.37 175.604 237.459 180.498 234.187 185.177ZM247.767 158.948L157.502 75.068C160.002 70.2211 162.862 65.5327 166.084 61.0213L252.394 141.191C251.35 147.269 249.805 153.206 247.767 158.948ZM173.442 51.7842C177.025 47.7389 180.929 43.8986 185.155 40.2727L251.712 102.099C253.117 109.062 253.85 116.183 253.85 123.481C253.85 124.451 253.85 125.42 253.8 126.436L173.431 51.7935L173.442 51.7842ZM194.64 32.9744C196.316 31.7906 198.093 30.6535 199.859 29.5163C220.105 41.8759 235.321 59.1664 244.355 79.1134L194.64 32.9744ZM11.6213 123.481C11.6213 61.1891 65.8825 10.7904 132.941 10.7904C153.006 10.7904 172.257 15.134 189.742 23.8678C155.144 46.8906 135.079 83.7925 135.079 123.481C135.079 163.17 155.605 200.072 189.742 223.095C172.217 231.829 152.554 236.172 132.941 236.172C65.8825 236.219 11.6213 185.82 11.6213 123.481ZM267.059 236.21C246.994 236.21 227.743 231.866 210.258 223.132C244.856 200.109 264.921 163.207 264.921 123.519C264.921 83.8298 244.856 46.8906 210.258 23.905C227.783 15.1713 246.994 10.8277 267.059 10.8277C334.118 10.8277 388.379 61.2263 388.379 123.519C388.429 185.811 334.168 236.21 267.059 236.21Z" fill="#DBBFC5"/>
</svg>
