<svg width="246" height="399" viewBox="0 0 246 399" fill="none" xmlns="http://www.w3.org/2000/svg">
<path d="M-1.16517e-05 132.441C-1.06158e-05 156.139 5.8163 179.436 17.0761 199.731C6.16118 219.615 -6.8233e-06 242.901 -5.78919e-06 266.559C-2.59603e-06 339.61 55.1244 399 122.981 399C190.838 399 246 339.61 246 266.559C246 242.951 240.221 219.745 229.045 199.5C240.221 179.255 246 156.049 246 132.441C246 59.3902 190.838 -8.34181e-06 122.981 -5.37569e-06C55.1244 -2.40957e-06 -1.48453e-05 59.3802 -1.16517e-05 132.441ZM216.816 199.5C203.785 220.428 185.609 236.096 164.814 245.089L212.761 193.468C214.15 195.425 215.502 197.462 216.807 199.51L216.816 199.5ZM205.342 184.063L142.294 251.985C135.966 253.169 129.515 253.751 122.981 253.751C121.462 253.751 119.943 253.701 118.423 253.661L193.951 172.66C197.997 176.153 201.8 179.968 205.342 184.053L205.342 184.063ZM184.677 165.313L103.873 251.985C97.7587 250.85 91.8119 249.214 86.0329 247.036L170.043 156.591C175.104 159.13 179.998 162.041 184.677 165.313ZM158.448 151.733L74.568 241.998C69.7211 239.498 65.0327 236.638 60.5213 233.416L140.691 147.106C146.769 148.149 152.706 149.695 158.448 151.733ZM51.2842 226.058C47.2388 222.475 43.3986 218.571 39.7727 214.345L101.599 147.788C108.562 146.383 115.683 145.65 122.981 145.65C123.951 145.65 124.92 145.65 125.936 145.7L51.2935 226.069L51.2842 226.058ZM32.4744 204.86C31.2906 203.184 30.1534 201.407 29.0163 199.641C41.3759 179.395 58.6664 164.179 78.6133 155.145L32.4744 204.86ZM122.981 387.879C60.6891 387.879 10.2904 333.617 10.2904 266.559C10.2904 246.494 14.634 227.243 23.3678 209.758C46.3906 244.356 83.2925 264.421 122.981 264.421C162.67 264.421 199.572 243.895 222.595 209.758C231.329 227.283 235.672 246.946 235.672 266.559C235.719 333.617 185.32 387.879 122.981 387.879ZM235.71 132.441C235.71 152.506 231.366 171.757 222.632 189.242C199.609 154.644 162.707 134.579 123.019 134.579C83.3298 134.579 46.3906 154.644 23.405 189.242C14.6713 171.717 10.3277 152.506 10.3277 132.441C10.3277 65.3825 60.7263 11.1212 123.019 11.1212C185.311 11.071 235.71 65.3323 235.71 132.441Z" fill="#DBBFC5"/>
</svg>
