<svg width="100" height="100" viewBox="0 0 100 100" fill="none" xmlns="http://www.w3.org/2000/svg">
<g clip-path="url(#clip0_478_29)">
<path d="M99.9992 36.7136C99.9982 36.6476 99.993 36.5818 99.9836 36.5165C99.982 36.5065 99.982 36.4966 99.9805 36.4866C99.9793 36.4784 99.9768 36.4706 99.9754 36.4624C99.9632 36.3903 99.946 36.3192 99.924 36.2495L99.923 36.2454C99.9219 36.2419 99.9199 36.2388 99.9188 36.235C99.8962 36.1677 99.869 36.1019 99.8375 36.0382C99.834 36.0308 99.8314 36.0229 99.8275 36.0159L99.8201 36.0026C99.7875 35.9405 99.7508 35.8807 99.7102 35.8235C99.7059 35.8177 99.7023 35.8112 99.6982 35.8052C99.692 35.7966 99.6846 35.789 99.6783 35.7806C99.6377 35.7265 99.5938 35.675 99.5467 35.6265C99.5439 35.6237 99.5418 35.6208 99.5391 35.6183L99.5363 35.6153C99.5344 35.6134 99.5322 35.6118 99.5305 35.6099C99.4795 35.5602 99.4253 35.514 99.3682 35.4716C99.3615 35.4665 99.3557 35.4602 99.349 35.4554L99.3488 35.4552L87.7131 27.0073C87.5453 26.8855 87.3551 26.7978 87.1535 26.7495C86.9518 26.7011 86.7426 26.693 86.5378 26.7255C86.333 26.758 86.1366 26.8306 85.9598 26.939C85.7831 27.0475 85.6294 27.1897 85.5076 27.3575C85.2616 27.6964 85.1603 28.1191 85.226 28.5327C85.2917 28.9462 85.5189 29.3168 85.8578 29.5628L93.5588 35.154H64.376L27.1594 23.1749C27.0576 23.1422 26.9529 23.1198 26.8467 23.1081C26.117 23.028 25.4063 23.4679 25.1723 24.1942L21.6445 35.1542H6.44141L50.0002 3.53017L81.9062 26.6942C82.2452 26.9401 82.6679 27.0414 83.0815 26.9757C83.4951 26.91 83.8656 26.6828 84.1117 26.344C84.2336 26.1762 84.3212 25.9861 84.3695 25.7844C84.4179 25.5828 84.426 25.3736 84.3935 25.1687C84.361 24.9639 84.2884 24.7675 84.18 24.5908C84.0716 24.414 83.9294 24.2604 83.7615 24.1386L50.9277 0.301065C50.658 0.105227 50.3333 -0.000244141 50 -0.000244141C49.6667 -0.000244141 49.342 0.105227 49.0723 0.301065L0.651367 35.4556L0.651172 35.4558C0.644531 35.4606 0.638672 35.4669 0.632031 35.472C0.574932 35.5144 0.520712 35.5606 0.469727 35.6102L0.463867 35.6157L0.460937 35.6186L0.453906 35.6265C0.406624 35.6751 0.362522 35.7267 0.321875 35.7809C0.315625 35.7893 0.308203 35.797 0.302148 35.8054C0.297852 35.8112 0.294336 35.8177 0.290234 35.8237C0.24961 35.8809 0.212873 35.9407 0.180273 36.0028L0.172852 36.0161C0.169141 36.0235 0.166602 36.0311 0.162891 36.0384C0.131836 36.1017 0.104102 36.1673 0.0816406 36.235C0.0804688 36.2386 0.0785156 36.2417 0.0771484 36.2454C0.0767578 36.2466 0.0767578 36.2481 0.0761719 36.2495C0.0541681 36.3191 0.0370689 36.3902 0.025 36.4622C0.0234375 36.4704 0.0208984 36.4784 0.0197266 36.4866C0.0181641 36.4966 0.0179688 36.5063 0.0167969 36.5165C0.00761874 36.5818 0.00240087 36.6476 0.00117188 36.7136C0.00117188 36.7192 0.000390625 36.7247 0.000390625 36.7304L0 36.7331V98.421C0 98.4296 0.000976563 98.438 0.00117188 98.4468C0.0015625 98.4755 0.00351562 98.5038 0.00566406 98.5325C0.00742187 98.5565 0.00878906 98.5806 0.0115234 98.6044C0.0146484 98.6309 0.0193359 98.6573 0.0238281 98.6837C0.028125 98.7087 0.0318359 98.7339 0.0371094 98.7583C0.0425781 98.7831 0.0496094 98.8073 0.0560547 98.8319C0.0626953 98.8571 0.0693359 98.8827 0.0773437 98.9077C0.0849609 98.9311 0.0941406 98.954 0.102734 98.9772C0.112305 99.0022 0.121289 99.0274 0.131836 99.0518C0.141602 99.0739 0.152734 99.0954 0.163477 99.1173C0.175781 99.1419 0.1875 99.1665 0.200781 99.1905C0.212109 99.2108 0.224805 99.2304 0.236914 99.2501C0.252148 99.2747 0.267188 99.2991 0.283594 99.3227C0.296289 99.3409 0.310156 99.3583 0.323633 99.3763C0.341992 99.4005 0.360547 99.4243 0.380273 99.4474C0.385547 99.4534 0.390039 99.4602 0.395117 99.4661C0.403906 99.4761 0.413867 99.4845 0.422656 99.494C0.461313 99.5354 0.501919 99.5749 0.544336 99.6124C0.567773 99.6327 0.591992 99.6522 0.616406 99.6712C0.635156 99.6856 0.653906 99.7003 0.673242 99.7138C0.698047 99.7311 0.723828 99.7474 0.749805 99.7634C0.769336 99.7757 0.788672 99.788 0.808789 99.7991C0.837695 99.8153 0.867383 99.8296 0.897266 99.844C0.915234 99.8526 0.932617 99.8622 0.950977 99.87C0.986914 99.8856 1.02422 99.8991 1.06152 99.9122C1.07441 99.9167 1.08672 99.9222 1.09961 99.9261C1.14746 99.9413 1.19609 99.954 1.24551 99.9647C1.24844 99.9653 1.25137 99.9665 1.25449 99.9671C1.36128 99.9887 1.46995 99.9997 1.57891 99.9999H98.4211C98.5324 99.9999 98.6408 99.9882 98.7455 99.9663C98.7484 99.9657 98.7514 99.9645 98.7545 99.964C98.8039 99.9532 98.8527 99.9405 98.9004 99.9253C98.9133 99.9212 98.9256 99.9157 98.9385 99.9114C98.976 99.8983 99.0131 99.885 99.0492 99.8692C99.0674 99.8614 99.0848 99.852 99.1027 99.8434C99.1326 99.8292 99.1625 99.8147 99.1912 99.7985C99.2111 99.7874 99.2307 99.7747 99.2502 99.7628C99.2762 99.7468 99.3018 99.7306 99.3268 99.7132C99.3461 99.6997 99.3648 99.6852 99.3836 99.6706C99.4533 99.6174 99.5181 99.5581 99.5773 99.4935C99.5863 99.4837 99.5963 99.4753 99.6049 99.4655C99.6102 99.4595 99.6146 99.4528 99.6199 99.4468C99.6396 99.4235 99.6582 99.3999 99.6766 99.3757C99.69 99.3577 99.7039 99.3403 99.7166 99.3222C99.733 99.2985 99.7482 99.2741 99.7633 99.2495C99.7756 99.2298 99.7883 99.2099 99.7994 99.1899C99.8129 99.1659 99.8246 99.1411 99.8369 99.1165C99.8477 99.0948 99.8586 99.0733 99.8684 99.0515C99.8791 99.0268 99.8881 99.0017 99.8977 98.9765C99.9063 98.9536 99.9154 98.9306 99.9229 98.9073C99.9309 98.8825 99.9373 98.8569 99.9441 98.8315C99.9506 98.8071 99.9576 98.7827 99.9631 98.7579C99.9684 98.7335 99.9721 98.7085 99.9764 98.6833C99.9809 98.6567 99.9853 98.6304 99.9887 98.604C99.9914 98.5802 99.993 98.5561 99.9945 98.5321C99.9965 98.5034 99.9982 98.4751 99.9988 98.4464C99.999 98.4378 100 98.4294 100 98.4206V36.7407L100 36.7378V36.7304C100 36.7247 99.9992 36.7192 99.9992 36.7136ZM93.5588 38.312L87.6084 42.6319L74.1869 38.312H93.5588ZM24.298 37.2169L27.6945 26.6649L63.6439 38.2362L84.4422 44.9308L77.2023 50.1868L46.6836 40.3632C45.8537 40.0972 44.9641 40.5522 44.6967 41.3825C44.5684 41.7812 44.6037 42.2145 44.7949 42.5871C44.986 42.9597 45.3174 43.2411 45.716 43.3694L74.0367 52.4852L70.1674 55.2942L33.658 43.5429C33.2603 43.418 32.8293 43.4554 32.4591 43.647C32.0889 43.8386 31.8094 44.1688 31.6817 44.5656C31.554 44.9624 31.5884 45.3937 31.7773 45.7652C31.9663 46.1368 32.2945 46.4186 32.6904 46.5491L67.0012 57.5929L63.132 60.4016L58.384 58.8731C57.9853 58.7449 57.5521 58.7803 57.1795 58.9715C56.8069 59.1626 56.5255 59.4939 56.3971 59.8925C56.2688 60.2911 56.3042 60.7244 56.4953 61.097C56.6865 61.4696 57.0178 61.751 57.4164 61.8794L59.966 62.7001L50.0002 69.9352L20.6299 48.613L24.298 37.2169ZM20.6279 38.312L17.9408 46.6606L6.44141 38.312H20.6279ZM3.15781 39.8306L37.4146 64.7011L3.15781 94.9225V39.8306ZM5.75566 96.8421L40.0336 66.6022L49.0729 73.1647C49.0795 73.1696 49.0869 73.1727 49.0938 73.1776C49.1551 73.2206 49.218 73.2604 49.2838 73.2936C49.2857 73.2944 49.2873 73.2958 49.2891 73.2968L49.2914 73.2979C49.3578 73.3311 49.4266 73.3583 49.4965 73.3819C49.5189 73.3895 49.5418 73.3956 49.5646 73.4022C49.6139 73.4163 49.6637 73.4282 49.7139 73.4374C49.7379 73.4419 49.7615 73.4466 49.7855 73.4499C49.8539 73.4595 49.9227 73.4653 49.9916 73.4657C49.9941 73.4657 49.9967 73.4663 49.999 73.4663L50.0002 73.4661L50.0014 73.4663C50.0039 73.4663 50.0063 73.4657 50.0088 73.4657C50.0778 73.465 50.1466 73.4598 50.2148 73.4499C50.2391 73.4466 50.2629 73.4417 50.2869 73.4372C50.3371 73.428 50.3865 73.4163 50.4355 73.4022C50.4584 73.3958 50.4816 73.3895 50.5043 73.3817C50.574 73.3583 50.6426 73.3311 50.709 73.2979L50.7115 73.2968C50.7137 73.2958 50.7154 73.2942 50.7176 73.2933C50.783 73.2599 50.8457 73.2204 50.9068 73.1776C50.9135 73.1727 50.9211 73.1696 50.9279 73.1647L59.9668 66.6024L94.2447 96.8421H5.75566ZM96.8422 94.9224L62.5855 64.7015L78.4014 53.2192L78.4043 53.2171L96.8422 39.8308V94.9224Z" fill="black"/>
<path d="M35.3169 40.0134L41.0698 41.865C41.2305 41.9165 41.3936 41.9412 41.554 41.9412C41.9304 41.9412 42.2944 41.8067 42.5805 41.5621C42.8665 41.3174 43.0558 40.9786 43.1141 40.6067C43.1724 40.2348 43.096 39.8544 42.8986 39.5339C42.7011 39.2134 42.3957 38.9739 42.0374 38.8587L36.2845 37.0072C35.8858 36.879 35.4526 36.9144 35.08 37.1056C34.7074 37.2967 34.426 37.628 34.2975 38.0265C34.1693 38.4252 34.2046 38.8584 34.3958 39.231C34.5869 39.6036 34.9183 39.8851 35.3169 40.0134ZM53.3319 60.4857C53.7083 60.4857 54.0724 60.3513 54.3584 60.1066C54.6445 59.8619 54.8337 59.5231 54.892 59.1512C54.9504 58.7794 54.8739 58.3989 54.6765 58.0784C54.4791 57.7579 54.1737 57.5185 53.8153 57.4033L31.0309 50.0697C30.2014 49.8037 29.3114 50.2587 29.044 51.089C28.9159 51.4877 28.9513 51.9209 29.1425 52.2935C29.3337 52.6661 29.665 52.9475 30.0636 53.0759L52.8477 60.4095C53.0085 60.4611 53.1714 60.4857 53.3319 60.4857Z" fill="black"/>
</g>
<defs>
<clipPath id="clip0_478_29">
<rect width="100" height="100" fill="white"/>
</clipPath>
</defs>
</svg>
