<svg width="16" height="11" viewBox="0 0 16 11" fill="none" xmlns="http://www.w3.org/2000/svg">
<path d="M14.8571 5.85714C13.9524 4.45238 12.8185 3.40179 11.4554 2.70536C11.8185 3.3244 12 3.99405 12 4.71429C12 5.81548 11.6071 6.75893 10.8214 7.54464C10.0417 8.3244 9.10119 8.71429 8 8.71429C6.89881 8.71429 5.95536 8.3244 5.16964 7.54464C4.38988 6.75893 4 5.81548 4 4.71429C4 3.99405 4.18155 3.3244 4.54464 2.70536C3.18155 3.40179 2.04762 4.45238 1.14286 5.85714C1.93452 7.07738 2.9256 8.0506 4.11607 8.77679C5.3125 9.49702 6.60714 9.85714 8 9.85714C9.39286 9.85714 10.6845 9.49702 11.875 8.77679C13.0714 8.0506 14.0655 7.07738 14.8571 5.85714ZM8.30357 2.73214C8.38691 2.64881 8.42857 2.54762 8.42857 2.42857C8.42857 2.30952 8.38691 2.20833 8.30357 2.125C8.22024 2.04167 8.11905 2 8 2C7.25595 2 6.61607 2.26786 6.08036 2.80357C5.5506 3.33333 5.28571 3.97024 5.28571 4.71429C5.28571 4.83333 5.32738 4.93452 5.41071 5.01786C5.49405 5.10119 5.59524 5.14286 5.71429 5.14286C5.83333 5.14286 5.93452 5.10119 6.01786 5.01786C6.10119 4.93452 6.14286 4.83333 6.14286 4.71429C6.14286 4.20238 6.32441 3.76488 6.6875 3.40179C7.0506 3.03869 7.4881 2.85714 8 2.85714C8.11905 2.85714 8.22024 2.81548 8.30357 2.73214ZM15.8214 5.24107C15.9405 5.4494 16 5.65476 16 5.85714C16 6.05952 15.9405 6.26488 15.8214 6.47321C14.9881 7.84226 13.8661 8.94048 12.4554 9.76786C11.0506 10.5893 9.56548 11 8 11C6.43452 11 4.94643 10.5863 3.53571 9.75893C2.13095 8.93155 1.0119 7.83631 0.178571 6.47321C0.0595238 6.26488 0 6.05952 0 5.85714C0 5.65476 0.0595238 5.4494 0.178571 5.24107C1.0119 3.87798 2.13095 2.78274 3.53571 1.95536C4.94643 1.12798 6.43452 0.714285 8 0.714285C9.56548 0.714285 11.0506 1.12798 12.4554 1.95536C13.8661 2.78274 14.9881 3.87798 15.8214 5.24107Z" fill="white"/>
</svg>
