<svg width="512" height="512" viewBox="0 0 512 512" fill="none" xmlns="http://www.w3.org/2000/svg">
<g clip-path="url(#clip0_477_40)">
<path d="M420.422 503.234C310.918 514.922 201.082 514.922 91.578 503.234C47.914 498.574 13.426 464.086 8.766 420.418C-2.922 310.914 -2.922 201.082 8.766 91.578C13.426 47.914 47.914 13.426 91.578 8.766C201.082 -2.922 310.914 -2.922 420.418 8.766C464.086 13.426 498.574 47.914 503.234 91.578C514.922 201.082 514.922 310.914 503.234 420.418C498.574 464.086 464.09 498.574 420.422 503.234Z" fill="url(#paint0_linear_477_40)"/>
<path d="M475.387 110.098C471.254 71.352 440.652 40.746 401.902 36.609C304.73 26.242 207.27 26.242 110.098 36.609C71.3522 40.746 40.7462 71.352 36.6092 110.098C26.2422 207.27 26.2422 304.73 36.6092 401.898C40.7462 440.648 71.3522 471.254 110.098 475.387C207.27 485.757 304.73 485.757 401.898 475.387C440.648 471.254 471.254 440.648 475.387 401.898C485.757 304.73 485.757 207.27 475.387 110.098Z" fill="url(#paint1_linear_477_40)"/>
<path d="M7.67188 409.805C8.02288 413.344 8.38687 416.883 8.76587 420.422C13.4259 464.086 47.9139 498.574 91.5819 503.234C201.086 514.922 310.918 514.922 420.422 503.234C464.09 498.574 498.574 464.086 503.234 420.422C503.614 416.882 503.977 413.344 504.332 409.805H7.67188Z" fill="url(#paint2_linear_477_40)"/>
<path d="M344.215 85.27C299.605 85.27 263.445 121.434 263.445 166.043V226.375H219.977V301.075L263.445 340.008V511.977C315.797 511.723 368.145 508.812 420.422 503.234C464.09 498.574 498.574 464.086 503.234 420.418C511.93 338.941 514.152 257.285 509.906 175.715L419.461 85.27H344.215Z" fill="url(#paint3_linear_477_40)"/>
<path d="M263.445 511.977C293.277 511.832 323.105 510.82 352.922 508.945V301.075H412.289L419.461 226.375H352.921V178.941C352.921 168.465 361.414 159.973 371.891 159.973H419.461V85.27H344.215C299.605 85.27 263.445 121.434 263.445 166.043V226.375H219.977V301.075H263.445V511.977Z" fill="white"/>
</g>
<defs>
<linearGradient id="paint0_linear_477_40" x1="169.994" y1="71.986" x2="299.493" y2="349.055" gradientUnits="userSpaceOnUse">
<stop stop-color="#3457A0"/>
<stop offset="1" stop-color="#3B5998"/>
</linearGradient>
<linearGradient id="paint1_linear_477_40" x1="28.834" y1="28.8337" x2="483.165" y2="28.8337" gradientUnits="userSpaceOnUse">
<stop stop-color="#3457A0" stop-opacity="0"/>
<stop offset="1" stop-color="#1F3F77"/>
</linearGradient>
<linearGradient id="paint2_linear_477_40" x1="7.67188" y1="409.805" x2="504.332" y2="409.805" gradientUnits="userSpaceOnUse">
<stop stop-color="#3457A0" stop-opacity="0"/>
<stop offset="1" stop-color="#1F3F77"/>
</linearGradient>
<linearGradient id="paint3_linear_477_40" x1="587.778" y1="422.829" x2="232.407" y2="243.638" gradientUnits="userSpaceOnUse">
<stop stop-color="#3457A0" stop-opacity="0"/>
<stop offset="0.325" stop-color="#2A4C8D" stop-opacity="0.325"/>
<stop offset="0.705" stop-color="#22427D" stop-opacity="0.706"/>
<stop offset="1" stop-color="#1F3F77"/>
</linearGradient>
<clipPath id="clip0_477_40">
<rect width="512" height="512" fill="white"/>
</clipPath>
</defs>
</svg>
