<svg width="49" height="48" viewBox="0 0 49 48" fill="none" xmlns="http://www.w3.org/2000/svg">
<g clip-path="url(#clip0_167_727)">
<path d="M1.28268 39.1814V23.6687C1.28268 22.9107 0.104004 22.9091 0.104004 23.6687V39.1814C0.104004 39.9393 1.28268 39.941 1.28268 39.1814Z" fill="#6C8B57"/>
<path d="M31.583 39.1814V23.6687C31.583 22.9107 30.4043 22.9091 30.4043 23.6687V39.1814C30.4043 39.9393 31.583 39.941 31.583 39.1814Z" fill="#6C8B57"/>
<path d="M25.3198 21.8252C26.8193 22.0872 28.5726 22.3425 29.8888 23.1676C30.4699 23.5327 30.5485 23.7209 29.9984 24.1007C29.1668 24.677 28.0716 24.9274 27.1041 25.1566C25.6308 25.5053 24.1263 25.7214 22.6219 25.8769C18.7699 26.2764 14.8606 26.3124 10.9988 26.0439C8.18964 25.8475 5.08252 25.6199 2.45669 24.5035C2.10144 24.3528 1.69546 24.1728 1.42534 23.8896C1.23708 23.6931 1.23872 23.6702 1.41388 23.4574C1.78549 23.0072 2.54672 22.7813 3.07385 22.6045C4.07409 22.2672 5.11035 22.0495 6.1466 21.8613C6.89146 21.7254 6.57551 20.5893 5.83392 20.7251C4.68471 20.9347 -1.76363 22.169 0.533149 24.6606C1.23708 25.4251 2.39284 25.7754 3.35706 26.0537C4.96301 26.5187 6.62789 26.7708 8.28459 26.9689C12.9338 27.5238 17.6976 27.5418 22.3567 27.0834C24.182 26.9034 26.0188 26.6562 27.7982 26.1994C28.8492 25.9293 30.0263 25.6052 30.8841 24.9062C31.6764 24.2612 31.8156 23.3068 31.0462 22.5652C29.7218 21.2883 27.3448 20.9871 25.6341 20.6875C24.8925 20.5582 24.5733 21.6943 25.3214 21.8236L25.3198 21.8252Z" fill="#6C8B57"/>
<path d="M0.104399 39.1811C0.169881 40.5006 1.82167 41.0719 2.86283 41.4157C5.1989 42.1835 7.71669 42.4667 10.1559 42.6713C13.5135 42.9513 16.8989 42.9758 20.2614 42.7646C22.8742 42.6009 25.5376 42.3308 28.0702 41.6416C29.2587 41.3175 31.5063 40.7396 31.5849 39.1828C31.6226 38.4248 30.4439 38.4265 30.4062 39.1828C30.3719 39.8752 28.1635 40.3991 27.5774 40.553C25.333 41.1407 23.0018 41.3961 20.6936 41.5581C15.4829 41.9199 10.002 41.8823 4.88132 40.738C3.99895 40.5415 3.09366 40.3172 2.27186 39.9325C1.96245 39.7885 1.29617 39.4398 1.28308 39.1811C1.24542 38.4265 0.0667465 38.4215 0.104399 39.1811Z" fill="#6C8B57"/>
<path d="M7.1224 23.6374C6.77698 22.4784 6.33334 21.1049 6.57235 19.8804C6.79335 18.7459 7.78213 19.1028 8.68087 18.8834C9.83991 18.6019 10.2786 17.5149 10.2443 16.4213C10.2197 15.6683 9.65001 14.0132 10.3458 13.4419C10.9187 12.9704 12.1694 13.3813 12.7817 13.5188C14.3991 13.8855 15.9919 14.3766 17.5832 14.8448C19.6016 15.4391 22.1866 15.958 23.8056 17.4085C25.5327 18.9555 24.9499 21.8547 24.2705 23.7373C24.0119 24.4527 25.1513 24.7605 25.4066 24.05C26.1646 21.948 26.6 19.1503 25.1922 17.194C23.8973 15.3965 21.2403 14.7319 19.2497 14.1147C17.4096 13.545 15.5532 12.9933 13.6837 12.5235C12.6475 12.2632 11.3853 11.8867 10.313 12.1764C9.32096 12.4449 8.88714 13.36 8.87732 14.3308C8.86586 15.4096 9.71713 17.6016 8.08008 17.7735C7.31066 17.8537 6.62474 17.7817 6.03212 18.3809C5.77183 18.6444 5.59831 18.9915 5.49353 19.3418C5.0548 20.8086 5.57048 22.5455 5.98792 23.9485C6.20401 24.6737 7.34177 24.3643 7.12404 23.6358L7.1224 23.6374Z" fill="#6C8B57"/>
<path d="M15.2272 18.6463C17.0116 19.1554 18.8025 19.6563 20.5509 20.285C21.2663 20.542 21.574 19.4042 20.8635 19.1488C19.1152 18.5202 17.3242 18.0193 15.5398 17.5102C14.8097 17.3022 14.497 18.4384 15.2272 18.6463Z" fill="#6C8B57"/>
<path d="M1.28268 39.4055V23.8928C1.28268 23.1349 0.104004 23.1332 0.104004 23.8928V39.4055C0.104004 40.1635 1.28268 40.1651 1.28268 39.4055Z" fill="#6C8B57"/>
<path d="M0.395548 37.2429C3.60581 38.6311 7.25807 39.0109 10.7172 39.2532C14.8409 39.5429 19.0039 39.4905 23.1162 39.0649C23.4338 39.0322 23.7055 38.821 23.7055 38.4756V30.1659C23.7055 29.8712 23.4338 29.5438 23.1162 29.5765C19.2004 29.9809 15.2436 30.0447 11.3163 29.8041C7.89325 29.5945 4.1755 29.2868 0.991435 27.9149C0.302236 27.6186 -0.298562 28.6336 0.397185 28.9332C3.61072 30.3165 7.25807 30.6996 10.7188 30.9435C14.8425 31.2332 19.0056 31.1809 23.1178 30.7552L22.5285 30.1659V38.4756L23.1178 37.8862C19.202 38.2906 15.2452 38.3544 11.318 38.1138C7.89652 37.9042 4.17386 37.5997 0.993072 36.2246C0.303873 35.9267 -0.296925 36.9416 0.398822 37.2429H0.395548Z" fill="#6C8B57"/>
<path d="M0.104083 39.4053C0.163017 40.5987 1.52832 41.1569 2.48272 41.5072C4.49302 42.2456 6.68503 42.5353 8.80338 42.7645C14.4528 43.3768 20.3577 43.3407 25.9613 42.3307C27.7915 42 31.583 41.522 31.583 39.0451V23.8942C31.583 23.1313 30.4419 23.1395 30.4043 23.8942C30.3699 24.5867 28.1615 25.1105 27.5755 25.2644C25.3311 25.8521 22.9999 26.1075 20.6916 26.2696C15.4809 26.6313 10.0001 26.5937 4.87936 25.4494C3.99699 25.253 3.0917 25.0287 2.2699 24.644C1.9605 24.4999 1.29422 24.1512 1.28112 23.8926C1.24347 23.1379 0.0647934 23.133 0.102446 23.8926C0.167928 25.212 1.81971 25.7834 2.86088 26.1271C5.19695 26.8949 7.71474 27.1781 10.1539 27.3828C13.5115 27.6627 16.897 27.6872 20.2595 27.4761C22.8722 27.3124 25.5357 27.0422 28.0682 26.353C29.2567 26.0289 31.5044 25.451 31.583 23.8942H30.4043V37.6438C30.4043 38.1742 30.5287 38.8765 30.4043 39.3971C30.252 40.0388 28.6641 40.4677 28.0191 40.656C23.2094 42.0475 17.8661 42.0884 12.9042 41.887C10.185 41.7757 7.43808 41.5465 4.7795 40.9408C3.91187 40.7427 3.0164 40.5185 2.21097 40.1305C1.91303 39.9864 1.29422 39.6492 1.28276 39.4085C1.24511 38.6539 0.0664305 38.6489 0.104083 39.4085V39.4053Z" fill="#6C8B57"/>
<path d="M21.4988 9.96965C23.0687 8.39971 24.6387 6.82978 26.2069 5.26148C26.7439 4.72453 25.9106 3.89127 25.3737 4.42822C23.8038 5.99816 22.2338 7.56809 20.6655 9.13639C20.1286 9.67334 20.9618 10.5066 21.4988 9.96965Z" fill="#6C8B57"/>
<path d="M46.7993 25.8523C46.2722 26.327 44.3618 25.1303 43.8608 24.8389C41.8391 23.6603 39.9925 22.1771 38.231 20.6448C34.2939 17.2168 30.4517 13.3157 27.6425 8.8875C27.1613 8.12791 26.6816 7.3323 26.3738 6.48431C26.2674 6.188 26.017 5.47097 26.2069 5.25979C26.7143 4.69829 25.8827 3.86175 25.3736 4.42653C24.4781 5.41859 25.2623 7.00817 25.7648 7.99531C26.8961 10.2184 28.502 12.2222 30.1096 14.1146C32.2508 16.634 34.5853 18.9996 37.0638 21.1867C39.043 22.9334 41.1319 24.6425 43.4319 25.9521C44.5025 26.5628 46.4817 27.7251 47.6326 26.6855C48.1974 26.1764 47.3608 25.3448 46.7993 25.8523Z" fill="#6C8B57"/>
<path d="M26.2072 5.2601C26.7344 4.78535 28.6464 5.98204 29.1457 6.27343C31.1675 7.45375 33.0157 8.93528 34.7772 10.4692C38.7143 13.8972 42.5565 17.7966 45.3656 22.2249C45.8469 22.9845 46.3266 23.7784 46.6327 24.6281C46.7391 24.9244 46.9896 25.6414 46.7981 25.8526C46.2906 26.4141 47.1222 27.2506 47.6313 26.6858C48.5268 25.6938 47.7443 24.1058 47.2417 23.1187C46.1105 20.8972 44.5062 18.8918 42.8986 17.001C40.7574 14.4816 38.4229 12.1161 35.9444 9.92897C33.9652 8.18224 31.8747 6.47152 29.5746 5.16188C28.504 4.55126 26.5248 3.38731 25.3723 4.42848C24.8076 4.9376 25.6441 5.76922 26.2056 5.26174L26.2072 5.2601Z" fill="#6C8B57"/>
<path d="M33.5113 26.8919C35.4283 28.4913 37.4615 30.1365 39.7419 31.1941C40.7061 31.641 42.0338 32.191 42.9472 31.3725C44.5859 29.9073 46.0773 28.2425 47.6325 26.6873C48.1694 26.1503 47.3362 25.3171 46.7992 25.854C45.3095 27.3437 43.8214 28.8318 42.3317 30.3215C41.7293 30.924 40.8485 30.4263 40.1708 30.0989C38.0475 29.0708 36.1453 27.5631 34.3445 26.0603C33.7667 25.5773 32.9285 26.4073 33.5113 26.8935V26.8919Z" fill="#6C8B57"/>
<path d="M20.6654 9.13635C19.7568 10.1792 20.5868 11.7835 21.1107 12.8099C21.4561 13.486 22.4727 12.8901 22.1289 12.2156C21.885 11.736 21.6509 11.2465 21.5183 10.7227C21.4725 10.5393 21.3513 10.1415 21.5003 9.97125C21.9963 9.40155 21.1663 8.56502 20.667 9.13799L20.6654 9.13635Z" fill="#6C8B57"/>
</g>
<defs>
<clipPath id="clip0_167_727">
<rect width="48" height="39.1799" fill="white" transform="translate(0.0419922 4)"/>
</clipPath>
</defs>
</svg>
