<svg width="100" height="100" viewBox="0 0 100 100" fill="none" xmlns="http://www.w3.org/2000/svg">
<path d="M81.7328 40.0836H31.6283C30.7635 40.0836 30.0625 40.7844 30.0625 41.6494C30.0625 42.5145 30.7633 43.2153 31.6283 43.2153H81.7326C82.5975 43.2153 83.2984 42.5145 83.2984 41.6494C83.2984 40.7844 82.5977 40.0836 81.7328 40.0836ZM61.691 56.785H31.6283C31.4227 56.785 31.2191 56.8254 31.0291 56.9041C30.8391 56.9828 30.6665 57.0981 30.5211 57.2435C30.3757 57.389 30.2603 57.5616 30.1816 57.7516C30.103 57.9415 30.0625 58.1452 30.0625 58.3508C30.0625 58.5564 30.103 58.7601 30.1816 58.9501C30.2603 59.14 30.3757 59.3127 30.5211 59.4581C30.6665 59.6035 30.8391 59.7188 31.0291 59.7975C31.2191 59.8762 31.4227 59.9167 31.6283 59.9166H61.691C61.8966 59.9167 62.1003 59.8762 62.2903 59.7975C62.4802 59.7188 62.6529 59.6035 62.7983 59.4581C62.9437 59.3127 63.059 59.14 63.1377 58.9501C63.2164 58.7601 63.2569 58.5564 63.2568 58.3508C63.2569 58.1452 63.2164 57.9415 63.1377 57.7516C63.059 57.5616 62.9437 57.389 62.7983 57.2435C62.6529 57.0981 62.4802 56.9828 62.2903 56.9041C62.1003 56.8254 61.8966 56.785 61.691 56.785ZM98.4342 48.4342H31.6283C31.4227 48.4342 31.2191 48.4747 31.0291 48.5533C30.8391 48.632 30.6665 48.7474 30.5211 48.8928C30.3757 49.0382 30.2603 49.2108 30.1816 49.4008C30.103 49.5908 30.0625 49.7944 30.0625 50C30.0625 50.2057 30.103 50.4093 30.1816 50.5993C30.2603 50.7893 30.3757 50.9619 30.5211 51.1073C30.6665 51.2527 30.8391 51.368 31.0291 51.4467C31.2191 51.5254 31.4227 51.5659 31.6283 51.5658H98.4342C98.6398 51.5659 98.8434 51.5254 99.0334 51.4467C99.2234 51.368 99.396 51.2527 99.5414 51.1073C99.6868 50.9619 99.8022 50.7893 99.8809 50.5993C99.9595 50.4093 100 50.2057 100 50C100 49.7944 99.9595 49.5908 99.8809 49.4008C99.8022 49.2108 99.6868 49.0382 99.5414 48.8928C99.396 48.7474 99.2234 48.632 99.0334 48.5533C98.8434 48.4747 98.6398 48.4342 98.4342 48.4342ZM81.7328 6.68069H31.6283C31.4227 6.68066 31.2191 6.72115 31.0291 6.79983C30.8391 6.87851 30.6665 6.99384 30.5211 7.13925C30.3757 7.28465 30.2603 7.45728 30.1816 7.64726C30.103 7.83725 30.0625 8.04088 30.0625 8.24651C30.0625 8.45214 30.103 8.65577 30.1816 8.84575C30.2603 9.03574 30.3757 9.20836 30.5211 9.35377C30.6665 9.49917 30.8391 9.61451 31.0291 9.69319C31.2191 9.77187 31.4227 9.81235 31.6283 9.81233H81.7326C81.9383 9.81235 82.1419 9.77187 82.3319 9.69319C82.5218 9.61451 82.6945 9.49917 82.8399 9.35377C82.9853 9.20836 83.1006 9.03574 83.1793 8.84575C83.258 8.65577 83.2985 8.45214 83.2984 8.24651C83.2985 8.04088 83.2581 7.83725 83.1794 7.64725C83.1008 7.45725 82.9855 7.28462 82.8401 7.1392C82.6947 6.99379 82.522 6.87845 82.3321 6.79978C82.1421 6.7211 81.9384 6.68064 81.7328 6.68069ZM61.691 23.3821H31.6283C30.7635 23.3821 30.0625 24.0828 30.0625 24.9479C30.0625 25.8129 30.7633 26.5137 31.6283 26.5137H61.691C62.5559 26.5137 63.2568 25.8129 63.2568 24.9479C63.2568 24.0828 62.5559 23.3821 61.691 23.3821ZM98.4342 15.0313H31.6283C31.4227 15.0312 31.2191 15.0717 31.0291 15.1504C30.8391 15.2291 30.6665 15.3444 30.5211 15.4898C30.3757 15.6352 30.2603 15.8079 30.1816 15.9979C30.103 16.1878 30.0625 16.3915 30.0625 16.5971C30.0625 16.8027 30.103 17.0064 30.1816 17.1963C30.2603 17.3863 30.3757 17.5589 30.5211 17.7044C30.6665 17.8498 30.8391 17.9651 31.0291 18.0438C31.2191 18.1225 31.4227 18.1629 31.6283 18.1629H98.4342C98.6398 18.1629 98.8434 18.1225 99.0334 18.0438C99.2234 17.9651 99.396 17.8498 99.5414 17.7044C99.6868 17.5589 99.8022 17.3863 99.8809 17.1963C99.9595 17.0064 100 16.8027 100 16.5971C100 16.3915 99.9595 16.1878 99.8809 15.9979C99.8022 15.8079 99.6868 15.6352 99.5414 15.4898C99.396 15.3444 99.2234 15.2291 99.0334 15.1504C98.8434 15.0717 98.6398 15.0312 98.4342 15.0313ZM19.9373 71.8162H3.23594C1.45156 71.8162 0 73.2678 0 75.0522V91.7535C0 93.5379 1.45156 94.9895 3.23594 94.9895H19.9373C21.7217 94.9895 23.1732 93.5379 23.1732 91.7535V75.0522C23.1732 73.2678 21.7217 71.8162 19.9373 71.8162ZM20.0418 91.7537C20.0418 91.8112 19.9949 91.858 19.9375 91.858H3.23594C3.20831 91.8579 3.18184 91.8469 3.1623 91.8274C3.14276 91.8078 3.13174 91.7814 3.13164 91.7537V75.0524C3.13164 74.995 3.17871 74.9481 3.23594 74.9481H19.9373C19.9947 74.9481 20.0416 74.995 20.0416 75.0524L20.0418 91.7537ZM81.7328 73.4866H31.6283C31.4227 73.4865 31.2191 73.527 31.0291 73.6057C30.8391 73.6844 30.6665 73.7997 30.5211 73.9451C30.3757 74.0905 30.2603 74.2631 30.1816 74.4531C30.103 74.6431 30.0625 74.8467 30.0625 75.0524C30.0625 75.258 30.103 75.4616 30.1816 75.6516C30.2603 75.8416 30.3757 76.0142 30.5211 76.1596C30.6665 76.305 30.8391 76.4204 31.0291 76.4991C31.2191 76.5777 31.4227 76.6182 31.6283 76.6182H81.7326C81.9383 76.6182 82.1419 76.5777 82.3319 76.4991C82.5218 76.4204 82.6945 76.305 82.8399 76.1596C82.9853 76.0142 83.1006 75.8416 83.1793 75.6516C83.258 75.4616 83.2985 75.258 83.2984 75.0524C83.2985 74.8467 83.2581 74.6431 83.1794 74.4531C83.1008 74.2631 82.9855 74.0905 82.8401 73.9451C82.6947 73.7997 82.522 73.6843 82.3321 73.6056C82.1421 73.527 81.9384 73.4865 81.7328 73.4866ZM61.691 90.1879H31.6283C31.4227 90.1879 31.2191 90.2284 31.0291 90.3071C30.8391 90.3857 30.6665 90.5011 30.5211 90.6465C30.3757 90.7919 30.2603 90.9645 30.1816 91.1545C30.103 91.3445 30.0625 91.5481 30.0625 91.7537C30.0625 91.9594 30.103 92.163 30.1816 92.353C30.2603 92.543 30.3757 92.7156 30.5211 92.861C30.6665 93.0064 30.8391 93.1217 31.0291 93.2004C31.2191 93.2791 31.4227 93.3196 31.6283 93.3196H61.691C61.8966 93.3196 62.1003 93.2791 62.2903 93.2004C62.4802 93.1217 62.6529 93.0064 62.7983 92.861C62.9437 92.7156 63.059 92.543 63.1377 92.353C63.2164 92.163 63.2569 91.9594 63.2568 91.7537C63.2569 91.5481 63.2164 91.3445 63.1377 91.1545C63.059 90.9645 62.9437 90.7919 62.7983 90.6465C62.6529 90.5011 62.4802 90.3857 62.2903 90.3071C62.1003 90.2284 61.8966 90.1879 61.691 90.1879ZM98.4342 81.8371H31.6283C31.4227 81.8371 31.2191 81.8776 31.0291 81.9563C30.8391 82.035 30.6665 82.1503 30.5211 82.2957C30.3757 82.4411 30.2603 82.6137 30.1816 82.8037C30.103 82.9937 30.0625 83.1973 30.0625 83.403C30.0625 83.6086 30.103 83.8122 30.1816 84.0022C30.2603 84.1922 30.3757 84.3648 30.5211 84.5102C30.6665 84.6556 30.8391 84.771 31.0291 84.8496C31.2191 84.9283 31.4227 84.9688 31.6283 84.9688H98.4342C98.6398 84.9688 98.8434 84.9283 99.0334 84.8496C99.2234 84.771 99.396 84.6556 99.5414 84.5102C99.6868 84.3648 99.8022 84.1922 99.8809 84.0022C99.9595 83.8122 100 83.6086 100 83.403C100 83.1973 99.9595 82.9937 99.8809 82.8037C99.8022 82.6137 99.6868 82.4411 99.5414 82.2957C99.396 82.1503 99.2234 82.035 99.0334 81.9563C98.8434 81.8776 98.6398 81.8371 98.4342 81.8371ZM22.2066 8.46995C21.9205 8.35135 21.6057 8.32029 21.3019 8.38068C20.9982 8.44107 20.7192 8.5902 20.5002 8.8092L11.5867 17.7233L7.68359 13.8196C7.53819 13.6742 7.36557 13.5588 7.17559 13.4801C6.98562 13.4014 6.782 13.3609 6.57637 13.3609C6.37074 13.3609 6.16712 13.4014 5.97714 13.4801C5.78716 13.5588 5.61454 13.6742 5.46914 13.8196C5.32374 13.965 5.2084 14.1376 5.12971 14.3276C5.05101 14.5175 5.01051 14.7212 5.01051 14.9268C5.01051 15.1324 5.05101 15.336 5.12971 15.526C5.2084 15.716 5.32374 15.8886 5.46914 16.034L10.4795 21.0444C10.7732 21.3379 11.1715 21.5028 11.5867 21.5028C12.002 21.5028 12.4002 21.3379 12.6939 21.0444L20.0418 13.6963V24.9477C20.0418 25.0051 19.9949 25.052 19.9375 25.052H3.23594C3.20829 25.0519 3.18179 25.0409 3.16225 25.0214C3.1427 25.0018 3.13169 24.9753 3.13164 24.9477V8.24631C3.13164 8.18889 3.17871 8.14202 3.23594 8.14202H14.927C15.1326 8.14204 15.3362 8.10156 15.5262 8.02288C15.7162 7.9442 15.8888 7.82886 16.0342 7.68346C16.1796 7.53805 16.295 7.36543 16.3736 7.17544C16.4523 6.98545 16.4928 6.78183 16.4928 6.5762C16.4928 6.37056 16.4523 6.16694 16.3736 5.97695C16.295 5.78697 16.1796 5.61434 16.0342 5.46894C15.8888 5.32353 15.7162 5.2082 15.5262 5.12951C15.3362 5.05083 15.1326 5.01035 14.927 5.01038H3.23594C1.45156 5.01038 0 6.46194 0 8.24631V24.9477C0 26.7321 1.45156 28.1836 3.23594 28.1836H19.9373C21.7217 28.1836 23.1732 26.7321 23.1732 24.9477V9.91643C23.1732 9.60676 23.0814 9.30405 22.9093 9.04657C22.7373 8.7891 22.4927 8.58843 22.2066 8.46995ZM22.2066 41.8729C21.9205 41.7543 21.6057 41.7232 21.3019 41.7836C20.9982 41.844 20.7192 41.9931 20.5002 42.2121L11.5867 51.1262L7.68359 47.2229C7.53819 47.0775 7.36557 46.9621 7.17559 46.8834C6.98562 46.8047 6.782 46.7642 6.57637 46.7642C6.37074 46.7642 6.16712 46.8047 5.97714 46.8834C5.78716 46.9621 5.61454 47.0775 5.46914 47.2229C5.32374 47.3683 5.2084 47.5409 5.12971 47.7309C5.05101 47.9209 5.01051 48.1245 5.01051 48.3301C5.01051 48.5357 5.05101 48.7394 5.12971 48.9293C5.2084 49.1193 5.32374 49.2919 5.46914 49.4373L10.4795 54.4479C10.7732 54.7414 11.1715 54.9064 11.5867 54.9064C12.002 54.9064 12.4002 54.7414 12.6939 54.4479L20.0418 47.0996V58.351C20.0418 58.4084 19.9949 58.4553 19.9375 58.4553H3.23594C3.20831 58.4552 3.18184 58.4442 3.1623 58.4246C3.14276 58.4051 3.13174 58.3786 3.13164 58.351V41.6496C3.13164 41.5922 3.17871 41.5453 3.23594 41.5453H14.927C15.7918 41.5453 16.4928 40.8446 16.4928 39.9795C16.4928 39.1145 15.792 38.4137 14.927 38.4137H3.23594C1.45156 38.4133 0 39.8649 0 41.6492V58.3506C0 60.135 1.45156 61.5866 3.23594 61.5866H19.9373C21.7217 61.5866 23.1732 60.135 23.1732 58.3506V43.3194C23.1733 43.0097 23.0814 42.707 22.9094 42.4495C22.7373 42.192 22.4928 41.9913 22.2066 41.8729Z" fill="black"/>
</svg>
