<svg width="48" height="48" viewBox="0 0 48 48" fill="none" xmlns="http://www.w3.org/2000/svg">
<g clip-path="url(#clip0_306_139)">
<path d="M2.54426 25.8526C2.48632 25.7947 2.41754 25.7487 2.34184 25.7173C2.26613 25.686 2.18499 25.6698 2.10305 25.6698C2.0211 25.6698 1.93996 25.686 1.86426 25.7173C1.78855 25.7487 1.71977 25.7947 1.66183 25.8526C1.54482 25.9696 1.47908 26.1283 1.47908 26.2938C1.47908 26.4593 1.54482 26.618 1.66183 26.735L2.53965 27.6129C2.66148 27.7346 2.82113 27.7955 2.98087 27.7955C3.14061 27.7955 3.30026 27.7346 3.42209 27.6129C3.48005 27.5549 3.52604 27.4861 3.55741 27.4104C3.58878 27.3347 3.60493 27.2535 3.60493 27.1715C3.60493 27.0896 3.58878 27.0084 3.55741 26.9327C3.52604 26.857 3.48005 26.7882 3.42209 26.7302L2.54426 25.8526ZM4.96481 28.2731C4.84777 28.156 4.68905 28.0903 4.52356 28.0903C4.35806 28.0903 4.19934 28.1561 4.08233 28.2731C3.96531 28.3901 3.89957 28.5488 3.89958 28.7143C3.89959 28.8798 3.96534 29.0386 4.08237 29.1556L4.9601 30.0333C5.08202 30.155 5.24167 30.216 5.40132 30.216C5.56097 30.216 5.72071 30.155 5.84253 30.0332C5.90049 29.9753 5.94646 29.9065 5.97782 29.8308C6.00919 29.755 6.02533 29.6739 6.02533 29.5919C6.02533 29.51 6.00919 29.4288 5.97782 29.3531C5.94646 29.2774 5.90049 29.2086 5.84253 29.1507L4.96481 28.2731ZM2.53965 28.2731L1.66183 29.1507C1.54479 29.2677 1.47902 29.4264 1.479 29.5919C1.47899 29.7574 1.54472 29.9162 1.66173 30.0332C1.77875 30.1503 1.93747 30.216 2.10298 30.216C2.26848 30.2161 2.42722 30.1503 2.54426 30.0333L3.42209 29.1556C3.53912 29.0386 3.60487 28.8798 3.60488 28.7143C3.60489 28.5488 3.53915 28.3901 3.42213 28.2731C3.36419 28.2152 3.2954 28.1692 3.2197 28.1378C3.14399 28.1065 3.06285 28.0903 2.9809 28.0903C2.81541 28.0903 2.65668 28.156 2.53965 28.2731ZM4.9601 25.8526L4.08237 26.7303C4.02356 26.7881 3.97676 26.8569 3.94469 26.9328C3.91263 27.0088 3.89592 27.0903 3.89554 27.1727C3.89516 27.2552 3.91112 27.3368 3.94249 27.4131C3.97386 27.4893 4.02001 27.5586 4.0783 27.6168C4.13658 27.6751 4.20584 27.7213 4.28207 27.7526C4.35829 27.784 4.43998 27.8 4.5224 27.7996C4.60483 27.7992 4.68636 27.7825 4.7623 27.7504C4.83823 27.7184 4.90706 27.6716 4.96481 27.6128L5.84253 26.7349C5.9018 26.6773 5.94901 26.6084 5.98144 26.5324C6.01387 26.4563 6.03087 26.3746 6.03144 26.2919C6.03201 26.2093 6.01614 26.1273 5.98476 26.0508C5.95339 25.9743 5.90712 25.9048 5.84866 25.8464C5.7902 25.7879 5.7207 25.7417 5.64421 25.7103C5.56772 25.6789 5.48575 25.6631 5.40308 25.6637C5.32041 25.6642 5.23867 25.6812 5.16263 25.7137C5.08658 25.7461 5.01774 25.7933 4.9601 25.8526ZM32.2475 20.6065C32.3694 20.7284 32.5292 20.7894 32.6888 20.7894C32.8485 20.7894 33.0082 20.7284 33.1301 20.6066C33.188 20.5486 33.234 20.4799 33.2654 20.4041C33.2967 20.3284 33.3129 20.2473 33.3129 20.1653C33.3129 20.0834 33.2967 20.0022 33.2654 19.9265C33.234 19.8508 33.188 19.782 33.1301 19.7241L32.2523 18.8463C32.1353 18.7293 31.9766 18.6635 31.8111 18.6635C31.6456 18.6635 31.4869 18.7293 31.3698 18.8463C31.2528 18.9633 31.1871 19.122 31.1871 19.2875C31.187 19.453 31.2528 19.6117 31.3698 19.7288L32.2475 20.6065ZM33.7902 22.1492L34.668 23.0271C34.7259 23.0852 34.7947 23.1312 34.8704 23.1626C34.9461 23.1939 35.0273 23.21 35.1093 23.2099C35.2327 23.2099 35.3534 23.1733 35.456 23.1048C35.5586 23.0362 35.6386 22.9388 35.6858 22.8247C35.7331 22.7107 35.7454 22.5853 35.7214 22.4642C35.6973 22.3432 35.6379 22.232 35.5506 22.1447L34.6729 21.2669C34.6149 21.2089 34.5461 21.163 34.4704 21.1316C34.3947 21.1002 34.3136 21.0841 34.2316 21.0841C34.1497 21.0841 34.0685 21.1002 33.9928 21.1316C33.9171 21.1629 33.8483 21.2089 33.7904 21.2668C33.7324 21.3248 33.6865 21.3936 33.6551 21.4693C33.6237 21.545 33.6076 21.6261 33.6076 21.7081C33.6076 21.79 33.6237 21.8711 33.6551 21.9469C33.6864 22.0226 33.7324 22.0914 33.7903 22.1493L33.7902 22.1492ZM31.3698 23.0271C31.4917 23.149 31.6514 23.2099 31.811 23.2099C31.9707 23.2099 32.1304 23.149 32.2523 23.0271L33.1301 22.1493C33.2453 22.0319 33.3095 21.8738 33.3088 21.7093C33.308 21.5448 33.2423 21.3872 33.126 21.2709C33.0097 21.1546 32.8521 21.0889 32.6876 21.0882C32.5231 21.0874 32.365 21.1516 32.2476 21.2669L31.3698 22.1446C31.3118 22.2025 31.2659 22.2713 31.2345 22.3471C31.2031 22.4228 31.187 22.5039 31.187 22.5859C31.187 22.6678 31.2031 22.749 31.2345 22.8247C31.2659 22.9004 31.3118 22.9692 31.3698 23.0271ZM34.2316 20.7894C34.3135 20.7895 34.3947 20.7734 34.4704 20.742C34.5462 20.7106 34.615 20.6646 34.6729 20.6066L35.5505 19.7288C35.6675 19.6117 35.7333 19.453 35.7332 19.2875C35.7332 19.122 35.6675 18.9633 35.5505 18.8463C35.4334 18.7293 35.2747 18.6635 35.1092 18.6635C34.9437 18.6635 34.785 18.7293 34.668 18.8463L33.7902 19.7242C33.703 19.8114 33.6436 19.9226 33.6195 20.0437C33.5954 20.1647 33.6078 20.2902 33.655 20.4042C33.7022 20.5182 33.7822 20.6157 33.8849 20.6842C33.9875 20.7528 34.1081 20.7894 34.2316 20.7894ZM13.9663 11.5C14.0242 11.5581 14.093 11.6041 14.1688 11.6355C14.2445 11.6668 14.3257 11.6829 14.4077 11.6828C14.5311 11.6828 14.6517 11.6462 14.7543 11.5776C14.8569 11.5091 14.9369 11.4116 14.9841 11.2976C15.0313 11.1836 15.0437 11.0581 15.0196 10.9371C14.9956 10.816 14.9361 10.7049 14.8489 10.6176L13.9711 9.73977C13.8541 9.62274 13.6954 9.55699 13.5299 9.55698C13.3644 9.55697 13.2057 9.6227 13.0887 9.73972C12.9716 9.85674 12.9059 10.0155 12.9059 10.181C12.9059 10.3464 12.9716 10.5052 13.0886 10.6222L13.9663 11.5ZM15.5092 13.0427L16.3869 13.9206C16.5088 14.0424 16.6685 14.1034 16.8281 14.1034C16.9878 14.1034 17.1476 14.0424 17.2694 13.9206C17.3864 13.8035 17.4522 13.6448 17.4522 13.4794C17.4522 13.3139 17.3864 13.1552 17.2694 13.0381L16.3916 12.1603C16.2742 12.0451 16.1161 11.9808 15.9516 11.9816C15.7871 11.9823 15.6295 12.048 15.5132 12.1644C15.3969 12.2807 15.3312 12.4382 15.3304 12.6027C15.3297 12.7672 15.3939 12.9254 15.5092 13.0427ZM13.0887 13.9206C13.2105 14.0425 13.3702 14.1034 13.5299 14.1034C13.6897 14.1034 13.8493 14.0424 13.9711 13.9206L14.8489 13.0427C14.9068 12.9848 14.9528 12.916 14.9841 12.8403C15.0155 12.7646 15.0316 12.6834 15.0316 12.6015C15.0316 12.5196 15.0155 12.4384 14.9841 12.3627C14.9527 12.287 14.9068 12.2182 14.8488 12.1603C14.7909 12.1023 14.7221 12.0564 14.6464 12.025C14.5707 11.9937 14.4895 11.9775 14.4076 11.9775C14.3256 11.9775 14.2445 11.9937 14.1688 12.025C14.0931 12.0564 14.0243 12.1024 13.9663 12.1603L13.0886 13.038C13.0307 13.096 12.9847 13.1648 12.9533 13.2405C12.922 13.3162 12.9058 13.3974 12.9058 13.4793C12.9058 13.5613 12.922 13.6424 12.9533 13.7181C12.9847 13.7938 13.0308 13.8626 13.0887 13.9206ZM15.9504 11.6828C16.0323 11.6829 16.1135 11.6668 16.1892 11.6354C16.2649 11.6041 16.3337 11.5581 16.3916 11.5L17.2694 10.6222C17.3274 10.5643 17.3733 10.4955 17.4047 10.4198C17.436 10.344 17.4522 10.2629 17.4522 10.181C17.4522 10.099 17.436 10.0179 17.4046 9.94216C17.3733 9.86645 17.3273 9.79766 17.2694 9.73972C17.2114 9.68178 17.1426 9.63582 17.0669 9.60447C16.9912 9.57311 16.9101 9.55697 16.8281 9.55698C16.7462 9.55698 16.665 9.57313 16.5893 9.60449C16.5136 9.63585 16.4448 9.68182 16.3869 9.73977L15.5092 10.6176C15.4219 10.7049 15.3625 10.816 15.3384 10.9371C15.3143 11.0581 15.3267 11.1836 15.3739 11.2976C15.4211 11.4116 15.5011 11.5091 15.6037 11.5776C15.7063 11.6462 15.827 11.6828 15.9504 11.6828ZM25.6381 9.0599L23.3015 10.0725C23.1505 10.1389 23.0318 10.2623 22.9716 10.4159C22.9113 10.5694 22.9143 10.7406 22.9799 10.8919C23.0455 11.0433 23.1683 11.1625 23.3216 11.2235C23.4748 11.2846 23.646 11.2824 23.7977 11.2176L26.1343 10.205C26.2095 10.1724 26.2776 10.1253 26.3346 10.0664C26.3915 10.0076 26.4364 9.93803 26.4665 9.86182C26.4966 9.78561 26.5114 9.70421 26.5101 9.62227C26.5088 9.54034 26.4913 9.45947 26.4587 9.38428C26.4261 9.30909 26.3791 9.24106 26.3202 9.18407C26.2613 9.12708 26.1918 9.08224 26.1156 9.05212C26.0393 9.02199 25.958 9.00718 25.876 9.00851C25.7941 9.00985 25.7133 9.02731 25.6381 9.0599ZM26.3745 11.6026L25.5185 13.7896C25.4886 13.8659 25.4741 13.9474 25.4757 14.0293C25.4773 14.1112 25.495 14.1921 25.5279 14.2671C25.5607 14.3422 25.608 14.4101 25.6671 14.4669C25.7262 14.5237 25.7959 14.5683 25.8722 14.5981C25.9485 14.628 26.0299 14.6425 26.1118 14.6409C26.1938 14.6393 26.2746 14.6216 26.3497 14.5888C26.4247 14.5559 26.4926 14.5086 26.5494 14.4495C26.6062 14.3905 26.6508 14.3208 26.6807 14.2445L27.5367 12.0576C27.597 11.9035 27.5936 11.7317 27.5273 11.5801C27.461 11.4285 27.3372 11.3094 27.183 11.2491C27.0289 11.1888 26.8572 11.1921 26.7055 11.2585C26.5539 11.3248 26.4349 11.4485 26.3745 11.6026ZM22.9295 6.87878L25.0882 7.74057C25.1617 7.77001 25.2402 7.78516 25.3194 7.78521C25.4646 7.78538 25.6053 7.73494 25.7172 7.64255C25.8292 7.55017 25.9055 7.42164 25.9329 7.27908C25.9603 7.13653 25.9372 6.98887 25.8675 6.86154C25.7978 6.7342 25.6858 6.63516 25.5509 6.58147L23.3921 5.71977C23.316 5.68939 23.2347 5.67429 23.1527 5.67534C23.0708 5.6764 22.9899 5.69358 22.9146 5.72592C22.8393 5.75825 22.7711 5.8051 22.7139 5.86379C22.6567 5.92248 22.6117 5.99186 22.5813 6.06796C22.5199 6.22166 22.5222 6.39342 22.5875 6.54548C22.6528 6.69753 22.7758 6.81742 22.9295 6.87878Z" fill="#6C8B57"/>
<path d="M36.0562 33.1301C35.9385 33.1097 35.8077 33.0871 35.6619 33.0594C35.4921 32.9803 34.9932 32.6102 34.7211 32.4084C34.3585 32.1394 34.1188 31.9634 33.9457 31.8678C33.7249 31.6659 33.035 30.6275 32.3057 29.5295C31.8691 28.8724 31.3743 28.1276 30.8043 27.2897C28.6532 24.1275 16.3744 2.89823 16.2486 2.68069C15.1878 0.872437 13.1604 -0.1707 11.0854 0.0236045C11.0757 0.0244874 11.066 0.0256077 11.0564 0.0269645L0.723739 1.48252C0.642585 1.49394 0.564477 1.52125 0.493876 1.56286C0.423275 1.60448 0.361563 1.6596 0.312265 1.72507C0.262967 1.79054 0.227048 1.86507 0.20656 1.94443C0.186072 2.02378 0.181417 2.10639 0.192859 2.18754C0.204227 2.26871 0.231487 2.34684 0.273079 2.41747C0.314672 2.4881 0.369781 2.54983 0.435254 2.59914C0.500726 2.64844 0.575278 2.68436 0.654645 2.70483C0.734011 2.72529 0.816634 2.72991 0.897787 2.71842L11.2156 1.26498C12.8066 1.12184 14.3579 1.92431 15.1702 3.30882C15.6766 4.18453 27.5958 24.7919 29.7725 27.9917C30.3386 28.824 30.8314 29.5657 31.266 30.2201C32.5768 32.1929 32.971 32.7702 33.3396 32.9587C33.4323 33.0062 33.7476 33.2401 33.9778 33.4109C34.7316 33.9702 35.0935 34.2211 35.3928 34.2787C35.5607 34.3108 35.7101 34.3367 35.8432 34.3597C36.0717 34.3993 36.3295 34.4439 36.4056 34.4833C36.4101 34.4915 36.4181 34.5073 36.4275 34.533C36.4406 34.5779 36.4378 34.6699 36.4267 34.6932C36.2837 34.8754 36.1366 34.8979 35.4427 34.8438C34.8671 34.7987 34.0789 34.7374 33.1343 35.0265C31.0173 35.6749 30.149 33.7907 30.0581 33.5766C30.0508 33.5589 30.0427 33.5415 30.0338 33.5245C28.5298 30.6594 26.9574 30.3111 23.7281 30.1995C23.4449 30.1897 23.1735 30.1214 22.9432 30.0022C21.4955 29.2522 21.7883 27.9791 22.4001 26.1226C22.5675 25.6147 22.7255 25.1348 22.7853 24.7113C22.8827 24.0201 22.7584 23.329 22.4158 22.657C22.0572 21.9538 21.4902 21.3674 20.776 20.9612C20.4722 20.7884 20.169 20.6173 19.8669 20.4469C17.2787 18.9871 14.8341 17.6082 12.7232 15.5194C10.614 13.4324 9.34041 9.74428 9.32784 9.70761C9.29803 9.61992 9.24907 9.53996 9.18452 9.47354C9.11997 9.40712 9.04145 9.35591 8.95464 9.32361C8.86784 9.29131 8.77493 9.27874 8.68267 9.28681C8.5904 9.29488 8.50109 9.32339 8.42121 9.37026C6.21072 10.6677 3.655 11.7093 0.608059 12.5548C0.448606 12.599 0.313255 12.7048 0.231773 12.8488C0.150292 12.9928 0.129353 13.1633 0.173563 13.3228C0.195411 13.4018 0.23262 13.4757 0.283061 13.5403C0.333502 13.6049 0.396185 13.6589 0.467525 13.6993C0.538865 13.7396 0.617461 13.7655 0.698818 13.7755C0.780175 13.7854 0.862695 13.7792 0.941659 13.7573C1.73954 13.5365 2.53091 13.2928 3.31478 13.0265C3.238 13.3373 3.18517 13.6535 3.15676 13.9723C2.9878 15.8401 3.59414 17.744 4.22956 19.5339C5.27116 22.4674 6.91871 24.8129 8.66313 27.2963C8.88105 27.6065 9.09974 27.9179 9.31785 28.2314C9.64847 28.707 9.83184 29.2476 9.84787 29.7938C9.8616 30.2877 9.74707 30.7221 9.50707 31.085C9.33331 31.3481 9.02275 31.6733 8.69395 32.0175C8.08531 32.6546 7.39564 33.3767 7.01836 34.2349C6.54134 35.3202 6.68035 36.375 7.43155 37.3699C7.69948 37.7245 8.05977 38.0264 8.47305 38.2427C11.0948 39.6172 11.9574 40.2846 12.0688 42.8941C12.0194 44.0891 12.6253 46.4027 15.2858 46.8086C16.0283 46.9219 16.5491 47.2243 17.0088 47.491C17.4283 47.7345 17.8866 48.0006 18.4097 48.0006C18.6393 48.0005 18.8814 47.9493 19.1381 47.8223C19.6059 47.5914 19.8582 47.0697 19.8947 46.6826C19.9703 45.8781 19.508 45.5487 18.9227 45.1318C18.8249 45.0622 18.7161 44.9847 18.5963 44.8964C18.4768 44.7514 18.1843 44.1995 18.0249 43.8986C17.8128 43.4985 17.6721 43.2357 17.5567 43.0742C17.444 42.7978 17.2659 41.5611 17.0776 40.2533C16.9648 39.4703 16.8371 38.5829 16.6812 37.5785C16.4124 35.8453 15.7836 29.2368 14.904 18.9088C16.2902 19.8621 17.7483 20.6848 19.2538 21.5339C19.5546 21.7037 19.8564 21.8739 20.159 22.046C20.6606 22.3313 21.0566 22.7386 21.304 23.2239C21.5279 23.6628 21.6105 24.1047 21.5495 24.5372C21.5053 24.8502 21.3642 25.2785 21.2147 25.732C20.9385 26.5705 20.6253 27.5211 20.6522 28.4586C20.6864 29.6457 21.2641 30.5378 22.3692 31.1102C22.7628 31.3142 23.2179 31.4305 23.6849 31.4467C26.6369 31.5489 27.7002 31.7766 28.9163 34.081C29.305 34.9958 30.4331 36.4119 32.2821 36.4118C32.6581 36.4118 33.0642 36.3532 33.4996 36.2199C34.218 36 34.8173 36.0466 35.3457 36.088C36.0401 36.1422 36.8274 36.2036 37.4082 35.4641C37.7305 35.0539 37.7344 34.4748 37.6018 34.1106C37.3245 33.3496 36.7648 33.2528 36.0562 33.1301ZM15.448 37.7699C15.6028 38.7675 15.7301 39.6514 15.8423 40.4311C16.1801 42.7776 16.2887 43.4687 16.5393 43.797C16.603 43.8808 16.7875 44.2288 16.9221 44.4829C17.3627 45.3143 17.5812 45.6975 17.8261 45.8791C17.9495 45.97 18.0736 46.0597 18.1986 46.1483C18.3889 46.2838 18.6036 46.4368 18.6541 46.5051C18.6552 46.5236 18.6547 46.5423 18.6527 46.5608C18.6455 46.6063 18.6041 46.6875 18.5852 46.7034C18.3798 46.8051 18.2378 46.7613 17.6352 46.4117C17.1352 46.1215 16.4505 45.724 15.474 45.5748C13.2831 45.2407 13.3068 43.1609 13.3166 42.9277C13.3176 42.9085 13.3178 42.8895 13.3169 42.8702C13.1858 39.6348 11.9168 38.6388 9.05212 37.1373C8.80089 37.0058 8.5848 36.8261 8.42745 36.6178C7.44086 35.3112 8.24985 34.2894 9.59635 32.8795C9.96499 32.4936 10.3131 32.1292 10.5482 31.773C10.9323 31.1922 11.1164 30.5146 11.0954 29.758C11.0721 28.9682 10.8118 28.194 10.3424 27.5188C10.1231 27.2036 9.90335 26.8907 9.68438 26.5789C7.99027 24.1674 6.39023 21.8893 5.40566 19.1164C4.81651 17.4567 4.25356 15.7012 4.39977 14.0841C4.45161 13.5025 4.59091 12.9743 4.82409 12.4764C6.10905 11.9753 7.29984 11.4227 8.41036 10.8118C8.90832 12.0569 10.0922 14.6718 11.8453 16.4065C12.4024 16.9577 12.9774 17.4599 13.568 17.9264C14.2315 25.7561 15.0873 35.4437 15.448 37.7699ZM47.4671 18.8354L44.906 10.9847C45.784 10.5005 46.4889 9.73804 46.905 8.81663C46.9217 8.78687 46.9355 8.75538 46.9473 8.72284C47.1926 8.14546 47.3188 7.52446 47.3181 6.89711V6.81551C47.3181 6.14399 47.1751 5.50588 46.9197 4.92853C46.908 4.8955 46.8936 4.86351 46.8765 4.83292C46.1347 3.25304 44.5357 2.15692 42.6865 2.15692H36.3902C34.3184 2.15609 32.262 2.51308 30.3116 3.21215L30.2828 3.22242C30.273 3.22597 30.2642 3.23106 30.2547 3.23509H29.4859C28.6594 3.23509 27.9869 3.91017 27.9869 4.73999V8.91052C27.9869 9.74025 28.6594 10.4154 29.4859 10.4154H30.1403C30.1841 10.4456 30.2312 10.4717 30.2828 10.4902L30.3119 10.5006C32.2034 11.1782 34.195 11.5341 36.2041 11.5537L39.4054 16.639L41.1318 19.4014C41.7472 20.4316 41.7211 21.7452 41.0648 22.7499C41.0609 22.7556 41.0573 22.7614 41.0537 22.7674L41.0391 22.7913C40.4155 23.7536 40.6763 25.0591 41.624 25.7069L42.8531 26.5461C43.1676 26.7608 43.5339 26.8874 43.9139 26.9127C44.2939 26.9381 44.6737 26.8612 45.014 26.6902L45.037 26.6787C45.935 26.2169 46.6624 25.4782 47.0854 24.5981C47.9536 22.7901 48.0892 20.7437 47.4671 18.8355V18.8354ZM29.8693 9.16751H29.4859C29.3475 9.16751 29.2349 9.05231 29.2349 8.91061V4.73999C29.2349 4.59829 29.3475 4.48309 29.4859 4.48309H29.8693V9.16751ZM46.0701 6.8157V6.89721C46.0701 7.24194 46.0186 7.57477 45.9239 7.88869H44.6903C44.1193 7.88869 43.6548 7.41925 43.6548 6.8422V6.80821C43.6548 6.23106 44.1193 5.76162 44.6902 5.76162H45.904C46.0142 6.10213 46.0702 6.45782 46.0701 6.8157ZM31.1173 4.25452C32.8182 3.69098 34.5985 3.40413 36.3902 3.40492H42.6865C43.6728 3.40492 44.5616 3.83269 45.1806 4.51353H44.6902C43.4312 4.51353 42.4068 5.54284 42.4068 6.80812V6.8421C42.4068 8.10738 43.4312 9.1366 44.6902 9.1366H45.2352C44.6145 9.85343 43.7024 10.3078 42.6865 10.3078H41.2129L40.1517 7.86978C39.7186 6.87503 38.7409 6.23231 37.6608 6.23231H31.1173V4.25452ZM31.1173 9.4581V7.48031H37.6607C38.2441 7.48031 38.7727 7.82879 39.0074 8.36793L39.8518 10.3077H36.3902C34.5985 10.3085 32.8182 10.0217 31.1173 9.4581ZM40.6561 16.2856L40.4626 15.9759L39.4482 14.3646L39.6763 14.2151L40.8763 16.124L40.6561 16.2856ZM42.7686 24.9773L42.3279 24.6764C41.9347 24.4076 41.8276 23.8645 42.0892 23.4658C42.0932 23.4598 42.0971 23.4536 42.1009 23.4473L42.1154 23.4233C43.0266 22.021 43.0599 20.1898 42.1993 18.7548C42.1974 18.7516 42.1954 18.7484 42.1933 18.7452L41.3195 17.3469L41.6379 17.1131C42.1498 16.7371 42.2857 16.021 41.9472 15.4825L40.7132 13.5196C40.6279 13.3827 40.5159 13.2644 40.3839 13.1717C40.252 13.0789 40.1027 13.0137 39.945 12.9798C39.788 12.945 39.6255 12.9422 39.4674 12.9715C39.3092 13.0007 39.1586 13.0615 39.0244 13.1502L38.7832 13.3082L37.6801 11.5557H40.3952L43.4441 18.5602C44.0954 20.0098 44.1223 21.6843 43.518 23.1542L42.7686 24.9773ZM45.9605 24.0577C45.6546 24.6941 45.124 25.2306 44.4715 25.5662L44.4532 25.5753C44.2648 25.6696 44.0489 25.6933 43.8445 25.6423L44.6723 23.6288C45.4062 21.8434 45.3735 19.8095 44.5854 18.0555L41.7562 11.5557H42.6865C43.0488 11.5557 43.4009 11.5123 43.7394 11.4328L46.2805 19.2224C46.8026 20.8236 46.6889 22.5408 45.9605 24.0577Z" fill="#6C8B57"/>
</g>
<defs>
<clipPath id="clip0_306_139">
<rect width="48" height="48" fill="white"/>
</clipPath>
</defs>
</svg>
