<svg width="48" height="48" viewBox="0 0 48 48" fill="none" xmlns="http://www.w3.org/2000/svg">
<path d="M47.1787 23.2701H43.1179C44.8061 19.4374 44.6236 16.3347 43.9848 14.2359C42.8897 10.4944 39.1939 6.43359 33.7186 6.43359C32.2586 6.43359 30.7985 6.70736 29.2928 7.25489C26.692 8.21306 24.9582 9.26249 24.1825 9.81002C23.4068 9.26249 21.7186 8.21306 19.0722 7.25489C17.5665 6.70736 16.0608 6.43359 14.6464 6.43359C9.1711 6.43359 5.47529 10.4944 4.38023 14.2359C3.74144 16.4716 3.51331 19.848 5.65779 24.0914H0.730038C0.319392 24.0914 0 24.4108 0 24.8214C0 25.2321 0.319392 25.5515 0.730038 25.5515H6.52471C6.75285 25.9621 7.02662 26.3728 7.34601 26.7834C12.0913 33.6275 22.403 41.0648 24.2738 41.521V41.5667C24.2738 41.5667 24.3194 41.5667 24.365 41.521H24.5019V41.4754C26.0989 40.6998 36 34.3119 41.2015 26.7378C41.7034 26.0534 42.1141 25.369 42.4791 24.6845H47.27C47.6806 24.6845 48 24.3652 48 23.9545C48 23.5439 47.5894 23.2701 47.1787 23.2701ZM39.8783 25.9621C35.0418 33.0344 26.1445 38.7378 24.2281 39.9697C22.2662 38.7378 13.4144 32.9887 8.53232 25.9621L8.25855 25.5515H14.9658C15.2395 25.5515 15.5133 25.4146 15.6502 25.1408L18.7072 19.118L23.4981 31.3918C23.5894 31.6655 23.9087 31.848 24.1825 31.848H24.2281C24.5475 31.848 24.8213 31.6199 24.9125 31.3005L29.1103 16.9279L31.346 24.1826C31.4373 24.4564 31.6654 24.6389 31.9392 24.6845C32.2129 24.7302 32.4867 24.5933 32.6692 24.3652L34.4487 21.7644L35.9544 24.3195C36.0913 24.5477 36.3194 24.6845 36.5932 24.6845H40.6996C40.4259 25.1408 40.1521 25.5515 39.8783 25.9621ZM41.5209 23.2701H37.0494L35.1787 20.0762C35.0418 19.848 34.8137 19.7112 34.5399 19.7112C34.2662 19.7112 34.038 19.8024 33.9011 20.0306L32.3498 22.3119L29.8403 14.1446C29.749 13.8252 29.4297 13.6427 29.1103 13.5971C28.7909 13.5971 28.4715 13.8252 28.3802 14.1446L24.1369 28.791L19.5285 17.0191C19.4373 16.7454 19.1635 16.5629 18.8897 16.5629C18.5703 16.5629 18.3422 16.6998 18.2053 16.9735L14.6008 24.0458H7.34601C5.52091 20.715 5.01901 17.521 5.8403 14.6465C6.79848 11.407 9.94677 7.9393 14.692 7.9393C15.9696 7.9393 17.2928 8.21306 18.616 8.66934C21.9468 9.90127 23.7262 11.3157 23.7719 11.3157C24.0456 11.5439 24.4106 11.5439 24.6844 11.3157C24.6844 11.3157 26.4639 9.90127 29.8403 8.66934C31.1635 8.16743 32.4867 7.9393 33.7643 7.9393C38.4639 7.9393 41.6578 11.407 42.616 14.6465C43.3916 17.2929 42.981 20.2131 41.5209 23.2701Z" fill="#6C8B57"/>
</svg>
