<svg width="100" height="100" viewBox="0 0 100 100" fill="none" xmlns="http://www.w3.org/2000/svg">
<path d="M68.1876 93.7501H31.8126C27.699 93.9029 23.6913 92.4262 20.6603 89.6409C17.6293 86.8557 15.8198 82.9868 15.6251 78.8751V59.3751C15.6251 58.5463 15.9543 57.7514 16.5404 57.1653C17.1264 56.5793 17.9213 56.2501 18.7501 56.2501C19.5789 56.2501 20.3737 56.5793 20.9598 57.1653C21.5459 57.7514 21.8751 58.5463 21.8751 59.3751V78.8751C22.0672 81.3296 23.2171 83.6101 25.0765 85.2239C26.9358 86.8377 29.3554 87.6553 31.8126 87.5001H68.1876C70.6447 87.6553 73.0643 86.8377 74.9237 85.2239C76.7831 83.6101 77.933 81.3296 78.1251 78.8751V59.3751C78.1251 58.5463 78.4543 57.7514 79.0404 57.1653C79.6264 56.5793 80.4213 56.2501 81.2501 56.2501C82.0789 56.2501 82.8737 56.5793 83.4598 57.1653C84.0459 57.7514 84.3751 58.5463 84.3751 59.3751V78.8751C84.1803 82.9868 82.3709 86.8557 79.3399 89.6409C76.3088 92.4262 72.3012 93.9029 68.1876 93.7501ZM92.8438 52.2188C93.1367 51.9283 93.3692 51.5827 93.5279 51.2019C93.6865 50.821 93.7682 50.4126 93.7682 50.0001C93.7682 49.5875 93.6865 49.1791 93.5279 48.7983C93.3692 48.4174 93.1367 48.0718 92.8438 47.7813L52.2188 7.1563C51.9283 6.8634 51.5827 6.63092 51.2019 6.47227C50.8211 6.31362 50.4126 6.23193 50.0001 6.23193C49.5876 6.23193 49.1791 6.31362 48.7983 6.47227C48.4175 6.63092 48.0718 6.8634 47.7813 7.1563L7.15634 47.7813C6.56789 48.3698 6.2373 49.1679 6.2373 50.0001C6.2373 50.8322 6.56789 51.6304 7.15634 52.2188C7.74479 52.8072 8.5429 53.1378 9.37509 53.1378C10.2073 53.1378 11.0054 52.8072 11.5938 52.2188L50.0001 13.7813L88.4063 52.2188C88.6969 52.5117 89.0425 52.7442 89.4233 52.9028C89.8041 53.0615 90.2126 53.1432 90.6251 53.1432C91.0376 53.1432 91.4461 53.0615 91.8269 52.9028C92.2077 52.7442 92.5533 52.5117 92.8438 52.2188Z" fill="black"/>
</svg>
