<svg width="48" height="48" viewBox="0 0 48 48" fill="none" xmlns="http://www.w3.org/2000/svg">
<g clip-path="url(#clip0_304_103)">
<path d="M31.7852 47.2526L31.5621 43.7167C31.4771 42.3578 30.9893 41.0728 30.1516 40.0003C30.0947 39.9275 30.0241 39.8666 29.9437 39.8212C29.8634 39.7757 29.7748 39.7465 29.6832 39.7352C29.5915 39.7239 29.4985 39.7309 29.4095 39.7555C29.3206 39.7802 29.2373 39.8222 29.1646 39.8791C29.0176 39.9939 28.9223 40.1624 28.8996 40.3474C28.8768 40.5325 28.9285 40.719 29.0433 40.866C29.7057 41.7139 30.0913 42.73 30.1586 43.8048L30.3345 46.5938H5.40033L5.5763 43.8047C5.66583 42.3799 6.30661 41.077 7.38061 40.1362C8.02076 39.5772 8.78504 39.1789 9.60999 38.9744L13.409 38.0357C13.6535 37.9753 13.8706 37.8347 14.0258 37.6364C14.1809 37.4381 14.2652 37.1935 14.265 36.9417V34.2272C15.5117 34.7294 16.7578 34.985 17.867 34.985C19.0127 34.985 20.2347 34.7238 21.426 34.2492V36.9304C21.4256 37.1827 21.5099 37.4278 21.6655 37.6264C21.8211 37.825 22.0389 37.9656 22.284 38.0256L26.1256 38.9744C26.4544 39.0557 26.7748 39.1681 27.0824 39.31C27.2511 39.3837 27.4419 39.3882 27.614 39.3227C27.786 39.2572 27.9255 39.1269 28.0025 38.9597C28.0795 38.7925 28.0879 38.6018 28.0259 38.4285C27.9639 38.2551 27.8363 38.1131 27.6707 38.0327C27.2822 37.8536 26.8776 37.7117 26.4623 37.609L22.8322 36.7125V33.581C23.7391 33.0775 24.6008 32.4531 25.3637 31.729C25.497 31.6002 25.5741 31.424 25.5781 31.2387C25.5821 31.0533 25.5128 30.8739 25.3852 30.7395C25.2576 30.605 25.0821 30.5263 24.8968 30.5206C24.7115 30.5149 24.5315 30.5826 24.3959 30.7089C23.6342 31.4316 22.7665 32.0424 21.8593 32.5123C21.8295 32.5247 21.8011 32.5395 21.7736 32.5556C20.4835 33.2095 19.1183 33.5787 17.8669 33.5787C15.9422 33.5787 13.6423 32.6582 11.8647 31.1762C10.3678 29.9283 8.51461 27.7128 8.16708 24.2375C8.18593 21.6282 10.6239 18.4512 13.7337 16.9918C16.2061 15.8323 18.3116 14.6441 19.9996 13.4569C22.3578 14.3257 24.1532 15.7034 25.4774 17.6634C26.6358 19.3782 27.2081 21.206 27.6113 22.7789C27.6145 23.147 27.6109 23.4781 27.6 23.7608C27.5963 23.8554 27.6118 23.9498 27.6455 24.0382C27.6792 24.1267 27.7304 24.2074 27.7961 24.2756C27.8617 24.3438 27.9405 24.3981 28.0276 24.4351C28.1147 24.4721 28.2084 24.4911 28.3031 24.4911C28.4848 24.4909 28.6594 24.4205 28.7903 24.2944C28.9212 24.1684 28.9982 23.9966 29.0053 23.815C29.0118 23.6438 29.016 23.4571 29.0178 23.2585L29.5991 23.1371C29.8136 23.0914 30.0146 22.9964 30.186 22.8594C30.3573 22.7225 30.4944 22.5474 30.5863 22.3482L30.5865 22.3477C31.017 21.406 31.554 19.7045 31.6501 18.0082C31.7606 16.0607 31.2587 14.6197 30.1949 13.8086C30.119 11.3251 29.4692 9.30909 28.2611 7.81191C27.3996 6.74428 26.2802 5.96438 24.9308 5.48719C24.4944 3.23231 22.7029 1.22691 20.3443 0.40772C18.3118 -0.297655 14.1277 -0.695343 8.93827 4.57106C8.80742 4.70389 8.73468 4.88324 8.73605 5.06969C8.73742 5.25613 8.81279 5.4344 8.94558 5.56528C9.01134 5.63011 9.08922 5.68135 9.17479 5.71606C9.26035 5.75078 9.35192 5.7683 9.44425 5.76762C9.53659 5.76695 9.62789 5.74808 9.71293 5.71211C9.79798 5.67613 9.8751 5.62376 9.9399 5.55797C14.5866 0.842345 18.1638 1.13963 19.8826 1.73634C20.3505 1.89843 20.7958 2.11979 21.2075 2.39503C20.7515 2.38048 20.2953 2.42039 19.8487 2.51391C18.4075 2.81709 17.0142 3.61744 15.5889 4.96088C15.4865 5.05752 15.4155 5.18267 15.385 5.32014C15.3545 5.4576 15.366 5.60105 15.4179 5.73192C15.4699 5.86278 15.5599 5.97504 15.6764 6.05416C15.7929 6.13328 15.9304 6.17561 16.0712 6.17569C16.2505 6.17588 16.4231 6.10738 16.5534 5.98425C17.7848 4.82344 18.9575 4.13841 20.1379 3.89006C21.1521 3.67716 22.2051 3.83447 22.992 4.3095C23.3368 4.91531 23.5404 5.53941 23.6021 6.09956C23.6192 6.252 23.6269 6.40228 23.6248 6.54834C23.6241 6.59657 23.6223 6.64477 23.6194 6.69291C23.5351 8.13094 22.4881 9.681 20.5043 11.3108C20.1703 11.5845 19.8281 11.8481 19.4781 12.1011L19.4775 12.1016C17.8122 13.3091 15.6787 14.5259 13.1359 15.7186C9.65893 17.3503 6.99971 20.7837 6.7748 23.8538C6.47621 23.699 6.10908 23.416 6.02021 23.2417C5.35168 20.4764 4.24102 13.4707 8.19436 7.67606C8.2967 7.52199 8.3342 7.33379 8.29875 7.15225C8.26329 6.97071 8.15772 6.81046 8.00493 6.70621C7.85213 6.60197 7.66441 6.56213 7.48245 6.59534C7.30049 6.62854 7.13893 6.73211 7.0328 6.88359C2.75199 13.1588 3.94674 20.6601 4.65914 23.5943C4.84552 24.3604 6.01524 25.2352 6.90549 25.3552C7.61546 29.2492 10.1093 32.0123 12.8587 33.5526V36.7231L9.27286 37.6091C8.22976 37.8675 7.26341 38.3712 6.45418 39.0783C5.09621 40.2679 4.28611 41.915 4.17286 43.7162L3.94974 47.2526C3.94368 47.3485 3.95733 47.4446 3.98986 47.535C4.02238 47.6254 4.07309 47.7082 4.13884 47.7782C4.2046 47.8482 4.28401 47.904 4.37218 47.9422C4.46034 47.9803 4.55539 48 4.65146 48H31.0835C31.1796 48 31.2746 47.9803 31.3628 47.9422C31.4509 47.904 31.5303 47.8482 31.5961 47.7782C31.6619 47.7081 31.7126 47.6254 31.7451 47.535C31.7776 47.4446 31.7913 47.3485 31.7852 47.2526ZM25.002 7.02863C27.5281 8.17331 28.4507 10.5443 28.7104 12.7737L28.4372 12.5813C28.2848 12.4739 28.0959 12.4314 27.9121 12.4633C27.7284 12.4952 27.5648 12.5987 27.4574 12.7512C27.35 12.9036 27.3076 13.0925 27.3394 13.2763C27.3713 13.46 27.4749 13.6236 27.6273 13.731L29.0938 14.764C29.104 14.7713 29.1151 14.7763 29.1256 14.7829C29.1331 14.7876 29.1398 14.7931 29.1474 14.7975C30.9941 15.8642 30.148 19.9239 29.3085 21.7613L28.8226 21.8629C27.8757 18.4541 26.09 14.5599 21.3112 12.4675C23.0046 11.0859 24.7559 9.198 25.002 7.02863Z" fill="#6C8B57"/>
<path d="M43.8146 41.1693L43.0816 40.2959C42.9951 40.1928 42.8892 40.1077 42.7699 40.0456C42.6505 39.9834 42.5201 39.9454 42.3861 39.9337C42.252 39.922 42.117 39.9368 41.9887 39.9773C41.8604 40.0178 41.7413 40.0832 41.6383 40.1698L39.9101 41.6199L39.1019 40.6567L40.674 39.3376L40.6742 39.3375L42.0899 38.1495C42.2312 38.0292 42.3192 37.8579 42.3347 37.6729C42.3502 37.488 42.292 37.3044 42.1727 37.1622C42.0534 37.0201 41.8827 36.9308 41.6978 36.914C41.513 36.8972 41.329 36.9541 41.186 37.0724L40.3088 37.8084L34.2987 30.646L34.2981 30.6451L31.9651 27.8649C31.5611 27.3836 30.8293 27.2639 30.2858 27.6686C29.9424 27.3093 29.6599 26.7432 28.8729 26.4263L28.2889 26.1912L27.6095 25.3815C27.2573 24.9621 26.6297 24.9071 26.2103 25.2591L26.1936 25.2732L24.1908 22.8864C24.1317 22.8149 24.059 22.7558 23.9769 22.7125C23.8949 22.6693 23.8051 22.6427 23.7127 22.6342C23.6203 22.6258 23.5272 22.6358 23.4387 22.6635C23.3502 22.6913 23.268 22.7362 23.1969 22.7959C23.1259 22.8555 23.0673 22.9286 23.0246 23.011C22.982 23.0933 22.956 23.1833 22.9483 23.2757C22.9405 23.3682 22.9511 23.4612 22.9795 23.5496C23.0079 23.6379 23.0535 23.7197 23.1136 23.7903L25.1164 26.1771L25.0997 26.1912C24.6802 26.543 24.6251 27.1707 24.9772 27.5906L25.6565 28.4001L25.7866 29.0161C25.9624 29.8482 26.4627 30.212 26.7647 30.6233C26.5446 30.8297 26.4085 31.1102 26.3826 31.4108C26.3539 31.7389 26.4548 32.0587 26.6664 32.3111L33.3877 40.3211L33.3879 40.3215L33.3882 40.3217L35.01 42.2545L34.1329 42.9905C34.0223 43.0833 33.943 43.2078 33.9057 43.3472C33.8683 43.4867 33.8748 43.6342 33.9242 43.7698C33.9736 43.9054 34.0635 44.0225 34.1818 44.1052C34.3001 44.188 34.4409 44.2323 34.5852 44.2322C35.0408 44.2322 34.9722 44.0469 38.0248 41.5605L38.833 42.5237L37.1046 43.9741C36.6721 44.3371 36.6155 44.9844 36.9784 45.4173C37.5925 46.0611 37.7551 46.5958 38.4068 46.653C38.4372 46.6556 38.4676 46.6569 38.4978 46.6569C38.738 46.6569 38.9683 46.5734 39.1544 46.4171L43.6886 42.6125C44.1209 42.2493 44.1775 41.6022 43.8146 41.1693ZM27.1623 28.7252L26.9959 27.9373C26.9369 27.658 26.773 27.5737 26.3198 27.0029L26.7978 26.6017L27.3246 27.2295C27.5068 27.4465 27.6833 27.4415 28.3476 27.7305C28.5007 27.7923 28.6364 27.8907 28.7426 28.0171L29.2061 28.5695L27.8393 29.7163C27.4788 29.2508 27.243 29.1071 27.1623 28.7252ZM27.8547 31.5394L30.9988 28.9011L32.7686 31.0103L29.6245 33.6485L27.8547 31.5394ZM36.0872 41.3504L34.917 39.9558L35.8228 39.1957C35.9641 39.0754 36.0521 38.9041 36.0676 38.7191C36.0831 38.5341 36.0249 38.3506 35.9056 38.2084C35.7863 38.0662 35.6156 37.977 35.4307 37.9602C35.2459 37.9433 35.0619 38.0002 34.9189 38.1185L34.0132 38.8785L32.6025 37.1974L33.5083 36.4374C33.6512 36.3175 33.7405 36.1458 33.7568 35.9601C33.773 35.7743 33.7148 35.5897 33.5949 35.4468C33.4751 35.304 33.3034 35.2146 33.1176 35.1984C32.9318 35.1821 32.7472 35.2403 32.6044 35.3602L31.6986 36.1202L30.5284 34.7257L33.6726 32.0875L39.2313 38.712L36.0872 41.3504ZM38.5431 45.0942L38.3011 44.8059L42.25 41.4925L42.492 41.7808L38.5431 45.0942Z" fill="#6C8B57"/>
</g>
<defs>
<clipPath id="clip0_304_103">
<rect width="48" height="48" fill="white"/>
</clipPath>
</defs>
</svg>
