<svg width="512" height="512" viewBox="0 0 512 512" fill="none" xmlns="http://www.w3.org/2000/svg">
<g clip-path="url(#clip0_477_26)">
<path d="M503.234 91.578C498.574 47.914 464.09 13.422 420.422 8.766C310.914 -2.922 201.086 -2.922 91.582 8.766C47.914 13.426 13.426 47.914 8.766 91.578C-2.922 201.082 -2.922 310.914 8.766 420.418C13.426 464.086 47.914 498.574 91.578 503.234C201.082 514.922 310.914 514.922 420.422 503.234C464.09 498.574 498.574 464.086 503.234 420.418C514.922 310.914 514.922 201.086 503.234 91.578Z" fill="url(#paint0_radial_477_26)"/>
<path d="M475.387 110.098C471.254 71.352 440.652 40.746 401.902 36.609C304.73 26.242 207.27 26.242 110.098 36.609C71.3522 40.746 40.7462 71.352 36.6092 110.098C26.2422 207.27 26.2422 304.73 36.6092 401.898C40.7462 440.648 71.3522 471.254 110.098 475.387C207.27 485.757 304.73 485.757 401.898 475.387C440.648 471.254 471.254 440.648 475.387 401.898C485.757 304.73 485.757 207.27 475.387 110.098Z" fill="url(#paint1_linear_477_26)"/>
<path d="M7.67188 409.805C8.02288 413.344 8.38687 416.883 8.76587 420.422C13.4259 464.086 47.9139 498.574 91.5819 503.234C201.086 514.922 310.918 514.922 420.422 503.234C464.09 498.574 498.574 464.086 503.234 420.422C503.614 416.882 503.977 413.344 504.332 409.805H7.67188Z" fill="url(#paint2_linear_477_26)"/>
<path d="M503.234 420.418C509.504 361.732 512.413 302.736 511.945 243.718L394.915 126.688C380.293 109.996 358.937 99.5779 333.844 98.6759C282.238 96.8159 230.469 96.9099 178.855 98.6839C135.988 100.16 106.012 128.973 98.3248 171.32C96.9688 178.797 96.1558 186.371 95.0898 193.902V318.051C95.6798 322.074 96.5468 326.078 96.8158 330.125C98.5358 355.883 109.121 377.945 126.07 392.871L245.164 511.961C303.609 512.371 362.059 509.465 420.422 503.234C464.09 498.574 498.574 464.086 503.234 420.418Z" fill="url(#paint3_linear_477_26)"/>
<path d="M503.234 420.422C498.578 464.082 464.082 498.578 420.422 503.234C362.216 509.453 303.704 512.367 245.168 511.961L126.254 393.047C140.039 405.113 158.008 412.461 178.859 413.247C230.461 415.184 282.242 415.133 333.844 413.273C380.516 411.586 414.289 377.043 415.746 330.371C417.301 280.786 417.301 231.164 415.746 181.578C415.082 160.047 407.523 141.102 394.992 126.766L511.95 243.723C512.411 302.641 509.512 361.582 503.234 420.422Z" fill="url(#paint4_linear_477_26)"/>
<path d="M316.414 200.559C301.422 184.234 279.91 173.992 256 173.992C210.71 173.992 173.992 210.711 173.992 256C173.992 279.91 184.234 301.422 200.559 316.414L390.297 506.152C400.347 505.276 410.387 504.304 420.418 503.234C464.086 498.574 498.574 464.086 503.234 420.418C504.304 410.387 505.277 400.346 506.152 390.297L316.414 200.559Z" fill="url(#paint5_linear_477_26)"/>
<path d="M511.008 311.152L358.305 158.453C354.742 153.777 349.129 150.743 342.797 150.743C332.023 150.743 323.285 159.477 323.285 170.253C323.285 176.586 326.32 182.199 330.996 185.762L508.277 363.047C509.479 345.765 510.39 328.464 511.007 311.152H511.008Z" fill="url(#paint6_linear_477_26)"/>
<path d="M95.0898 193.902C96.1558 186.372 96.9688 178.797 98.3238 171.32C106.008 128.973 135.988 100.16 178.855 98.6839C230.469 96.9099 282.238 96.8159 333.844 98.6759C380.5 100.356 414.289 134.902 415.746 181.574C417.296 231.133 417.296 280.812 415.746 330.371C414.289 377.043 380.512 411.586 333.848 413.27C282.242 415.133 230.461 415.18 178.859 413.242C132.195 411.488 99.9368 376.863 96.8158 330.122C96.5458 326.078 95.6798 322.07 95.0898 318.047V193.902ZM256.043 385.61C279.66 385.61 303.301 386.317 326.887 385.446C363.867 384.076 386.613 362.005 387.477 325.06C388.547 279.009 388.547 232.939 387.477 186.888C386.613 149.95 363.852 127.364 326.887 126.579C279.957 125.591 233.012 125.591 186.082 126.579C149.398 127.349 126.586 149.478 125.59 186.009C124.324 232.645 124.324 279.306 125.59 325.942C126.586 362.47 149.398 384.087 186.086 385.446C209.375 386.313 232.723 385.61 256.043 385.61Z" fill="url(#paint7_linear_477_26)"/>
<path d="M95.0898 193.902C96.1558 186.372 96.9688 178.797 98.3238 171.32C106.008 128.973 135.988 100.16 178.855 98.6839C230.469 96.9099 282.238 96.8159 333.844 98.6759C380.5 100.356 414.289 134.902 415.746 181.574C417.296 231.133 417.296 280.812 415.746 330.371C414.289 377.043 380.512 411.586 333.848 413.27C282.242 415.133 230.461 415.18 178.859 413.242C132.195 411.488 99.9368 376.863 96.8158 330.122C96.5458 326.078 95.6798 322.07 95.0898 318.047V193.902ZM256.043 385.61C279.66 385.61 303.301 386.317 326.887 385.446C363.867 384.076 386.613 362.005 387.477 325.06C388.547 279.009 388.547 232.939 387.477 186.888C386.613 149.95 363.852 127.364 326.887 126.579C279.957 125.591 233.012 125.591 186.082 126.579C149.398 127.349 126.586 149.478 125.59 186.009C124.324 232.645 124.324 279.306 125.59 325.942C126.586 362.47 149.398 384.087 186.086 385.446C209.375 386.313 232.723 385.61 256.043 385.61Z" fill="white"/>
<path d="M256 173.996C210.71 173.996 173.992 210.711 173.992 256C173.992 301.293 210.711 338.008 256 338.008C301.293 338.008 338.008 301.293 338.008 256C338.008 210.71 301.293 173.996 256 173.996ZM256 309.773C226.3 309.773 202.227 285.699 202.227 256C202.227 226.301 226.3 202.227 256 202.227C285.7 202.227 309.773 226.3 309.773 256C309.773 285.7 285.7 309.773 256 309.773ZM362.305 170.254C362.305 181.027 353.57 189.762 342.797 189.762C332.024 189.762 323.285 181.027 323.285 170.254C323.285 159.477 332.023 150.742 342.797 150.742C353.571 150.742 362.305 159.477 362.305 170.254Z" fill="white"/>
</g>
<defs>
<radialGradient id="paint0_radial_477_26" cx="0" cy="0" r="1" gradientUnits="userSpaceOnUse" gradientTransform="translate(104.957 447.447) scale(564.646)">
<stop stop-color="#FAE100"/>
<stop offset="0.054" stop-color="#FADC04"/>
<stop offset="0.117" stop-color="#FBCE0E"/>
<stop offset="0.183" stop-color="#FCB720"/>
<stop offset="0.251" stop-color="#FE9838"/>
<stop offset="0.305" stop-color="#FF7950"/>
<stop offset="0.492" stop-color="#FF1C74"/>
<stop offset="1" stop-color="#6C1CD1"/>
</radialGradient>
<linearGradient id="paint1_linear_477_26" x1="196.373" y1="222.46" x2="-671.016" y2="-265.446" gradientUnits="userSpaceOnUse">
<stop stop-color="#A1B5D8" stop-opacity="0"/>
<stop offset="0.309" stop-color="#90A2BD" stop-opacity="0.31"/>
<stop offset="0.755" stop-color="#7C8B9C" stop-opacity="0.757"/>
<stop offset="1" stop-color="#748290"/>
</linearGradient>
<linearGradient id="paint2_linear_477_26" x1="256" y1="451.966" x2="256" y2="531.774" gradientUnits="userSpaceOnUse">
<stop stop-color="#FAE100" stop-opacity="0"/>
<stop offset="0.307" stop-color="#FCA800" stop-opacity="0.306"/>
<stop offset="0.627" stop-color="#FE7300" stop-opacity="0.627"/>
<stop offset="0.869" stop-color="#FF5200" stop-opacity="0.867"/>
<stop offset="1" stop-color="#FF4500"/>
</linearGradient>
<linearGradient id="paint3_linear_477_26" x1="95.0898" y1="97.3169" x2="511.993" y2="97.3169" gradientUnits="userSpaceOnUse">
<stop stop-color="#833AB4" stop-opacity="0"/>
<stop offset="1" stop-color="#833AB4"/>
</linearGradient>
<linearGradient id="paint4_linear_477_26" x1="126.254" y1="126.766" x2="511.997" y2="126.766" gradientUnits="userSpaceOnUse">
<stop stop-color="#833AB4" stop-opacity="0"/>
<stop offset="1" stop-color="#833AB4"/>
</linearGradient>
<linearGradient id="paint5_linear_477_26" x1="173.992" y1="173.992" x2="506.152" y2="173.992" gradientUnits="userSpaceOnUse">
<stop stop-color="#833AB4" stop-opacity="0"/>
<stop offset="1" stop-color="#833AB4"/>
</linearGradient>
<linearGradient id="paint6_linear_477_26" x1="323.285" y1="150.743" x2="511.008" y2="150.743" gradientUnits="userSpaceOnUse">
<stop stop-color="#833AB4" stop-opacity="0"/>
<stop offset="1" stop-color="#833AB4"/>
</linearGradient>
<linearGradient id="paint7_linear_477_26" x1="357.658" y1="155.05" x2="150.543" y2="362.165" gradientUnits="userSpaceOnUse">
<stop stop-color="#833AB4"/>
<stop offset="0.092" stop-color="#9C3495"/>
<stop offset="0.293" stop-color="#DC2546"/>
<stop offset="0.392" stop-color="#FD1D1D"/>
<stop offset="0.559" stop-color="#FC6831"/>
<stop offset="0.689" stop-color="#FC9B40"/>
<stop offset="0.752" stop-color="#FCAF45"/>
<stop offset="0.781" stop-color="#FDB750"/>
<stop offset="0.866" stop-color="#FECB6A"/>
<stop offset="0.942" stop-color="#FFD87A"/>
<stop offset="1" stop-color="#FFDC80"/>
</linearGradient>
<clipPath id="clip0_477_26">
<rect width="512" height="512" fill="white"/>
</clipPath>
</defs>
</svg>
