<svg width="49" height="48" viewBox="0 0 49 48" fill="none" xmlns="http://www.w3.org/2000/svg">
<g clip-path="url(#clip0_167_685)">
<path d="M5.30371 14.6066L22.5271 11.584" stroke="#6C8B57" stroke-linecap="round" stroke-linejoin="round"/>
<path d="M1.04906 12.7143L4.29878 12.1312L4.84428 12.0347L4.94086 12.5784L5.66699 16.6329L5.76536 17.1784L5.21986 17.275L0.489258 18.1228" stroke="#6C8B57" stroke-linecap="round" stroke-linejoin="round"/>
<path d="M21.1357 9.44873L21.9638 14.0702" stroke="#6C8B57" stroke-linecap="round" stroke-linejoin="round"/>
<path d="M19.4668 9.74707L20.2949 14.3686" stroke="#6C8B57" stroke-linecap="round" stroke-linejoin="round"/>
<path d="M17.8003 10.0459L18.6266 14.6674" stroke="#6C8B57" stroke-linecap="round" stroke-linejoin="round"/>
<path d="M16.1313 10.3447L16.9594 14.9662" stroke="#6C8B57" stroke-linecap="round" stroke-linejoin="round"/>
<path d="M14.4644 10.6436L15.2906 15.2651" stroke="#6C8B57" stroke-linecap="round" stroke-linejoin="round"/>
<path d="M12.7959 10.9419L13.624 15.5634" stroke="#6C8B57" stroke-linecap="round" stroke-linejoin="round"/>
<path d="M17.4834 26.6362C18.7461 26.2319 20.9388 25.4146 23.3998 25.3806C28.5847 25.3109 33.1078 28.2387 36.5775 30.274" stroke="#6C8B57" stroke-linecap="round" stroke-linejoin="round"/>
<path d="M36.5796 30.3115C34.2402 33.631 29.8834 35.8684 24.8809 35.8684C19.8785 35.8684 15.5217 33.6292 13.1841 30.3115" stroke="#6C8B57" stroke-linecap="round" stroke-linejoin="round"/>
<path d="M15.6827 33.0996C15.0138 33.654 13.9604 34.5501 13.2915 35.1063" stroke="#6C8B57" stroke-linecap="round" stroke-linejoin="round"/>
<path d="M17.836 34.2856C17.6178 35.2514 16.2979 36.9648 16.2979 36.9648" stroke="#6C8B57" stroke-linecap="round" stroke-linejoin="round"/>
<path d="M19.9873 35.2959C20.1822 36.0596 19.5974 37.2776 19.3291 38.0198" stroke="#6C8B57" stroke-linecap="round" stroke-linejoin="round"/>
<path d="M22.6235 35.8218C22.3874 36.623 22.6718 38.4402 22.6718 38.4402" stroke="#6C8B57" stroke-linecap="round" stroke-linejoin="round"/>
<path d="M25.038 36.6571C25.038 36.4229 25.0416 36.1886 25.0434 35.9561C24.9843 36.6822 25.0738 37.7875 25.2133 38.5029" stroke="#6C8B57" stroke-linecap="round" stroke-linejoin="round"/>
<path d="M27.104 35.7344C27.4367 36.2262 27.8212 37.3422 27.8945 37.9307" stroke="#6C8B57" stroke-linecap="round" stroke-linejoin="round"/>
<path d="M29.6509 35.1636C29.8297 35.8843 30.2017 36.7232 30.749 37.3152" stroke="#6C8B57" stroke-linecap="round" stroke-linejoin="round"/>
<path d="M31.4341 34.772C31.6988 35.3622 32.6234 36.0686 33.1224 36.4818" stroke="#6C8B57" stroke-linecap="round" stroke-linejoin="round"/>
<path d="M33.2153 33.7705C33.6964 34.1658 34.6909 34.8561 35.172 35.2514" stroke="#6C8B57" stroke-linecap="round" stroke-linejoin="round"/>
<path d="M34.8569 32.2754C35.2218 32.9962 36.3968 33.5291 37.1623 33.7867" stroke="#6C8B57" stroke-linecap="round" stroke-linejoin="round"/>
<path d="M36.0376 31.1592C36.8228 31.7136 37.7331 32.302 38.6846 32.4398" stroke="#6C8B57" stroke-linecap="round" stroke-linejoin="round"/>
<path d="M13.8799 31.4204C13.1466 32.0017 12.3525 32.5042 11.5137 32.9174" stroke="#6C8B57" stroke-linecap="round" stroke-linejoin="round"/>
<path d="M12.0448 20.0954C12.0448 20.0954 12.1503 20.0543 12.3506 19.9756C12.5563 19.8969 12.8585 19.7806 13.2413 19.634C14.0139 19.3406 15.1264 18.9275 16.4713 18.4482C17.8163 17.9689 19.3955 17.4269 21.1 16.8868C21.9513 16.6167 22.8348 16.3485 23.7344 16.0927C24.6341 15.837 25.5498 15.5955 26.4601 15.3863C27.3669 15.177 28.2844 14.9999 29.1036 14.9159L29.2574 14.8998L29.2949 14.8962C29.2198 14.8962 29.2806 14.8962 29.2681 14.8962H29.2788L29.3021 14.8944L29.3951 14.889C29.5185 14.8819 29.6419 14.8747 29.7653 14.8676C29.8977 14.8586 29.9907 14.8586 30.0908 14.8551C30.1928 14.8515 30.2929 14.8479 30.3931 14.8461C30.6059 14.8461 30.8223 14.8461 31.0369 14.8515C31.2498 14.8622 31.4644 14.864 31.6754 14.8837C32.5196 14.9427 33.3387 15.0607 34.1042 15.2253C34.8697 15.3898 35.5815 15.5955 36.2272 15.8155C37.5149 16.2608 38.5236 16.7598 39.1943 17.1318C39.865 17.5074 40.2048 17.7542 40.1869 17.7399C40.482 17.985 40.9846 18.0046 41.3119 17.7846C41.6392 17.5647 41.666 17.1873 41.3727 16.9423C41.3638 16.9351 41.2744 16.8528 41.1062 16.7097C40.9363 16.5685 40.6859 16.3664 40.3533 16.1231C40.0206 15.8799 39.6021 15.5955 39.096 15.2879C38.5898 14.982 37.9996 14.653 37.3146 14.331C36.6314 14.0091 35.857 13.6907 34.9931 13.4082C34.1311 13.1238 33.1778 12.8841 32.1565 12.7071C31.9026 12.6588 31.6414 12.6284 31.3785 12.589C31.1138 12.555 30.8491 12.5282 30.5773 12.5014C30.4342 12.4907 30.2911 12.4817 30.148 12.471C30.005 12.462 29.8529 12.4495 29.7385 12.4459C29.6151 12.4406 29.4917 12.4352 29.3683 12.4298L29.2752 12.4263H29.252H29.2413C29.2198 12.4263 29.2735 12.4263 29.1912 12.4263H28.9193C27.755 12.4298 26.6819 12.5372 25.6249 12.6659C24.5697 12.7983 23.5413 12.961 22.5397 13.1363C21.5382 13.3116 20.5634 13.5012 19.628 13.6943C17.7573 14.0806 16.0331 14.4759 14.5648 14.83C13.0946 15.1842 11.8784 15.4954 11.0253 15.7189C10.5979 15.8316 10.2616 15.921 10.0327 15.9818C9.79839 16.0462 9.67498 16.0802 9.67498 16.0802C8.14938 16.4969 7.36423 17.7596 7.92045 18.9025C8.47668 20.0435 10.165 20.6319 11.6888 20.217C11.8069 20.1848 11.9213 20.1473 12.0304 20.1061L12.0465 20.099L12.0448 20.0954Z" stroke="#6C8B57" stroke-linecap="round" stroke-linejoin="round"/>
<path d="M35.5601 20.9954C35.6209 21.9326 36.2647 23.5208 37.3092 25.1644C38.7883 27.4913 42.2527 31.7855 42.8983 31.3741C43.544 30.9628 41.1277 26.005 39.6468 23.6782C38.6023 22.0363 37.438 20.779 36.6153 20.3247" stroke="#6C8B57" stroke-linecap="round" stroke-linejoin="round"/>
<path d="M37.3091 25.1641L47.5948 38.7603" stroke="#6C8B57" stroke-linecap="round" stroke-linejoin="round"/>
<path d="M39.6484 23.6782L47.5948 38.7607" stroke="#6C8B57" stroke-linecap="round" stroke-linejoin="round"/>
</g>
<defs>
<clipPath id="clip0_167_685">
<rect width="48" height="30.2091" fill="white" transform="translate(0.0419922 9)"/>
</clipPath>
</defs>
</svg>
