<svg width="512" height="512" viewBox="0 0 512 512" fill="none" xmlns="http://www.w3.org/2000/svg">
<g clip-path="url(#clip0_477_48)">
<path d="M420.422 503.273C311.156 514.93 200.96 514.93 91.6946 503.273C70.4762 501.032 50.6669 491.586 35.5693 476.509C20.4716 461.433 10.9978 441.637 8.72733 420.422C-2.92994 311.156 -2.92994 200.96 8.72733 91.6945C10.968 70.4761 20.414 50.6668 35.4905 35.5691C50.567 20.4715 70.363 10.9977 91.5782 8.72721C200.844 -2.93007 311.04 -2.93007 420.305 8.72721C441.524 10.9679 461.333 20.4139 476.431 35.4904C491.528 50.5669 501.002 70.3629 503.273 91.5781C514.93 200.844 514.93 311.04 503.273 420.305C501.032 441.524 491.586 461.333 476.51 476.431C461.433 491.528 441.637 501.002 420.422 503.273Z" fill="#0B66C3"/>
<path d="M184.437 139.636C184.437 148.267 181.878 156.703 177.083 163.879C172.288 171.055 165.473 176.648 157.499 179.951C149.526 183.254 140.752 184.118 132.287 182.434C123.823 180.751 116.048 176.595 109.945 170.492C103.842 164.389 99.6863 156.614 98.0025 148.149C96.3188 139.685 97.183 130.911 100.486 122.937C103.788 114.964 109.381 108.149 116.557 103.354C123.733 98.5592 132.17 96 140.8 96C152.374 96 163.473 100.597 171.656 108.781C179.839 116.964 184.437 128.063 184.437 139.636ZM174.546 212.364V405.149C174.554 406.571 174.28 407.981 173.741 409.297C173.202 410.613 172.408 411.81 171.405 412.818C170.402 413.827 169.21 414.627 167.897 415.173C166.584 415.719 165.175 416 163.753 416H117.76C116.338 416.004 114.929 415.727 113.615 415.184C112.3 414.642 111.105 413.845 110.1 412.839C109.094 411.833 108.297 410.639 107.755 409.324C107.212 408.009 106.935 406.6 106.939 405.178V212.364C106.939 209.494 108.079 206.741 110.108 204.711C112.138 202.682 114.89 201.542 117.76 201.542H163.753C166.618 201.55 169.363 202.693 171.387 204.722C173.41 206.75 174.546 209.499 174.546 212.364ZM414.953 312.727V406.051C414.957 407.359 414.702 408.654 414.204 409.863C413.705 411.072 412.972 412.17 412.048 413.095C411.123 414.019 410.025 414.752 408.816 415.25C407.607 415.749 406.312 416.004 405.004 416H355.55C354.242 416.004 352.946 415.749 351.738 415.25C350.529 414.752 349.431 414.019 348.506 413.095C347.581 412.17 346.849 411.072 346.35 409.863C345.851 408.654 345.597 407.359 345.6 406.051V315.607C345.6 302.109 349.557 256.495 310.313 256.495C279.913 256.495 273.717 287.709 272.495 301.731V406.051C272.495 408.665 271.467 411.173 269.633 413.035C267.798 414.897 265.305 415.962 262.691 416H214.924C213.619 416 212.327 415.742 211.121 415.242C209.916 414.742 208.821 414.008 207.899 413.084C206.978 412.16 206.248 411.063 205.751 409.856C205.254 408.649 205 407.356 205.004 406.051V211.52C205 210.215 205.254 208.922 205.751 207.715C206.248 206.508 206.978 205.411 207.899 204.487C208.821 203.562 209.916 202.829 211.121 202.329C212.327 201.828 213.619 201.571 214.924 201.571H262.691C265.33 201.571 267.861 202.619 269.726 204.485C271.592 206.351 272.64 208.881 272.64 211.52V228.335C283.928 211.404 300.655 198.342 336.35 198.342C415.419 198.342 414.953 272.175 414.953 312.727Z" fill="white"/>
</g>
<defs>
<clipPath id="clip0_477_48">
<rect width="512" height="512" fill="white"/>
</clipPath>
</defs>
</svg>
