<svg width="100" height="100" viewBox="0 0 100 100" fill="none" xmlns="http://www.w3.org/2000/svg">
<path d="M50.0032 4.68316C45.4462 4.69253 41.0787 6.50776 37.8575 9.73117C34.6363 12.9546 32.8241 17.3233 32.8179 21.8803V37.5007H35.9419V21.8803C35.9381 20.0326 36.2988 18.2023 37.0036 16.4943C37.7083 14.7863 38.7432 13.2341 40.0489 11.9268C41.3546 10.6194 42.9055 9.58257 44.6126 8.87566C46.3198 8.16876 48.1496 7.80568 49.9973 7.80724C51.846 7.80412 53.6772 8.16605 55.3857 8.87226C57.0942 9.57847 58.6464 10.6151 59.9534 11.9226C61.2604 13.2301 62.2963 14.7828 63.0018 16.4916C63.7073 18.2004 64.0684 20.0316 64.0645 21.8803V37.5007H67.1886V21.8803C67.1824 17.3233 65.3702 12.9546 62.149 9.73117C58.9278 6.50776 54.5603 4.69253 50.0032 4.68316Z" fill="white"/>
<path d="M28.1228 35.9417C22.099 35.9417 17.1855 40.8551 17.1855 46.873V84.3737C17.1855 90.3974 22.099 95.3109 28.1228 95.3109H71.8717C77.8954 95.3109 82.8148 90.3974 82.8148 84.3737V46.873C82.8148 40.8492 77.8954 35.9417 71.8717 35.9417H28.1228ZM28.1228 39.0716H71.8717C72.8984 39.0685 73.9155 39.2683 74.8648 39.6594C75.8141 40.0505 76.6768 40.6252 77.4033 41.3507C78.1299 42.0761 78.7059 42.9379 79.0985 43.8866C79.491 44.8353 79.6923 45.8522 79.6907 46.8789V84.3796C79.6907 88.7084 76.2064 92.1928 71.8717 92.1928H28.1228C27.0956 92.1951 26.0781 91.9944 25.1287 91.6022C24.1793 91.21 23.3168 90.6341 22.5907 89.9075C21.8647 89.1809 21.2894 88.3179 20.8979 87.3682C20.5064 86.4186 20.3065 85.4009 20.3096 84.3737V46.873C20.3096 42.5441 23.788 39.0657 28.1228 39.0657V39.0716Z" fill="white"/>
<path d="M50.003 54.6861C45.7037 54.6861 42.1958 58.2059 42.1958 62.5052C42.1958 66.7986 45.7037 70.3124 50.003 70.3124C54.3023 70.3124 57.8103 66.7986 57.8103 62.5052C57.8103 58.2059 54.2964 54.6861 50.003 54.6861ZM50.003 57.8161C50.6192 57.8137 51.2297 57.9335 51.7993 58.1684C52.369 58.4032 52.8864 58.7487 53.3219 59.1846C53.7573 59.6206 54.102 60.1385 54.3362 60.7084C54.5704 61.2783 54.6893 61.889 54.6862 62.5052C54.6901 63.1213 54.5717 63.732 54.3377 64.302C54.1037 64.8719 53.7589 65.3897 53.3233 65.8254C52.8876 66.2611 52.3698 66.6059 51.7998 66.8398C51.2299 67.0738 50.6191 67.1922 50.003 67.1883C49.3869 67.1922 48.7762 67.0738 48.2062 66.8398C47.6363 66.6059 47.1185 66.2611 46.6828 65.8254C46.2471 65.3897 45.9023 64.8719 45.6684 64.302C45.4344 63.732 45.316 63.1213 45.3199 62.5052C45.316 61.8885 45.4344 61.2772 45.6682 60.7066C45.902 60.136 46.2466 59.6174 46.6821 59.1808C47.1176 58.7442 47.6353 58.3983 48.2054 58.163C48.7754 57.9278 49.3864 57.8078 50.003 57.8102V57.8161Z" fill="white"/>
<path d="M48.4322 68.7592V76.5665C48.4322 76.9815 48.5971 77.3796 48.8906 77.6731C49.184 77.9666 49.5821 78.1314 49.9972 78.1314C50.4122 78.1314 50.8103 77.9666 51.1038 77.6731C51.3973 77.3796 51.5622 76.9815 51.5622 76.5665V68.7592H48.4263H48.4322Z" fill="white"/>
</svg>
