<svg width="100" height="100" viewBox="0 0 100 100" fill="none" xmlns="http://www.w3.org/2000/svg">
<g clip-path="url(#clip0_475_82)">
<path d="M95.9018 11.4754H97.5411C97.9759 11.4754 98.3929 11.3027 98.7003 10.9953C99.0078 10.6878 99.1805 10.2708 99.1805 9.83606V3.27869C99.1805 2.84391 99.0078 2.42693 98.7003 2.1195C98.3929 1.81206 97.9759 1.63934 97.5411 1.63934H90.9837C90.549 1.63934 90.132 1.81206 89.8246 2.1195C89.5171 2.42693 89.3444 2.84391 89.3444 3.27869V4.91803H56.5575V1.63934C56.5575 1.20456 56.3848 0.787589 56.0774 0.480153C55.7699 0.172716 55.353 0 54.9182 0L45.0821 0C44.6473 0 44.2304 0.172716 43.9229 0.480153C43.6155 0.787589 43.4428 1.20456 43.4428 1.63934V4.91803H10.6559V3.27869C10.6559 2.84391 10.4832 2.42693 10.1757 2.1195C9.8683 1.81206 9.45133 1.63934 9.01654 1.63934H2.45917C2.02439 1.63934 1.60741 1.81206 1.29998 2.1195C0.99254 2.42693 0.819824 2.84391 0.819824 3.27869L0.819824 9.83606C0.819824 10.2708 0.99254 10.6878 1.29998 10.9953C1.60741 11.3027 2.02439 11.4754 2.45917 11.4754H4.09851V88.5246H2.45917C2.02439 88.5246 1.60741 88.6973 1.29998 89.0047C0.99254 89.3122 0.819824 89.7291 0.819824 90.1639L0.819824 96.7213C0.819824 97.1561 0.99254 97.5731 1.29998 97.8805C1.60741 98.1879 2.02439 98.3606 2.45917 98.3606H9.01654C9.45133 98.3606 9.8683 98.1879 10.1757 97.8805C10.4832 97.5731 10.6559 97.1561 10.6559 96.7213V95.082H43.4428V98.3606C43.4428 98.7954 43.6155 99.2124 43.9229 99.5198C44.2304 99.8273 44.6473 100 45.0821 100H54.9182C55.353 100 55.7699 99.8273 56.0774 99.5198C56.3848 99.2124 56.5575 98.7954 56.5575 98.3606V95.082H89.3444V96.7213C89.3444 97.1561 89.5171 97.5731 89.8246 97.8805C90.132 98.1879 90.549 98.3606 90.9837 98.3606H97.5411C97.9759 98.3606 98.3929 98.1879 98.7003 97.8805C99.0078 97.5731 99.1805 97.1561 99.1805 96.7213V90.1639C99.1805 89.7291 99.0078 89.3122 98.7003 89.0047C98.3929 88.6973 97.9759 88.5246 97.5411 88.5246H95.9018V50V11.4754ZM92.6231 4.91803H95.9018V8.19672H92.6231V4.91803ZM46.7215 3.27869H53.2788V9.83606H46.7215V6.55738V3.27869ZM4.09851 4.91803H7.3772V8.19672H4.09851V4.91803ZM7.3772 11.4754H9.01654C9.45133 11.4754 9.8683 11.3027 10.1757 10.9953C10.4832 10.6878 10.6559 10.2708 10.6559 9.83606V8.19672H32.7788C21.1444 12.7951 11.987 21.8984 7.3772 33.2295V11.4754ZM7.3772 95.082H4.09851V91.8033H7.3772V95.082ZM9.01654 88.5246H7.3772V66.7705C11.987 78.1016 21.1444 87.2049 32.7788 91.8033H10.6559V90.1639C10.6559 89.7291 10.4832 89.3122 10.1757 89.0047C9.8683 88.6973 9.45133 88.5246 9.01654 88.5246ZM40.5739 39.1541L46.3788 55.0197C44.2985 56.5443 43.3592 59.2984 44.2903 61.8377C44.5564 62.5719 44.9655 63.2459 45.494 63.8209C46.0225 64.3958 46.6598 64.8601 47.369 65.1869C48.0764 65.5171 48.8422 65.7038 49.6221 65.7365C50.4021 65.7691 51.1808 65.647 51.9133 65.377C53.4051 64.8311 54.5936 63.7377 55.2624 62.2984C55.9313 60.8574 56.0001 59.2443 55.4542 57.7541C54.5264 55.2147 52.0329 53.7164 49.4592 53.8934L43.651 38.0197L66.2231 55.9574C63.5575 59.6147 62.8182 63.9984 64.2641 67.9738L66.1641 73.1721L46.328 80.4279L44.4247 75.2229C42.9559 71.2115 39.4641 68.3639 34.9083 67.3738L40.5739 39.1541ZM52.3756 58.8803C52.6198 59.5475 52.5887 60.2721 52.2887 60.9164C52.1419 61.2347 51.9335 61.5207 51.6754 61.7579C51.4174 61.9951 51.1149 62.1788 50.7854 62.2984C50.1182 62.541 49.3919 62.5131 48.7493 62.2115C48.2002 61.9549 47.7549 61.5189 47.4867 60.9754C47.2184 60.4319 47.1433 59.8133 47.2737 59.2213C47.4041 58.6294 47.7321 58.0996 48.2039 57.7191C48.6756 57.3385 49.2629 57.13 49.869 57.1279C50.4157 57.1293 50.9489 57.2979 51.397 57.6112C51.845 57.9245 52.1865 58.3673 52.3756 58.8803ZM47.4542 83.5098L67.2903 76.2525L70.9838 86.3541C70.8919 86.4049 70.8018 86.459 70.71 86.5082C69.6369 87.0974 68.5392 87.6405 67.4198 88.1361L67.2247 88.2197C66.2342 88.6535 65.2274 89.0495 64.2067 89.4065L64.1756 89.418C64.0182 89.4738 63.8575 89.5229 63.6985 89.577C62.4888 89.9811 61.2613 90.3295 60.0198 90.6213C58.9313 90.877 57.8313 91.0967 56.7182 91.2672L56.5559 91.2885V88.5246C56.5559 88.0898 56.3832 87.6728 56.0757 87.3654C55.7683 87.058 55.3513 86.8852 54.9165 86.8852H48.6887L47.4542 83.5098ZM53.2788 96.7213H46.7215V90.1639H53.2788V93.4426V96.7213ZM95.9018 95.082H92.6231V91.8033H95.9018V95.082ZM92.6231 66.841V88.5246H90.9837C90.549 88.5246 90.132 88.6973 89.8246 89.0047C89.5171 89.3122 89.3444 89.7291 89.3444 90.1639V91.8033H67.1969C67.2264 91.7918 67.2542 91.777 67.2838 91.7639C68.5249 91.2629 69.7431 90.7066 70.9346 90.0967C71.9247 89.599 72.8969 89.0664 73.8493 88.5C74.827 87.9128 75.7828 87.29 76.7149 86.6328C77.0116 86.4262 77.2952 86.2082 77.5854 85.9951C78.5383 85.2975 79.4641 84.5636 80.3608 83.7951C80.9592 83.282 81.5362 82.7524 82.1034 82.2115C82.351 81.9754 82.6051 81.7443 82.8477 81.5033C83.6296 80.7213 84.3887 79.9213 85.1067 79.0902C85.1756 79.0115 85.2362 78.9262 85.3034 78.8459C85.951 78.0852 86.5706 77.3049 87.1641 76.5065C87.3756 76.2213 87.5739 75.9295 87.7788 75.641C88.8939 74.0703 89.9016 72.4261 90.7952 70.7197C90.9428 70.441 91.0985 70.1656 91.2395 69.8836C91.7264 68.9066 92.1838 67.9147 92.5985 66.9033C92.6034 66.882 92.6149 66.8623 92.6231 66.841ZM73.8395 84.6164L67.3444 66.8492C66.1215 63.4885 67.0001 59.8311 69.7542 56.8098C69.9056 56.6437 70.0211 56.4482 70.0937 56.2355C70.1664 56.0229 70.1945 55.7975 70.1763 55.5736C70.1582 55.3496 70.0942 55.1317 69.9883 54.9335C69.8824 54.7353 69.7369 54.5609 69.5608 54.4213L41.5362 32.1508C41.2723 31.1574 40.7411 28.4 42.3116 26.4016C44.1001 24.1279 48.2542 23.2967 54.3198 23.9787C60.4067 24.677 64.6313 23.7459 66.8887 21.2344C68.6624 19.2639 68.7034 16.7951 68.4493 15.6459L65.2493 16.3574C65.2526 16.3721 65.5215 17.8541 64.4526 19.0443C62.9854 20.6721 59.5165 21.2639 54.6903 20.7229C47.3264 19.882 42.2985 21.118 39.7346 24.377C37.1444 27.6705 38.028 31.8328 38.4231 33.2115L31.3592 68.4C31.313 68.6235 31.3143 68.8543 31.363 69.0773C31.4116 69.3003 31.5066 69.5106 31.6416 69.6947C31.7767 69.8787 31.9488 70.0323 32.147 70.1456C32.3451 70.2589 32.5649 70.3294 32.792 70.3525C36.9952 70.8 40.1133 72.9869 41.3461 76.3541L45.1969 86.8852H45.0821C44.6473 86.8852 44.2304 87.058 43.9229 87.3654C43.6155 87.6728 43.4428 88.0898 43.4428 88.5246V91.2984C22.7559 88.1885 7.3772 70.741 7.3772 50C7.3772 29.259 22.7559 11.8115 43.4428 8.70164V11.4754C43.4428 11.9102 43.6155 12.3272 43.9229 12.6346C44.2304 12.942 44.6473 13.1148 45.0821 13.1148H54.9182C55.353 13.1148 55.7699 12.942 56.0774 12.6346C56.3848 12.3272 56.5575 11.9102 56.5575 11.4754V8.70164C77.2444 11.8115 92.6231 29.259 92.6231 50C92.6231 64.0475 85.6329 76.8361 73.8395 84.6164ZM67.2215 8.19672H89.3444V9.83606C89.3444 10.2708 89.5171 10.6878 89.8246 10.9953C90.132 11.3027 90.549 11.4754 90.9837 11.4754H92.6231V33.2295C88.0133 21.8984 78.8559 12.7951 67.2215 8.19672Z" fill="black"/>
</g>
<defs>
<clipPath id="clip0_475_82">
<rect width="100" height="100" fill="white"/>
</clipPath>
</defs>
</svg>
