<svg width="100" height="100" viewBox="0 0 100 100" fill="none" xmlns="http://www.w3.org/2000/svg">
<g clip-path="url(#clip0_485_59)">
<path d="M1.46484 87.4543C1.07634 87.4543 0.703754 87.6086 0.429043 87.8834C0.154331 88.1581 0 88.5307 0 88.9192L0 95.7953C0 96.6045 0.655859 97.2602 1.46484 97.2602C2.27383 97.2602 2.92969 96.6045 2.92969 95.7953V88.9192C2.92969 88.5307 2.77536 88.1581 2.50064 87.8834C2.22593 87.6086 1.85334 87.4543 1.46484 87.4543ZM37.1641 29.0113C37.6977 28.7887 38.2703 28.674 38.8485 28.674C39.4268 28.674 39.9993 28.7887 40.533 29.0113C40.7105 29.0852 40.9008 29.1232 41.093 29.1233C41.4318 29.1231 41.7602 29.0056 42.0221 28.7906C42.284 28.5756 42.4633 28.2765 42.5295 27.9441C42.5957 27.6118 42.5446 27.2668 42.385 26.9679C42.2254 26.6689 41.9671 26.4346 41.6541 26.3047C39.8449 25.5551 37.852 25.5551 36.043 26.3047C35.6864 26.4549 35.4037 26.7402 35.2567 27.0981C35.1097 27.4561 35.1103 27.8577 35.2584 28.2152C35.4064 28.5727 35.69 28.8571 36.047 29.0063C36.4041 29.1554 36.8057 29.1573 37.1641 29.0113ZM38.8484 30.6856C38.4599 30.6856 38.0873 30.8399 37.8126 31.1146C37.5379 31.3893 37.3836 31.7619 37.3836 32.1504V34.1035C37.3836 34.9127 38.0395 35.5684 38.8484 35.5684C39.6574 35.5684 40.3133 34.9127 40.3133 34.1035V32.1504C40.3133 31.3412 39.6576 30.6856 38.8484 30.6856ZM25.2141 35.5684C25.6026 35.5684 25.9752 35.414 26.2499 35.1393C26.5246 34.8646 26.6789 34.492 26.6789 34.1035V32.1504C26.6789 31.3412 26.023 30.6856 25.2141 30.6856C24.4051 30.6856 23.7492 31.3412 23.7492 32.1504V34.1035C23.7492 34.492 23.9036 34.8646 24.1783 35.1393C24.453 35.414 24.8256 35.5684 25.2141 35.5684ZM29.327 39.3443C30.1736 39.7758 31.1025 39.9914 32.0312 39.9914C32.96 39.9914 33.8889 39.7758 34.7355 39.3443C35.0817 39.1679 35.3435 38.8612 35.4635 38.4917C35.5835 38.1222 35.5518 37.7202 35.3754 37.374C35.288 37.2026 35.1678 37.0501 35.0215 36.9252C34.8752 36.8003 34.7058 36.7054 34.5228 36.6459C34.3398 36.5865 34.147 36.5637 33.9552 36.5788C33.7634 36.5939 33.5765 36.6466 33.4051 36.734C32.9794 36.9503 32.5086 37.063 32.0312 37.063C31.5537 37.063 31.0829 36.9503 30.6572 36.734C30.4858 36.6466 30.2989 36.5939 30.1071 36.5788C29.9153 36.5637 29.7225 36.5865 29.5395 36.6459C29.3565 36.7054 29.1871 36.8003 29.0408 36.9252C28.8945 37.0501 28.7743 37.2026 28.6869 37.374C28.5106 37.7202 28.479 38.1222 28.599 38.4917C28.719 38.8612 28.9809 39.1679 29.327 39.3443ZM27.267 45.4672C28.6918 46.5026 30.3615 47.0201 32.0314 47.0201C33.7014 47.0201 35.3709 46.5026 36.7959 45.4672C37.1102 45.2388 37.3209 44.895 37.3817 44.5113C37.4424 44.1275 37.3483 43.7354 37.1199 43.4211C37.0069 43.2655 36.8643 43.1336 36.7002 43.0331C36.5362 42.9326 36.354 42.8653 36.164 42.8353C35.974 42.8052 35.7799 42.8128 35.5929 42.8577C35.4058 42.9027 35.2294 42.984 35.0738 43.0971C34.1904 43.7415 33.1251 44.0888 32.0316 44.0888C30.9381 44.0888 29.8729 43.7415 28.9895 43.0971C28.8339 42.9839 28.6575 42.9026 28.4704 42.8576C28.2834 42.8127 28.0893 42.805 27.8993 42.8351C27.7092 42.8652 27.527 42.9324 27.363 43.033C27.199 43.1335 27.0564 43.2654 26.9434 43.4211C26.8302 43.5767 26.7488 43.753 26.7038 43.9401C26.6588 44.1271 26.6511 44.3212 26.6812 44.5112C26.7113 44.7012 26.7785 44.8835 26.879 45.0475C26.9795 45.2115 27.1113 45.3541 27.267 45.4672Z" fill="white"/>
<path d="M97.6801 66.7947H97.5202V54.3057C97.5202 52.9988 96.5358 51.9193 95.27 51.765L95.327 51.0002C95.3566 50.5941 95.3024 50.1863 95.1678 49.8021C95.0332 49.4178 94.821 49.0654 94.5444 48.7666C94.2668 48.4684 93.9309 48.2305 93.5575 48.0676C93.1841 47.9048 92.7812 47.8205 92.3739 47.8199H90.9971L91.6034 44.3838L94.3276 37.5246C94.5615 36.9389 94.6614 36.3083 94.62 35.6789C94.5787 35.0496 94.3972 34.4374 94.0887 33.8873C93.5455 32.9103 92.6377 32.188 91.5635 31.8783L94.3235 27.2861C94.5885 26.845 94.7422 26.346 94.7713 25.8322C94.8004 25.3184 94.7041 24.8052 94.4906 24.337C94.2771 23.8687 93.9529 23.4594 93.5459 23.1445C93.1389 22.8295 92.6614 22.6183 92.1545 22.5291L77.6961 19.9812C77.1892 19.8917 76.6681 19.9269 76.1778 20.0838C75.6875 20.2407 75.2428 20.5146 74.8821 20.8818C74.5214 21.2487 74.2555 21.6978 74.1072 22.1905C73.9589 22.6831 73.9327 23.2044 74.0309 23.7094L76.6442 37.157L75.4512 43.9193L73.8563 39.5385L72.7832 32.2262C72.4948 30.2609 71.351 28.5498 69.6448 27.5314C67.9375 26.5125 65.8864 26.3184 64.0178 26.9984C63.0983 27.331 62.2647 27.8649 61.5782 28.5612C60.8917 29.2575 60.3695 30.0985 60.05 31.0227C59.3975 32.8992 59.6215 34.9453 60.6643 36.6363L64.544 42.9275L66.3252 47.8197H62.6776C62.2702 47.8203 61.8673 47.9046 61.4939 48.0675C61.1205 48.2303 60.7846 48.4682 60.5071 48.7664C60.2305 49.0652 60.0183 49.4177 59.8836 49.802C59.749 50.1862 59.6948 50.5941 59.7245 51.0002L60.9293 67.1727C60.0209 66.3572 58.47 65.4566 56.96 65.1002L56.8385 64.3611C56.6453 63.1857 55.8379 62.182 54.7317 61.741L48.7537 59.3576C47.5881 58.893 46.3008 58.9947 45.2225 59.6367C44.4522 60.0953 43.8748 60.7801 43.5537 61.5877C42.6903 61.3828 41.7194 60.4219 41.6993 59.2176V51.4063C44.0664 51.7801 46.9776 52.4326 49.437 53.1668C49.9241 53.3103 50.4369 53.3442 50.9387 53.266C51.4405 53.1879 51.9187 52.9996 52.3391 52.7146C52.7602 52.4308 53.1131 52.0571 53.3726 51.6206C53.632 51.184 53.7914 50.6954 53.8395 50.1898L56.5795 21.7988C56.7157 20.4828 56.661 19.1334 56.4166 17.7877C56.2721 16.9916 55.5082 16.4617 54.7137 16.6082C54.5244 16.6426 54.3438 16.7139 54.1821 16.818C54.0203 16.9222 53.8807 17.0572 53.7712 17.2153C53.6616 17.3735 53.5843 17.5516 53.5436 17.7397C53.5029 17.9277 53.4997 18.1219 53.534 18.3111C53.7289 19.3846 53.7733 20.4564 53.6645 21.5072L53.0258 28.1248C52.1556 27.5552 51.1379 27.2522 50.0979 27.2531H48.2692C44.3168 23.2444 41.5503 18.2206 40.2756 12.7373C40.2053 12.4351 40.0409 12.163 39.806 11.9603C39.5711 11.7576 39.2778 11.6347 38.9686 11.6094C38.6592 11.5834 38.3496 11.6566 38.0847 11.8184C37.8198 11.9803 37.6133 12.2223 37.4952 12.5094L37.1897 13.2479C33.6969 21.6928 25.5352 27.1904 16.3965 27.2531H13.9653C12.9218 27.2522 11.901 27.5572 11.0289 28.1303L10.8578 26.3664C10.3756 21.3949 11.9278 16.3385 15.1162 12.4937C19.8375 6.80058 27.4979 4.38359 34.6315 6.33633L39.4573 7.65762C39.6315 7.70535 39.8131 7.72045 39.9928 7.70215C44.3096 7.26152 48.5692 9.17129 51.1094 12.6863C51.3378 12.9988 51.6807 13.2082 52.0631 13.2687C52.4454 13.3292 52.8362 13.2359 53.1499 13.0092C53.4637 12.7825 53.675 12.4408 53.7376 12.0588C53.8002 11.6768 53.709 11.2855 53.484 10.9705C50.3879 6.68613 45.2307 4.32519 39.9743 4.76191L35.4049 3.51094C27.1637 1.25527 18.3149 4.04707 12.8608 10.6242C9.17777 15.0656 7.38461 20.9066 7.94164 26.6496L10.2055 49.9924C10.2562 50.5221 10.4233 51.0341 10.6949 51.4918C10.9665 51.9494 11.3359 52.3414 11.7766 52.6397C12.2165 52.9389 12.7171 53.1374 13.2426 53.2208C13.7681 53.3042 14.3055 53.2705 14.8164 53.1221C17.0151 52.4715 19.8662 51.8102 22.3637 51.4133V59.2184C22.3768 60.1029 21.9619 61.2375 20.5092 61.5887C20.1879 60.7809 19.6108 60.0963 18.8405 59.6377C17.7621 58.9957 16.475 58.8939 15.3092 59.3586L9.33148 61.742C8.22504 62.183 7.41781 63.1867 7.22445 64.3619L7.10277 65.1012C3.03109 66.0555 -0.0118792 69.8721 3.48637e-05 74.1209V82.0834C3.48637e-05 82.8926 0.655894 83.5482 1.46488 83.5482C2.27386 83.5482 2.92972 82.8926 2.92972 82.0834V74.1209C2.92972 71.6357 4.37699 69.4186 6.56214 68.3846L5.98929 71.8674C5.89701 72.4239 5.94426 72.9947 6.12679 73.5285C6.30933 74.0623 6.62145 74.5425 7.03519 74.926L12.1614 79.6895L8.48832 86.0424C8.13079 86.6604 7.97584 87.3748 8.04524 88.0854C8.11463 88.796 8.40489 89.467 8.87523 90.0041L14.7877 96.7602C14.9144 96.9049 15.0683 97.0234 15.2408 97.1086C15.4132 97.1939 15.6008 97.2444 15.7927 97.2571C15.9847 97.2699 16.1773 97.2447 16.3595 97.1831C16.5417 97.1214 16.71 97.0244 16.8547 96.8977C17.1471 96.6418 17.3258 96.2803 17.3516 95.8927C17.3775 95.505 17.2483 95.123 16.9924 94.8307L11.0799 88.0746C11.0127 87.9979 10.9712 87.9021 10.9613 87.8006C10.9514 87.6991 10.9735 87.597 11.0246 87.5088L15.2825 80.1447C15.4485 79.8575 15.5122 79.5224 15.463 79.1942C15.4138 78.8661 15.2546 78.5644 15.0116 78.3385L9.02953 72.7797C8.97046 72.725 8.92589 72.6564 8.89981 72.5803C8.87373 72.5041 8.86696 72.4226 8.88011 72.3432L10.1149 64.8367C10.1288 64.7538 10.1638 64.6758 10.2166 64.6103C10.2693 64.5448 10.338 64.494 10.4161 64.4627L16.3938 62.0793C16.5467 62.0176 16.7119 61.9922 16.8763 62.0052C17.0407 62.0181 17.1999 62.0691 17.3412 62.1541C17.4832 62.238 17.6038 62.3537 17.6935 62.4921C17.7833 62.6304 17.8397 62.7877 17.8584 62.9516L21.7496 95.967C21.7952 96.3527 21.9922 96.7046 22.2971 96.9452C22.602 97.1859 22.99 97.2955 23.3758 97.2502C23.5669 97.2277 23.7516 97.1678 23.9195 97.0739C24.0873 96.98 24.2351 96.8539 24.3542 96.7029C24.4734 96.5519 24.5617 96.3789 24.6139 96.1938C24.6662 96.0087 24.6816 95.8151 24.659 95.624L22.7828 79.7055C25.6282 81.1656 28.7748 81.9283 32.0313 81.9283C35.2879 81.9283 38.4346 81.1658 41.2797 79.7059L39.4036 95.624C39.3788 95.8161 39.3924 96.0112 39.4436 96.198C39.4948 96.3848 39.5825 96.5596 39.7016 96.7123C39.8208 96.865 39.9691 96.9925 40.1378 97.0875C40.3066 97.1825 40.4926 97.2431 40.6849 97.2658C40.8773 97.2885 41.0722 97.2728 41.2584 97.2196C41.4447 97.1665 41.6185 97.0769 41.7699 96.9561C41.9214 96.8353 42.0473 96.6857 42.1405 96.5159C42.2337 96.3462 42.2923 96.1596 42.3129 95.967L46.2041 62.9516C46.2229 62.7877 46.2793 62.6304 46.369 62.4921C46.4588 62.3537 46.5794 62.238 46.7213 62.1541C46.8627 62.0692 47.0219 62.0183 47.1863 62.0053C47.3507 61.9923 47.5158 62.0177 47.6688 62.0793L53.6467 64.4627C53.7247 64.4941 53.7934 64.545 53.8461 64.6105C53.8988 64.676 53.9338 64.754 53.9477 64.8369L55.1825 72.3432C55.1956 72.4227 55.1888 72.5042 55.1627 72.5804C55.1366 72.6566 55.092 72.7251 55.0328 72.7799L49.051 78.3385C48.8079 78.5643 48.6487 78.866 48.5995 79.1942C48.5502 79.5223 48.6139 79.8575 48.7799 80.1447L51.1903 84.3139C51.1786 84.4351 51.1724 84.5567 51.1717 84.6785V90.1434L47.0694 94.8307C46.9401 94.975 46.8408 95.1436 46.7772 95.3266C46.7135 95.5096 46.6868 95.7034 46.6986 95.8968C46.7104 96.0902 46.7604 96.2794 46.8458 96.4533C46.9312 96.6272 47.0502 96.7825 47.196 96.9101C47.3418 97.0377 47.5115 97.1351 47.6952 97.1967C47.8789 97.2583 48.073 97.2828 48.2663 97.2688C48.4595 97.2548 48.6481 97.2027 48.821 97.1153C48.994 97.028 49.1479 96.9072 49.2739 96.76L51.3448 94.3937C51.8455 96.05 53.3846 97.26 55.2022 97.26H97.6799C98.9592 97.26 99.9998 96.2191 99.9998 94.9398V69.1146C100 67.8354 98.9594 66.7947 97.6801 66.7947ZM50.9233 49.9086C50.9165 49.9846 50.8927 50.0582 50.8537 50.1238C50.8147 50.1894 50.7614 50.2454 50.6979 50.2877C50.635 50.331 50.5631 50.3596 50.4877 50.3714C50.4122 50.3832 50.3351 50.3779 50.262 50.3559C48.5514 49.8455 46.2108 49.2596 44.1657 48.8689C46.5946 46.4262 48.2249 43.3037 48.8411 39.9145C49.9585 39.8088 51.0363 39.4458 51.9901 38.8541L50.9233 49.9086ZM52.5391 32.6242C52.5391 34.7121 51.075 36.4635 49.1198 36.9084C49.12 36.8814 49.1211 36.8549 49.1211 36.8279V30.183H50.0977C51.444 30.1828 52.5391 31.2779 52.5391 32.6242ZM17.8711 30.1318C20.2605 29.9816 22.617 29.4968 24.8717 28.6916C25.5631 28.6377 26.2575 28.7472 26.8987 29.0113C27.2576 29.1598 27.6609 29.1597 28.0197 29.011C28.3786 28.8623 28.6638 28.5772 28.8125 28.2184C28.8978 28.0127 28.9348 27.7903 28.921 27.5682C28.9072 27.346 28.8427 27.13 28.7327 26.9365C32.8367 24.6452 36.2287 21.2655 38.5348 17.1697C40.1766 21.7276 42.7892 25.8743 46.1916 29.3229V36.8277C46.1916 42.107 43.2879 46.9111 38.6135 49.365L34.528 51.5098C33.7579 51.9141 32.9011 52.1253 32.0314 52.1253C31.1616 52.1253 30.3049 51.9141 29.5348 51.5098L25.4493 49.365C20.7748 46.9111 17.8711 42.107 17.8711 36.8277V30.1318ZM13.9649 30.1828H14.9414V36.8277C14.9414 36.8547 14.9426 36.8812 14.9428 36.9082C12.9877 36.4633 11.5235 34.7121 11.5235 32.6242C11.5235 31.2779 12.6188 30.1828 13.9649 30.1828ZM14.276 50.2279L14.0028 50.3066C13.7311 50.3855 13.5221 50.2826 13.4217 50.2145C13.3213 50.1463 13.1489 49.99 13.1213 49.7086L12.0684 38.8512C13.0233 39.4444 14.1026 39.8083 15.2217 39.9143C15.8386 43.3064 17.4712 46.4311 19.9034 48.8748C18.0082 49.2409 16.1305 49.6924 14.276 50.2279ZM32.0313 78.9984C28.5514 78.9984 25.2184 77.9818 22.3526 76.0551L21.858 71.8598C23.2743 73.2676 24.9735 74.3922 26.8577 75.1148C27.2179 75.2426 27.6138 75.2246 27.9609 75.0647C28.308 74.9047 28.5788 74.6154 28.7157 74.2585C28.8525 73.9017 28.8445 73.5054 28.6933 73.1544C28.5421 72.8034 28.2598 72.5253 27.9065 72.3795C24.6897 71.1459 22.1362 68.4572 21.0711 65.1848L20.9893 64.4904C23.3512 64.0281 25.3114 61.742 25.2926 59.2178V52.5924L28.1723 54.1043C29.3624 54.7294 30.6866 55.0559 32.0309 55.0557C33.3751 55.0558 34.6992 54.7293 35.8893 54.1043L38.7692 52.5924V59.2178C38.7461 61.6512 40.5875 63.9721 43.0725 64.4904C42.5299 69.1264 38.1661 72.2848 33.8698 72.9936C33.678 73.0219 33.4938 73.0881 33.3277 73.1881C33.1617 73.2882 33.0172 73.4203 32.9026 73.5766C32.788 73.733 32.7056 73.9105 32.6601 74.0989C32.6146 74.2874 32.607 74.483 32.6376 74.6744C32.6683 74.8658 32.7367 75.0492 32.8388 75.214C32.9408 75.3788 33.0746 75.5217 33.2323 75.6344C33.3901 75.7471 33.5686 75.8274 33.7576 75.8706C33.9465 75.9138 34.1422 75.9191 34.3332 75.8861C37.3409 75.4043 40.0873 73.9557 42.2041 71.8594L41.7096 76.0557C38.8442 77.982 35.5116 78.9984 32.0313 78.9984ZM67.4309 86.6342H54.1016V84.6783C54.1019 84.3865 54.218 84.1067 54.4243 83.9004C54.6306 83.694 54.9104 83.5779 55.2022 83.5775H62.9395C63.7485 83.5775 64.4043 82.9219 64.4043 82.1127C64.4043 81.3035 63.7485 80.6478 62.9395 80.6478H58.9787C59.534 79.5061 60.7039 78.7135 62.0518 78.7135H84.2432V80.6478H69.7756C68.9666 80.6478 68.3108 81.3035 68.3108 82.1127C68.3108 82.9219 68.9666 83.5775 69.7756 83.5775H84.2432V86.634H78.5479C78.1594 86.634 77.7868 86.7883 77.5121 87.063C77.2374 87.3377 77.083 87.7103 77.083 88.0988V89.1994H68.8957V88.0988C68.8957 87.7104 68.7413 87.3378 68.4666 87.0632C68.1919 86.7885 67.8194 86.6342 67.4309 86.6342ZM87.1729 69.7244H97.0703V72.5611H87.1729V69.7244ZM89.6528 66.7947V59.6258C89.6528 59.1768 89.7264 58.734 89.8719 58.3092C90.2146 57.308 90.8451 56.4302 91.6845 55.7857C92.5238 55.1412 93.5347 54.7588 94.5905 54.6863V66.7947H89.6528ZM85.3834 47.8199L85.9305 44.7191L88.4897 45.1703L88.0221 47.8201H85.3834V47.8199ZM79.3221 38.8408L83.1758 39.5199L83.2737 42.9156L82.4084 47.8199H77.7377L79.3221 38.8408ZM91.6047 36.4432L89.2657 42.3322L86.1721 41.7869L85.9895 35.4541C85.9737 34.91 86.2682 34.5723 86.4452 34.4193C86.6223 34.2662 87.0002 34.024 87.5375 34.1182L90.6073 34.6592C91.1446 34.7539 91.4162 35.1109 91.5305 35.3152C91.6446 35.5195 91.8057 35.9373 91.6047 36.4432ZM76.9719 22.9355C77.0313 22.875 77.1039 22.852 77.1877 22.8664L91.6461 25.4143C91.7297 25.4291 91.7899 25.4756 91.825 25.5527C91.86 25.6295 91.8557 25.7047 91.8123 25.777L88.4866 31.3107L88.0461 31.2332C87.4248 31.1222 86.7866 31.1516 86.1782 31.3193C85.5697 31.4871 85.0066 31.7888 84.5299 32.2025C84.052 32.614 83.672 33.1271 83.4179 33.7042C83.1637 34.2814 83.0418 34.9081 83.061 35.5385L83.0895 36.5299L79.3797 35.8762L76.9067 23.1506C76.8911 23.0682 76.9129 22.9959 76.9719 22.9355ZM62.8174 31.985C62.9948 31.472 63.2846 31.0052 63.6657 30.6188C64.0467 30.2323 64.5094 29.9359 65.0198 29.7514C65.4214 29.6047 65.8456 29.5296 66.2731 29.5295C66.9233 29.5295 67.5686 29.7041 68.1436 30.0471C68.6096 30.3239 69.0078 30.7015 69.3091 31.1521C69.6104 31.6027 69.8071 32.1149 69.8848 32.6514L70.8063 38.9305L66.4899 40.5012L63.158 35.0984C62.8727 34.6377 62.694 34.119 62.6351 33.5803C62.5761 33.0416 62.6384 32.4965 62.8174 31.985ZM67.7469 43.1615L71.5534 41.7764L73.7537 47.8199H69.443L67.7469 43.1615ZM62.6541 50.7598C62.6635 50.7496 62.6709 50.7496 62.6776 50.7496H92.3737C92.3803 50.7496 92.3875 50.7496 92.3971 50.7598C92.4061 50.7695 92.4055 50.7762 92.4051 50.7824L92.3008 52.1814C89.9035 52.9916 87.951 54.8732 87.0998 57.3604C86.8499 58.0895 86.7226 58.855 86.7229 59.6258V66.7947H86.5629C85.2836 66.7947 84.243 67.8354 84.243 69.1146V75.7838H64.509L62.6463 50.7826C62.6457 50.7762 62.6452 50.7695 62.6541 50.7598ZM57.0272 74.9262C57.441 74.5427 57.7532 74.0625 57.9358 73.5286C58.1184 72.9948 58.1656 72.424 58.0733 71.8674L57.5004 68.3844C59.6856 69.4184 61.1328 71.6355 61.1328 74.1209V75.8516C58.5659 76.2281 56.4846 78.1561 55.8823 80.648H55.2022C54.371 80.6479 53.5604 80.9065 52.8829 81.3879L51.901 79.6896L57.0272 74.9262ZM54.1016 93.2297V89.5637H65.9661V90.6643C65.9661 91.0528 66.1204 91.4253 66.3951 91.7001C66.6698 91.9748 67.0424 92.1291 67.4309 92.1291H78.5479C78.9364 92.1291 79.309 91.9748 79.5837 91.7001C79.8584 91.4253 80.0127 91.0528 80.0127 90.6643V89.5637H84.2432V94.3303H55.2022C54.9104 94.33 54.6306 94.214 54.4242 94.0076C54.2179 93.8013 54.1019 93.5215 54.1016 93.2297ZM87.1729 94.3305V75.4908H97.0703V94.3305H87.1729Z" fill="white"/>
</g>
<defs>
<clipPath id="clip0_485_59">
<rect width="100" height="100" fill="white"/>
</clipPath>
</defs>
</svg>
