<svg width="20" height="27" viewBox="0 0 20 27" fill="none" xmlns="http://www.w3.org/2000/svg">
<path d="M9.99984 5.66666C9.09334 5.66666 8.2072 5.93546 7.45347 6.43909C6.69975 6.94271 6.11229 7.65853 5.76539 8.49602C5.41849 9.33352 5.32772 10.2551 5.50457 11.1442C5.68142 12.0332 6.11794 12.8499 6.75893 13.4909C7.39992 14.1319 8.21659 14.5684 9.10567 14.7453C9.99475 14.9221 10.9163 14.8313 11.7538 14.4844C12.5913 14.1375 13.3071 13.5501 13.8107 12.7964C14.3144 12.0426 14.5832 11.1565 14.5832 10.25C14.5818 9.03482 14.0985 7.8698 13.2393 7.01055C12.38 6.15129 11.215 5.66798 9.99984 5.66666ZM9.99984 14C9.25816 14 8.53313 13.7801 7.91645 13.368C7.29977 12.9559 6.81912 12.3703 6.53529 11.6851C6.25146 10.9998 6.1772 10.2458 6.32189 9.5184C6.46659 8.79097 6.82374 8.12279 7.34819 7.59834C7.87264 7.07389 8.54082 6.71674 9.26825 6.57205C9.99568 6.42735 10.7497 6.50161 11.4349 6.78544C12.1201 7.06927 12.7058 7.54992 13.1178 8.1666C13.5299 8.78329 13.7498 9.50831 13.7498 10.25C13.7487 11.2442 13.3533 12.1974 12.6503 12.9004C11.9472 13.6034 10.9941 13.9989 9.99984 14Z" fill="black"/>
<path d="M10 0.25C7.34875 0.252978 4.80694 1.3075 2.93222 3.18222C1.0575 5.05694 0.00297764 7.59875 0 10.25C0 17.4287 9.31542 26.4221 9.71208 26.8012C9.78961 26.8754 9.89274 26.9167 10 26.9167C10.1073 26.9167 10.2104 26.8754 10.2879 26.8012C10.6846 26.4221 20 17.4287 20 10.25C19.997 7.59875 18.9425 5.05694 17.0678 3.18222C15.1931 1.3075 12.6513 0.252978 10 0.25ZM10 25.9142C8.41417 24.3233 0.833333 16.3933 0.833333 10.25C0.833333 7.81885 1.7991 5.48727 3.51819 3.76819C5.23727 2.0491 7.56885 1.08333 10 1.08333C12.4312 1.08333 14.7627 2.0491 16.4818 3.76819C18.2009 5.48727 19.1667 7.81885 19.1667 10.25C19.1667 16.3904 11.5858 24.3225 10 25.9142Z" fill="black"/>
</svg>
