<svg width="100" height="100" viewBox="0 0 100 100" fill="none" xmlns="http://www.w3.org/2000/svg">
<g clip-path="url(#clip0_475_55)">
<path d="M16.6667 42.4416H38.3333C38.7754 42.4416 39.1993 42.266 39.5118 41.9535C39.8244 41.6409 40 41.217 40 40.7749C40 40.3329 39.8244 39.909 39.5118 39.5964C39.1993 39.2839 38.7754 39.1083 38.3333 39.1083H16.6667C16.2246 39.1083 15.8007 39.2839 15.4882 39.5964C15.1756 39.909 15 40.3329 15 40.7749C15 41.217 15.1756 41.6409 15.4882 41.9535C15.8007 42.266 16.2246 42.4416 16.6667 42.4416ZM60 49.1083H16.6667C16.2246 49.1083 15.8007 49.2839 15.4882 49.5964C15.1756 49.909 15 50.3329 15 50.7749C15 51.217 15.1756 51.6409 15.4882 51.9535C15.8007 52.266 16.2246 52.4416 16.6667 52.4416H60C60.442 52.4416 60.866 52.266 61.1785 51.9535C61.4911 51.6409 61.6667 51.217 61.6667 50.7749C61.6667 50.3329 61.4911 49.909 61.1785 49.5964C60.866 49.2839 60.442 49.1083 60 49.1083ZM60 59.1083H16.6667C16.2246 59.1083 15.8007 59.2839 15.4882 59.5964C15.1756 59.909 15 60.3329 15 60.7749C15 61.217 15.1756 61.6409 15.4882 61.9535C15.8007 62.266 16.2246 62.4416 16.6667 62.4416H60C60.442 62.4416 60.866 62.266 61.1785 61.9535C61.4911 61.6409 61.6667 61.217 61.6667 60.7749C61.6667 60.3329 61.4911 59.909 61.1785 59.5964C60.866 59.2839 60.442 59.1083 60 59.1083Z" fill="black"/>
<path d="M90.12 4.22494L33.2167 4.10828C27.7667 4.10828 23.3333 8.54161 23.3333 13.9916V22.5316L9.88333 22.5599C4.43333 22.5599 0 26.9933 0 32.4433V67.6783C0 73.1283 4.43333 77.5599 9.88333 77.5599H20V94.2266C19.9999 94.5631 20.1016 94.8917 20.2917 95.1693C20.4819 95.4468 20.7516 95.6603 21.0654 95.7817C21.3792 95.9031 21.7224 95.9266 22.0499 95.8493C22.3773 95.7719 22.6737 95.5973 22.9 95.3483L39.0733 77.5566L66.7833 77.4433C72.2333 77.4433 76.6667 73.0099 76.6667 67.5616V67.3733L85.4333 77.0166C85.6604 77.2638 85.9567 77.4369 86.2835 77.5133C86.6104 77.5896 86.9527 77.5657 87.2658 77.4446C87.5789 77.3235 87.8482 77.1109 88.0386 76.8344C88.229 76.558 88.3317 76.2306 88.3333 75.8949V59.2283H90.1167C95.5667 59.2283 100 54.7949 100 49.3466V14.1083C99.9969 11.4886 98.9551 8.97701 97.103 7.12429C95.2509 5.27157 92.7397 4.22891 90.12 4.22494ZM73.3333 67.5599C73.3311 69.2974 72.6394 70.963 71.41 72.1908C70.1806 73.4186 68.5142 74.1083 66.7767 74.1083L38.3267 74.2249C38.0956 74.2258 37.8672 74.2747 37.656 74.3685C37.4449 74.4623 37.2555 74.599 37.1 74.7699L23.3333 89.9149V75.8916C23.3333 75.4496 23.1577 75.0257 22.8452 74.7131C22.5326 74.4005 22.1087 74.2249 21.6667 74.2249H9.88333C8.14699 74.2232 6.48225 73.5328 5.25432 72.3051C4.02639 71.0775 3.33554 69.4129 3.33333 67.6766V32.4416C3.33554 30.7045 4.02679 29.0393 5.2554 27.8113C6.484 26.5833 8.1496 25.8929 9.88667 25.8916L25 25.8599H25.0033L66.7833 25.7733C68.52 25.775 70.1849 26.4657 71.4129 27.6937C72.6409 28.9217 73.3316 30.5866 73.3333 32.3233V67.5599ZM96.6667 49.3433C96.6645 51.0796 95.9736 52.7442 94.7457 53.9718C93.5177 55.1994 91.853 55.8898 90.1167 55.8916H86.6667C86.2246 55.8916 85.8007 56.0672 85.4882 56.3798C85.1756 56.6923 85 57.1163 85 57.5583V71.5816L76.6667 62.4149V32.3249C76.6667 26.8749 72.2333 22.4416 66.78 22.4416L26.6667 22.5233V13.9899C26.6684 12.2539 27.3586 10.5894 28.5859 9.36152C29.8131 8.13363 31.4773 7.44259 33.2133 7.43994L90.115 7.55661H90.1183C91.855 7.55837 93.5199 8.24903 94.7479 9.47701C95.9759 10.705 96.6666 12.37 96.6683 14.1066L96.6667 49.3433Z" fill="black"/>
</g>
<defs>
<clipPath id="clip0_475_55">
<rect width="100" height="100" fill="white"/>
</clipPath>
</defs>
</svg>
