<?xml version="1.0" encoding="UTF-8"?>
<svg xmlns="http://www.w3.org/2000/svg" version="1.1" viewBox="0 0 540 960">
  <defs>
    <style>
      .cls-1 {
        fill: #93bc77;
      }

      .cls-2 {
        fill: #799b61;
      }

      .cls-3 {
        fill: #6c8b57;
      }

      .cls-4 {
        fill: #a0cd82;
      }

      .cls-5 {
        fill: #86ab6c;
      }

      .cls-6 {
        fill: #efffe3;
      }
    </style>
  </defs>
  <!-- Generator: Adobe Illustrator 28.7.3, SVG Export Plug-In . SVG Version: 1.2.0 Build 164)  -->
  <g>
    <g id="visual">
      <rect class="cls-6" width="540" height="960"/>
      <path class="cls-4" d="M0,541l22.5,3.7c22.5,3.6,67.5,11,112.5,8.1,45-2.8,90-15.8,135-11.3s90,26.5,135,31.5,90-7,112.5-13l22.5-6v407H0v-420Z"/>
      <path class="cls-1" d="M0,599l22.5,12.5c22.5,12.5,67.5,37.5,112.5,46.7,45,9.1,90,2.5,135,2s90,5.1,135-2.2,90-27.7,112.5-37.8l22.5-10.2v351H0v-362Z"/>
      <path class="cls-5" d="M0,717l22.5-5c22.5-5,67.5-15,112.5-9.2,45,5.9,90,27.5,135,24.4,45-3.2,90-31.2,135-43,45-11.9,90-7.5,112.5-5.4l22.5,2.2v280H0v-244Z"/>
      <path class="cls-2" d="M0,795l22.5-1c22.5-1,67.5-3,112.5-.2,45,2.9,90,10.5,135,4.5s90-25.6,135-29.3,90,8.7,112.5,14.8l22.5,6.2v171H0v-166Z"/>
      <path class="cls-3" d="M0,848l22.5,1.7c22.5,1.6,67.5,5,112.5,8s90,5.6,135,8.1,90,4.9,135-.6,90-18.9,112.5-25.5l22.5-6.7v128H0v-113Z"/>
    </g>
  </g>
</svg>