<?xml version="1.0" encoding="UTF-8"?>
<svg id="Layer_1" xmlns="http://www.w3.org/2000/svg" version="1.1" xmlns:xlink="http://www.w3.org/1999/xlink" viewBox="0 0 2000 2000">
  <!-- Generator: Adobe Illustrator 29.3.0, SVG Export Plug-In . SVG Version: 2.1.0 Build 146)  -->
  <defs>
    <style>
      .st0 {
        fill: #ffa68e;
      }

      .st1 {
        fill: #d37d63;
      }

      .st2 {
        fill: #553741;
      }

      .st3 {
        fill: #64414c;
      }

      .st4 {
        fill: #56342d;
      }
    </style>
  </defs>
  <path class="st2" d="M1651.6,1376.8c134.2,42.8,121.4,211.6,121.4,441.1-137.1,68.6-392.5,173.8-728.5,182.5-385.1,9.9-676.8-112.1-817.6-182.5,0-229.4-12.7-398.2,121.4-441-.1.1-.1.3-.1.3,5.9-2,332.3-111.8,336.9-115.9,8-3.3,15.8-8.1,21.4-12.9.1.1.7,2.1.7,2.4,44.8-23.5,67.7-50.2,78.8-83,109.7,76,327.9,73.6,434.2,1.6,12.9,34.2,35.1,61.8,72.5,81.5,0-.3.7-2.2.7-2.4,5.8,4.7,13.5,9.6,21.4,12.9,55.9,19.9,111.9,39.5,168,58.7,56.2,19.3,112.4,38.2,168.8,56.8Z"/>
  <path class="st4" d="M695.5,644.9c-2.8,85.9,15.1,156.2,47,213.5-86.2,7.8-129-34.1-123.5-50.7,10.6-32.1-20.6-78.7-20.6-118.4s7.8-35.1,7.8-83.3-53.9-79.4-53.9-141.9c0,0,65.7-53.6,75.8-100.5C668.3,177.8,780.9,11.5,958.5,46.8c25.4-20.8,55.8-28.8,87.4-28.8,251.9,0,212.9,255.8,386.9,410.6-11.2,8.4-28.4,35.9-28.4,41.7s39.4,32.6,39.4,69.8-48.8,92.6-48.8,180.8,68.1,101.2-62.4,101.2-36.5-3.7-51.8-15c30.5-83.9,26.6-147.4,16.4-378.1-5.7-143-95.8-252.1-157.7-287.1-50.5-28.7-229.4-28.4-279,0-64.7,36.5-142.8,143.2-154,248.9-5.8,55.1-9.4,198.9-11,254.1Z"/>
  <path class="st4" d="M1297.2,429c-78.2-1.2-64.5-23.7-105.4-23.7-118.8,0-246.3-92.2-252.8-213.3,13.1-23.7,28.6-47.6,48-71.5,38.3-1.2,119.4,2.5,152.6,21.3,61,34.5,151.9,142.7,157.7,287.1Z"/>
  <path class="st4" d="M700.1,500.8c5.5-163.1,5.3-98.8,6.4-110,11.2-105.6,89.4-212.4,154-248.9,23.1-13.3,73.7-20.2,126.4-21.3-113.4,140.4-95.3,283.8-286.9,380.2Z"/>
  <path class="st1" d="M791.3,997.1c-1.1-22.6-1.8-47-1.4-73.5,13.3,14.6,27.9,28,43.2,40.3h.1c46.3,36.9,86.6,76.9,166.8,76.9s120.5-39.9,166.8-76.7h0c0-.1.1-.1.1-.1,14.6-11.6,28.3-24.2,41-37.8-.9,27.9-2.4,54.5-3.3,80-116,77.6-298.7,76.6-413.3-9.1Z"/>
  <path class="st3" d="M1236.3,1001.8c-.3-7.8-9.2-12.1-15.4-7.4-119.3,92.4-317.4,90-433.1,0-6.2-4.7-15.1-.4-15.4,7.4l-4.5,147.4c-.1,3,1.2,6,3.7,7.9,69.5,56,154.5,66.9,240.5,66.9,141.4,0,229.3-59.8,228.6-74.8l-4.5-147.4Z"/>
  <path class="st0" d="M700.1,500.8c159-80,173.3-192.1,238.9-308.7,6.6,121,134,213.3,252.8,213.3s27.2,22.5,105.4,23.7c9.6,218.1,39.7,400.2-130.4,535h-.1c-46.3,36.9-86.6,76.9-166.8,76.9s-120.5-39.9-166.8-76.7h0c0-.1-.1-.1-.1-.1-161.7-129.9-139.1-296.4-133-463.2Z"/>
</svg>