<svg width="49" height="48" viewBox="0 0 49 48" fill="none" xmlns="http://www.w3.org/2000/svg">
<g clip-path="url(#clip0_167_715)">
<path d="M21.7686 33.9913C21.5858 33.9913 21.403 33.9218 21.2639 33.7818C20.9849 33.5028 20.9849 33.0505 21.2639 32.7715L46.8232 7.21219C47.1023 6.93318 47.5546 6.93318 47.8336 7.21219C48.1126 7.4912 48.1126 7.94351 47.8336 8.22252L22.2733 33.7818C22.1343 33.9209 21.9515 33.9913 21.7686 33.9913Z" fill="#6C8B57"/>
<path d="M31.9879 39.8061C30.0101 39.8061 28.0208 39.2909 26.2268 38.2339C25.8868 38.034 25.7735 37.5959 25.9744 37.256C26.1744 36.916 26.6124 36.8037 26.9524 37.0036C30.8557 39.3033 35.8216 38.6691 39.0288 35.4619L46.2668 28.2239C46.5459 27.9449 46.9982 27.9449 47.2772 28.2239C47.5562 28.5029 47.5562 28.9552 47.2772 29.2342L40.0391 36.4723C37.8452 38.6663 34.9313 39.8071 31.9888 39.8071L31.9879 39.8061Z" fill="#6C8B57"/>
<path d="M20.3839 41.9846C18.7118 41.9846 17.1396 41.3333 15.9579 40.1515L15.4256 39.6192C15.1466 39.3402 15.1466 38.8879 15.4256 38.6089L32.5041 21.5303C32.6384 21.396 32.8193 21.3208 33.0088 21.3208C33.1983 21.3208 33.3802 21.396 33.5135 21.5303L34.0458 22.0626C35.2285 23.2453 35.8789 24.8165 35.8789 26.4887C35.8789 28.1608 35.2276 29.733 34.0458 30.9147L24.8109 40.1496C23.6282 41.3323 22.0561 41.9827 20.3839 41.9827V41.9846ZM16.9406 39.1145L16.9682 39.1421C17.8805 40.0544 19.0936 40.5572 20.3849 40.5572C21.6761 40.5572 22.8883 40.0544 23.8015 39.1421L33.0364 29.9072C33.9487 28.995 34.4515 27.7809 34.4515 26.4906C34.4515 25.2003 33.9487 23.9871 33.0364 23.0739L33.0088 23.0463L16.9406 39.1145Z" fill="#6C8B57"/>
<path d="M26.064 35.4353C25.8812 35.4353 25.6984 35.3658 25.5594 35.2258C25.2803 34.9468 25.2803 34.4944 25.5594 34.2154L28.8741 30.9007C29.1531 30.6217 29.6055 30.6217 29.8845 30.9007C30.1635 31.1797 30.1635 31.632 29.8845 31.911L26.5697 35.2258C26.4307 35.3648 26.2478 35.4353 26.065 35.4353H26.064Z" fill="#6C8B57"/>
<path d="M24.3873 37.112C24.2045 37.112 24.0216 37.0425 23.8826 36.9025C23.6036 36.6235 23.6036 36.1712 23.8826 35.8922L24.2521 35.5227C24.5311 35.2437 24.9834 35.2437 25.2624 35.5227C25.5414 35.8017 25.5414 36.2541 25.2624 36.5331L24.8929 36.9025C24.7539 37.0416 24.5711 37.112 24.3882 37.112H24.3873Z" fill="#6C8B57"/>
<path d="M19.1804 34.7345C18.3796 34.7345 17.6797 34.5555 17.1254 34.3403C15.8847 33.8575 15.1133 33.09 15.081 33.0576L5.96414 23.9408C5.68513 23.6618 5.68513 23.2095 5.96414 22.9304C6.24315 22.6514 6.69547 22.6514 6.97448 22.9304L16.0932 32.0492C16.1894 32.1444 18.4948 34.3727 21.4077 32.6615C21.7477 32.4615 22.1857 32.5758 22.3847 32.9157C22.5847 33.2557 22.4704 33.6937 22.1305 33.8937C21.0678 34.5184 20.0631 34.7355 19.1804 34.7355V34.7345Z" fill="#6C8B57"/>
<path d="M18.3478 32.024C18.2698 32.024 18.1917 32.024 18.1136 32.0221C15.5901 31.9907 13.6952 31.4803 13.6161 31.4584C13.2352 31.3546 13.0114 30.9613 13.1152 30.5813C13.219 30.2014 13.6114 29.9767 13.9923 30.0805C14.0637 30.0995 21.137 31.9669 25.6211 28.4197C25.9306 28.175 26.3801 28.2274 26.6248 28.5369C26.8695 28.8463 26.8171 29.2958 26.5077 29.5396C24.4508 31.166 21.6341 32.023 18.3488 32.023L18.3478 32.024Z" fill="#6C8B57"/>
<path d="M2.32571 28.162C2.31047 28.162 2.29524 28.162 2.27905 28.1601C2.07432 28.1468 1.88482 28.0458 1.75912 27.883L0.189816 25.8414C-0.0501502 25.5291 0.00793696 25.0805 0.321227 24.8396C0.634517 24.5997 1.08207 24.6577 1.32299 24.971L2.39618 26.368L9.47615 19.288L0.667845 12.5175C0.355508 12.2776 0.296468 11.8291 0.536435 11.5158C0.776402 11.2034 1.22491 11.1444 1.5382 11.3844L10.9921 18.65C11.155 18.7757 11.2559 18.9643 11.2692 19.1699C11.2826 19.3756 11.2073 19.5756 11.0616 19.7213L2.8304 27.9535C2.69614 28.0877 2.51426 28.163 2.32571 28.163V28.162Z" fill="#6C8B57"/>
</g>
<defs>
<clipPath id="clip0_167_715">
<rect width="48" height="34.9876" fill="white" transform="translate(0.0419922 7)"/>
</clipPath>
</defs>
</svg>
