<svg width="100" height="100" viewBox="0 0 100 100" fill="none" xmlns="http://www.w3.org/2000/svg">
<g clip-path="url(#clip0_475_44)">
<path d="M30.7933 20.0418C30.378 20.0418 29.9797 20.2068 29.6861 20.5004C29.3924 20.7941 29.2274 21.1923 29.2274 21.6076C29.2274 23.507 27.6821 25.0523 25.7827 25.0523C23.8833 25.0523 22.338 23.507 22.338 21.6076C22.338 19.7082 23.8833 18.1629 25.7827 18.1629C26.198 18.1629 26.5963 17.9979 26.8899 17.7043C27.1836 17.4106 27.3485 17.0124 27.3485 16.5971C27.3485 16.1818 27.1836 15.7835 26.8899 15.4899C26.5963 15.1962 26.198 15.0313 25.7827 15.0312C22.1565 15.0312 19.2065 17.9814 19.2065 21.6074C19.2065 25.2334 22.1567 28.1836 25.7827 28.1836C29.4087 28.1836 32.3589 25.2334 32.3589 21.6074C32.3589 21.1922 32.1939 20.794 31.9003 20.5004C31.6067 20.2067 31.2085 20.0418 30.7933 20.0418ZM30.7933 38.4133C30.378 38.4133 29.9797 38.5783 29.6861 38.8719C29.3924 39.1655 29.2274 39.5638 29.2274 39.9791C29.2274 41.8785 27.6821 43.4238 25.7827 43.4238C23.8833 43.4238 22.338 41.8785 22.338 39.9791C22.338 38.0797 23.8833 36.5344 25.7827 36.5344C26.198 36.5344 26.5963 36.3694 26.8899 36.0758C27.1836 35.7821 27.3485 35.3838 27.3485 34.9686C27.3485 34.5533 27.1836 34.155 26.8899 33.8614C26.5963 33.5677 26.198 33.4027 25.7827 33.4027C22.1565 33.4027 19.2065 36.3529 19.2065 39.9789C19.2065 43.6049 22.1567 46.5551 25.7827 46.5551C29.4087 46.5551 32.3589 43.6049 32.3589 39.9789C32.3589 39.5637 32.1939 39.1655 31.9003 38.8718C31.6067 38.5782 31.2085 38.4133 30.7933 38.4133ZM49.1647 41.7537H37.4737C37.0584 41.7537 36.6602 41.9187 36.3665 42.2123C36.0729 42.506 35.9079 42.9042 35.9079 43.3195C35.9079 43.7348 36.0729 44.1331 36.3665 44.4267C36.6602 44.7204 37.0584 44.8854 37.4737 44.8854H49.1647C49.58 44.8854 49.9783 44.7204 50.272 44.4267C50.5656 44.1331 50.7306 43.7348 50.7306 43.3195C50.7306 42.9042 50.5656 42.506 50.272 42.2123C49.9783 41.9187 49.58 41.7537 49.1647 41.7537ZM49.1647 35.073H37.4737C37.0584 35.073 36.6602 35.238 36.3665 35.5317C36.0729 35.8253 35.9079 36.2236 35.9079 36.6389C35.9079 37.0541 36.0729 37.4524 36.3665 37.7461C36.6602 38.0397 37.0584 38.2047 37.4737 38.2047H49.1647C49.58 38.2047 49.9783 38.0397 50.272 37.7461C50.5656 37.4524 50.7306 37.0541 50.7306 36.6389C50.7306 36.2236 50.5656 35.8253 50.272 35.5317C49.9783 35.238 49.58 35.073 49.1647 35.073ZM45.8245 60.1252H37.4737C37.0584 60.1252 36.6602 60.2902 36.3665 60.5838C36.0729 60.8775 35.9079 61.2757 35.9079 61.691C35.9079 62.1063 36.0729 62.5046 36.3665 62.7982C36.6602 63.0919 37.0584 63.2568 37.4737 63.2568H45.8245C46.2398 63.2568 46.6381 63.0919 46.9317 62.7982C47.2254 62.5046 47.3903 62.1063 47.3903 61.691C47.3903 61.2757 47.2254 60.8775 46.9317 60.5838C46.6381 60.2902 46.2398 60.1252 45.8245 60.1252ZM49.1647 53.4447H37.4737C37.0584 53.4447 36.6602 53.6097 36.3665 53.9033C36.0729 54.197 35.9079 54.5953 35.9079 55.0105C35.9079 55.4258 36.0729 55.8241 36.3665 56.1178C36.6602 56.4114 37.0584 56.5764 37.4737 56.5764H49.1647C49.58 56.5764 49.9783 56.4114 50.272 56.1178C50.5656 55.8241 50.7306 55.4258 50.7306 55.0105C50.7306 54.5953 50.5656 54.197 50.272 53.9033C49.9783 53.6097 49.58 53.4447 49.1647 53.4447ZM64.1962 23.382H37.4737C37.0584 23.382 36.6602 23.547 36.3665 23.8406C36.0729 24.1343 35.9079 24.5326 35.9079 24.9479C35.9079 25.3631 36.0729 25.7614 36.3665 26.0551C36.6602 26.3487 37.0584 26.5137 37.4737 26.5137H64.196C64.6113 26.5137 65.0096 26.3488 65.3032 26.0551C65.5969 25.7615 65.7619 25.3632 65.7619 24.9479C65.7619 24.5327 65.597 24.1344 65.3034 23.8407C65.0097 23.5471 64.6115 23.3821 64.1962 23.382ZM57.5155 16.7014H37.4737C37.0584 16.7014 36.6602 16.8663 36.3665 17.16C36.0729 17.4536 35.9079 17.8519 35.9079 18.2672C35.9079 18.6825 36.0729 19.0807 36.3665 19.3744C36.6602 19.668 37.0584 19.833 37.4737 19.833H57.5155C57.9308 19.833 58.3291 19.668 58.6227 19.3744C58.9164 19.0807 59.0813 18.6825 59.0813 18.2672C59.0813 17.8519 58.9164 17.4536 58.6227 17.16C58.3291 16.8663 57.9308 16.7014 57.5155 16.7014ZM30.7933 56.785C30.378 56.785 29.9797 56.9499 29.6861 57.2436C29.3924 57.5372 29.2274 57.9355 29.2274 58.3508C29.2274 60.2502 27.6821 61.7955 25.7827 61.7955C23.8833 61.7955 22.338 60.2502 22.338 58.3508C22.338 56.4514 23.8833 54.9061 25.7827 54.9061C26.198 54.9061 26.5963 54.7411 26.8899 54.4474C27.1836 54.1538 27.3485 53.7555 27.3485 53.3402C27.3485 52.925 27.1836 52.5267 26.8899 52.233C26.5963 51.9394 26.198 51.7744 25.7827 51.7744C22.1565 51.7744 19.2065 54.7246 19.2065 58.3506C19.2065 61.9766 22.1567 64.9268 25.7827 64.9268C29.4087 64.9268 32.3589 61.9766 32.3589 58.3506C32.3589 57.9354 32.1939 57.5371 31.9003 57.2435C31.6067 56.9499 31.2085 56.785 30.7933 56.785Z" fill="black"/>
<path d="M70.8766 0H14.0916C11.3865 0 9.18555 2.20078 9.18555 4.90605V75.0521C9.18555 77.7574 11.3863 79.9582 14.0916 79.9582H42.4842C42.8995 79.9582 43.2977 79.7932 43.5914 79.4996C43.885 79.2059 44.05 78.8077 44.05 78.3924C44.05 77.9771 43.885 77.5788 43.5914 77.2852C43.2977 76.9915 42.8995 76.8266 42.4842 76.8266H14.0916C13.1131 76.8266 12.317 76.0305 12.317 75.052V4.90605C12.317 3.92754 13.1131 3.13145 14.0916 3.13145H70.8766C71.8551 3.13145 72.6512 3.92754 72.6512 4.90605V56.6809C72.6512 57.0961 72.8161 57.4944 73.1098 57.7881C73.4034 58.0817 73.8017 58.2467 74.217 58.2467C74.6323 58.2467 75.0305 58.0817 75.3242 57.7881C75.6178 57.4944 75.7828 57.0961 75.7828 56.6809V4.90605C75.7826 2.20078 73.5818 0 70.8766 0Z" fill="black"/>
<path d="M85.6595 63.4949C84.2042 63.3498 82.7497 63.7623 81.5985 64.6363C80.6815 63.0977 79.1179 62.0061 77.3087 61.8248C75.853 61.6799 74.3987 62.0924 73.2477 62.9662C72.3308 61.4275 70.7671 60.3359 68.9579 60.1547C67.8571 60.0448 66.7478 60.2528 65.7616 60.7541V40.8143C65.7609 40.012 65.5924 39.2187 65.2669 38.4855C64.9414 37.7522 64.4661 37.0951 63.8716 36.5565C62.6714 35.4705 61.054 34.9404 59.4339 35.1025C56.5434 35.392 54.2794 38.0055 54.2794 41.0525V61.0428L49.6767 65.6455C47.2308 68.0914 46.2434 71.5617 47.0358 74.9289L50.5302 89.7799C51.946 95.7977 57.2524 100 63.4345 100H77.5569C84.8667 100 90.8138 94.0535 90.8138 86.7436V69.4453C90.814 66.3979 88.5499 63.7844 85.6595 63.4949ZM87.6823 86.7432C87.6823 92.3262 83.1401 96.8684 77.5571 96.8684H63.4347C58.713 96.8684 54.6599 93.6584 53.5784 89.0621L50.0841 74.2111C49.5419 71.9074 50.2175 69.5328 51.8909 67.8594L54.2794 65.4709V70.8768C54.2794 71.292 54.4444 71.6903 54.738 71.984C55.0317 72.2776 55.4299 72.4426 55.8452 72.4426C56.2605 72.4426 56.6588 72.2776 56.9524 71.984C57.2461 71.6903 57.411 71.292 57.411 70.8768V41.0524C57.411 39.5943 58.4366 38.3494 59.7462 38.2186C60.4983 38.143 61.2177 38.3777 61.7708 38.8785C62.0411 39.1234 62.2573 39.4222 62.4053 39.7556C62.5533 40.089 62.63 40.4497 62.6304 40.8145V68.3719C62.6304 68.7872 62.7953 69.1854 63.089 69.4791C63.3826 69.7727 63.7809 69.9377 64.1962 69.9377C64.6115 69.9377 65.0097 69.7727 65.3034 69.4791C65.597 69.1854 65.762 68.7872 65.762 68.3719V65.8666C65.762 65.1307 66.0751 64.425 66.6216 63.9307C67.1751 63.4299 67.894 63.1949 68.6462 63.2707C69.9556 63.4018 70.9813 64.6467 70.9813 66.1047V70.0416C70.9813 70.4569 71.1463 70.8552 71.44 71.1488C71.7336 71.4425 72.1319 71.6074 72.5472 71.6074C72.9624 71.6074 73.3607 71.4425 73.6544 71.1488C73.948 70.8552 74.113 70.4569 74.113 70.0416V67.5363C74.113 66.8004 74.4261 66.0947 74.9725 65.6004C75.5261 65.0996 76.2452 64.8649 76.9972 64.9404C78.3065 65.0715 79.3323 66.3164 79.3323 67.7744V71.7115C79.3323 72.1268 79.4973 72.5251 79.7909 72.8187C80.0846 73.1124 80.4829 73.2774 80.8981 73.2774C81.3134 73.2774 81.7117 73.1124 82.0053 72.8187C82.299 72.5251 82.464 72.1268 82.464 71.7115V69.2063C82.464 68.4703 82.777 67.7647 83.3235 67.2703C83.877 66.7697 84.5956 66.5346 85.3481 66.6106C86.6575 66.7414 87.6833 67.9863 87.6833 69.4443V86.7432H87.6823Z" fill="black"/>
</g>
<defs>
<clipPath id="clip0_475_44">
<rect width="100" height="100" fill="white"/>
</clipPath>
</defs>
</svg>
