<svg width="100" height="100" viewBox="0 0 100 100" fill="none" xmlns="http://www.w3.org/2000/svg">
<g clip-path="url(#clip0_475_50)">
<path d="M96.0409 22.0646L50.637 0.145478C50.4384 0.0496479 50.2207 -0.00012207 50.0002 -0.00012207C49.7797 -0.00012207 49.562 0.0496479 49.3634 0.145478L3.95928 22.0646C3.7112 22.1844 3.50192 22.3717 3.35547 22.605C3.20903 22.8384 3.13135 23.1083 3.13135 23.3838V76.616C3.13135 76.8915 3.20903 77.1614 3.35547 77.3947C3.50192 77.628 3.7112 77.8154 3.95928 77.9351L49.3632 99.8543C49.5618 99.9501 49.7795 99.9999 50.0001 99.9999C50.2207 99.9999 50.4384 99.9501 50.637 99.8543L96.0409 77.9351C96.289 77.8154 96.4983 77.628 96.6447 77.3947C96.7912 77.1614 96.8688 76.8915 96.8688 76.616V23.384C96.8688 23.1084 96.7912 22.8385 96.6447 22.6052C96.4983 22.3718 96.289 22.1845 96.0409 22.0646ZM50.0001 3.09138L92.0347 23.3838L79.8497 29.2662C79.7725 29.2059 79.6894 29.1535 79.6017 29.1099L37.8526 8.95563L50.0001 3.09138ZM34.5444 10.6119L76.5179 30.8748L67.9212 35.025L25.9651 14.7703L34.5444 10.6119ZM77.4999 33.6537V48.9947L69.47 52.8713V37.5302L77.4999 33.6537ZM93.9392 75.6968L51.4649 96.2011V46.2222L61.5964 41.3312C61.7696 41.2476 61.9247 41.1306 62.0527 40.9871C62.1808 40.8435 62.2793 40.6761 62.3426 40.4945C62.406 40.3129 62.4329 40.1205 62.4219 39.9285C62.411 39.7364 62.3623 39.5484 62.2786 39.3752C62.195 39.2019 62.078 39.0469 61.9345 38.9188C61.7909 38.7908 61.6235 38.6923 61.4419 38.6289C61.2602 38.5656 61.0679 38.5386 60.8759 38.5496C60.6838 38.5606 60.4958 38.6093 60.3226 38.6929L50.0001 43.6763L45.9384 41.7154C45.7652 41.6317 45.5771 41.583 45.3851 41.572C45.193 41.5609 45.0007 41.5879 44.819 41.6512C44.6374 41.7146 44.47 41.8131 44.3264 41.9412C44.1828 42.0693 44.0659 42.2244 43.9823 42.3976C43.8987 42.5709 43.85 42.7589 43.839 42.9509C43.828 43.143 43.855 43.3353 43.9183 43.5169C43.9817 43.6986 44.0802 43.866 44.2082 44.0095C44.3363 44.1531 44.4913 44.27 44.6646 44.3537L48.5353 46.2222V96.2011L6.06104 75.6965V25.7175L38.4048 41.3318C38.6029 41.4279 38.8203 41.4779 39.0405 41.4779C39.3725 41.4783 39.6947 41.366 39.9545 41.1593C40.2142 40.9525 40.3961 40.6637 40.4702 40.3402C40.5443 40.0166 40.5063 39.6774 40.3625 39.3783C40.2186 39.0791 39.9774 38.8377 39.6784 38.6935L7.96553 23.3838L22.5173 16.3588L66.52 37.6015C66.5265 37.6105 66.5337 37.6185 66.5403 37.6273V55.2052C66.5404 55.4532 66.6035 55.697 66.7235 55.914C66.8435 56.1309 67.0166 56.3139 67.2266 56.4457C67.4366 56.5775 67.6767 56.6538 67.9242 56.6676C68.1718 56.6814 68.4188 56.6321 68.6421 56.5244L79.6017 51.2336C79.8498 51.1138 80.059 50.9265 80.2055 50.6932C80.3519 50.4598 80.4296 50.1899 80.4296 49.9144V32.2396L93.9392 25.7177V75.6968Z" fill="black"/>
<path d="M18.1496 70.0154L11.4865 66.7988C11.1367 66.6299 10.734 66.6069 10.3672 66.7348C10.0004 66.8628 9.6994 67.1312 9.53048 67.4811C9.36156 67.8309 9.33854 68.2336 9.46648 68.6004C9.59442 68.9672 9.86285 69.2682 10.2127 69.4371L16.8758 72.6537C17.0739 72.7498 17.2913 72.7998 17.5115 72.7998C17.7872 72.8 18.0574 72.7223 18.2909 72.5758C18.5244 72.4293 18.7119 72.2198 18.8316 71.9715C18.9153 71.7983 18.9641 71.6103 18.9751 71.4182C18.9861 71.2262 18.9591 71.0338 18.8958 70.8522C18.8325 70.6706 18.734 70.5032 18.6059 70.3596C18.4779 70.216 18.3229 70.0991 18.1496 70.0154ZM24.2818 66.0238L11.4957 59.8512C11.1467 59.6886 10.7477 59.67 10.385 59.7994C10.0224 59.9287 9.72525 60.1957 9.55787 60.5424C9.39049 60.8891 9.36634 61.2878 9.49064 61.6522C9.61494 62.0167 9.8777 62.3175 10.2221 62.4897L23.0082 68.6623C23.2064 68.7583 23.4237 68.8083 23.644 68.8084C23.976 68.8089 24.2983 68.6966 24.5582 68.4899C24.818 68.2832 24.9999 67.9943 25.074 67.6707C25.1482 67.347 25.1102 67.0078 24.9662 66.7086C24.8223 66.4094 24.581 66.1679 24.2818 66.0238Z" fill="black"/>
</g>
<defs>
<clipPath id="clip0_475_50">
<rect width="100" height="100" fill="white"/>
</clipPath>
</defs>
</svg>
