<svg xmlns="http://www.w3.org/2000/svg" version="1.1" xmlns:xlink="http://www.w3.org/1999/xlink" width="512" height="512" x="0" y="0" viewBox="0 0 512.004 512.004" style="enable-background:new 0 0 512 512" xml:space="preserve" class=""><g><path d="m509.483 262.693-55.454-81.68 55.454-81.68a15.022 15.022 0 0 0 1.713-13.183c-1.523-4.424-5.01-7.896-9.448-9.36l-181-60c-6.475-2.183-13.477.278-17.227 5.903l-47.52 71.279-47.52-71.279c-3.779-5.654-10.84-8.101-17.227-5.903l-181 60c-4.438 1.465-7.925 4.937-9.448 9.36A15.022 15.022 0 0 0 2.52 99.334l55.454 81.68-55.453 81.679a15.021 15.021 0 0 0-1.714 13.184c1.523 4.424 5.01 7.896 9.448 9.36l181 60c6.37 2.142 13.456-.249 17.227-5.903l47.52-71.279 47.52 71.279c3.774 5.66 10.864 8.044 17.227 5.903l181-60c4.438-1.465 7.925-4.937 9.448-9.36a15.022 15.022 0 0 0-1.714-13.184zm-253.481-37.485-132.583-44.194 132.583-44.194 132.583 44.194-132.583 44.194z" fill="#000000" opacity="1" data-original="#000000" class=""></path><path d="M330.24 373.699c-18.88 6.334-40.226-.535-51.68-17.725l-22.557-33.836-22.56 33.836c-11.431 17.157-32.752 24.089-51.753 17.695L61.002 333.443v87.57c0 6.46 4.131 12.188 10.254 14.224l179.912 59.971c.542.19 1.084.337 1.626.454 0 0 .015 0 .015.015h.015c1.055.22 2.124.337 3.179.337a15.294 15.294 0 0 0 4.819-.791l179.927-59.985a14.986 14.986 0 0 0 10.253-14.225v-87.568L330.24 373.699z" fill="#000000" opacity="1" data-original="#000000" class=""></path></g></svg>