<svg width="800" height="287" viewBox="0 0 800 287" fill="none" xmlns="http://www.w3.org/2000/svg">
<g clip-path="url(#clip0_336_9)">
<path d="M800 0H0V287H800V0Z" fill="white"/>
<path d="M172.697 68.7948C164.083 62.8727 152.842 59.9045 138.974 59.9045H85.2862C81.0349 59.9045 78.6862 62.0307 78.24 66.2779L56.4298 203.18C56.2031 204.525 56.5395 205.755 57.4359 206.873C58.3272 207.994 59.4482 208.551 60.7908 208.551H86.2924C90.7652 208.551 93.2236 206.43 93.6749 202.175L99.7139 165.268C99.9344 163.479 100.721 162.025 102.064 160.905C103.405 159.787 105.083 159.054 107.096 158.72C109.11 158.388 111.008 158.22 112.801 158.22C114.589 158.22 116.713 158.333 119.177 158.556C121.636 158.779 123.203 158.888 123.875 158.888C143.112 158.888 158.211 153.468 169.174 142.615C180.132 131.767 185.617 116.724 185.617 97.483C185.617 84.285 181.308 74.722 172.697 68.7907V68.7948ZM145.015 109.902C143.893 117.733 140.989 122.876 136.291 125.337C131.593 127.802 124.882 129.027 116.159 129.027L105.085 129.363L110.791 93.4584C111.236 90.9999 112.689 89.7692 115.152 89.7692H121.529C130.473 89.7692 136.964 91.0584 140.991 93.6266C145.015 96.201 146.358 101.629 145.015 109.902Z" fill="#003087"/>
<path d="M739.272 59.9026H714.443C711.976 59.9026 710.524 61.1334 710.081 63.5939L688.269 203.184L687.932 203.854C687.932 204.978 688.381 206.036 689.277 207.043C690.167 208.047 691.29 208.552 692.632 208.552H714.781C719.025 208.552 721.374 206.431 721.828 202.177L743.638 64.9364V64.6031C743.636 61.4718 742.177 59.9057 739.272 59.9057V59.9026Z" fill="#009CDE"/>
<path d="M439.292 113.933C439.292 112.817 438.843 111.753 437.953 110.748C437.055 109.741 436.048 109.236 434.932 109.236H409.095C406.63 109.236 404.617 110.36 403.054 112.591L367.486 164.939L352.723 114.606C351.599 111.029 349.141 109.236 345.341 109.236H320.171C319.05 109.236 318.043 109.74 317.154 110.748C316.256 111.753 315.811 112.818 315.811 113.933C315.811 114.385 317.993 120.98 322.354 133.731C326.715 146.484 331.413 160.242 336.447 175.007C341.481 189.77 344.107 197.603 344.332 198.492C325.988 223.549 316.818 236.972 316.818 238.759C316.818 241.67 318.272 243.122 321.181 243.122H347.017C349.478 243.122 351.49 242.006 353.058 239.767L438.625 116.28C439.069 115.836 439.292 115.056 439.292 113.932V113.933Z" fill="#003087"/>
<path d="M679.887 109.236H654.385C651.25 109.236 649.355 112.927 648.683 120.31C642.861 111.366 632.241 106.886 616.803 106.886C600.696 106.886 586.993 112.927 575.699 125.007C564.4 137.088 558.754 151.295 558.754 167.624C558.754 180.825 562.611 191.338 570.328 199.164C578.045 206.999 588.391 210.909 601.37 210.909C607.855 210.909 614.454 209.564 621.165 206.882C627.877 204.198 633.129 200.621 636.939 196.145C636.939 196.369 636.711 197.373 636.268 199.162C635.817 200.955 635.596 202.301 635.596 203.189C635.596 206.772 637.046 208.557 639.959 208.557H663.114C667.358 208.557 669.823 206.436 670.491 202.182L684.25 114.603C684.471 113.261 684.137 112.032 683.244 110.912C682.346 109.797 681.23 109.236 679.887 109.236ZM636.099 175.341C630.394 180.933 623.515 183.729 615.463 183.729C608.972 183.729 603.72 181.943 599.691 178.361C595.663 174.789 593.649 169.867 593.649 163.596C593.649 155.325 596.446 148.33 602.04 142.626C607.626 136.921 614.567 134.069 622.844 134.069C629.103 134.069 634.305 135.915 638.446 139.604C642.582 143.295 644.656 148.387 644.656 154.874C644.655 162.926 641.802 169.751 636.099 175.341Z" fill="#009CDE"/>
<path d="M298.697 109.236H273.196C270.059 109.236 268.162 112.927 267.49 120.31C261.45 111.366 250.824 106.886 235.612 106.886C219.506 106.886 205.802 112.927 194.507 125.007C183.208 137.088 177.562 151.295 177.562 167.624C177.562 180.825 181.421 191.338 189.139 199.164C196.857 206.999 207.201 210.909 220.177 210.909C226.438 210.909 232.929 209.564 239.639 206.882C246.35 204.198 251.719 200.621 255.746 196.145C254.848 198.828 254.403 201.178 254.403 203.189C254.403 206.772 255.856 208.557 258.765 208.557H281.918C286.165 208.557 288.629 206.436 289.3 202.182L303.057 114.603C303.278 113.261 302.943 112.032 302.051 110.912C301.156 109.797 300.039 109.236 298.697 109.236ZM254.908 175.507C249.202 180.995 242.208 183.729 233.936 183.729C227.445 183.729 222.244 181.943 218.332 178.361C214.415 174.789 212.459 169.867 212.459 163.596C212.459 155.325 215.254 148.33 220.849 142.626C226.438 136.921 233.373 134.069 241.653 134.069C247.914 134.069 253.115 135.915 257.257 139.605C261.393 143.296 263.465 148.388 263.465 154.875C263.465 163.151 260.612 170.032 254.908 175.507Z" fill="#003087"/>
<path d="M553.887 68.7948C545.274 62.8727 534.035 59.9045 520.165 59.9045H466.811C462.335 59.9045 459.873 62.0307 459.43 66.2779L437.618 203.18C437.392 204.526 437.727 205.756 438.625 206.874C439.512 207.994 440.637 208.551 441.979 208.551H469.493C472.177 208.551 473.966 207.098 474.862 204.19L480.904 165.268C481.125 163.479 481.909 162.025 483.252 160.905C484.595 159.787 486.271 159.055 488.286 158.72C490.298 158.388 492.196 158.22 493.991 158.22C495.778 158.22 497.902 158.333 500.364 158.556C502.825 158.779 504.396 158.888 505.061 158.888C524.302 158.888 539.399 153.468 550.362 142.615C561.324 131.767 566.804 116.724 566.804 97.483C566.806 84.2861 562.497 74.723 553.887 68.7917V68.7948ZM519.493 123.995C514.571 127.35 507.189 129.027 497.348 129.027L486.609 129.363L492.314 93.4584C492.757 90.9999 494.21 89.7692 496.675 89.7692H502.713C507.634 89.7692 511.548 89.9927 514.46 90.4389C517.364 90.8902 520.165 92.284 522.849 94.6327C525.534 96.9825 526.876 100.395 526.876 104.869C526.876 114.264 524.412 120.638 519.493 123.995Z" fill="#009CDE"/>
</g>
<defs>
<clipPath id="clip0_336_9">
<rect width="800" height="287" fill="white"/>
</clipPath>
</defs>
</svg>
