<svg width="100" height="100" viewBox="0 0 100 100" fill="none" xmlns="http://www.w3.org/2000/svg">
<g clip-path="url(#clip0_478_18)">
<path d="M97.3759 77.1445L77.1356 63.6465C74.567 61.9474 71.124 62.5065 69.225 64.9313L63.3292 72.5118C62.9627 72.9951 62.4341 73.3299 61.8405 73.4548C61.247 73.5797 60.6283 73.4863 60.098 73.1918L58.9765 72.5735C55.2587 70.5471 50.6329 68.0242 41.3126 58.7006C31.9923 49.377 29.4643 44.7476 27.4379 41.0366L26.8229 39.9151C26.5244 39.385 26.4274 38.7649 26.5499 38.169C26.6724 37.5731 27.006 37.0416 27.4894 36.6722L35.0649 30.7782C37.4887 28.879 38.0486 25.437 36.3514 22.8676L22.8534 2.62726C21.114 0.0108503 17.6243 -0.77458 14.9315 0.844125L6.46773 5.92833C3.80834 7.49171 1.85733 10.0238 1.02361 12.9939C-2.02418 24.0989 0.268646 43.2644 28.5012 71.5002C50.9596 93.9569 67.6788 99.996 79.1704 99.996C81.8152 100.007 84.4495 99.6632 87.0027 98.9729C89.9733 98.1403 92.5057 96.189 94.0682 93.5288L99.1575 85.0701C100.779 82.3767 99.9935 78.8849 97.3759 77.1445ZM96.286 83.3602L91.2085 91.824C90.0864 93.7441 88.2651 95.1557 86.1258 95.7634C75.874 98.5781 57.9634 96.2468 30.859 69.1424C3.75465 42.038 1.42355 24.129 4.23818 13.8756C4.84676 11.7336 6.26012 9.91002 8.18251 8.78631L16.6463 3.70874C17.8147 3.00572 19.3293 3.34649 20.0841 4.48187L27.4164 15.4902L33.5705 24.7205C34.3075 25.8349 34.0654 27.3287 33.014 28.1534L25.4368 34.0474C23.1309 35.8106 22.4724 39.001 23.8921 41.533L24.4938 42.6262C26.6235 46.5323 29.2714 51.3915 38.9383 61.0569C48.6052 70.722 53.4629 73.3701 57.3672 75.4996L58.462 76.1029C60.9938 77.5224 64.1844 76.8641 65.9476 74.5582L71.8416 66.981C72.6665 65.9302 74.1596 65.6882 75.2745 66.4244L95.5131 79.9224C96.6493 80.6766 96.99 82.192 96.286 83.3602ZM56.6636 16.6752C72.3021 16.6926 84.9752 29.3659 84.9928 45.0044C84.9928 45.9247 85.7388 46.6707 86.6591 46.6707C87.5795 46.6707 88.3255 45.9247 88.3255 45.0044C88.3062 27.5259 74.1421 13.3616 56.6636 13.3425C55.7432 13.3425 54.9972 14.0884 54.9972 15.0088C54.9972 15.9292 55.7432 16.6752 56.6636 16.6752Z" fill="black"/>
<path d="M56.6634 26.6738C66.7822 26.6857 74.9822 34.8856 74.9941 45.0045C74.9941 45.4464 75.1697 45.8702 75.4822 46.1827C75.7947 46.4952 76.2185 46.6708 76.6605 46.6708C77.1024 46.6708 77.5262 46.4952 77.8388 46.1827C78.1513 45.8702 78.3268 45.4464 78.3268 45.0045C78.3129 33.0457 68.622 23.3547 56.6634 23.3411C55.7431 23.3411 54.9971 24.087 54.9971 25.0074C54.9971 25.9278 55.7431 26.6738 56.6634 26.6738Z" fill="black"/>
<path d="M56.6634 36.6723C61.2627 36.6778 64.9899 40.405 64.9956 45.0045C64.9956 45.4464 65.1712 45.8703 65.4837 46.1828C65.7962 46.4953 66.22 46.6708 66.6619 46.6708C67.1039 46.6708 67.5277 46.4953 67.8402 46.1828C68.1527 45.8703 68.3283 45.4464 68.3283 45.0045C68.3209 38.5652 63.1027 33.3468 56.6634 33.3396C55.7431 33.3396 54.9971 34.0856 54.9971 35.006C54.9971 35.9263 55.7431 36.6723 56.6634 36.6723Z" fill="black"/>
</g>
<defs>
<clipPath id="clip0_478_18">
<rect width="100" height="100" fill="white"/>
</clipPath>
</defs>
</svg>
