<svg width="100" height="100" viewBox="0 0 100 100" fill="none" xmlns="http://www.w3.org/2000/svg">
<g clip-path="url(#clip0_342_6)">
<path d="M84.2875 83.9032L84.2901 83.9112L83.5897 84.0653C83.2533 84.1117 82.9256 84.2078 82.6174 84.3505L82.3227 84.4603C77.6661 86.8215 72.7563 88.0335 67.7942 88.0335C66.8942 88.0335 65.2054 87.7952 62.7746 87.3251C60.141 86.8715 57.5093 86.4068 54.8796 85.9309C52.1106 85.4313 49.3396 84.9429 46.5667 84.4657C43.8238 83.9929 41.7024 83.7666 40.0832 83.7666C38.9395 83.7666 37.781 83.8215 36.6372 83.93L31.7542 84.3961L35.0917 80.8014C35.4265 80.4425 35.7426 80.0849 36.0466 79.73C37.4938 78.0548 38.7315 76.2095 39.7323 74.2349C40.7048 72.2653 41.3993 70.1704 41.7961 68.01C42.2167 65.7707 42.4323 63.2461 42.4323 60.5073C42.4323 59.2578 42.2863 58.0176 41.9957 56.8176L41.4386 54.5127L60.0934 54.4765C60.4242 54.4484 60.7081 54.3734 60.9853 54.2448C63.0532 53.5712 64.3925 51.7444 64.3925 49.6699C64.3919 48.5482 63.9979 47.4623 63.2792 46.6011C62.5605 45.74 61.5625 45.1581 60.459 44.9569C60.3055 44.922 60.149 44.9018 59.9916 44.8967L59.9702 44.898C59.9237 44.8973 59.8773 44.8955 59.8309 44.8927L59.5885 44.9101H39.1337L38.7238 43.5989C36.577 36.711 35.4908 30.8932 35.4908 26.3035C35.4827 24.0997 35.9063 21.9158 36.7377 19.8749C37.5398 17.8977 38.7009 16.0859 40.1622 14.5312C41.5993 13.0071 43.3752 11.791 45.4403 10.9178C47.4988 10.0486 49.8345 9.60665 52.3791 9.60665C62.7331 9.60665 68.2108 14.5272 69.1241 24.6494C69.1402 24.7044 69.1523 24.7619 69.163 24.8195L69.1991 25.2776L69.1858 25.3727C69.1965 25.5802 69.2554 25.8977 69.3759 26.2713C69.8594 29.4896 72.4643 31.749 75.5929 31.749C77.1429 31.7467 78.6376 31.1724 79.7903 30.1361C80.943 29.0998 81.6726 27.6744 81.8393 26.1334H81.8366L81.8741 25.2695C81.8754 25.2561 81.862 25.1517 81.8567 25.0352L81.854 24.8972C81.4897 20.8794 80.5174 17.2593 78.9745 14.1656C77.4317 11.0839 75.3893 8.46559 72.9089 6.38569C70.4206 4.29641 67.4259 2.69329 64.0161 1.62053C60.5996 0.545087 56.7894 0 52.6965 0C48.2649 0 44.1693 0.641515 40.5225 1.90713C36.8703 3.17409 33.6948 5.00355 31.0873 7.33925C28.4716 9.68165 26.4092 12.5986 24.9574 16.0098C23.5029 19.4276 22.765 23.2954 22.765 27.5128C22.765 29.5003 23.0328 31.9499 23.5618 34.7918C23.977 37.0431 24.6105 39.6427 25.4476 42.5208L26.1413 44.9114L15.5061 44.8886C14.3164 45.0034 13.212 45.5568 12.4079 46.4411C11.6038 47.3254 11.1576 48.4773 11.1561 49.6725C11.1576 50.857 11.5989 51.9987 12.3945 52.8762C13.1901 53.7537 14.2832 54.3044 15.4619 54.4216L15.9199 54.5047L28.9016 54.5154L29.223 55.9846C29.7145 58.2466 29.9649 60.5636 29.9649 62.8658C29.9649 66.2528 29.6422 69.2943 29.006 71.8979C28.3725 74.4948 27.4498 76.8291 26.2605 78.8273C25.0913 80.7986 23.6121 82.5686 21.8797 84.0693C20.1668 85.5519 18.1779 86.8858 15.9762 88.0268C12.4271 89.2067 8.46415 91.3442 9.13647 95.0848C9.68557 98.1397 12.5945 100.363 15.6963 99.9518C15.79 99.9357 15.7927 99.9344 15.8744 99.8955C24.5462 95.942 32.4212 93.9478 39.3212 93.9478C40.2145 93.9478 41.4627 94.0978 43.0296 94.3951C44.5993 94.6924 46.3363 95.0567 48.1925 95.4826C50.0608 95.9045 51.9948 96.3706 53.9889 96.8822C55.9845 97.3911 57.905 97.8585 59.7532 98.2817C61.6014 98.7063 63.2876 99.0813 64.8157 99.3987C66.3505 99.7174 67.5344 99.8728 68.4317 99.8728H68.7049C75.6746 99.8728 83.0741 96.9585 83.3875 96.8339C84.0705 96.5366 86.1598 95.7612 86.1598 95.7612C89.4772 95.0085 91.5156 91.7889 90.791 88.5585C90.1334 85.6255 87.2875 83.5844 84.2875 83.9032Z" fill="#6C8B57" fill-opacity="0.95"/>
</g>
<defs>
<clipPath id="clip0_342_6">
<rect width="100" height="100" fill="white"/>
</clipPath>
</defs>
</svg>
