<svg xmlns="http://www.w3.org/2000/svg" version="1.1" xmlns:xlink="http://www.w3.org/1999/xlink" width="512" height="512" x="0" y="0" viewBox="0 0 681 681.334" style="enable-background:new 0 0 512 512" xml:space="preserve" class=""><g><path d="M426.75 506.508c51.586 0 93.566-41.977 93.566-93.567 0-51.586-41.98-93.566-93.566-93.566-51.59 0-93.566 41.98-93.566 93.566 0 51.59 41.976 93.567 93.566 93.567zm0-130.992c20.633 0 37.426 16.793 37.426 37.425 0 20.633-16.793 37.426-37.426 37.426s-37.426-16.793-37.426-37.426c0-20.632 16.793-37.425 37.426-37.425zM351.895 520.152v99.86c0 13.914 14.64 22.957 27.082 16.742l47.773-36.68 47.766 36.68c12.449 6.215 27.086-2.828 27.086-16.742v-99.86c-21.258 14.891-46.993 23.785-74.852 23.785s-53.598-8.894-74.855-23.785zM108.621 10.965 7.305 113.527H108.62zm0 0" fill="#000000" opacity="1" data-original="#000000" class=""></path><path d="M426.75 281.95c6.406 0 12.547 1 18.71 1.89V18.715C445.46 8.37 437.09 0 426.75 0H146.047v132.242c0 10.34-8.371 18.711-18.711 18.711H-3.66v355.555c0 10.344 8.367 18.715 18.715 18.715h299.414v-45.516c-11.79-19.539-18.715-42.293-18.715-66.766 0-72.222 58.773-130.992 130.996-130.992zM89.91 188.382h261.985c10.343 0 18.714 8.37 18.714 18.71 0 10.345-8.37 18.716-18.714 18.716H89.91c-10.347 0-18.715-8.371-18.715-18.715 0-10.34 8.368-18.711 18.715-18.711zm0 74.851H314.47c10.34 0 18.715 8.371 18.715 18.715 0 10.34-8.375 18.711-18.715 18.711H89.91c-10.347 0-18.715-8.37-18.715-18.71 0-10.345 8.368-18.716 18.715-18.716zm149.707 112.282H89.91c-10.348 0-18.715-8.371-18.715-18.715 0-10.34 8.367-18.711 18.715-18.711h149.707c10.34 0 18.711 8.37 18.711 18.71 0 10.345-8.371 18.716-18.71 18.716zm0 0" fill="#000000" opacity="1" data-original="#000000" class=""></path></g></svg>