<svg width="48" height="48" viewBox="0 0 48 48" fill="none" xmlns="http://www.w3.org/2000/svg">
<path d="M36.4669 31.2019C35.4225 32.1075 34.7166 33.0741 34.3256 34.1391C33.7228 33.7837 33.0366 33.4706 32.2631 33.2016C32.1094 33.1481 31.9388 33.1641 31.7972 33.2447C31.7272 33.2849 31.6667 33.3397 31.6198 33.4054C31.5729 33.4711 31.5407 33.5461 31.5253 33.6253C31.2666 34.9678 31.2891 36.2072 31.59 37.32C31.0331 37.3275 30.4416 37.3763 29.8163 37.4681C29.6363 37.4944 29.4806 37.6059 29.3972 37.7672C29.3138 37.9284 29.3138 38.1206 29.3972 38.2819C30.5709 40.5591 32.2416 41.7159 34.3087 41.7159C35.0944 41.7159 35.9391 41.5462 36.8344 41.2087C37.7297 41.5453 38.5734 41.7159 39.36 41.7159C41.4272 41.7159 43.0988 40.5581 44.2716 38.2819C44.355 38.1206 44.355 37.9284 44.2716 37.7672C44.1881 37.6059 44.0325 37.4944 43.8525 37.4681C43.2263 37.3772 42.6356 37.3284 42.0787 37.3209C42.3797 36.2072 42.4022 34.9687 42.1434 33.6262C42.1125 33.4659 42.0131 33.3262 41.8716 33.2447C41.73 33.1631 41.5594 33.1472 41.4056 33.2016C40.6341 33.4706 39.9469 33.7847 39.3441 34.1409C38.9531 33.0759 38.2472 32.1084 37.2028 31.2019C36.9928 31.0181 36.6788 31.0181 36.4669 31.2019ZM32.5275 34.5028C34.9172 35.4853 36.1791 36.9506 36.3506 38.9456C35.4741 38.0578 34.2816 37.5319 32.7825 37.3716C32.49 36.5175 32.4037 35.5566 32.5275 34.5028ZM30.81 38.4834C33.3263 38.2659 35.0391 38.8659 36.0141 40.3069C33.7519 41.0306 32.0728 40.4428 30.81 38.4834ZM37.6566 40.3078C38.6316 38.8659 40.3453 38.2659 42.8606 38.4844C41.5987 40.4437 39.9206 41.0306 37.6566 40.3078ZM40.8881 37.3725C39.4753 37.5244 38.3344 37.9997 37.4738 38.7984C37.4588 38.6325 37.4372 38.4703 37.41 38.31C37.7681 36.6347 38.9934 35.3841 41.1441 34.5028C41.2678 35.5566 41.1816 36.5175 40.8881 37.3725ZM38.3812 34.8047C37.7194 35.3381 37.2047 35.9456 36.84 36.6244C36.4753 35.9438 35.9588 35.3353 35.2922 34.8C35.5509 33.9384 36.06 33.1434 36.8363 32.3888C37.6134 33.1453 38.1225 33.9412 38.3812 34.8047ZM46.5938 36.8363C46.5938 32.0175 43.0828 28.0041 38.4853 27.2184L35.2575 17.4441C34.9453 16.5 34.215 15.8147 33.2531 15.5644L26.8744 13.9012C27.6216 12.9797 28.0697 11.8059 28.0697 10.53V6.77063C28.0697 3.81281 25.6631 1.40625 22.7053 1.40625C19.7475 1.40625 17.3409 3.81281 17.3409 6.77063V10.5291C17.3409 11.805 17.79 12.9778 18.5363 13.9003L12.1575 15.5634C11.1956 15.8147 10.4653 16.4991 10.1531 17.4431L5.75531 30.7612C5.47875 31.5975 5.67563 32.4797 6.28219 33.1191C6.73781 33.6 7.3425 33.8569 7.97531 33.8569C8.18437 33.8569 8.39625 33.8288 8.60719 33.7716L14.7 32.1178V35.4234L5.32781 38.4328C2.68875 39.2803 1.40625 40.6106 1.40625 42.4997C1.40625 44.7572 3.24281 46.5938 5.50031 46.5938H39.9103C41.7516 46.5938 43.35 45.3759 43.8488 43.6134C45.5475 41.8566 46.5938 39.4659 46.5938 36.8363ZM17.4863 45.4688C16.2441 45.4688 15.2344 44.4581 15.2344 43.2169C15.2344 41.9756 16.245 40.965 17.4863 40.965H27.5278C27.6816 40.965 27.8203 40.9031 27.9216 40.8037C28.815 42.8044 30.3628 44.4497 32.2913 45.4697H17.4863V45.4688ZM45.4688 36.8363C45.4688 41.5969 41.5959 45.4688 36.8363 45.4688C32.0766 45.4688 28.2037 41.5959 28.2037 36.8363C28.2037 32.0766 32.0766 28.2037 36.8363 28.2037C41.5959 28.2037 45.4688 32.0756 45.4688 36.8363ZM18.4659 6.77063C18.4659 4.43344 20.3681 2.53125 22.7053 2.53125C25.0425 2.53125 26.9447 4.43344 26.9447 6.77063V10.5291C26.9447 12.8672 25.0425 14.7684 22.7053 14.7684C20.3672 14.7684 18.4659 12.8662 18.4659 10.5291V6.77063ZM8.31281 32.6859C7.86187 32.8087 7.41938 32.6841 7.09875 32.3447C6.77719 32.0053 6.67688 31.5572 6.82406 31.1138L11.2228 17.7956C11.415 17.2125 11.8481 16.8066 12.4425 16.6509L19.485 14.8144C20.3831 15.4903 21.4987 15.8925 22.7062 15.8925C23.9137 15.8925 25.0294 15.4913 25.9275 14.8144L32.97 16.6509C33.5644 16.8056 33.9975 17.2125 34.1897 17.7956L37.2581 27.0872C35.9989 27.0314 34.7408 27.2212 33.5541 27.6459C33.5184 27.4359 33.3656 27.255 33.1472 27.1959L27.9422 25.7831L23.1928 17.5566C23.0925 17.3822 22.9069 17.2753 22.7053 17.2753C22.6065 17.2752 22.5094 17.3012 22.4239 17.3506C22.3383 17.4 22.2672 17.471 22.2178 17.5566L17.4684 25.7831L12.2634 27.1959C11.9634 27.2775 11.7862 27.5859 11.8678 27.8859C11.9494 28.1859 12.2587 28.3631 12.5578 28.2816L17.9869 26.8078C18.13 26.7687 18.252 26.6747 18.3262 26.5463L22.7044 18.9628L27.0825 26.5463C27.1567 26.6748 27.2787 26.7688 27.4219 26.8078L32.3812 28.1541C31.2186 28.7536 30.1875 29.5795 29.3484 30.5831L22.8506 28.8197C22.7543 28.7934 22.6526 28.7934 22.5563 28.8197L8.31281 32.6859ZM22.7053 29.9456L28.6341 31.5544C27.9468 32.6165 27.4742 33.8028 27.2428 35.0466H15.9619C15.915 35.0466 15.87 35.0541 15.825 35.0653V31.8131L22.7053 29.9456ZM2.53125 42.4997C2.53125 41.1441 3.52969 40.1916 5.67188 39.5034L16.05 36.1716H27.1003C27.0853 36.3909 27.0769 36.6122 27.0769 36.8353C27.0769 37.8834 27.2438 38.8931 27.5513 39.8409C27.5428 39.8409 27.5353 39.84 27.5269 39.84H17.4863C15.6244 39.84 14.1094 41.355 14.1094 43.2169C14.1094 44.0813 14.4366 44.8706 14.9728 45.4688H5.50031C3.86344 45.4688 2.53125 44.1366 2.53125 42.4997Z" fill="#6C8B57"/>
</svg>
