<svg width="364" height="48" viewBox="0 0 364 48" fill="none" xmlns="http://www.w3.org/2000/svg">
<g filter="url(#filter0_d_466_38)">
<rect x="2" y="1" width="360" height="44" rx="8" fill="white"/>
<rect x="2.5" y="1.5" width="359" height="43" rx="7.5" stroke="#D0D5DD"/>
<g clip-path="url(#clip0_466_38)">
<path d="M113.766 23.2764C113.766 22.4607 113.7 21.6406 113.559 20.8381H102.24V25.4591H108.722C108.453 26.9494 107.589 28.2678 106.323 29.1056V32.1039H110.19C112.461 30.0139 113.766 26.9274 113.766 23.2764Z" fill="#4285F4"/>
<path d="M102.24 35.0008C105.477 35.0008 108.206 33.9382 110.195 32.1039L106.328 29.1055C105.252 29.8375 103.863 30.252 102.245 30.252C99.1139 30.252 96.4595 28.1399 95.507 25.3003H91.5166V28.3912C93.5537 32.4434 97.7029 35.0008 102.24 35.0008V35.0008Z" fill="#34A853"/>
<path d="M95.5028 25.3003C95.0001 23.8099 95.0001 22.1961 95.5028 20.7057V17.6148H91.5167C89.8147 21.0056 89.8147 25.0004 91.5167 28.3912L95.5028 25.3003V25.3003Z" fill="#FBBC04"/>
<path d="M102.24 15.7497C103.951 15.7232 105.604 16.367 106.843 17.5487L110.269 14.1226C108.1 12.0855 105.221 10.9655 102.24 11.0008C97.7029 11.0008 93.5537 13.5582 91.5166 17.6148L95.5026 20.7058C96.4506 17.8617 99.1095 15.7497 102.24 15.7497V15.7497Z" fill="#EA4335"/>
</g>
<path d="M133.625 20.4205C133.564 19.8826 133.314 19.4659 132.875 19.1705C132.436 18.8712 131.883 18.7216 131.216 18.7216C130.739 18.7216 130.326 18.7973 129.977 18.9489C129.629 19.0966 129.358 19.3011 129.165 19.5625C128.975 19.8201 128.881 20.1136 128.881 20.4432C128.881 20.7197 128.945 20.9583 129.074 21.1591C129.206 21.3598 129.379 21.5284 129.591 21.6648C129.807 21.7973 130.038 21.9091 130.284 22C130.53 22.0871 130.767 22.1591 130.994 22.2159L132.131 22.5114C132.502 22.6023 132.883 22.7254 133.273 22.8807C133.663 23.036 134.025 23.2405 134.358 23.4943C134.691 23.7481 134.96 24.0625 135.165 24.4375C135.373 24.8125 135.477 25.2614 135.477 25.7841C135.477 26.4432 135.307 27.0284 134.966 27.5398C134.629 28.0511 134.138 28.4545 133.494 28.75C132.854 29.0455 132.08 29.1932 131.17 29.1932C130.299 29.1932 129.545 29.0549 128.909 28.7784C128.273 28.5019 127.775 28.1098 127.415 27.6023C127.055 27.0909 126.856 26.4848 126.818 25.7841H128.58C128.614 26.2045 128.75 26.5549 128.989 26.8352C129.231 27.1117 129.54 27.3182 129.915 27.4545C130.294 27.5871 130.708 27.6534 131.159 27.6534C131.655 27.6534 132.097 27.5758 132.483 27.4205C132.873 27.2614 133.18 27.0417 133.403 26.7614C133.627 26.4773 133.739 26.1458 133.739 25.767C133.739 25.4223 133.64 25.1402 133.443 24.9205C133.25 24.7008 132.987 24.5189 132.653 24.375C132.324 24.2311 131.951 24.1042 131.534 23.9943L130.159 23.6193C129.227 23.3655 128.489 22.9924 127.943 22.5C127.402 22.0076 127.131 21.3561 127.131 20.5455C127.131 19.875 127.313 19.2898 127.676 18.7898C128.04 18.2898 128.532 17.9015 129.153 17.625C129.775 17.3447 130.475 17.2045 131.256 17.2045C132.044 17.2045 132.739 17.3428 133.341 17.6193C133.947 17.8958 134.424 18.2765 134.773 18.7614C135.121 19.2424 135.303 19.7955 135.318 20.4205H133.625ZM137.439 29V20.2727H139.138V29H137.439ZM138.297 18.9261C138.001 18.9261 137.748 18.8277 137.536 18.6307C137.327 18.4299 137.223 18.1913 137.223 17.9148C137.223 17.6345 137.327 17.3958 137.536 17.1989C137.748 16.9981 138.001 16.8977 138.297 16.8977C138.592 16.8977 138.844 16.9981 139.053 17.1989C139.265 17.3958 139.371 17.6345 139.371 17.9148C139.371 18.1913 139.265 18.4299 139.053 18.6307C138.844 18.8277 138.592 18.9261 138.297 18.9261ZM145.082 32.4545C144.389 32.4545 143.793 32.3636 143.293 32.1818C142.796 32 142.391 31.7595 142.077 31.4602C141.762 31.161 141.527 30.8333 141.372 30.4773L142.832 29.875C142.935 30.0417 143.071 30.2178 143.241 30.4034C143.416 30.5928 143.651 30.7538 143.946 30.8864C144.245 31.0189 144.63 31.0852 145.099 31.0852C145.743 31.0852 146.276 30.928 146.696 30.6136C147.116 30.303 147.327 29.8068 147.327 29.125V27.4091H147.219C147.116 27.5947 146.969 27.8011 146.776 28.0284C146.586 28.2557 146.325 28.4527 145.991 28.6193C145.658 28.786 145.224 28.8693 144.69 28.8693C144.001 28.8693 143.38 28.7083 142.827 28.3864C142.277 28.0606 141.842 27.5814 141.52 26.9489C141.202 26.3125 141.043 25.5303 141.043 24.6023C141.043 23.6742 141.2 22.8788 141.514 22.2159C141.832 21.553 142.268 21.0455 142.821 20.6932C143.374 20.3371 144.001 20.1591 144.702 20.1591C145.243 20.1591 145.681 20.25 146.014 20.4318C146.348 20.6098 146.607 20.8182 146.793 21.0568C146.982 21.2955 147.128 21.5057 147.23 21.6875H147.355V20.2727H149.02V29.1932C149.02 29.9432 148.846 30.5587 148.497 31.0398C148.149 31.5208 147.677 31.8769 147.082 32.108C146.491 32.339 145.825 32.4545 145.082 32.4545ZM145.065 27.4602C145.554 27.4602 145.967 27.3466 146.304 27.1193C146.645 26.8883 146.902 26.5587 147.077 26.1307C147.255 25.6989 147.344 25.1818 147.344 24.5795C147.344 23.9924 147.257 23.4754 147.082 23.0284C146.908 22.5814 146.652 22.233 146.315 21.983C145.978 21.7292 145.562 21.6023 145.065 21.6023C144.554 21.6023 144.128 21.7348 143.787 22C143.446 22.2614 143.188 22.6174 143.014 23.0682C142.844 23.5189 142.759 24.0227 142.759 24.5795C142.759 25.1515 142.846 25.6534 143.02 26.0852C143.194 26.517 143.452 26.8542 143.793 27.0966C144.137 27.339 144.562 27.4602 145.065 27.4602ZM152.997 23.8182V29H151.298V20.2727H152.929V21.6932H153.037C153.238 21.2311 153.552 20.8598 153.98 20.5795C154.412 20.2992 154.955 20.1591 155.611 20.1591C156.205 20.1591 156.726 20.2841 157.173 20.5341C157.62 20.7803 157.967 21.1477 158.213 21.6364C158.459 22.125 158.582 22.7292 158.582 23.4489V29H156.884V23.6534C156.884 23.0208 156.719 22.5265 156.389 22.1705C156.06 21.8106 155.607 21.6307 155.031 21.6307C154.637 21.6307 154.287 21.7159 153.98 21.8864C153.677 22.0568 153.437 22.3068 153.259 22.6364C153.084 22.9621 152.997 23.3561 152.997 23.8182ZM165.095 29V20.2727H166.794V29H165.095ZM165.953 18.9261C165.658 18.9261 165.404 18.8277 165.192 18.6307C164.983 18.4299 164.879 18.1913 164.879 17.9148C164.879 17.6345 164.983 17.3958 165.192 17.1989C165.404 16.9981 165.658 16.8977 165.953 16.8977C166.249 16.8977 166.5 16.9981 166.709 17.1989C166.921 17.3958 167.027 17.6345 167.027 17.9148C167.027 18.1913 166.921 18.4299 166.709 18.6307C166.5 18.8277 166.249 18.9261 165.953 18.9261ZM170.778 23.8182V29H169.08V20.2727H170.71V21.6932H170.818C171.019 21.2311 171.333 20.8598 171.761 20.5795C172.193 20.2992 172.737 20.1591 173.392 20.1591C173.987 20.1591 174.508 20.2841 174.955 20.5341C175.402 20.7803 175.748 21.1477 175.994 21.6364C176.241 22.125 176.364 22.7292 176.364 23.4489V29H174.665V23.6534C174.665 23.0208 174.5 22.5265 174.17 22.1705C173.841 21.8106 173.388 21.6307 172.812 21.6307C172.419 21.6307 172.068 21.7159 171.761 21.8864C171.458 22.0568 171.218 22.3068 171.04 22.6364C170.866 22.9621 170.778 23.3561 170.778 23.8182ZM184.768 29L182.2 20.2727H183.956L185.666 26.6818H185.751L187.467 20.2727H189.223L190.928 26.6534H191.013L192.712 20.2727H194.467L191.905 29H190.172L188.399 22.6989H188.268L186.496 29H184.768ZM196.08 29V20.2727H197.778V29H196.08ZM196.938 18.9261C196.642 18.9261 196.388 18.8277 196.176 18.6307C195.968 18.4299 195.864 18.1913 195.864 17.9148C195.864 17.6345 195.968 17.3958 196.176 17.1989C196.388 16.9981 196.642 16.8977 196.938 16.8977C197.233 16.8977 197.485 16.9981 197.693 17.1989C197.905 17.3958 198.011 17.6345 198.011 17.9148C198.011 18.1913 197.905 18.4299 197.693 18.6307C197.485 18.8277 197.233 18.9261 196.938 18.9261ZM204.138 20.2727V21.6364H199.371V20.2727H204.138ZM200.649 18.1818H202.348V26.4375C202.348 26.767 202.397 27.0152 202.496 27.1818C202.594 27.3447 202.721 27.4564 202.876 27.517C203.036 27.5739 203.208 27.6023 203.393 27.6023C203.53 27.6023 203.649 27.5928 203.751 27.5739C203.854 27.5549 203.933 27.5398 203.99 27.5284L204.297 28.9318C204.198 28.9697 204.058 29.0076 203.876 29.0455C203.695 29.0871 203.467 29.1098 203.195 29.1136C202.748 29.1212 202.331 29.0417 201.945 28.875C201.558 28.7083 201.246 28.4508 201.007 28.1023C200.768 27.7538 200.649 27.3163 200.649 26.7898V18.1818ZM207.903 23.8182V29H206.205V17.3636H207.881V21.6932H207.989C208.193 21.2235 208.506 20.8504 208.926 20.5739C209.347 20.2973 209.896 20.1591 210.574 20.1591C211.172 20.1591 211.695 20.2822 212.142 20.5284C212.593 20.7746 212.941 21.142 213.188 21.6307C213.438 22.1155 213.562 22.7216 213.562 23.4489V29H211.864V23.6534C211.864 23.0133 211.699 22.517 211.369 22.1648C211.04 21.8087 210.581 21.6307 209.994 21.6307C209.593 21.6307 209.233 21.7159 208.915 21.8864C208.6 22.0568 208.352 22.3068 208.17 22.6364C207.992 22.9621 207.903 23.3561 207.903 23.8182ZM228.075 21.0398C227.965 20.6951 227.818 20.3864 227.632 20.1136C227.45 19.8371 227.232 19.6023 226.979 19.4091C226.725 19.2121 226.435 19.0625 226.109 18.9602C225.787 18.858 225.433 18.8068 225.047 18.8068C224.392 18.8068 223.801 18.9754 223.274 19.3125C222.748 19.6496 222.331 20.1439 222.024 20.7955C221.721 21.4432 221.57 22.2367 221.57 23.1761C221.57 24.1193 221.723 24.9167 222.03 25.5682C222.337 26.2197 222.757 26.714 223.291 27.0511C223.825 27.3883 224.433 27.5568 225.115 27.5568C225.748 27.5568 226.299 27.428 226.768 27.1705C227.242 26.9129 227.607 26.5492 227.865 26.0795C228.126 25.6061 228.257 25.0492 228.257 24.4091L228.712 24.4943H225.382V23.0455H229.956V24.3693C229.956 25.3466 229.748 26.1951 229.331 26.9148C228.918 27.6307 228.346 28.1837 227.615 28.5739C226.888 28.964 226.054 29.1591 225.115 29.1591C224.062 29.1591 223.138 28.9167 222.342 28.4318C221.551 27.947 220.933 27.2595 220.49 26.3693C220.047 25.4754 219.825 24.4148 219.825 23.1875C219.825 22.2595 219.954 21.4261 220.212 20.6875C220.469 19.9489 220.831 19.322 221.297 18.8068C221.767 18.2879 222.318 17.892 222.95 17.6193C223.587 17.3428 224.282 17.2045 225.036 17.2045C225.664 17.2045 226.25 17.2973 226.791 17.483C227.337 17.6686 227.821 17.9318 228.246 18.2727C228.674 18.6136 229.028 19.0189 229.308 19.4886C229.589 19.9545 229.778 20.4716 229.876 21.0398H228.075ZM235.724 29.1761C234.906 29.1761 234.192 28.9886 233.582 28.6136C232.973 28.2386 232.499 27.714 232.162 27.0398C231.825 26.3655 231.656 25.5777 231.656 24.6761C231.656 23.7708 231.825 22.9792 232.162 22.3011C232.499 21.6231 232.973 21.0966 233.582 20.7216C234.192 20.3466 234.906 20.1591 235.724 20.1591C236.543 20.1591 237.257 20.3466 237.866 20.7216C238.476 21.0966 238.95 21.6231 239.287 22.3011C239.624 22.9792 239.793 23.7708 239.793 24.6761C239.793 25.5777 239.624 26.3655 239.287 27.0398C238.95 27.714 238.476 28.2386 237.866 28.6136C237.257 28.9886 236.543 29.1761 235.724 29.1761ZM235.73 27.75C236.26 27.75 236.7 27.6098 237.048 27.3295C237.397 27.0492 237.654 26.6761 237.821 26.2102C237.991 25.7443 238.077 25.2311 238.077 24.6705C238.077 24.1136 237.991 23.6023 237.821 23.1364C237.654 22.6667 237.397 22.2898 237.048 22.0057C236.7 21.7216 236.26 21.5795 235.73 21.5795C235.196 21.5795 234.753 21.7216 234.401 22.0057C234.052 22.2898 233.793 22.6667 233.622 23.1364C233.455 23.6023 233.372 24.1136 233.372 24.6705C233.372 25.2311 233.455 25.7443 233.622 26.2102C233.793 26.6761 234.052 27.0492 234.401 27.3295C234.753 27.6098 235.196 27.75 235.73 27.75ZM245.365 29.1761C244.547 29.1761 243.833 28.9886 243.223 28.6136C242.613 28.2386 242.14 27.714 241.803 27.0398C241.465 26.3655 241.297 25.5777 241.297 24.6761C241.297 23.7708 241.465 22.9792 241.803 22.3011C242.14 21.6231 242.613 21.0966 243.223 20.7216C243.833 20.3466 244.547 20.1591 245.365 20.1591C246.183 20.1591 246.897 20.3466 247.507 20.7216C248.117 21.0966 248.59 21.6231 248.928 22.3011C249.265 22.9792 249.433 23.7708 249.433 24.6761C249.433 25.5777 249.265 26.3655 248.928 27.0398C248.59 27.714 248.117 28.2386 247.507 28.6136C246.897 28.9886 246.183 29.1761 245.365 29.1761ZM245.371 27.75C245.901 27.75 246.34 27.6098 246.689 27.3295C247.037 27.0492 247.295 26.6761 247.462 26.2102C247.632 25.7443 247.717 25.2311 247.717 24.6705C247.717 24.1136 247.632 23.6023 247.462 23.1364C247.295 22.6667 247.037 22.2898 246.689 22.0057C246.34 21.7216 245.901 21.5795 245.371 21.5795C244.837 21.5795 244.393 21.7216 244.041 22.0057C243.693 22.2898 243.433 22.6667 243.263 23.1364C243.096 23.6023 243.013 24.1136 243.013 24.6705C243.013 25.2311 243.096 25.7443 243.263 26.2102C243.433 26.6761 243.693 27.0492 244.041 27.3295C244.393 27.6098 244.837 27.75 245.371 27.75ZM254.989 32.4545C254.295 32.4545 253.699 32.3636 253.199 32.1818C252.703 32 252.297 31.7595 251.983 31.4602C251.669 31.161 251.434 30.8333 251.278 30.4773L252.739 29.875C252.841 30.0417 252.977 30.2178 253.148 30.4034C253.322 30.5928 253.557 30.7538 253.852 30.8864C254.152 31.0189 254.536 31.0852 255.006 31.0852C255.65 31.0852 256.182 30.928 256.602 30.6136C257.023 30.303 257.233 29.8068 257.233 29.125V27.4091H257.125C257.023 27.5947 256.875 27.8011 256.682 28.0284C256.492 28.2557 256.231 28.4527 255.898 28.6193C255.564 28.786 255.131 28.8693 254.597 28.8693C253.907 28.8693 253.286 28.7083 252.733 28.3864C252.184 28.0606 251.748 27.5814 251.426 26.9489C251.108 26.3125 250.949 25.5303 250.949 24.6023C250.949 23.6742 251.106 22.8788 251.42 22.2159C251.739 21.553 252.174 21.0455 252.727 20.6932C253.28 20.3371 253.907 20.1591 254.608 20.1591C255.15 20.1591 255.587 20.25 255.92 20.4318C256.254 20.6098 256.513 20.8182 256.699 21.0568C256.888 21.2955 257.034 21.5057 257.136 21.6875H257.261V20.2727H258.926V29.1932C258.926 29.9432 258.752 30.5587 258.403 31.0398C258.055 31.5208 257.583 31.8769 256.989 32.108C256.398 32.339 255.731 32.4545 254.989 32.4545ZM254.972 27.4602C255.46 27.4602 255.873 27.3466 256.21 27.1193C256.551 26.8883 256.809 26.5587 256.983 26.1307C257.161 25.6989 257.25 25.1818 257.25 24.5795C257.25 23.9924 257.163 23.4754 256.989 23.0284C256.814 22.5814 256.559 22.233 256.222 21.983C255.884 21.7292 255.468 21.6023 254.972 21.6023C254.46 21.6023 254.034 21.7348 253.693 22C253.352 22.2614 253.095 22.6174 252.92 23.0682C252.75 23.5189 252.665 24.0227 252.665 24.5795C252.665 25.1515 252.752 25.6534 252.926 26.0852C253.1 26.517 253.358 26.8542 253.699 27.0966C254.044 27.339 254.468 27.4602 254.972 27.4602ZM262.903 17.3636V29H261.205V17.3636H262.903ZM268.95 29.1761C268.09 29.1761 267.35 28.9924 266.729 28.625C266.111 28.2538 265.634 27.733 265.297 27.0625C264.964 26.3883 264.797 25.5985 264.797 24.6932C264.797 23.7992 264.964 23.0114 265.297 22.3295C265.634 21.6477 266.104 21.1155 266.706 20.733C267.312 20.3504 268.02 20.1591 268.831 20.1591C269.323 20.1591 269.801 20.2405 270.263 20.4034C270.725 20.5663 271.14 20.822 271.507 21.1705C271.875 21.5189 272.164 21.9716 272.376 22.5284C272.589 23.0814 272.695 23.7538 272.695 24.5455V25.1477H265.757V23.875H271.03C271.03 23.428 270.939 23.0322 270.757 22.6875C270.575 22.339 270.32 22.0644 269.99 21.8636C269.664 21.6629 269.282 21.5625 268.842 21.5625C268.365 21.5625 267.948 21.6799 267.592 21.9148C267.24 22.1458 266.967 22.4489 266.774 22.8239C266.585 23.1951 266.49 23.5985 266.49 24.0341V25.0284C266.49 25.6117 266.592 26.108 266.797 26.517C267.005 26.9261 267.295 27.2386 267.666 27.4545C268.037 27.6667 268.471 27.7727 268.967 27.7727C269.289 27.7727 269.583 27.7273 269.848 27.6364C270.113 27.5417 270.342 27.4015 270.536 27.2159C270.729 27.0303 270.876 26.8011 270.979 26.5284L272.587 26.8182C272.458 27.2917 272.227 27.7064 271.893 28.0625C271.564 28.4148 271.149 28.6894 270.649 28.8864C270.153 29.0795 269.587 29.1761 268.95 29.1761Z" fill="#344054"/>
</g>
<defs>
<filter id="filter0_d_466_38" x="0" y="0" width="364" height="48" filterUnits="userSpaceOnUse" color-interpolation-filters="sRGB">
<feFlood flood-opacity="0" result="BackgroundImageFix"/>
<feColorMatrix in="SourceAlpha" type="matrix" values="0 0 0 0 0 0 0 0 0 0 0 0 0 0 0 0 0 0 127 0" result="hardAlpha"/>
<feOffset dy="1"/>
<feGaussianBlur stdDeviation="1"/>
<feColorMatrix type="matrix" values="0 0 0 0 0.0627451 0 0 0 0 0.0941176 0 0 0 0 0.156863 0 0 0 0.05 0"/>
<feBlend mode="normal" in2="BackgroundImageFix" result="effect1_dropShadow_466_38"/>
<feBlend mode="normal" in="SourceGraphic" in2="effect1_dropShadow_466_38" result="shape"/>
</filter>
<clipPath id="clip0_466_38">
<rect width="24" height="24" fill="white" transform="translate(90 11)"/>
</clipPath>
</defs>
</svg>
