<svg width="116" height="48" viewBox="0 0 116 48" fill="none" xmlns="http://www.w3.org/2000/svg">
<g filter="url(#filter0_d_466_64)">
<rect x="2" y="1" width="112" height="44" rx="8" fill="#1877F2"/>
<g clip-path="url(#clip0_466_64)">
<path d="M70 23C70 16.3726 64.6274 11 58 11C51.3726 11 46 16.3726 46 23C46 28.9895 50.3882 33.954 56.125 34.8542V26.4688H53.0781V23H56.125V20.3563C56.125 17.3488 57.9166 15.6875 60.6576 15.6875C61.9701 15.6875 63.3438 15.9219 63.3438 15.9219V18.875H61.8306C60.34 18.875 59.875 19.8001 59.875 20.75V23H63.2031L62.6711 26.4688H59.875V34.8542C65.6118 33.954 70 28.9895 70 23Z" fill="white"/>
</g>
</g>
<defs>
<filter id="filter0_d_466_64" x="0" y="0" width="116" height="48" filterUnits="userSpaceOnUse" color-interpolation-filters="sRGB">
<feFlood flood-opacity="0" result="BackgroundImageFix"/>
<feColorMatrix in="SourceAlpha" type="matrix" values="0 0 0 0 0 0 0 0 0 0 0 0 0 0 0 0 0 0 127 0" result="hardAlpha"/>
<feOffset dy="1"/>
<feGaussianBlur stdDeviation="1"/>
<feColorMatrix type="matrix" values="0 0 0 0 0.0627451 0 0 0 0 0.0941176 0 0 0 0 0.156863 0 0 0 0.05 0"/>
<feBlend mode="normal" in2="BackgroundImageFix" result="effect1_dropShadow_466_64"/>
<feBlend mode="normal" in="SourceGraphic" in2="effect1_dropShadow_466_64" result="shape"/>
</filter>
<clipPath id="clip0_466_64">
<rect width="24" height="24" fill="white" transform="translate(46 11)"/>
</clipPath>
</defs>
</svg>
