<svg width="364" height="48" viewBox="0 0 364 48" fill="none" xmlns="http://www.w3.org/2000/svg">
<g filter="url(#filter0_d_466_45)">
<rect x="2" y="1" width="360" height="44" rx="8" fill="#1877F2"/>
<g clip-path="url(#clip0_466_45)">
<path d="M103.5 23C103.5 16.3726 98.1274 11 91.5 11C84.8726 11 79.5 16.3726 79.5 23C79.5 28.9895 83.8882 33.954 89.625 34.8542V26.4688H86.5781V23H89.625V20.3563C89.625 17.3488 91.4166 15.6875 94.1576 15.6875C95.4701 15.6875 96.8438 15.9219 96.8438 15.9219V18.875H95.3306C93.84 18.875 93.375 19.8001 93.375 20.75V23H96.7031L96.1711 26.4688H93.375V34.8542C99.1118 33.954 103.5 28.9895 103.5 23Z" fill="white"/>
</g>
<path d="M123.125 20.4205C123.064 19.8826 122.814 19.4659 122.375 19.1705C121.936 18.8712 121.383 18.7216 120.716 18.7216C120.239 18.7216 119.826 18.7973 119.477 18.9489C119.129 19.0966 118.858 19.3011 118.665 19.5625C118.475 19.8201 118.381 20.1136 118.381 20.4432C118.381 20.7197 118.445 20.9583 118.574 21.1591C118.706 21.3598 118.879 21.5284 119.091 21.6648C119.307 21.7973 119.538 21.9091 119.784 22C120.03 22.0871 120.267 22.1591 120.494 22.2159L121.631 22.5114C122.002 22.6023 122.383 22.7254 122.773 22.8807C123.163 23.036 123.525 23.2405 123.858 23.4943C124.191 23.7481 124.46 24.0625 124.665 24.4375C124.873 24.8125 124.977 25.2614 124.977 25.7841C124.977 26.4432 124.807 27.0284 124.466 27.5398C124.129 28.0511 123.638 28.4545 122.994 28.75C122.354 29.0455 121.58 29.1932 120.67 29.1932C119.799 29.1932 119.045 29.0549 118.409 28.7784C117.773 28.5019 117.275 28.1098 116.915 27.6023C116.555 27.0909 116.356 26.4848 116.318 25.7841H118.08C118.114 26.2045 118.25 26.5549 118.489 26.8352C118.731 27.1117 119.04 27.3182 119.415 27.4545C119.794 27.5871 120.208 27.6534 120.659 27.6534C121.155 27.6534 121.597 27.5758 121.983 27.4205C122.373 27.2614 122.68 27.0417 122.903 26.7614C123.127 26.4773 123.239 26.1458 123.239 25.767C123.239 25.4223 123.14 25.1402 122.943 24.9205C122.75 24.7008 122.487 24.5189 122.153 24.375C121.824 24.2311 121.451 24.1042 121.034 23.9943L119.659 23.6193C118.727 23.3655 117.989 22.9924 117.443 22.5C116.902 22.0076 116.631 21.3561 116.631 20.5455C116.631 19.875 116.813 19.2898 117.176 18.7898C117.54 18.2898 118.032 17.9015 118.653 17.625C119.275 17.3447 119.975 17.2045 120.756 17.2045C121.544 17.2045 122.239 17.3428 122.841 17.6193C123.447 17.8958 123.924 18.2765 124.273 18.7614C124.621 19.2424 124.803 19.7955 124.818 20.4205H123.125ZM126.939 29V20.2727H128.638V29H126.939ZM127.797 18.9261C127.501 18.9261 127.248 18.8277 127.036 18.6307C126.827 18.4299 126.723 18.1913 126.723 17.9148C126.723 17.6345 126.827 17.3958 127.036 17.1989C127.248 16.9981 127.501 16.8977 127.797 16.8977C128.092 16.8977 128.344 16.9981 128.553 17.1989C128.765 17.3958 128.871 17.6345 128.871 17.9148C128.871 18.1913 128.765 18.4299 128.553 18.6307C128.344 18.8277 128.092 18.9261 127.797 18.9261ZM134.582 32.4545C133.889 32.4545 133.293 32.3636 132.793 32.1818C132.296 32 131.891 31.7595 131.577 31.4602C131.262 31.161 131.027 30.8333 130.872 30.4773L132.332 29.875C132.435 30.0417 132.571 30.2178 132.741 30.4034C132.916 30.5928 133.151 30.7538 133.446 30.8864C133.745 31.0189 134.13 31.0852 134.599 31.0852C135.243 31.0852 135.776 30.928 136.196 30.6136C136.616 30.303 136.827 29.8068 136.827 29.125V27.4091H136.719C136.616 27.5947 136.469 27.8011 136.276 28.0284C136.086 28.2557 135.825 28.4527 135.491 28.6193C135.158 28.786 134.724 28.8693 134.19 28.8693C133.501 28.8693 132.88 28.7083 132.327 28.3864C131.777 28.0606 131.342 27.5814 131.02 26.9489C130.702 26.3125 130.543 25.5303 130.543 24.6023C130.543 23.6742 130.7 22.8788 131.014 22.2159C131.332 21.553 131.768 21.0455 132.321 20.6932C132.874 20.3371 133.501 20.1591 134.202 20.1591C134.743 20.1591 135.181 20.25 135.514 20.4318C135.848 20.6098 136.107 20.8182 136.293 21.0568C136.482 21.2955 136.628 21.5057 136.73 21.6875H136.855V20.2727H138.52V29.1932C138.52 29.9432 138.346 30.5587 137.997 31.0398C137.649 31.5208 137.177 31.8769 136.582 32.108C135.991 32.339 135.325 32.4545 134.582 32.4545ZM134.565 27.4602C135.054 27.4602 135.467 27.3466 135.804 27.1193C136.145 26.8883 136.402 26.5587 136.577 26.1307C136.755 25.6989 136.844 25.1818 136.844 24.5795C136.844 23.9924 136.757 23.4754 136.582 23.0284C136.408 22.5814 136.152 22.233 135.815 21.983C135.478 21.7292 135.062 21.6023 134.565 21.6023C134.054 21.6023 133.628 21.7348 133.287 22C132.946 22.2614 132.688 22.6174 132.514 23.0682C132.344 23.5189 132.259 24.0227 132.259 24.5795C132.259 25.1515 132.346 25.6534 132.52 26.0852C132.694 26.517 132.952 26.8542 133.293 27.0966C133.637 27.339 134.062 27.4602 134.565 27.4602ZM142.497 23.8182V29H140.798V20.2727H142.429V21.6932H142.537C142.738 21.2311 143.052 20.8598 143.48 20.5795C143.912 20.2992 144.455 20.1591 145.111 20.1591C145.705 20.1591 146.226 20.2841 146.673 20.5341C147.12 20.7803 147.467 21.1477 147.713 21.6364C147.959 22.125 148.082 22.7292 148.082 23.4489V29H146.384V23.6534C146.384 23.0208 146.219 22.5265 145.889 22.1705C145.56 21.8106 145.107 21.6307 144.531 21.6307C144.137 21.6307 143.787 21.7159 143.48 21.8864C143.177 22.0568 142.937 22.3068 142.759 22.6364C142.584 22.9621 142.497 23.3561 142.497 23.8182ZM154.595 29V20.2727H156.294V29H154.595ZM155.453 18.9261C155.158 18.9261 154.904 18.8277 154.692 18.6307C154.483 18.4299 154.379 18.1913 154.379 17.9148C154.379 17.6345 154.483 17.3958 154.692 17.1989C154.904 16.9981 155.158 16.8977 155.453 16.8977C155.749 16.8977 156 16.9981 156.209 17.1989C156.421 17.3958 156.527 17.6345 156.527 17.9148C156.527 18.1913 156.421 18.4299 156.209 18.6307C156 18.8277 155.749 18.9261 155.453 18.9261ZM160.278 23.8182V29H158.58V20.2727H160.21V21.6932H160.318C160.519 21.2311 160.833 20.8598 161.261 20.5795C161.693 20.2992 162.237 20.1591 162.892 20.1591C163.487 20.1591 164.008 20.2841 164.455 20.5341C164.902 20.7803 165.248 21.1477 165.494 21.6364C165.741 22.125 165.864 22.7292 165.864 23.4489V29H164.165V23.6534C164.165 23.0208 164 22.5265 163.67 22.1705C163.341 21.8106 162.888 21.6307 162.312 21.6307C161.919 21.6307 161.568 21.7159 161.261 21.8864C160.958 22.0568 160.718 22.3068 160.54 22.6364C160.366 22.9621 160.278 23.3561 160.278 23.8182ZM174.268 29L171.7 20.2727H173.456L175.166 26.6818H175.251L176.967 20.2727H178.723L180.428 26.6534H180.513L182.212 20.2727H183.967L181.405 29H179.672L177.899 22.6989H177.768L175.996 29H174.268ZM185.58 29V20.2727H187.278V29H185.58ZM186.438 18.9261C186.142 18.9261 185.888 18.8277 185.676 18.6307C185.468 18.4299 185.364 18.1913 185.364 17.9148C185.364 17.6345 185.468 17.3958 185.676 17.1989C185.888 16.9981 186.142 16.8977 186.438 16.8977C186.733 16.8977 186.985 16.9981 187.193 17.1989C187.405 17.3958 187.511 17.6345 187.511 17.9148C187.511 18.1913 187.405 18.4299 187.193 18.6307C186.985 18.8277 186.733 18.9261 186.438 18.9261ZM193.638 20.2727V21.6364H188.871V20.2727H193.638ZM190.149 18.1818H191.848V26.4375C191.848 26.767 191.897 27.0152 191.996 27.1818C192.094 27.3447 192.221 27.4564 192.376 27.517C192.536 27.5739 192.708 27.6023 192.893 27.6023C193.03 27.6023 193.149 27.5928 193.251 27.5739C193.354 27.5549 193.433 27.5398 193.49 27.5284L193.797 28.9318C193.698 28.9697 193.558 29.0076 193.376 29.0455C193.195 29.0871 192.967 29.1098 192.695 29.1136C192.248 29.1212 191.831 29.0417 191.445 28.875C191.058 28.7083 190.746 28.4508 190.507 28.1023C190.268 27.7538 190.149 27.3163 190.149 26.7898V18.1818ZM197.403 23.8182V29H195.705V17.3636H197.381V21.6932H197.489C197.693 21.2235 198.006 20.8504 198.426 20.5739C198.847 20.2973 199.396 20.1591 200.074 20.1591C200.672 20.1591 201.195 20.2822 201.642 20.5284C202.093 20.7746 202.441 21.142 202.688 21.6307C202.938 22.1155 203.062 22.7216 203.062 23.4489V29H201.364V23.6534C201.364 23.0133 201.199 22.517 200.869 22.1648C200.54 21.8087 200.081 21.6307 199.494 21.6307C199.093 21.6307 198.733 21.7159 198.415 21.8864C198.1 22.0568 197.852 22.3068 197.67 22.6364C197.492 22.9621 197.403 23.3561 197.403 23.8182ZM209.7 29V17.3636H216.916V18.875H211.456V22.4205H216.399V23.9261H211.456V29H209.7ZM221.447 29.1932C220.894 29.1932 220.394 29.0909 219.947 28.8864C219.5 28.678 219.146 28.3769 218.885 27.983C218.627 27.589 218.499 27.1061 218.499 26.5341C218.499 26.0417 218.593 25.6364 218.783 25.3182C218.972 25 219.228 24.7481 219.55 24.5625C219.872 24.3769 220.232 24.2367 220.629 24.142C221.027 24.0473 221.432 23.9754 221.845 23.9261C222.368 23.8655 222.792 23.8163 223.118 23.7784C223.444 23.7367 223.68 23.6705 223.828 23.5795C223.976 23.4886 224.05 23.3409 224.05 23.1364V23.0966C224.05 22.6004 223.91 22.2159 223.629 21.9432C223.353 21.6705 222.94 21.5341 222.391 21.5341C221.819 21.5341 221.368 21.661 221.038 21.9148C220.713 22.1648 220.487 22.4432 220.362 22.75L218.766 22.3864C218.955 21.8561 219.232 21.428 219.595 21.1023C219.963 20.7727 220.385 20.5341 220.862 20.3864C221.339 20.2348 221.841 20.1591 222.368 20.1591C222.716 20.1591 223.086 20.2008 223.476 20.2841C223.87 20.3636 224.237 20.5114 224.578 20.7273C224.923 20.9432 225.205 21.2519 225.425 21.6534C225.644 22.0511 225.754 22.5682 225.754 23.2045V29H224.095V27.8068H224.027C223.917 28.0265 223.752 28.2424 223.533 28.4545C223.313 28.6667 223.031 28.8428 222.686 28.983C222.341 29.1231 221.929 29.1932 221.447 29.1932ZM221.817 27.8295C222.286 27.8295 222.688 27.7367 223.021 27.5511C223.358 27.3655 223.614 27.1231 223.788 26.8239C223.966 26.5208 224.055 26.197 224.055 25.8523V24.7273C223.995 24.7879 223.877 24.8447 223.703 24.8977C223.533 24.947 223.338 24.9905 223.118 25.0284C222.898 25.0625 222.684 25.0947 222.476 25.125C222.268 25.1515 222.093 25.1742 221.953 25.1932C221.624 25.2348 221.322 25.3049 221.05 25.4034C220.781 25.5019 220.565 25.6439 220.402 25.8295C220.243 26.0114 220.163 26.2538 220.163 26.5568C220.163 26.9773 220.319 27.2955 220.629 27.5114C220.94 27.7235 221.336 27.8295 221.817 27.8295ZM231.693 29.1761C230.848 29.1761 230.121 28.9848 229.511 28.6023C228.905 28.2159 228.439 27.6837 228.114 27.0057C227.788 26.3277 227.625 25.5511 227.625 24.6761C227.625 23.7898 227.792 23.0076 228.125 22.3295C228.458 21.6477 228.928 21.1155 229.534 20.733C230.14 20.3504 230.854 20.1591 231.676 20.1591C232.339 20.1591 232.93 20.2822 233.449 20.5284C233.968 20.7708 234.386 21.1117 234.705 21.5511C235.027 21.9905 235.218 22.5038 235.278 23.0909H233.625C233.534 22.6818 233.326 22.3295 233 22.0341C232.678 21.7386 232.246 21.5909 231.705 21.5909C231.231 21.5909 230.816 21.7159 230.46 21.9659C230.108 22.2121 229.833 22.5644 229.636 23.0227C229.439 23.4773 229.341 24.0152 229.341 24.6364C229.341 25.2727 229.438 25.822 229.631 26.2841C229.824 26.7462 230.097 27.1042 230.449 27.358C230.805 27.6117 231.223 27.7386 231.705 27.7386C232.027 27.7386 232.318 27.6799 232.58 27.5625C232.845 27.4413 233.066 27.2689 233.244 27.0455C233.426 26.822 233.553 26.553 233.625 26.2386H235.278C235.218 26.803 235.034 27.3068 234.727 27.75C234.42 28.1932 234.009 28.5417 233.494 28.7955C232.983 29.0492 232.383 29.1761 231.693 29.1761ZM240.857 29.1761C239.997 29.1761 239.256 28.9924 238.635 28.625C238.018 28.2538 237.54 27.733 237.203 27.0625C236.87 26.3883 236.703 25.5985 236.703 24.6932C236.703 23.7992 236.87 23.0114 237.203 22.3295C237.54 21.6477 238.01 21.1155 238.612 20.733C239.218 20.3504 239.927 20.1591 240.737 20.1591C241.23 20.1591 241.707 20.2405 242.169 20.4034C242.631 20.5663 243.046 20.822 243.413 21.1705C243.781 21.5189 244.071 21.9716 244.283 22.5284C244.495 23.0814 244.601 23.7538 244.601 24.5455V25.1477H237.663V23.875H242.936C242.936 23.428 242.845 23.0322 242.663 22.6875C242.482 22.339 242.226 22.0644 241.896 21.8636C241.571 21.6629 241.188 21.5625 240.749 21.5625C240.271 21.5625 239.855 21.6799 239.499 21.9148C239.146 22.1458 238.874 22.4489 238.68 22.8239C238.491 23.1951 238.396 23.5985 238.396 24.0341V25.0284C238.396 25.6117 238.499 26.108 238.703 26.517C238.911 26.9261 239.201 27.2386 239.572 27.4545C239.944 27.6667 240.377 27.7727 240.874 27.7727C241.196 27.7727 241.489 27.7273 241.754 27.6364C242.019 27.5417 242.249 27.4015 242.442 27.2159C242.635 27.0303 242.783 26.8011 242.885 26.5284L244.493 26.8182C244.364 27.2917 244.133 27.7064 243.8 28.0625C243.47 28.4148 243.055 28.6894 242.555 28.8864C242.059 29.0795 241.493 29.1761 240.857 29.1761ZM246.622 29V17.3636H248.321V21.6875H248.423C248.522 21.5057 248.664 21.2955 248.849 21.0568C249.035 20.8182 249.293 20.6098 249.622 20.4318C249.952 20.25 250.387 20.1591 250.929 20.1591C251.634 20.1591 252.262 20.3371 252.815 20.6932C253.368 21.0492 253.802 21.5625 254.116 22.233C254.435 22.9034 254.594 23.7102 254.594 24.6534C254.594 25.5966 254.437 26.4053 254.122 27.0795C253.808 27.75 253.376 28.267 252.827 28.6307C252.277 28.9905 251.651 29.1705 250.946 29.1705C250.416 29.1705 249.982 29.0814 249.645 28.9034C249.312 28.7254 249.05 28.517 248.861 28.2784C248.671 28.0398 248.526 27.8277 248.423 27.642H248.281V29H246.622ZM248.287 24.6364C248.287 25.25 248.376 25.7879 248.554 26.25C248.732 26.7121 248.99 27.0739 249.327 27.3352C249.664 27.5928 250.077 27.7216 250.565 27.7216C251.073 27.7216 251.497 27.5871 251.838 27.3182C252.179 27.0455 252.437 26.6761 252.611 26.2102C252.789 25.7443 252.878 25.2197 252.878 24.6364C252.878 24.0606 252.791 23.5436 252.616 23.0852C252.446 22.6269 252.188 22.2652 251.844 22C251.503 21.7348 251.077 21.6023 250.565 21.6023C250.073 21.6023 249.656 21.7292 249.315 21.983C248.978 22.2367 248.723 22.5909 248.548 23.0455C248.374 23.5 248.287 24.0303 248.287 24.6364ZM260.178 29.1761C259.359 29.1761 258.645 28.9886 258.036 28.6136C257.426 28.2386 256.952 27.714 256.615 27.0398C256.278 26.3655 256.109 25.5777 256.109 24.6761C256.109 23.7708 256.278 22.9792 256.615 22.3011C256.952 21.6231 257.426 21.0966 258.036 20.7216C258.645 20.3466 259.359 20.1591 260.178 20.1591C260.996 20.1591 261.71 20.3466 262.32 20.7216C262.929 21.0966 263.403 21.6231 263.74 22.3011C264.077 22.9792 264.246 23.7708 264.246 24.6761C264.246 25.5777 264.077 26.3655 263.74 27.0398C263.403 27.714 262.929 28.2386 262.32 28.6136C261.71 28.9886 260.996 29.1761 260.178 29.1761ZM260.183 27.75C260.714 27.75 261.153 27.6098 261.501 27.3295C261.85 27.0492 262.107 26.6761 262.274 26.2102C262.445 25.7443 262.53 25.2311 262.53 24.6705C262.53 24.1136 262.445 23.6023 262.274 23.1364C262.107 22.6667 261.85 22.2898 261.501 22.0057C261.153 21.7216 260.714 21.5795 260.183 21.5795C259.649 21.5795 259.206 21.7216 258.854 22.0057C258.505 22.2898 258.246 22.6667 258.075 23.1364C257.909 23.6023 257.825 24.1136 257.825 24.6705C257.825 25.2311 257.909 25.7443 258.075 26.2102C258.246 26.6761 258.505 27.0492 258.854 27.3295C259.206 27.6098 259.649 27.75 260.183 27.75ZM269.818 29.1761C269 29.1761 268.286 28.9886 267.676 28.6136C267.066 28.2386 266.593 27.714 266.256 27.0398C265.919 26.3655 265.75 25.5777 265.75 24.6761C265.75 23.7708 265.919 22.9792 266.256 22.3011C266.593 21.6231 267.066 21.0966 267.676 20.7216C268.286 20.3466 269 20.1591 269.818 20.1591C270.636 20.1591 271.35 20.3466 271.96 20.7216C272.57 21.0966 273.044 21.6231 273.381 22.3011C273.718 22.9792 273.886 23.7708 273.886 24.6761C273.886 25.5777 273.718 26.3655 273.381 27.0398C273.044 27.714 272.57 28.2386 271.96 28.6136C271.35 28.9886 270.636 29.1761 269.818 29.1761ZM269.824 27.75C270.354 27.75 270.794 27.6098 271.142 27.3295C271.491 27.0492 271.748 26.6761 271.915 26.2102C272.085 25.7443 272.17 25.2311 272.17 24.6705C272.17 24.1136 272.085 23.6023 271.915 23.1364C271.748 22.6667 271.491 22.2898 271.142 22.0057C270.794 21.7216 270.354 21.5795 269.824 21.5795C269.29 21.5795 268.847 21.7216 268.494 22.0057C268.146 22.2898 267.886 22.6667 267.716 23.1364C267.549 23.6023 267.466 24.1136 267.466 24.6705C267.466 25.2311 267.549 25.7443 267.716 26.2102C267.886 26.6761 268.146 27.0492 268.494 27.3295C268.847 27.6098 269.29 27.75 269.824 27.75ZM277.345 26.0398L277.334 23.9659H277.629L281.107 20.2727H283.141L279.175 24.4773H278.908L277.345 26.0398ZM275.783 29V17.3636H277.482V29H275.783ZM281.294 29L278.169 24.8523L279.339 23.6648L283.379 29H281.294Z" fill="white"/>
</g>
<defs>
<filter id="filter0_d_466_45" x="0" y="0" width="364" height="48" filterUnits="userSpaceOnUse" color-interpolation-filters="sRGB">
<feFlood flood-opacity="0" result="BackgroundImageFix"/>
<feColorMatrix in="SourceAlpha" type="matrix" values="0 0 0 0 0 0 0 0 0 0 0 0 0 0 0 0 0 0 127 0" result="hardAlpha"/>
<feOffset dy="1"/>
<feGaussianBlur stdDeviation="1"/>
<feColorMatrix type="matrix" values="0 0 0 0 0.0627451 0 0 0 0 0.0941176 0 0 0 0 0.156863 0 0 0 0.05 0"/>
<feBlend mode="normal" in2="BackgroundImageFix" result="effect1_dropShadow_466_45"/>
<feBlend mode="normal" in="SourceGraphic" in2="effect1_dropShadow_466_45" result="shape"/>
</filter>
<clipPath id="clip0_466_45">
<rect width="24" height="24" fill="white" transform="translate(79.5 11)"/>
</clipPath>
</defs>
</svg>
