<svg width="48" height="48" viewBox="0 0 48 48" fill="none" xmlns="http://www.w3.org/2000/svg">
<g clip-path="url(#clip0_306_117)">
<path d="M24.0001 25.604C24.5341 25.5861 25.0433 25.3742 25.4326 25.0081C25.5456 24.9108 25.6154 24.7726 25.6266 24.6238C25.6377 24.475 25.5893 24.3279 25.492 24.2148C25.3947 24.1017 25.2564 24.0319 25.1077 24.0208C24.9589 24.0096 24.8118 24.0581 24.6987 24.1554C24.6121 24.2559 24.5049 24.3365 24.3843 24.3918C24.2638 24.447 24.1327 24.4756 24.0001 24.4756C23.8674 24.4756 23.7364 24.447 23.6158 24.3918C23.4952 24.3365 23.388 24.2559 23.3014 24.1554C23.2454 24.1072 23.1805 24.0705 23.1103 24.0474C23.0402 24.0243 22.9661 24.0153 22.8925 24.0208C22.8188 24.0263 22.747 24.0463 22.681 24.0796C22.6151 24.1129 22.5563 24.1588 22.5081 24.2148C22.4599 24.2708 22.4233 24.3357 22.4002 24.4059C22.3771 24.4761 22.368 24.5501 22.3735 24.6238C22.3791 24.6974 22.399 24.7693 22.4323 24.8353C22.4656 24.9012 22.5116 24.9599 22.5676 25.0081C22.9568 25.3742 23.466 25.5861 24.0001 25.604ZM26.7916 27.6103H26.7852C26.3532 27.699 25.909 27.7116 25.4727 27.6478C25.3639 27.6324 25.2574 27.6103 25.1314 27.5874C24.9526 27.5463 24.7678 27.5375 24.5858 27.5615C24.3953 27.595 24.2143 27.6691 24.0552 27.779C24.038 27.7886 24.0186 27.7937 23.9989 27.7937C23.9792 27.7937 23.9599 27.7886 23.9427 27.779C23.7836 27.6692 23.6028 27.595 23.4124 27.5615C23.2304 27.5374 23.0454 27.5462 22.8664 27.5874C22.7404 27.6118 22.6339 27.6324 22.5252 27.6478C22.0888 27.7116 21.6447 27.699 21.2127 27.6103H21.2059C21.1081 27.5908 21.0065 27.6083 20.9208 27.6594C20.8351 27.7105 20.7713 27.7916 20.7418 27.8869C20.7124 27.9822 20.7193 28.0851 20.7612 28.1756C20.8032 28.2662 20.8772 28.338 20.9689 28.3771C21.4857 28.5997 22.0449 28.7067 22.6073 28.6906C22.7468 28.6865 22.8878 28.6745 23.0086 28.6651C23.1316 28.6577 23.2531 28.6965 23.3491 28.7739C23.5322 28.8851 23.7416 28.9458 23.9558 28.9498H24.0398C24.2541 28.9458 24.4634 28.8851 24.6466 28.7739C24.7427 28.6964 24.8642 28.6576 24.9874 28.6651C25.1078 28.6745 25.2499 28.6865 25.3883 28.6906C25.9508 28.7067 26.5099 28.5997 27.0267 28.3771C27.1186 28.338 27.1927 28.2662 27.2347 28.1756C27.2767 28.085 27.2836 27.982 27.2541 27.8866C27.2245 27.7912 27.1607 27.7101 27.0748 27.6591C26.989 27.608 26.8872 27.5906 26.7893 27.6103H26.7916ZM24.3601 29.6398C24.2493 29.6988 24.1256 29.7298 24.0001 29.7298C23.8745 29.7298 23.7509 29.6988 23.6401 29.6398C23.5731 29.6035 23.4995 29.5813 23.4238 29.5743C23.348 29.5674 23.2716 29.5759 23.1992 29.5993C23.1268 29.6228 23.0599 29.6607 23.0025 29.7107C22.9452 29.7608 22.8986 29.8219 22.8656 29.8905C22.8326 29.959 22.8138 30.0336 22.8105 30.1096C22.8071 30.1857 22.8192 30.2616 22.846 30.3328C22.8729 30.404 22.9139 30.469 22.9665 30.5239C23.0192 30.5789 23.0825 30.6225 23.1526 30.6523C23.4161 30.7839 23.7066 30.8525 24.0012 30.8525C24.2958 30.8525 24.5863 30.7839 24.8498 30.6523C24.977 30.5835 25.0728 30.4683 25.1173 30.3308C25.1619 30.1932 25.1517 30.0438 25.089 29.9135C25.0263 29.7832 24.9158 29.6821 24.7805 29.6311C24.6451 29.5801 24.4954 29.5832 24.3623 29.6398H24.3601ZM27.2798 17.2336L27.2982 17.2303C28.2484 17.0902 29.2084 17.0267 30.1688 17.0405C30.6646 17.026 31.1609 17.0409 31.6549 17.0851C32.1411 17.1245 32.622 17.2136 33.0901 17.351L33.1066 17.3563C33.1677 17.3755 33.2337 17.3714 33.292 17.3448C33.3503 17.3182 33.3967 17.271 33.4222 17.2122C33.4477 17.1535 33.4505 17.0873 33.4301 17.0266C33.4097 16.9659 33.3675 16.9148 33.3117 16.8834C32.8332 16.6271 32.3238 16.4331 31.7959 16.3063C31.28 16.1711 30.7563 16.0676 30.2277 15.9965C29.6938 15.9263 29.1534 15.9192 28.6178 15.9755C28.0618 16.0253 27.5176 16.166 27.0072 16.3921C26.9084 16.4379 26.8297 16.5182 26.7861 16.618C26.7425 16.7178 26.737 16.8301 26.7706 16.9337C26.8041 17.0373 26.8745 17.125 26.9683 17.1803C27.0621 17.2355 27.1729 17.2545 27.2798 17.2336ZM32.1331 20.396C32.0534 20.2669 31.9435 20.1593 31.8128 20.0823C31.6821 20.0054 31.5346 19.9616 31.3831 19.9546C31.1115 19.9428 30.8408 19.9935 30.5918 20.1028L30.4291 20.1733L30.3087 20.2288C30.2254 20.2629 30.1441 20.2993 30.0578 20.3285C29.8909 20.3975 29.7173 20.4538 29.5448 20.5081C29.2084 20.6151 28.8616 20.6857 28.5102 20.7189C28.195 20.7552 27.8757 20.7254 27.5727 20.6315L27.5206 20.6139C27.4317 20.5841 27.3353 20.5863 27.2479 20.62C27.1605 20.6538 27.0876 20.7169 27.0418 20.7986C26.996 20.8804 26.9801 20.9755 26.9969 21.0677C27.0138 21.1598 27.0622 21.2432 27.1339 21.3035C27.53 21.6163 28.0198 21.7868 28.5244 21.7876C28.984 21.7982 29.4422 21.7322 29.8801 21.5923C30.0939 21.5242 30.3028 21.4419 30.5056 21.3459C30.6068 21.2979 30.7054 21.2405 30.8056 21.1854L30.9526 21.0965C30.9991 21.0669 31.0216 21.0478 31.0576 21.0215C31.1731 20.9444 31.2962 20.8794 31.4251 20.8276C31.5406 20.7737 31.6691 20.7538 31.7956 20.7703L31.8653 20.7796C31.9199 20.787 31.9754 20.777 32.0239 20.7511C32.0544 20.735 32.0815 20.713 32.1035 20.6864C32.1255 20.6598 32.142 20.6292 32.1521 20.5962C32.1623 20.5632 32.1658 20.5285 32.1625 20.4942C32.1593 20.4598 32.1492 20.4265 32.1331 20.396ZM20.9888 20.8674C20.9548 20.7662 20.882 20.6827 20.7864 20.6353C20.6909 20.5878 20.5803 20.5802 20.4792 20.6143L20.4278 20.6315C20.1248 20.7254 19.8055 20.7552 19.4903 20.7189C19.1389 20.6857 18.7921 20.6151 18.4557 20.5081C18.2832 20.4538 18.1096 20.3956 17.9427 20.3285C17.8564 20.2993 17.7751 20.2629 17.6918 20.2288L17.5714 20.1733L17.4087 20.1028C17.1598 19.9935 16.8891 19.9428 16.6174 19.9546C16.4659 19.9616 16.3184 20.0054 16.1877 20.0823C16.057 20.1593 15.9471 20.2669 15.8674 20.396C15.8447 20.4389 15.8342 20.4873 15.8371 20.5358C15.84 20.5844 15.8563 20.6311 15.8841 20.671C15.9119 20.7109 15.9501 20.7423 15.9946 20.7619C16.0391 20.7815 16.0881 20.7884 16.1363 20.7819L16.2061 20.7725C16.3325 20.7561 16.461 20.776 16.5766 20.8299C16.7054 20.8817 16.8286 20.9466 16.9441 21.0238C16.9816 21.0489 17.0026 21.068 17.0491 21.0988L17.1961 21.1876C17.2951 21.2428 17.3937 21.3001 17.4961 21.3481C17.6988 21.4442 17.9078 21.5265 18.1216 21.5945C18.5595 21.7344 19.0176 21.8004 19.4772 21.7899C19.9821 21.7888 20.472 21.6179 20.8681 21.3046C20.9297 21.2522 20.9741 21.1825 20.9956 21.1046C21.0172 21.0266 21.0148 20.944 20.9888 20.8674ZM16.3456 17.0851C16.8395 17.0409 17.3356 17.026 17.8313 17.0405C18.7917 17.0267 19.7517 17.0902 20.7019 17.2303L20.7207 17.234C20.8274 17.2543 20.9379 17.2349 21.0313 17.1795C21.1248 17.1241 21.1948 17.0365 21.2282 16.9332C21.2616 16.8298 21.2562 16.7178 21.2128 16.6182C21.1695 16.5186 21.0913 16.4382 20.9929 16.3921C20.4819 16.1658 19.9371 16.0251 19.3804 15.9755C18.8449 15.9192 18.3045 15.9263 17.7706 15.9965C17.242 16.0676 16.7182 16.1711 16.2023 16.3063C15.6745 16.4331 15.1651 16.6271 14.6866 16.8834C14.6312 16.9151 14.5895 16.9661 14.5694 17.0266C14.5493 17.0871 14.5522 17.153 14.5776 17.2115C14.603 17.27 14.6491 17.3171 14.707 17.3437C14.765 17.3704 14.8307 17.3747 14.8917 17.3559L14.9082 17.351C15.377 17.2135 15.8586 17.1244 16.3456 17.0851Z" fill="#6C8B57"/>
<path d="M42.2884 46.9102C41.6964 45.3598 40.7619 43.9632 39.5546 42.8246C38.4296 41.7828 36.3919 41.0639 34.503 40.4381C34.7272 39.3441 35.0666 38.2769 35.5155 37.2543C35.6697 36.8957 35.9132 36.5826 36.2228 36.3449C37.2173 35.5646 37.7183 34.6676 37.7021 32.8297C37.6973 32.2319 36.9349 27.7421 35.2988 27.4394C35.0211 27.3866 34.7339 27.4212 34.4768 27.5384C34.4445 27.4473 34.4149 27.3607 34.3841 27.2722C36.1196 26.9437 37.7591 25.1021 38.0393 23.4243C38.1557 22.8963 38.1518 22.3489 38.028 21.8226C37.9042 21.2963 37.6637 20.8046 37.3241 20.3838C38.0786 16.7463 38.4199 11.7213 36.9623 9.06705C34.0564 3.7803 29.0903 0.494927 24 0.492677C18.9098 0.490427 13.9436 3.7803 11.0389 9.06705C9.58126 11.7202 9.92251 16.7478 10.677 20.3838C10.3375 20.8046 10.0969 21.2963 9.97313 21.8226C9.84934 22.3489 9.8455 22.8963 9.96189 23.4243C10.2401 25.1021 11.8815 26.9437 13.617 27.2722L13.5244 27.5384C13.2676 27.421 12.9805 27.3864 12.7031 27.4394C11.0663 27.7421 10.3031 32.2319 10.299 32.8297C10.2829 34.6672 10.7839 35.5649 11.7791 36.3453C12.0892 36.5827 12.3331 36.8957 12.4875 37.2543C12.9369 38.276 13.2763 39.3427 13.5 40.4362C11.6164 41.0579 9.57976 41.7734 8.44764 42.8246C7.24036 43.9631 6.30597 45.3598 5.71426 46.9102C5.66182 47.0475 5.66521 47.1999 5.72371 47.3347C5.78221 47.4696 5.89116 47.5762 6.02725 47.6317C6.16335 47.6872 6.31577 47.6873 6.4519 47.6318C6.58803 47.5764 6.69706 47.4699 6.75564 47.3351C7.28693 45.9373 8.12679 44.6776 9.21264 43.6496C10.0913 42.8339 11.826 42.1844 13.425 41.6467C13.0346 42.9217 11.8039 45.7893 11.3134 46.8944C11.254 47.0306 11.2508 47.1848 11.3047 47.3232C11.3585 47.4617 11.4649 47.5733 11.6007 47.6336C11.7365 47.6938 11.8907 47.6979 12.0295 47.645C12.1683 47.592 12.2805 47.4862 12.3416 47.3508C12.4234 47.1663 14.3464 42.8261 14.6235 41.5211C14.9685 39.8928 13.3485 36.3836 13.0939 35.8451C12.6588 34.5169 12.6852 33.0808 13.1689 31.7696L13.4854 30.9202C13.911 29.7794 14.3929 28.4864 14.7465 27.4552C14.7652 27.3955 14.8019 27.3432 14.8515 27.3052C14.8999 27.2737 14.9554 27.2548 15.013 27.2502C15.0705 27.2455 15.1283 27.2553 15.1811 27.2786C15.2294 27.3014 15.27 27.3378 15.2979 27.3834C15.3257 27.4289 15.3396 27.4817 15.3379 27.5351C15.3446 27.6696 15.3422 27.8044 15.3308 27.9386C15.2024 29.347 14.9969 30.7473 14.7154 32.1333C14.5058 33.0734 15.2816 34.0229 16.032 34.9409C16.2716 35.2334 16.4974 35.5102 16.6661 35.7577C18.4946 38.4494 17.8129 39.9742 17.3618 40.9826L17.2748 41.1798C16.8844 42.0798 15.9056 46.5007 15.7954 47.0021C15.779 47.0744 15.7771 47.1493 15.7898 47.2223C15.8024 47.2954 15.8294 47.3653 15.8692 47.4279C15.9089 47.4905 15.9607 47.5446 16.0215 47.5871C16.0822 47.6297 16.1508 47.6598 16.2232 47.6757C16.2957 47.6916 16.3706 47.693 16.4436 47.6799C16.5166 47.6668 16.5862 47.6394 16.6486 47.5992C16.7109 47.559 16.7647 47.5069 16.8069 47.4459C16.849 47.3849 16.8787 47.3161 16.8941 47.2436C17.3179 45.3187 18.0439 42.2336 18.3068 41.6272L18.3885 41.4423C18.7227 40.7673 18.9242 40.0344 18.9821 39.2834C20.5643 37.9518 20.8106 36.1368 20.9014 34.7834C21.7668 35.1738 22.6741 35.4638 23.6055 35.6478C23.7329 35.6786 23.8631 35.696 23.994 35.6999C24.1412 35.6951 24.2875 35.6756 24.4309 35.6418C25.3511 35.4595 26.2474 35.1727 27.1024 34.7868C27.1935 36.1391 27.4399 37.9563 29.0228 39.2868C29.0813 40.036 29.2826 40.767 29.616 41.4404L29.6978 41.6253C29.9603 42.2317 30.6863 45.3164 31.1104 47.2417C31.1259 47.3142 31.1555 47.383 31.1976 47.444C31.2398 47.5051 31.2936 47.5572 31.3559 47.5973C31.4183 47.6375 31.488 47.6649 31.561 47.678C31.634 47.6912 31.7088 47.6897 31.7813 47.6738C31.8537 47.6579 31.9223 47.6278 31.9831 47.5853C32.0438 47.5427 32.0956 47.4886 32.1354 47.426C32.1751 47.3634 32.2021 47.2935 32.2148 47.2205C32.2274 47.1474 32.2255 47.0725 32.2091 47.0002C32.0989 46.4988 31.1216 42.0783 30.7298 41.1779L30.6428 40.9807C30.1928 39.9723 29.5099 38.4476 31.3384 35.7558C31.5071 35.5083 31.7329 35.2308 31.9725 34.9391C32.7225 34.0211 33.4988 33.0716 33.2891 32.1311C33.0068 30.7455 32.8006 29.3455 32.6715 27.9374C32.6588 27.7921 32.6576 27.6461 32.6678 27.5006C32.6697 27.4527 32.6851 27.4064 32.7122 27.367C32.7394 27.3275 32.7771 27.2966 32.8211 27.2778C32.874 27.2545 32.9318 27.2448 32.9893 27.2494C33.0469 27.2541 33.1024 27.273 33.1508 27.3044C33.2005 27.3422 33.2371 27.3947 33.2554 27.4544C33.6109 28.4861 34.0913 29.7794 34.5169 30.9202L34.8334 31.7696C35.3171 33.0808 35.3435 34.5169 34.9084 35.8451C34.653 36.3836 33.0334 39.8928 33.3788 41.5211C33.6559 42.8261 35.5789 47.1663 35.6606 47.3508C35.7218 47.4862 35.834 47.592 35.9728 47.645C36.1116 47.6979 36.2657 47.6938 36.4015 47.6336C36.5373 47.5733 36.6438 47.4617 36.6976 47.3232C36.7515 47.1848 36.7483 47.0306 36.6889 46.8944C36.1988 45.7901 34.9695 42.9273 34.5784 41.6497C36.2284 42.2047 37.911 42.8373 38.7889 43.6499C39.8748 44.6777 40.7145 45.9374 41.2455 47.3351C41.2878 47.4386 41.3599 47.5272 41.4528 47.5895C41.5456 47.6518 41.6549 47.685 41.7668 47.6849C41.8394 47.685 41.9114 47.6709 41.9786 47.6433C42.0471 47.6155 42.1095 47.5745 42.1621 47.5227C42.2148 47.4708 42.2567 47.409 42.2855 47.3409C42.3142 47.2728 42.3293 47.1998 42.3298 47.1258C42.3303 47.0519 42.3162 46.9787 42.2884 46.9102ZM12.429 30.5268L12.1125 31.3784C11.7429 32.381 11.5976 33.4524 11.6869 34.5172C11.4776 33.9838 11.388 33.4109 11.4244 32.8391C11.4326 31.8157 12.3593 28.7328 12.9086 28.5453C12.9497 28.5375 12.992 28.54 13.0318 28.5527C13.0716 28.5653 13.1076 28.5876 13.1366 28.6177C12.9026 29.2547 12.6667 29.8911 12.429 30.5268ZM36.9285 23.2406C36.732 24.4248 35.5035 25.8363 34.3103 26.1412C34.543 25.2669 34.7184 24.3784 34.8353 23.4813C34.8857 23.3557 34.9755 23.2498 35.0911 23.1795C35.2068 23.1092 35.3422 23.0782 35.4769 23.0913C35.5506 23.0989 35.6252 23.0918 35.6961 23.0704C35.7671 23.0491 35.8332 23.0139 35.8906 22.9669C35.9479 22.92 35.9954 22.8621 36.0304 22.7967C36.0653 22.7314 36.087 22.6597 36.0941 22.5859C36.1012 22.5121 36.0937 22.4377 36.072 22.3668C36.0503 22.2959 36.0147 22.23 35.9674 22.1729C35.9201 22.1158 35.862 22.0687 35.7964 22.0341C35.7309 21.9995 35.6591 21.9783 35.5853 21.9716C35.3841 21.9524 35.1811 21.9683 34.9853 22.0184C35.022 21.5184 35.0446 21.0069 35.0531 20.4839C35.581 20.4984 36.0826 20.7173 36.4523 21.0944C36.6899 21.3922 36.8563 21.7404 36.9389 22.1123C37.0214 22.4843 37.0179 22.8702 36.9285 23.2406ZM12.0244 9.60893C14.691 4.75643 19.3916 1.61955 24 1.61768C28.6084 1.6158 33.3094 4.75643 35.976 9.60893C37.1498 11.7464 37.0061 16.0522 36.3225 19.6529C35.9074 19.473 35.4622 19.3727 35.01 19.3574C34.65 14.4438 33.9563 10.6124 29.9318 9.3198C29.6912 9.24452 29.4774 9.10126 29.3164 8.9073C27.5831 6.7923 24.9349 5.6988 22.5694 6.12068C20.493 6.49155 18.9113 7.96343 18.1148 10.2652C17.1919 12.9333 16.1685 13.6934 15.2648 14.3636C14.1334 15.2039 13.1516 15.9457 12.9754 19.3574C12.5283 19.3739 12.0881 19.4736 11.6775 19.6514C10.9954 16.0518 10.8503 11.7457 12.0244 9.60893ZM11.0715 23.2406C10.9819 22.8703 10.9782 22.4845 11.0604 22.1125C11.1427 21.7406 11.3089 21.3924 11.5463 21.0944C11.9236 20.7106 12.4368 20.4907 12.975 20.4821C12.9844 21.0071 13.0061 21.5231 13.0433 22.0267C12.838 21.9702 12.6241 21.9516 12.4121 21.9716C12.3383 21.9783 12.2665 21.9995 12.201 22.0341C12.1354 22.0687 12.0773 22.1158 12.03 22.1729C11.9827 22.23 11.9472 22.2959 11.9254 22.3668C11.9037 22.4377 11.8962 22.5121 11.9033 22.5859C11.9104 22.6597 11.9321 22.7314 11.967 22.7967C12.002 22.8621 12.0495 22.92 12.1068 22.9669C12.1642 23.0139 12.2303 23.0491 12.3013 23.0704C12.3723 23.0918 12.4468 23.0989 12.5205 23.0913C12.6296 23.0812 12.9563 23.0538 13.2026 23.5544C13.3202 24.4297 13.4938 25.2964 13.7224 26.1494C12.5175 25.8644 11.2703 24.4368 11.0715 23.2406ZM19.8 34.3368C19.7393 35.3741 19.6571 36.7154 18.8438 37.8026C18.5936 36.8413 18.1699 35.9339 17.5935 35.1251C17.3978 34.8363 17.1563 34.5408 16.9005 34.2281C16.4021 33.6187 15.72 32.7847 15.8108 32.3778C15.8753 32.0898 15.9656 31.6034 16.059 31.0436C16.293 31.3389 16.5455 31.6191 16.815 31.8824C17.7131 32.7807 18.7181 33.5652 19.8075 34.2183C19.8056 34.2592 19.8026 34.2948 19.8 34.3368ZM31.0988 34.2281C30.843 34.5408 30.6015 34.8363 30.4058 35.1251C29.8299 35.9332 29.4064 36.8397 29.1563 37.7999C28.344 36.7124 28.26 35.3741 28.1989 34.3383C28.1966 34.2963 28.1936 34.2603 28.1914 34.2194C29.2808 33.565 30.286 32.7796 31.1846 31.8809C31.4541 31.6172 31.7065 31.3367 31.9403 31.0409C32.0336 31.6012 32.1244 32.0879 32.1889 32.3759C32.2796 32.7847 31.5971 33.6187 31.0988 34.2281ZM32.3625 26.2499C32.1382 26.3494 31.9445 26.5069 31.8012 26.7062C31.658 26.9054 31.5705 27.1392 31.5476 27.3836C31.5476 27.3836 31.5323 27.7619 31.5476 28.0072C31.5716 28.3976 31.6279 28.9038 31.6976 29.4371C31.3329 30.0331 30.8971 30.5826 30.3998 31.0736C28.8998 32.5274 27.1106 33.9536 24.2089 34.5378C24.0698 34.5656 23.9265 34.5656 23.7874 34.5378C20.8856 33.9536 19.0973 32.5274 17.5965 31.0736C17.0999 30.5826 16.6648 30.0332 16.3005 29.4374C16.3714 28.9042 16.4273 28.3987 16.4505 28.0079C16.4656 27.818 16.4673 27.6273 16.4554 27.4372L16.4505 27.3843C16.428 27.14 16.3408 26.9062 16.1979 26.7068C16.055 26.5075 15.8616 26.3498 15.6375 26.2499C15.403 26.1454 15.1453 26.1036 14.8898 26.1288C14.3351 24.1084 14.0673 22.0201 14.0944 19.9252V19.9117C14.1953 16.7339 14.8875 16.0499 15.9375 15.2677C16.9193 14.5383 18.1418 13.6304 19.1786 10.6338C20.0209 8.1993 21.5951 7.4388 22.7674 7.22955C24.7388 6.87593 26.9674 7.81643 28.4468 9.62205C28.7453 9.98285 29.1417 10.2498 29.5883 10.3908C32.7626 11.4108 33.5396 14.4033 33.9251 19.9533V19.9732L33.9281 19.9893L33.9364 20.1018C33.9496 22.1405 33.6821 24.1713 33.1414 26.1371C32.8763 26.1033 32.6071 26.1424 32.3625 26.2499ZM34.8626 28.6169C34.8907 28.5869 34.9258 28.5644 34.9647 28.5513C35.0037 28.5382 35.0453 28.535 35.0858 28.5419C35.64 28.7294 36.5666 31.8134 36.5749 32.8368C36.6105 33.4073 36.5209 33.9786 36.3124 34.5108C36.4008 33.4482 36.2558 32.3791 35.8875 31.3784L35.5706 30.5268C35.3419 29.9126 35.0966 29.2544 34.8638 28.6177L34.8626 28.6169Z" fill="#6C8B57"/>
<path d="M15.7218 24.2779C15.5897 24.2454 15.4559 24.2204 15.3209 24.2029C15.2713 24.1947 15.2205 24.1966 15.1716 24.2084C15.1227 24.2203 15.0767 24.2418 15.0363 24.2718C14.9959 24.3018 14.9619 24.3396 14.9364 24.383C14.9109 24.4264 14.8944 24.4744 14.8879 24.5243C14.8814 24.5742 14.885 24.6249 14.8985 24.6734C14.912 24.7219 14.9351 24.7671 14.9664 24.8065C14.9977 24.8459 15.0367 24.8785 15.0809 24.9025C15.1251 24.9265 15.1737 24.9414 15.2238 24.9462C15.3312 24.9606 15.4377 24.9807 15.5429 25.0066C15.5722 25.0139 15.6023 25.0175 15.6326 25.0174C15.7242 25.0173 15.8126 24.9837 15.8811 24.9229C15.9496 24.8621 15.9935 24.7783 16.0044 24.6874C16.0154 24.5965 15.9927 24.5046 15.9407 24.4293C15.8886 24.3539 15.8108 24.2998 15.7218 24.2779ZM18.6048 28.0429C18.5556 28.0454 18.5074 28.0575 18.4629 28.0786C18.4183 28.0997 18.3784 28.1294 18.3454 28.1659C18.3123 28.2024 18.2868 28.2451 18.2702 28.2915C18.2537 28.3379 18.2465 28.3871 18.2489 28.4363C18.2519 28.4952 18.2538 28.5544 18.2534 28.6156C18.2534 28.6662 18.2534 28.7172 18.2501 28.7656C18.2478 28.8148 18.2552 28.8639 18.272 28.9103C18.2887 28.9566 18.3144 28.9991 18.3476 29.0355C18.3808 29.0719 18.4208 29.1014 18.4654 29.1223C18.51 29.1433 18.5582 29.1552 18.6074 29.1574H18.6251C18.7216 29.1575 18.8145 29.1204 18.8843 29.0538C18.9542 28.9871 18.9956 28.8961 19.0001 28.7997C19.0031 28.7378 19.0042 28.6759 19.0042 28.6152C19.0042 28.5424 19.0042 28.4697 18.9989 28.3966C18.9934 28.2975 18.9488 28.2046 18.8749 28.1383C18.8011 28.072 18.7039 28.0377 18.6048 28.0429ZM17.1704 24.9713C17.131 24.9418 17.0862 24.9203 17.0385 24.9081C16.9908 24.8958 16.9411 24.8931 16.8924 24.9001C16.8436 24.9071 16.7967 24.9236 16.7544 24.9486C16.712 24.9737 16.675 25.0069 16.6454 25.0463C16.6159 25.0857 16.5944 25.1306 16.5822 25.1783C16.5699 25.226 16.5672 25.2756 16.5742 25.3244C16.5812 25.3731 16.5977 25.42 16.6228 25.4624C16.6478 25.5048 16.681 25.5418 16.7204 25.5713C16.8082 25.6368 16.8934 25.7072 16.9762 25.7824C17.05 25.8492 17.1473 25.8839 17.2466 25.8789C17.346 25.8739 17.4393 25.8296 17.5061 25.7558C17.5728 25.682 17.6075 25.5847 17.6025 25.4854C17.5975 25.386 17.5532 25.2927 17.4794 25.2259C17.3808 25.1359 17.2777 25.0509 17.1704 24.9713ZM17.9459 27.1448C17.985 27.2365 18.0589 27.3089 18.1514 27.3461C18.2439 27.3833 18.3474 27.3823 18.4391 27.3432C18.5308 27.3041 18.6032 27.2302 18.6404 27.1377C18.6776 27.0452 18.6765 26.9418 18.6374 26.8501C18.5814 26.7181 18.5187 26.589 18.4496 26.4634C18.3991 26.3806 18.3182 26.3208 18.2242 26.297C18.1301 26.2732 18.0305 26.2871 17.9467 26.3359C17.8618 26.3856 17.7994 26.4662 17.7726 26.5609C17.7458 26.6556 17.7567 26.7569 17.8031 26.8437C17.8544 26.9419 17.9028 27.0428 17.9459 27.1448ZM18.4372 29.8613C18.3931 29.8394 18.3451 29.8264 18.2959 29.823C18.2467 29.8196 18.1974 29.826 18.1507 29.8417C18.104 29.8574 18.0608 29.8821 18.0237 29.9145C17.9866 29.9469 17.9562 29.9863 17.9343 30.0304C17.8863 30.127 17.8328 30.2208 17.7742 30.3113C17.7467 30.3526 17.7277 30.399 17.7182 30.4477C17.7088 30.4964 17.7091 30.5465 17.7192 30.5951C17.7292 30.6437 17.7488 30.6898 17.7768 30.7308C17.8049 30.7717 17.8407 30.8067 17.8824 30.8337C17.924 30.8607 17.9706 30.8792 18.0194 30.8881C18.0682 30.8969 18.1183 30.896 18.1668 30.8854C18.2153 30.8747 18.2611 30.8546 18.3018 30.8261C18.3424 30.7976 18.3769 30.7613 18.4034 30.7193C18.4778 30.6048 18.5454 30.4861 18.6059 30.3638C18.6501 30.2748 18.6572 30.1719 18.6256 30.0776C18.5939 29.9834 18.5262 29.9056 18.4372 29.8613ZM30.8624 24.9713C30.7562 25.0508 30.6528 25.1358 30.5523 25.2263C30.4785 25.2931 30.4342 25.3864 30.4293 25.4857C30.4243 25.5851 30.4589 25.6824 30.5257 25.7562C30.5924 25.83 30.6857 25.8743 30.7851 25.8792C30.8845 25.8842 30.9818 25.8496 31.0556 25.7828C31.1386 25.7078 31.2239 25.6374 31.3117 25.5717C31.3511 25.5422 31.3843 25.5051 31.4094 25.4628C31.4344 25.4204 31.4509 25.3735 31.4579 25.3247C31.4649 25.276 31.4622 25.2263 31.4499 25.1786C31.4377 25.1309 31.4162 25.0861 31.3867 25.0467C31.3571 25.0073 31.3201 24.9741 31.2777 24.949C31.2354 24.9239 31.1885 24.9074 31.1397 24.9005C31.091 24.8935 31.0413 24.8962 30.9936 24.9084C30.9459 24.9207 30.9011 24.9422 30.8617 24.9717L30.8624 24.9713ZM32.7101 24.2026C32.5753 24.22 32.4415 24.2451 32.3096 24.2776C32.2206 24.2995 32.1428 24.3531 32.0907 24.4285C32.0387 24.5038 32.016 24.5956 32.0269 24.6865C32.0378 24.7774 32.0816 24.8612 32.1501 24.922C32.2185 24.9828 32.3069 25.0165 32.3984 25.0167C32.4286 25.0168 32.4587 25.0131 32.4881 25.0058C32.5934 24.98 32.7001 24.9598 32.8076 24.9454C32.8576 24.9405 32.9061 24.9256 32.9502 24.9015C32.9943 24.8774 33.0331 24.8448 33.0644 24.8054C33.0956 24.766 33.1186 24.7208 33.1321 24.6724C33.1455 24.6239 33.149 24.5733 33.1425 24.5235C33.136 24.4737 33.1195 24.4257 33.094 24.3823C33.0686 24.339 33.0347 24.3012 32.9943 24.2713C32.954 24.2413 32.908 24.2197 32.8592 24.2079C32.8104 24.196 32.7596 24.1944 32.7101 24.2026ZM29.5927 27.3421C29.6392 27.362 29.6894 27.3722 29.7401 27.3721C29.8135 27.3721 29.8853 27.3506 29.9467 27.3102C30.008 27.2698 30.0561 27.2123 30.0851 27.1448C30.1281 27.0428 30.1763 26.9419 30.2298 26.8422C30.2761 26.7554 30.2869 26.654 30.2601 26.5593C30.2333 26.4646 30.1708 26.3841 30.0858 26.3344C30.002 26.2856 29.9024 26.2717 29.8083 26.2955C29.7143 26.3193 29.6334 26.3791 29.5829 26.4619C29.5143 26.5878 29.4517 26.7169 29.3951 26.8486C29.3755 26.8939 29.3651 26.9427 29.3645 26.9921C29.3638 27.0415 29.3729 27.0905 29.3913 27.1364C29.4097 27.1822 29.4369 27.224 29.4715 27.2593C29.506 27.2946 29.5472 27.3227 29.5927 27.3421ZM30.0967 30.0304C30.0755 29.9852 30.0455 29.9447 30.0084 29.9112C29.9713 29.8778 29.9279 29.852 29.8807 29.8356C29.8336 29.8191 29.7836 29.8122 29.7337 29.8154C29.6839 29.8185 29.6352 29.8315 29.5904 29.8537C29.5457 29.8759 29.5058 29.9069 29.4732 29.9447C29.4406 29.9825 29.4158 30.0265 29.4004 30.074C29.385 30.1215 29.3793 30.1716 29.3835 30.2214C29.3877 30.2712 29.4019 30.3196 29.4251 30.3638C29.4856 30.4861 29.5532 30.6048 29.6276 30.7193C29.6822 30.8015 29.7671 30.8588 29.8637 30.8788C29.9603 30.8988 30.061 30.8799 30.1438 30.8262C30.2266 30.7725 30.2849 30.6884 30.306 30.592C30.3272 30.4956 30.3095 30.3948 30.2568 30.3113C30.1983 30.2207 30.1448 30.127 30.0967 30.0304ZM29.4236 29.1593C29.4728 29.1571 29.521 29.1451 29.5656 29.1242C29.6102 29.1033 29.6502 29.0738 29.6834 29.0374C29.7166 29.001 29.7423 28.9584 29.759 28.9121C29.7758 28.8658 29.7832 28.8166 29.7809 28.7674C29.7809 28.7172 29.7779 28.6662 29.7779 28.6174C29.7779 28.5563 29.7779 28.4971 29.7821 28.4382C29.787 28.3387 29.7523 28.2414 29.6855 28.1675C29.6187 28.0937 29.5253 28.0494 29.4258 28.0444C29.3263 28.0395 29.229 28.0742 29.1551 28.141C29.0813 28.2078 29.037 28.3012 29.0321 28.4007C29.0287 28.4738 29.0268 28.5466 29.0272 28.6193C29.0272 28.6801 29.0272 28.7419 29.0309 28.8038C29.0354 28.9003 29.0768 28.9913 29.1467 29.0579C29.2165 29.1245 29.3094 29.1617 29.4059 29.1616L29.4236 29.1593Z" fill="#6C8B57"/>
</g>
<defs>
<clipPath id="clip0_306_117">
<rect width="48" height="48" fill="white"/>
</clipPath>
</defs>
</svg>
