<svg width="48" height="48" viewBox="0 0 48 48" fill="none" xmlns="http://www.w3.org/2000/svg">
<path d="M26.2502 30.1641H9.03772C8.03947 30.1641 7.06297 30.3328 6.12997 30.6666C5.82997 30.7738 5.69347 31.1226 5.82022 31.4143L5.82172 31.4173C5.94172 31.6948 6.25522 31.8148 6.54022 31.7151C7.34244 31.4321 8.18705 31.288 9.03772 31.2891H26.2502C26.3994 31.2891 26.5425 31.2298 26.648 31.1243C26.7535 31.0188 26.8127 30.8757 26.8127 30.7266C26.8127 30.5774 26.7535 30.4343 26.648 30.3288C26.5425 30.2233 26.3994 30.1641 26.2502 30.1641ZM26.0852 38.8401C26.3702 38.9406 26.6837 38.8191 26.8037 38.5423L26.8052 38.5393C26.932 38.2476 26.7955 37.8988 26.4962 37.7916C25.5627 37.4576 24.5784 37.2876 23.587 37.2891H6.37522C6.22603 37.2891 6.08296 37.3483 5.97747 37.4538C5.87198 37.5593 5.81272 37.7024 5.81272 37.8516C5.81272 38.0007 5.87198 38.1438 5.97747 38.2493C6.08296 38.3548 6.22603 38.4141 6.37522 38.4141H23.5877C24.445 38.4141 25.2827 38.5566 26.0852 38.8401Z" fill="#6C8B57"/>
<path d="M45 29.376H43.602L44.2777 26.8538C44.4316 26.2756 44.3499 25.6602 44.0508 25.1421C43.7516 24.6241 43.2593 24.2457 42.6818 24.09C42.1036 23.936 41.4881 24.0175 40.97 24.3167C40.4519 24.6159 40.0736 25.1083 39.918 25.686L38.9295 29.376H37.3125V19.2795C37.3125 19.1303 37.2532 18.9872 37.1477 18.8818C37.0423 18.7763 36.8992 18.717 36.75 18.717C36.6008 18.717 36.4577 18.7763 36.3523 18.8818C36.2468 18.9872 36.1875 19.1303 36.1875 19.2795V29.376H29.8785C29.5919 28.6781 29.1197 28.0721 28.5131 27.6235C27.9065 27.1749 27.1887 26.9009 26.4375 26.8313V15C26.4375 14.4825 26.8575 14.0625 27.375 14.0625H35.25C35.7675 14.0625 36.1875 14.4825 36.1875 15V17.0295C36.1875 17.1787 36.2468 17.3218 36.3523 17.4272C36.4577 17.5327 36.6008 17.592 36.75 17.592C36.8992 17.592 37.0423 17.5327 37.1477 17.4272C37.2532 17.3218 37.3125 17.1787 37.3125 17.0295V15C37.3119 14.4532 37.0944 13.9289 36.7078 13.5423C36.3211 13.1556 35.7968 12.9381 35.25 12.9375H34.125V9.375C34.1255 9.10674 34.0432 8.84485 33.8895 8.625C34.0432 8.40515 34.1255 8.14326 34.125 7.875V6.75C34.125 6.2325 33.705 5.8125 33.1875 5.8125H29.4375C28.92 5.8125 28.5 6.2325 28.5 6.75V7.875C28.5 8.154 28.587 8.412 28.7355 8.625C28.5818 8.84485 28.4995 9.10674 28.5 9.375V12.9375H27.375C26.8282 12.9381 26.3039 13.1556 25.9172 13.5423C25.5306 13.9289 25.3131 14.4532 25.3125 15V26.8125H21.672C23.6175 25.2135 24.5318 22.4235 24.5775 22.2803C24.6007 22.2056 24.6083 22.127 24.5996 22.0494C24.5909 21.9717 24.5663 21.8967 24.5272 21.829C24.4881 21.7614 24.4353 21.7026 24.3724 21.6563C24.3094 21.61 24.2375 21.5773 24.1613 21.5602C24.0218 21.5295 21.4117 20.9842 19.1287 21.6937C18.5992 19.356 16.8105 17.361 16.7272 17.2695C16.6745 17.2115 16.6103 17.1652 16.5386 17.1334C16.4669 17.1017 16.3894 17.0853 16.311 17.0853C16.2326 17.0853 16.1551 17.1017 16.0834 17.1334C16.0117 17.1652 15.9475 17.2115 15.8948 17.2695C15.8123 17.361 14.022 19.356 13.4932 21.693C11.2102 20.9842 8.60325 21.5288 8.46375 21.5595C8.38712 21.5761 8.31481 21.6085 8.25146 21.6546C8.18811 21.7008 8.13513 21.7598 8.09592 21.8276C8.05672 21.8955 8.03215 21.9709 8.02381 22.0488C8.01547 22.1268 8.02354 22.2056 8.0475 22.2803C8.09325 22.4228 9.0075 25.2135 10.953 26.8125H6.5625C5.46891 26.8139 4.42051 27.2489 3.64722 28.0222C2.87393 28.7955 2.43889 29.8439 2.4375 30.9375C2.43839 31.6592 2.62864 32.368 2.98926 32.9932C3.34987 33.6183 3.86821 34.1379 4.4925 34.5C3.86821 34.8621 3.34987 35.3817 2.98926 36.0068C2.62864 36.632 2.43839 37.3408 2.4375 38.0625C2.4375 40.3372 4.2885 42.1875 6.5625 42.1875H9.6525C9.80168 42.1875 9.94476 42.1282 10.0502 42.0227C10.1557 41.9173 10.215 41.7742 10.215 41.625C10.215 41.4758 10.1557 41.3327 10.0502 41.2273C9.94476 41.1218 9.80168 41.0625 9.6525 41.0625H6.5625C4.908 41.0625 3.5625 39.717 3.5625 38.0625C3.5625 36.408 4.908 35.0625 6.5625 35.0625H26.0625C27.717 35.0625 29.0625 36.408 29.0625 38.0625C29.0625 39.717 27.717 41.0625 26.0625 41.0625H11.9025C11.7533 41.0625 11.6102 41.1218 11.5048 41.2273C11.3993 41.3327 11.34 41.4758 11.34 41.625C11.34 41.7742 11.3993 41.9173 11.5048 42.0227C11.6102 42.1282 11.7533 42.1875 11.9025 42.1875H31.3125C31.4617 42.1875 31.6048 42.1282 31.7102 42.0227C31.8157 41.9173 31.875 41.7742 31.875 41.625C31.875 41.4758 31.8157 41.3327 31.7102 41.2273C31.6048 41.1218 31.4617 41.0625 31.3125 41.0625H28.8848C29.2957 40.6782 29.6233 40.2137 29.8474 39.6977C30.0715 39.1816 30.1872 38.6251 30.1875 38.0625C30.1866 37.3408 29.9964 36.632 29.6357 36.0068C29.2751 35.3817 28.7568 34.8621 28.1325 34.5C28.8208 34.1005 29.3788 33.5103 29.7391 32.8007C30.0995 32.0911 30.2469 31.2925 30.1635 30.501H44.4285C44.232 34.2562 41.115 37.251 37.3125 37.251C36.0987 37.2546 34.9044 36.9465 33.8438 36.3562C32.7833 35.7659 31.892 34.9132 31.2555 33.8798C31.2175 33.8151 31.1669 33.7588 31.1067 33.714C31.0466 33.6692 30.9781 33.6369 30.9053 33.619C30.8325 33.601 30.7569 33.5978 30.6828 33.6096C30.6087 33.6213 30.5378 33.6477 30.4741 33.6873C30.4104 33.7268 30.3552 33.7787 30.3119 33.8399C30.2685 33.901 30.2378 33.9703 30.2216 34.0435C30.2054 34.1167 30.204 34.1924 30.2174 34.2662C30.2309 34.3399 30.259 34.4102 30.3 34.473C31.3467 36.1631 32.9717 37.4152 34.8728 37.9965C34.2775 38.3963 33.7898 38.9364 33.4525 39.5692C33.1152 40.202 32.9387 40.908 32.9385 41.625C32.9385 41.9355 33.1905 42.1875 33.501 42.1875H41.124C41.2732 42.1875 41.4163 42.1282 41.5217 42.0227C41.6272 41.9173 41.6865 41.7742 41.6865 41.625C41.6863 40.9102 41.511 40.2064 41.1757 39.5751C40.8405 38.9439 40.3556 38.4044 39.7635 38.004C43.1198 36.9578 45.5625 33.822 45.5625 30.126V29.9385C45.5625 29.7893 45.5032 29.6462 45.3977 29.5408C45.2923 29.4353 45.1492 29.376 45 29.376ZM29.625 9.375C29.625 9.32527 29.6448 9.27758 29.6799 9.24242C29.7151 9.20725 29.7628 9.1875 29.8125 9.1875H30.75C30.8992 9.1875 31.0423 9.12824 31.1477 9.02275C31.2532 8.91726 31.3125 8.77418 31.3125 8.625C31.3125 8.47582 31.2532 8.33274 31.1477 8.22725C31.0423 8.12176 30.8992 8.0625 30.75 8.0625H29.8125C29.7628 8.0625 29.7151 8.04275 29.6799 8.00758C29.6448 7.97242 29.625 7.92473 29.625 7.875V6.9375H33V7.875C33 7.92473 32.9802 7.97242 32.9451 8.00758C32.9099 8.04275 32.8622 8.0625 32.8125 8.0625C32.6633 8.0625 32.5202 8.12176 32.4148 8.22725C32.3093 8.33274 32.25 8.47582 32.25 8.625C32.25 8.77418 32.3093 8.91726 32.4148 9.02275C32.5202 9.12824 32.6633 9.1875 32.8125 9.1875C32.8622 9.1875 32.9099 9.20725 32.9451 9.24242C32.9802 9.27758 33 9.32527 33 9.375V12.9375H29.625V9.375ZM23.271 22.554C22.8127 23.6565 21.6788 25.9155 19.866 26.595C18.9338 26.943 17.9535 26.8298 16.8773 26.2448C16.9095 25.0215 17.3003 24.1155 18.0668 23.484C19.5578 22.2555 22.086 22.4018 23.271 22.554ZM16.3118 18.537C16.8645 19.2607 17.7945 20.6625 18.0682 22.1415C17.8161 22.2765 17.5771 22.4347 17.3542 22.614C16.924 22.9674 16.5697 23.4042 16.3125 23.898C16.0553 23.4042 15.701 22.9674 15.2708 22.614C15.0473 22.4341 14.8075 22.2754 14.5545 22.14C14.8283 20.6663 15.759 19.2622 16.3118 18.537ZM9.35475 22.554C10.5397 22.4018 13.0672 22.2555 14.5582 23.484C15.3247 24.1155 15.7155 25.0215 15.7477 26.2448C14.6722 26.8298 13.692 26.9437 12.762 26.5957C10.953 25.9192 9.8145 23.658 9.35475 22.554ZM26.0625 33.9375H6.5625C4.908 33.9375 3.5625 32.592 3.5625 30.9375C3.5625 29.283 4.908 27.9375 6.5625 27.9375H26.0625C27.717 27.9375 29.0625 29.283 29.0625 30.9375C29.0625 32.592 27.717 33.9375 26.0625 33.9375ZM43.191 26.5627L42.4373 29.376H40.0942L41.0048 25.977C41.0828 25.6873 41.2725 25.4404 41.5323 25.2904C41.7922 25.1404 42.1009 25.0995 42.3907 25.1768C42.6804 25.2548 42.9274 25.4445 43.0774 25.7043C43.2274 25.9642 43.2682 26.2729 43.191 26.5627ZM40.5127 41.0625H34.1123C34.3793 39.5378 35.7128 38.376 37.3125 38.376C38.9122 38.376 40.2457 39.5385 40.5127 41.0625Z" fill="#6C8B57"/>
<path d="M28.875 16.4668C28.7258 16.4668 28.5827 16.5261 28.4773 16.6316C28.3718 16.737 28.3125 16.8801 28.3125 17.0293V20.4043C28.3125 20.7148 28.5645 20.9668 28.875 20.9668H33.75C33.8992 20.9668 34.0423 20.9075 34.1477 20.802C34.2532 20.6966 34.3125 20.5535 34.3125 20.4043V17.0293C34.3125 16.8801 34.2532 16.737 34.1477 16.6316C34.0423 16.5261 33.8992 16.4668 33.75 16.4668H28.875ZM33.1875 19.8418H29.4375V17.5918H33.1875V19.8418Z" fill="#6C8B57"/>
</svg>
