<svg width="100" height="100" viewBox="0 0 100 100" fill="none" xmlns="http://www.w3.org/2000/svg">
<g clip-path="url(#clip0_475_32)">
<path d="M23.6006 62.8804L18.216 94.3635C18.0704 95.2852 18.4343 96.1827 19.1862 96.7405C19.9381 97.2742 20.9326 97.3469 21.733 96.9346L49.9902 82.0419L78.2474 96.9103C78.6113 97.1044 78.9993 97.1771 79.3874 97.1771C79.7415 97.1779 80.0915 97.1013 80.4129 96.9527C80.7343 96.804 81.0193 96.587 81.248 96.3167C81.4767 96.0463 81.6436 95.7293 81.737 95.3878C81.8304 95.0462 81.8481 94.6884 81.7887 94.3393L76.404 62.8561L99.2766 40.5657C99.5986 40.2469 99.8254 39.8448 99.9318 39.4045C100.038 38.9641 100.02 38.5028 99.8788 38.0722C99.7378 37.6417 99.4797 37.2589 99.1335 36.9667C98.7872 36.6746 98.3665 36.4846 97.9183 36.418L66.3139 31.8338L52.1732 3.23701C51.3485 1.58766 48.6319 1.58766 47.8315 3.23701L33.6908 31.8581L2.08632 36.4665C1.16462 36.5878 0.412714 37.2427 0.121653 38.1159C-0.169409 38.9891 0.0731425 39.9593 0.728031 40.6142L23.6006 62.8804ZM35.6312 36.4908C36.4316 36.3695 37.1107 35.8844 37.4503 35.1568L49.9902 9.7859L62.5058 35.1568C62.8697 35.8844 63.5488 36.3695 64.325 36.4908L92.3154 40.5657L72.0624 60.3093C71.4802 60.8672 71.2377 61.6676 71.359 62.468L76.1372 90.3614L51.1059 77.1909C50.7421 76.9969 50.354 76.9241 49.9659 76.9241C49.5779 76.9241 49.1898 77.0211 48.826 77.1909L23.8189 90.3372L28.5972 62.4438C28.6669 62.0539 28.6391 61.6528 28.5164 61.2762C28.3937 60.8995 28.1798 60.5591 27.8938 60.2851L7.64074 40.5414L35.6312 36.4908Z" fill="black"/>
</g>
<defs>
<clipPath id="clip0_475_32">
<rect width="100" height="100" fill="white"/>
</clipPath>
</defs>
</svg>
