<svg width="12" height="11" viewBox="0 0 12 11" fill="none" xmlns="http://www.w3.org/2000/svg">
<path d="M11.6 4.17004C11.5573 4.0409 11.4805 3.92565 11.3779 3.83636C11.2753 3.74707 11.1505 3.68703 11.0167 3.66254L8.03003 3.23087L6.67086 0.518373C6.60793 0.39454 6.51194 0.290543 6.39354 0.217902C6.27514 0.145261 6.13894 0.106812 6.00003 0.106812C5.86112 0.106812 5.72492 0.145261 5.60652 0.217902C5.48812 0.290543 5.39213 0.39454 5.3292 0.518373L3.99336 3.23087L1.0067 3.66254C0.872679 3.68507 0.74735 3.74374 0.644218 3.83224C0.541087 3.92073 0.464063 4.0357 0.421449 4.16474C0.378835 4.29378 0.372246 4.43201 0.402394 4.56452C0.432542 4.69703 0.498282 4.8188 0.592529 4.91671L2.75086 7.02254L2.24336 9.99754C2.21388 10.1383 2.22636 10.2847 2.27924 10.4184C2.33212 10.5522 2.42308 10.6675 2.54086 10.75C2.66667 10.8455 2.82045 10.8967 2.97836 10.8959C3.10037 10.8953 3.22043 10.8653 3.32836 10.8084L6.00003 9.40254L8.6717 10.8084C8.79509 10.8737 8.93433 10.9031 9.07361 10.8933C9.21288 10.8834 9.34661 10.8347 9.4596 10.7527C9.57259 10.6707 9.66033 10.5587 9.71284 10.4293C9.76536 10.2999 9.78055 10.1584 9.7567 10.0209L9.2492 7.04587L11.4075 4.91671C11.5035 4.82083 11.5719 4.70099 11.6058 4.56967C11.6396 4.43834 11.6376 4.30034 11.6 4.17004Z" fill="#FBC02D"/>
</svg>
