<svg width="100" height="100" viewBox="0 0 100 100" fill="none" xmlns="http://www.w3.org/2000/svg">
<path d="M50.0001 62.7469C48.6079 62.7002 47.2804 62.1481 46.2657 61.1938C46.0711 60.9986 45.9573 60.7372 45.9471 60.4618C45.9369 60.1864 46.031 59.9173 46.2107 59.7083C46.3904 59.4994 46.6423 59.3659 46.9161 59.3347C47.1899 59.3034 47.4654 59.3767 47.6876 59.5399C49.2868 60.9156 50.7133 60.9156 52.3126 59.5399C52.5347 59.3767 52.8102 59.3034 53.084 59.3347C53.3578 59.3659 53.6097 59.4994 53.7894 59.7083C53.9691 59.9173 54.0632 60.1864 54.053 60.4618C54.0428 60.7372 53.929 60.9986 53.7344 61.1938C52.7197 62.1481 51.3922 62.7002 50.0001 62.7469ZM58.4008 67.6406C58.2924 67.4494 58.1126 67.3091 57.9007 67.2505C57.6889 67.1919 57.4624 67.2198 57.2711 67.3281L57.1235 67.4125C56.9415 67.4965 56.748 67.5526 56.5493 67.5789C56.2718 67.622 55.9917 67.6468 55.711 67.6531C55.1098 67.6637 54.5087 67.624 53.9141 67.5344C53.7688 67.5125 53.0711 67.3375 52.9915 67.3219C52.669 67.2559 52.3363 67.2582 52.0149 67.3288C51.6934 67.3993 51.3903 67.5364 51.1251 67.7313C50.7843 67.9432 50.3994 68.0742 50.0001 68.1141C49.6 68.075 49.2143 67.9446 48.8727 67.7328C48.6075 67.5379 48.3044 67.4008 47.9829 67.3303C47.6614 67.2598 47.3287 67.2575 47.0063 67.3235C46.9282 67.3391 46.229 67.5141 46.0836 67.536C45.489 67.6255 44.888 67.6653 44.2868 67.6547C44.006 67.6484 43.726 67.6236 43.4485 67.5805C43.2498 67.5542 43.0562 67.4981 42.8743 67.4141L42.7266 67.3297C42.5512 67.2295 42.3452 67.1968 42.1473 67.2379C41.9495 67.279 41.7735 67.391 41.6525 67.5528C41.5315 67.7146 41.4739 67.9151 41.4904 68.1164C41.5069 68.3178 41.5965 68.5062 41.7422 68.6461C42.0889 68.9692 42.5043 69.2096 42.9571 69.3492C43.3263 69.4764 43.707 69.5675 44.0938 69.6211C44.8242 69.7493 45.5681 69.7832 46.3071 69.7219C46.6519 69.6514 47.0036 69.6199 47.3555 69.6281C47.5969 69.6844 47.7461 69.8789 47.9524 69.9985C48.172 70.1276 48.4065 70.2294 48.6508 70.3016C49.5291 70.5672 50.4663 70.5672 51.3446 70.3016C51.5889 70.2294 51.8234 70.1276 52.043 69.9985C52.2524 69.8789 52.3985 69.686 52.6399 69.6281C52.9918 69.6199 53.3435 69.6514 53.6883 69.7219C54.4274 69.7832 55.1712 69.7493 55.9016 69.6211C56.2884 69.5675 56.6691 69.4764 57.0383 69.3492C57.4912 69.2096 57.9065 68.9692 58.2532 68.6461C58.3858 68.5186 58.4722 68.3506 58.499 68.1686C58.5257 67.9866 58.4912 67.8009 58.4008 67.6406ZM50.0329 74.7102C49.3775 74.7064 48.7316 74.5539 48.1438 74.2641C47.8789 74.1207 47.6793 73.8809 47.5865 73.5943C47.4937 73.3077 47.5148 72.9964 47.6455 72.725C47.7762 72.4536 48.0064 72.2429 48.2883 72.1367C48.5702 72.0305 48.8822 72.037 49.1594 72.1547C49.4287 72.2956 49.7282 72.3691 50.0321 72.3691C50.336 72.3691 50.6354 72.2956 50.9047 72.1547C51.182 72.037 51.494 72.0305 51.7759 72.1367C52.0578 72.2429 52.288 72.4536 52.4186 72.725C52.5493 72.9964 52.5705 73.3077 52.4777 73.5943C52.3849 73.8809 52.1853 74.1207 51.9204 74.2641C51.333 74.5536 50.6877 74.7061 50.0329 74.7102ZM43.7735 43.5836C42.4454 43.4774 41.079 43.4031 39.7219 43.2859C38.361 43.193 36.9985 43.0828 35.6383 42.9133C35.6383 42.9133 34.1071 42.7203 33.5946 42.6789C32.9695 42.631 32.3423 42.6175 31.7157 42.6383C30.4336 42.8169 29.1933 43.2213 28.0524 43.8328L28.0165 43.8516C27.9 43.911 27.7655 43.9247 27.6395 43.8899C27.5134 43.855 27.405 43.7742 27.3357 43.6633C27.2663 43.5525 27.241 43.4196 27.2648 43.2911C27.2886 43.1625 27.3597 43.0475 27.4641 42.9688C28.648 42.0822 29.9954 41.4383 31.429 41.0742C31.7977 40.9875 33.1477 40.8477 33.1477 40.8477L33.6704 40.836L35.761 40.8141C37.1549 40.8136 38.5474 40.8999 39.9305 41.0727C41.3338 41.2148 42.7241 41.4645 44.0891 41.8195C44.3058 41.8778 44.4929 42.0148 44.6138 42.2038C44.7346 42.3929 44.7805 42.6202 44.7425 42.8413C44.7045 43.0624 44.5852 43.2613 44.4081 43.3991C44.231 43.5368 44.0089 43.6035 43.7852 43.586L43.7735 43.5836ZM59.2438 50.7102C59.7563 50.7266 60.2774 50.7102 60.793 50.7031C61.7928 50.7036 62.7905 50.61 63.7727 50.4234C64.7092 50.2583 65.6191 49.9671 66.4774 49.5578C66.4774 49.5578 66.8563 49.357 66.961 49.3156C67.1691 49.2323 67.3889 49.1817 67.6126 49.1656C68.0074 49.137 68.403 49.2099 68.7618 49.3774C69.194 49.6015 69.6406 49.797 70.0985 49.9625L70.1211 49.9695C70.2247 50.0021 70.3153 50.0668 70.3795 50.1544C70.4438 50.2419 70.4785 50.3477 70.4785 50.4563C70.4785 50.5649 70.4438 50.6706 70.3795 50.7582C70.3153 50.8457 70.2247 50.9104 70.1211 50.943C69.5212 51.0909 68.8955 51.1003 68.2915 50.9703C68.1465 50.9307 67.9927 50.9372 67.8516 50.9891C67.8047 51.0094 67.5133 51.218 67.5133 51.218C66.5163 51.9053 65.3836 52.3709 64.1915 52.5836C63.0541 52.7971 61.8934 52.8586 60.7399 52.7664C59.5793 52.7118 58.4321 52.4943 57.3321 52.1203C57.1544 52.0542 57.007 51.9252 56.9179 51.7579C56.8288 51.5905 56.8041 51.3962 56.8484 51.2119C56.8927 51.0275 57.0031 50.8657 57.1585 50.7572C57.314 50.6486 57.5039 50.6008 57.6922 50.6227C57.6922 50.6227 58.7383 50.7031 59.2438 50.7102ZM40.7563 50.7102C40.2438 50.7266 39.7227 50.7102 39.2071 50.7031C38.2073 50.7036 37.2096 50.61 36.2274 50.4234C35.2909 50.2583 34.3811 49.9671 33.5227 49.5578C33.5227 49.5578 33.1438 49.357 33.0391 49.3156C32.831 49.2323 32.6112 49.1817 32.3876 49.1656C31.9927 49.137 31.5971 49.2099 31.2383 49.3774C30.8061 49.6015 30.3595 49.797 29.9016 49.9625L29.879 49.9695C29.7754 50.0021 29.6848 50.0668 29.6206 50.1544C29.5563 50.2419 29.5217 50.3477 29.5217 50.4563C29.5217 50.5649 29.5563 50.6706 29.6206 50.7582C29.6848 50.8457 29.7754 50.9104 29.879 50.943C30.4789 51.0909 31.1046 51.1003 31.7087 50.9703C31.8536 50.9307 32.0074 50.9372 32.1485 50.9891C32.1954 51.0094 32.4868 51.218 32.4868 51.218C33.4838 51.9053 34.6165 52.3709 35.8086 52.5836C36.946 52.7971 38.1067 52.8586 39.2602 52.7664C40.4208 52.7118 41.568 52.4943 42.668 52.1203C42.8457 52.0542 42.9931 51.9252 43.0822 51.7579C43.1713 51.5905 43.1961 51.3962 43.1517 51.2119C43.1074 51.0275 42.997 50.8657 42.8416 50.7572C42.6861 50.6486 42.4962 50.6008 42.3079 50.6227C42.3079 50.6227 41.2618 50.7031 40.7563 50.7102ZM55.9087 41.8188C57.2737 41.4637 58.664 41.214 60.0672 41.0719C61.4504 40.8991 62.8429 40.8128 64.2368 40.8133L66.3274 40.8352L67.4368 40.8797C67.8184 40.9215 68.1973 40.9862 68.5711 41.0735C70.0048 41.4378 71.3522 42.0819 72.536 42.9688C72.6429 43.0466 72.7163 43.162 72.7415 43.2918C72.7667 43.4216 72.7418 43.5561 72.6717 43.6682C72.6017 43.7804 72.4918 43.8618 72.3641 43.8961C72.2364 43.9304 72.1005 43.9151 71.9836 43.8531L71.9477 43.8336C70.8059 43.2215 69.5645 42.8167 68.2813 42.6383C67.9757 42.6055 67.6683 42.5911 67.361 42.5953L66.4063 42.6789L64.3626 42.9133C63.0024 43.0828 61.6399 43.193 60.279 43.2859C58.9219 43.4031 57.5586 43.4774 56.2274 43.5836H56.2133C55.9897 43.6011 55.7675 43.5345 55.5904 43.3967C55.4133 43.259 55.2941 43.0601 55.2561 42.839C55.218 42.6179 55.2639 42.3905 55.3848 42.2015C55.5057 42.0125 55.6928 41.8754 55.9094 41.8172L55.9087 41.8188ZM50.0001 58.5156C49.7929 58.5156 49.5941 58.4333 49.4476 58.2868C49.3011 58.1403 49.2188 57.9416 49.2188 57.7344V56.25C49.2188 56.0428 49.3011 55.8441 49.4476 55.6976C49.5941 55.5511 49.7929 55.4688 50.0001 55.4688C50.2073 55.4688 50.406 55.5511 50.5525 55.6976C50.699 55.8441 50.7813 56.0428 50.7813 56.25V57.7344C50.7813 57.9416 50.699 58.1403 50.5525 58.2868C50.406 58.4333 50.2073 58.5156 50.0001 58.5156ZM50.0001 53.125C49.7929 53.125 49.5941 53.0427 49.4476 52.8962C49.3011 52.7497 49.2188 52.551 49.2188 52.3438V50.7813C49.2188 50.5741 49.3011 50.3753 49.4476 50.2288C49.5941 50.0823 49.7929 50 50.0001 50C50.2073 50 50.406 50.0823 50.5525 50.2288C50.699 50.3753 50.7813 50.5741 50.7813 50.7813V52.3438C50.7813 52.551 50.699 52.7497 50.5525 52.8962C50.406 53.0427 50.2073 53.125 50.0001 53.125ZM50.0001 47.6563C49.7929 47.6563 49.5941 47.574 49.4476 47.4274C49.3011 47.2809 49.2188 47.0822 49.2188 46.875V45.3125C49.2188 45.1053 49.3011 44.9066 49.4476 44.7601C49.5941 44.6136 49.7929 44.5313 50.0001 44.5313C50.2073 44.5313 50.406 44.6136 50.5525 44.7601C50.699 44.9066 50.7813 45.1053 50.7813 45.3125V46.875C50.7813 47.0822 50.699 47.2809 50.5525 47.4274C50.406 47.574 50.2073 47.6563 50.0001 47.6563ZM50.0001 42.1875C49.7929 42.1875 49.5941 42.1052 49.4476 41.9587C49.3011 41.8122 49.2188 41.6135 49.2188 41.4063V39.8438C49.2188 39.6366 49.3011 39.4378 49.4476 39.2913C49.5941 39.1448 49.7929 39.0625 50.0001 39.0625C50.2073 39.0625 50.406 39.1448 50.5525 39.2913C50.699 39.4378 50.7813 39.6366 50.7813 39.8438V41.4063C50.7813 41.6135 50.699 41.8122 50.5525 41.9587C50.406 42.1052 50.2073 42.1875 50.0001 42.1875ZM67.4313 59.7586H67.4219C66.8852 59.7508 66.3383 59.7195 65.7969 59.6664C65.6948 59.6562 65.5958 59.6259 65.5054 59.5774C65.415 59.5288 65.3351 59.4629 65.2701 59.3835C65.2052 59.3041 65.1566 59.2126 65.127 59.1144C65.0974 59.0161 65.0874 58.913 65.0977 58.811C65.108 58.7089 65.1382 58.6098 65.1868 58.5194C65.2353 58.429 65.3012 58.3491 65.3806 58.2842C65.4601 58.2192 65.5515 58.1706 65.6498 58.141C65.748 58.1114 65.8511 58.1015 65.9532 58.1117C66.4524 58.161 66.9555 58.1899 67.4485 58.1961C67.6557 58.1976 67.8538 58.2813 67.9993 58.4288C68.1448 58.5763 68.2257 58.7756 68.2243 58.9828C68.2228 59.19 68.1391 59.3882 67.9916 59.5337C67.844 59.6791 67.6448 59.7601 67.4376 59.7586H67.4313ZM71.2969 59.3102C71.1098 59.3108 70.9287 59.2443 70.7865 59.1226C70.6443 59.001 70.5504 58.8324 70.5221 58.6474C70.4937 58.4625 70.5326 58.2735 70.6318 58.1148C70.731 57.9561 70.8838 57.8383 71.0626 57.7828C71.2716 57.7241 71.473 57.641 71.6626 57.5352C71.8397 57.4276 72.0523 57.3949 72.2536 57.4441C72.4549 57.4933 72.6285 57.6205 72.736 57.7977C72.8435 57.9748 72.8763 58.1874 72.8271 58.3888C72.7778 58.5901 72.6506 58.7636 72.4735 58.8711C72.1749 59.0427 71.8571 59.1782 71.5266 59.275C71.4522 59.2981 71.3748 59.31 71.2969 59.3102ZM62.0508 58.8805C61.9689 58.8803 61.8874 58.8674 61.8094 58.8422C61.2908 58.6743 60.7803 58.4822 60.2797 58.2664C60.0912 58.1832 59.9431 58.0288 59.8679 57.8369C59.7927 57.645 59.7963 57.4312 59.878 57.2419C59.9598 57.0527 60.1129 56.9034 60.3042 56.8267C60.4955 56.7499 60.7094 56.7518 60.8993 56.832C61.3549 57.0284 61.8195 57.2034 62.2915 57.3563C62.4683 57.4138 62.6188 57.5324 62.716 57.6909C62.8131 57.8494 62.8506 58.0374 62.8216 58.2211C62.7926 58.4047 62.6991 58.572 62.5578 58.6929C62.4165 58.8137 62.2368 58.8803 62.0508 58.8805ZM57.243 56.3375C57.0668 56.3373 56.8958 56.2776 56.7579 56.168C56.3273 55.8248 55.9162 55.4578 55.5266 55.0688C55.3843 54.9214 55.3056 54.7241 55.3073 54.5192C55.3091 54.3144 55.3913 54.1184 55.5361 53.9736C55.681 53.8287 55.8769 53.7466 56.0818 53.7448C56.2866 53.743 56.484 53.8218 56.6313 53.9641C56.98 54.3116 57.3484 54.639 57.7344 54.9445C57.8615 55.0455 57.9539 55.1834 57.999 55.3393C58.0441 55.4952 58.0395 55.6612 57.9859 55.8143C57.9323 55.9675 57.8323 56.1001 57.6999 56.1939C57.5675 56.2876 57.4092 56.3378 57.2469 56.3375H57.243ZM32.5688 59.7586C32.3616 59.7601 32.1623 59.6791 32.0148 59.5337C31.8672 59.3882 31.7835 59.19 31.7821 58.9828C31.7806 58.7756 31.8616 58.5763 32.007 58.4288C32.1525 58.2813 32.3507 58.1976 32.5579 58.1961C33.0573 58.1888 33.5561 58.1607 34.0532 58.1117C34.1553 58.1015 34.2584 58.1114 34.3566 58.141C34.4548 58.1706 34.5463 58.2192 34.6257 58.2842C34.7052 58.3491 34.771 58.429 34.8196 58.5194C34.8681 58.6098 34.8984 58.7089 34.9086 58.811C34.9189 58.913 34.909 59.0161 34.8794 59.1144C34.8498 59.2126 34.8011 59.3041 34.7362 59.3835C34.6713 59.4629 34.5913 59.5288 34.501 59.5774C34.4106 59.6259 34.3115 59.6562 34.2094 59.6664C33.668 59.7195 33.1211 59.7508 32.5844 59.7586H32.5688ZM28.7032 59.3102C28.6237 59.3104 28.5447 59.2986 28.4688 59.275C28.1383 59.1782 27.8205 59.0427 27.5219 58.8711C27.3448 58.7636 27.2176 58.5901 27.1684 58.3888C27.1191 58.1874 27.1519 57.9748 27.2594 57.7977C27.367 57.6205 27.5405 57.4933 27.7418 57.4441C27.9431 57.3949 28.1557 57.4276 28.3329 57.5352C28.5224 57.641 28.7238 57.7241 28.9329 57.7828C29.1116 57.8383 29.2644 57.9561 29.3636 58.1148C29.4628 58.2735 29.5018 58.4625 29.4734 58.6474C29.445 58.8324 29.3512 59.001 29.209 59.1226C29.0668 59.2443 28.8856 59.3108 28.6985 59.3102H28.7032ZM37.9493 58.8805C37.7633 58.8803 37.5836 58.8137 37.4423 58.6929C37.301 58.572 37.2075 58.4047 37.1785 58.2211C37.1495 58.0374 37.187 57.8494 37.2841 57.6909C37.3813 57.5324 37.5318 57.4138 37.7086 57.3563C38.1804 57.2027 38.6449 57.0278 39.1008 56.832C39.2907 56.7518 39.5046 56.7499 39.6959 56.8267C39.8872 56.9034 40.0404 57.0527 40.1221 57.2419C40.2038 57.4312 40.2075 57.645 40.1322 57.8369C40.057 58.0288 39.9089 58.1832 39.7204 58.2664C39.2274 58.4789 38.7126 58.6735 38.1907 58.8422C38.1127 58.8674 38.0312 58.8803 37.9493 58.8805ZM42.7571 56.3375C42.5948 56.3378 42.4365 56.2876 42.3041 56.1939C42.1717 56.1001 42.0717 55.9675 42.0181 55.8143C41.9645 55.6612 41.96 55.4952 42.005 55.3393C42.0501 55.1834 42.1425 55.0455 42.2696 54.9445C42.6543 54.6389 43.0213 54.3115 43.3688 53.9641C43.5161 53.8218 43.7135 53.743 43.9183 53.7448C44.1232 53.7466 44.3191 53.8287 44.464 53.9736C44.6088 54.1184 44.691 54.3144 44.6928 54.5192C44.6945 54.7241 44.6158 54.9214 44.4735 55.0688C44.084 55.4592 43.6729 55.8274 43.2422 56.1719C43.1038 56.2801 42.9328 56.3384 42.7571 56.3375ZM47.0352 80.361C46.9658 80.361 46.8967 80.3518 46.8297 80.3336C46.3024 80.1906 45.779 80.0211 45.2735 79.8344C45.0792 79.7619 44.9218 79.6152 44.8357 79.4265C44.7496 79.2379 44.742 79.0228 44.8145 78.8285C44.887 78.6343 45.0337 78.4768 45.2224 78.3907C45.411 78.3046 45.6261 78.297 45.8204 78.3695C46.2805 78.5414 46.7579 78.6945 47.2399 78.8258C47.4225 78.8754 47.5809 78.9896 47.6856 79.1472C47.7904 79.3048 47.8344 79.495 47.8095 79.6826C47.7846 79.8701 47.6924 80.0423 47.5502 80.1671C47.4079 80.2918 47.2244 80.3607 47.0352 80.361ZM42.0829 78.0953C41.9259 78.0952 41.7727 78.0479 41.643 77.9594C41.1911 77.6504 40.7551 77.3187 40.3368 76.9656C40.1785 76.8319 40.0798 76.6407 40.0624 76.4342C40.0451 76.2277 40.1104 76.0228 40.2442 75.8645C40.3779 75.7062 40.5691 75.6075 40.7756 75.5901C40.9821 75.5728 41.1871 75.6381 41.3454 75.7719C41.7228 76.0913 42.1166 76.3909 42.5251 76.6695C42.6627 76.7639 42.7666 76.8998 42.8214 77.0574C42.8763 77.2151 42.8792 77.3861 42.8297 77.5455C42.7803 77.7049 42.6811 77.8443 42.5467 77.9432C42.4123 78.0422 42.2498 78.0955 42.0829 78.0953ZM52.9688 80.361C52.7796 80.3607 52.5969 80.2918 52.4546 80.1671C52.3124 80.0423 52.2202 79.8701 52.1953 79.6826C52.1704 79.495 52.2144 79.3048 52.3192 79.1472C52.4239 78.9896 52.5823 78.8754 52.7649 78.8258C53.2447 78.6953 53.7184 78.543 54.1844 78.3695C54.3787 78.297 54.5938 78.3046 54.7824 78.3907C54.971 78.4768 55.1178 78.6343 55.1903 78.8285C55.2628 79.0228 55.2552 79.2379 55.1691 79.4265C55.083 79.6152 54.9256 79.7619 54.7313 79.8344C54.2258 80.0227 53.7024 80.1906 53.1751 80.3336C53.1078 80.3519 53.0385 80.3611 52.9688 80.361ZM57.9211 78.0953C57.7543 78.0955 57.5917 78.0422 57.4573 77.9432C57.3229 77.8443 57.2237 77.7049 57.1743 77.5455C57.1248 77.3861 57.1278 77.2151 57.1826 77.0574C57.2374 76.8998 57.3413 76.7639 57.479 76.6695C57.8874 76.3909 58.2812 76.0913 58.6586 75.7719C58.8169 75.6381 59.0219 75.5728 59.2284 75.5901C59.4349 75.6075 59.6261 75.7062 59.7598 75.8645C59.8936 76.0228 59.959 76.2277 59.9416 76.4342C59.9242 76.6407 59.8255 76.8319 59.6672 76.9656C59.2483 77.3183 58.8118 77.6494 58.3594 77.9578C58.2291 78.0467 58.075 78.0941 57.9172 78.0938L57.9211 78.0953ZM61.4743 33.8391C61.3904 33.8388 61.3071 33.8253 61.2274 33.7992C60.7586 33.643 60.2985 33.4985 59.8329 33.3633C59.7344 33.3346 59.6425 33.2867 59.5625 33.2225C59.4825 33.1583 59.4159 33.0789 59.3666 32.9889C59.3173 32.899 59.2861 32.8002 59.275 32.6982C59.2638 32.5962 59.2729 32.493 59.3016 32.3945C59.3303 32.2961 59.3782 32.2042 59.4424 32.1242C59.5066 32.0442 59.586 31.9776 59.676 31.9283C59.7659 31.879 59.8647 31.8478 59.9667 31.8367C60.0687 31.8255 60.1719 31.8346 60.2704 31.8633C60.7547 32.0039 61.2386 32.155 61.7219 32.3164C61.8981 32.375 62.0478 32.4944 62.1439 32.6532C62.2401 32.8121 62.2766 33 62.2467 33.1832C62.2169 33.3665 62.1228 33.5332 61.9813 33.6534C61.8397 33.7736 61.66 33.8394 61.4743 33.8391ZM38.5251 33.8391C38.3397 33.8385 38.1606 33.772 38.0197 33.6515C37.8789 33.531 37.7855 33.3643 37.7562 33.1813C37.7269 32.9983 37.7636 32.8108 37.8598 32.6524C37.956 32.4939 38.1054 32.3749 38.2813 32.3164C38.7886 32.1477 39.2961 31.9914 39.804 31.8477C39.9027 31.8187 40.0063 31.8095 40.1086 31.8207C40.2109 31.8319 40.31 31.8631 40.4002 31.9127C40.4904 31.9623 40.5699 32.0292 40.6342 32.1097C40.6985 32.1901 40.7462 32.2824 40.7746 32.3813C40.8031 32.4802 40.8117 32.5838 40.8001 32.6861C40.7884 32.7883 40.7566 32.8873 40.7065 32.9772C40.6565 33.0672 40.5891 33.1464 40.5084 33.2102C40.4276 33.274 40.3351 33.3213 40.236 33.3492C39.748 33.4893 39.2602 33.6401 38.7727 33.8016C38.6927 33.8275 38.6091 33.8401 38.5251 33.8391ZM56.254 32.5C56.2071 32.5001 56.1603 32.4959 56.1141 32.4875C55.611 32.3969 55.1079 32.3172 54.6047 32.2484C54.5031 32.2347 54.4051 32.201 54.3165 32.1493C54.2278 32.0976 54.1502 32.029 54.0881 31.9474C54.0259 31.8657 53.9805 31.7726 53.9543 31.6734C53.9282 31.5742 53.9218 31.4708 53.9356 31.3692C53.9494 31.2675 53.9831 31.1695 54.0347 31.0809C54.0864 30.9922 54.155 30.9146 54.2367 30.8525C54.3183 30.7903 54.4114 30.7449 54.5106 30.7187C54.6098 30.6926 54.7132 30.6862 54.8149 30.7C55.3409 30.7719 55.8667 30.8552 56.3922 30.95C56.5841 30.9848 56.7561 31.09 56.8744 31.2451C56.9926 31.4002 57.0485 31.5939 57.0312 31.7882C57.0139 31.9824 56.9245 32.1632 56.7807 32.2949C56.6369 32.4266 56.449 32.4998 56.254 32.5ZM43.8204 32.4922C43.6255 32.4916 43.4378 32.4182 43.2943 32.2863C43.1508 32.1545 43.0617 31.9737 43.0446 31.7796C43.0275 31.5855 43.0835 31.3919 43.2018 31.237C43.32 31.0821 43.4919 30.9769 43.6836 30.9422C44.2097 30.8484 44.7355 30.7662 45.261 30.6953C45.3632 30.6805 45.4673 30.6861 45.5673 30.7118C45.6673 30.7375 45.7612 30.7828 45.8436 30.845C45.926 30.9072 45.9952 30.9851 46.0473 31.0742C46.0995 31.1633 46.1334 31.2619 46.1472 31.3642C46.1609 31.4665 46.1543 31.5706 46.1276 31.6703C46.101 31.77 46.0548 31.8635 45.9918 31.9453C45.9288 32.0271 45.8502 32.0956 45.7606 32.1468C45.6709 32.198 45.572 32.231 45.4696 32.2438C44.9654 32.3115 44.4618 32.3896 43.9586 32.4781C43.913 32.486 43.8667 32.4896 43.8204 32.4891V32.4922ZM50.8188 31.9453H50.8008C50.2918 31.9344 49.7825 31.9344 49.2735 31.9453H49.2563C49.0491 31.9477 48.8494 31.8677 48.7012 31.7229C48.553 31.578 48.4685 31.3803 48.4661 31.1731C48.4637 30.9659 48.5437 30.7662 48.6885 30.618C48.8334 30.4698 49.0311 30.3852 49.2383 30.3828C49.7706 30.3708 50.3032 30.3708 50.836 30.3828C51.0432 30.3851 51.241 30.4696 51.3859 30.6177C51.5308 30.7658 51.6109 30.9655 51.6086 31.1727C51.6064 31.3799 51.5219 31.5777 51.3737 31.7226C51.2256 31.8675 51.026 31.9476 50.8188 31.9453Z" fill="white"/>
<path d="M83.0077 47.8844C82.9554 47.8273 82.896 47.7797 82.8413 47.7281C84.1046 40.5703 84.0499 27.7539 80.6405 20.6836C75.0843 9.16485 62.203 0.807037 50.0155 0.807037H49.9929C37.7999 0.807037 24.9187 9.16641 19.3632 20.6836C15.9538 27.7539 15.8991 40.5703 17.1624 47.7281C17.1077 47.7828 17.0484 47.8305 16.996 47.8844C15.328 49.6945 14.6741 52.2906 15.157 55.1938C15.9054 59.707 20.4546 64.5508 25.0515 64.5688C26.6077 69.8563 28.939 74.1125 31.9929 77.075C34.2837 79.3724 36.8531 81.374 39.6413 83.0328C39.2507 86.4352 37.6468 94.2945 31.0726 96.9391C30.8199 97.0405 30.6105 97.2267 30.4802 97.4657C30.35 97.7048 30.307 97.9817 30.3586 98.249C30.4103 98.5162 30.5534 98.7572 30.7634 98.9305C30.9733 99.1037 31.2371 99.1985 31.5093 99.1984C31.6592 99.1983 31.8076 99.1697 31.9468 99.1141C39.1343 96.2234 41.2351 88.3555 41.8507 84.1922C43.7526 85.0881 45.7425 85.784 47.7882 86.2688C49.2465 86.6157 50.7658 86.6157 52.2241 86.2688C54.2698 85.784 56.2597 85.0881 58.1616 84.1922C58.7749 88.3524 60.8757 96.2234 68.0663 99.1141C68.2091 99.1714 68.3618 99.2001 68.5157 99.1984C68.6696 99.1968 68.8217 99.1648 68.9632 99.1044C69.1048 99.0439 69.233 98.9562 69.3406 98.8462C69.4483 98.7362 69.5332 98.6061 69.5905 98.4633C69.7064 98.175 69.703 97.8524 69.5812 97.5666C69.4593 97.2808 69.2288 97.055 68.9405 96.9391C62.3663 94.2977 60.7616 86.4383 60.3718 83.0328C63.1602 81.374 65.73 79.3724 68.021 77.075C71.0741 74.1125 73.4054 69.8563 74.9624 64.5688C79.5585 64.5492 84.1077 59.7055 84.8562 55.1938C85.3296 52.2906 84.6757 49.6945 83.0077 47.8844ZM17.4609 54.8102C17.2464 53.8842 17.2475 52.9213 17.4643 51.9958C17.681 51.0704 18.1075 50.2071 18.7109 49.4727C19.2449 48.9361 19.8806 48.5113 20.5806 48.2232C21.2807 47.9351 22.0312 47.7893 22.7882 47.7945C22.8038 49.1737 22.852 50.5201 22.9327 51.8336C22.0872 51.4963 21.1752 51.3591 20.2679 51.4328C19.9598 51.4644 19.6768 51.6166 19.4806 51.8562C19.2844 52.0958 19.1911 52.4033 19.2209 52.7115C19.2507 53.0197 19.4013 53.3036 19.6398 53.5011C19.8783 53.6986 20.1853 53.7937 20.4937 53.7656C20.9897 53.7146 21.4908 53.7814 21.9562 53.9606C22.4216 54.1398 22.8381 54.4263 23.1718 54.7969C23.4222 57.2728 23.8319 59.7299 24.3984 62.1531C21.2702 61.6633 17.9905 57.9852 17.464 54.8102H17.4609ZM66.3796 75.3906C62.7663 78.893 58.4843 82.3578 51.6726 83.9844C50.5723 84.2465 49.4259 84.2465 48.3257 83.9844C41.5155 82.3594 37.232 78.8945 33.6202 75.3906C27.7648 69.7125 24.7577 58.6719 25.1562 44.3078C25.3672 40.7593 25.8354 37.2308 26.557 33.75C33.3179 32.7602 37.471 27.0227 40.5757 22.693C41.7016 21.0323 43.2264 19.6809 45.0103 18.7627C46.7942 17.8445 48.7801 17.3888 50.7859 17.4375C52.4707 17.466 54.1214 17.9173 55.5864 18.75C57.0514 19.5826 58.2837 20.77 59.1702 22.2031C59.3943 22.5772 59.7052 22.8917 60.0766 23.1202C60.448 23.3486 60.8689 23.4843 61.3038 23.5156C61.5843 23.532 61.8437 23.5398 62.089 23.5469C62.595 23.5298 63.1005 23.5918 63.5874 23.7305C65.7749 24.4961 67.0109 26.3945 68.3241 28.4047C68.8962 29.3191 69.5223 30.1985 70.1991 31.0383C71.0147 32.0128 72.0193 32.812 73.1523 33.3875C74.1746 36.9408 74.743 40.6093 74.8437 44.3055C75.2421 58.6719 72.2351 69.7125 66.3796 75.3906ZM71.9398 29.5781C71.3222 28.8072 70.7507 28.0006 70.228 27.1625C68.8327 25.0274 67.253 22.607 64.339 21.5859C63.6319 21.3626 62.8928 21.257 62.1515 21.2734C61.9273 21.2672 61.6905 21.2602 61.4343 21.2453C61.3649 21.2345 61.299 21.2077 61.2418 21.167C61.1846 21.1264 61.1376 21.0729 61.1046 21.0109C60.0128 19.2666 58.506 17.8199 56.7188 16.7999C54.9316 15.7799 52.9195 15.2184 50.8624 15.1656C48.4847 15.1188 46.1323 15.6606 44.0146 16.7428C41.897 17.8251 40.0798 19.4143 38.7249 21.3688C35.357 26.0664 31.1702 31.9203 23.9921 31.6274C23.8409 31.618 23.6893 31.6389 23.5463 31.6889C23.4033 31.739 23.2717 31.817 23.1592 31.9186C23.0468 32.0202 22.9558 32.1432 22.8916 32.2804C22.8273 32.4177 22.7911 32.5663 22.7852 32.7177C22.7792 32.8691 22.8035 33.0202 22.8567 33.1621C22.9099 33.304 22.9909 33.4338 23.095 33.5439C23.199 33.654 23.3241 33.7423 23.4627 33.8034C23.6013 33.8646 23.7508 33.8974 23.9023 33.9C23.9804 33.9 24.0585 33.8953 24.1327 33.9C23.4549 37.3123 23.0138 40.7675 22.8124 44.2406C22.8015 44.6531 22.803 45.0531 22.7968 45.4602C21.5884 45.4807 20.3966 45.7451 19.2929 46.2375C18.3007 39.3625 18.4804 27.8992 21.4702 21.6984C26.6562 10.9477 38.6476 3.14766 49.9898 3.14766H50.0109C61.3515 3.14766 73.3444 10.9484 78.5265 21.6984C81.5171 27.9008 81.6937 39.3641 80.7007 46.2359C79.598 45.7439 78.4072 45.4798 77.1999 45.4594C77.1937 45.0523 77.1952 44.6531 77.1843 44.2406C77.0874 40.897 76.6357 37.5732 75.8366 34.325C76.0843 34.3773 76.3327 34.4289 76.5905 34.4672C76.6464 34.4752 76.7028 34.4794 76.7593 34.4797C77.0528 34.4895 77.3388 34.3854 77.5573 34.189C77.7757 33.9927 77.9097 33.7194 77.9311 33.4265C77.9525 33.1336 77.8597 32.8437 77.6721 32.6177C77.4846 32.3917 77.2168 32.247 76.9249 32.2141C74.9884 32.0017 73.2056 31.059 71.9398 29.5781ZM82.5359 54.8125C82.0085 57.9899 78.7265 61.6828 75.5921 62.1727C76.1611 59.744 76.5724 57.281 76.8234 54.7992C77.1568 54.4283 77.5733 54.1416 78.0387 53.9623C78.5041 53.7831 79.0054 53.7165 79.5015 53.768C79.81 53.7943 80.1165 53.6988 80.3555 53.502C80.5945 53.3052 80.747 53.0227 80.7804 52.7149C80.7953 52.5617 80.7798 52.4071 80.735 52.2599C80.6901 52.1127 80.6167 51.9757 80.5189 51.8569C80.4211 51.7381 80.3008 51.6397 80.165 51.5673C80.0292 51.4949 79.8804 51.45 79.7273 51.4352C78.8183 51.3657 77.9057 51.5088 77.0616 51.8531C77.1439 50.5359 77.1924 49.1841 77.2069 47.7977C77.964 47.7921 78.7145 47.9375 79.4146 48.2255C80.1147 48.5136 80.7504 48.9383 81.2843 49.475C81.8876 50.209 82.3142 51.0719 82.5312 51.9969C82.7482 52.9219 82.7498 53.8844 82.5359 54.8102V54.8125Z" fill="white"/>
</svg>
