<svg width="49" height="48" viewBox="0 0 49 48" fill="none" xmlns="http://www.w3.org/2000/svg">
<g clip-path="url(#clip0_167_745)">
<path d="M29.2721 16.8046C31.8069 16.8046 33.8617 14.6771 33.8617 12.0527C33.8617 9.42829 31.8069 7.30078 29.2721 7.30078C26.7374 7.30078 24.6826 9.42829 24.6826 12.0527C24.6826 14.6771 26.7374 16.8046 29.2721 16.8046Z" stroke="#6C8B57" stroke-linecap="round" stroke-linejoin="round"/>
<path d="M29.1348 2.74121V5.17789" stroke="#6C8B57" stroke-linecap="round" stroke-linejoin="round"/>
<path d="M29.1348 18.9268V21.3634" stroke="#6C8B57" stroke-linecap="round" stroke-linejoin="round"/>
<path d="M35.4933 5.46826L33.8291 7.1918" stroke="#6C8B57" stroke-linecap="round" stroke-linejoin="round"/>
<path d="M24.4401 16.9141L22.7759 18.6369" stroke="#6C8B57" stroke-linecap="round" stroke-linejoin="round"/>
<path d="M38.1273 12.0522H35.7739" stroke="#6C8B57" stroke-linecap="round" stroke-linejoin="round"/>
<path d="M22.4945 12.0522H20.1411" stroke="#6C8B57" stroke-linecap="round" stroke-linejoin="round"/>
<path d="M35.4933 18.6369L33.8291 16.9141" stroke="#6C8B57" stroke-linecap="round" stroke-linejoin="round"/>
<path d="M24.4401 7.1918L22.7759 5.46826" stroke="#6C8B57" stroke-linecap="round" stroke-linejoin="round"/>
<path d="M38.3706 35.6551L30.0438 31.8027L25.3999 35.6551" stroke="#6C8B57" stroke-linecap="round" stroke-linejoin="round"/>
<path d="M14.0251 27.5818L16.1638 31.3649L21.6444 31.9644V35.1474H14.6041L8.96461 27.6721C8.5798 27.1616 8.48801 26.4767 8.72525 25.878C8.86788 25.5165 9.11995 25.2129 9.44404 25.0123L11.0716 24.0048C12.5395 23.096 14.3894 23.1779 15.7769 24.2138L22.9005 29.2403L29.2538 26.5968C29.7622 26.3857 30.3327 26.4076 30.8242 26.6582L43.5675 33.164L42.2754 35.6551" stroke="#6C8B57" stroke-linecap="round" stroke-linejoin="round"/>
<path d="M23.8723 35.6552H44.7892C46.2219 35.6552 47.3629 36.8958 47.2923 38.3771C47.2273 39.7596 46.1259 40.8456 44.7892 40.8456H14.0253C6.65243 35.0416 2.59882 27.5388 1.05745 24.2174C0.419858 22.844 0.951536 21.1918 2.25779 20.49C3.11285 20.0303 3.86624 19.9463 3.86624 19.9463H4.52148" stroke="#6C8B57" stroke-linecap="round" stroke-linejoin="round"/>
<path d="M10.0436 24.545L9.87272 24.6142C8.05456 25.3535 6.00128 24.4264 5.28673 22.544L4.76423 21.1664C4.05038 19.2833 4.94498 17.158 6.76385 16.4188L6.93472 16.3496C8.75287 15.6103 10.8062 16.5374 11.5207 18.4198L12.0432 19.7974C12.7571 21.6805 11.8625 23.8058 10.0436 24.545Z" stroke="#6C8B57" stroke-linecap="round" stroke-linejoin="round"/>
<path d="M40.916 40.8457L43.5666 44.6748" stroke="#6C8B57" stroke-linecap="round" stroke-linejoin="round"/>
<path d="M14.1409 40.8457L11.4902 44.6748" stroke="#6C8B57" stroke-linecap="round" stroke-linejoin="round"/>
</g>
<defs>
<clipPath id="clip0_167_745">
<rect width="48" height="43.4162" fill="white" transform="translate(0.0419922 2)"/>
</clipPath>
</defs>
</svg>
