<svg width="43" height="42" viewBox="0 0 43 42" fill="none" xmlns="http://www.w3.org/2000/svg">
<g clip-path="url(#clip0_167_765)">
<path d="M20.4172 24.2997C20.317 24.2997 20.2192 24.2693 20.1369 24.2123C20.0545 24.1554 19.9915 24.0747 19.9562 23.981C19.9209 23.8873 19.915 23.785 19.9393 23.6879C19.9636 23.5908 20.017 23.5034 20.0923 23.4373L20.6298 22.9662C20.8737 22.7526 21.1872 22.6357 21.5114 22.6374C21.8355 22.6391 22.1479 22.7593 22.3895 22.9753L22.9109 23.4406C23.0047 23.5285 23.0604 23.6497 23.066 23.7781C23.0717 23.9066 23.0268 24.0321 22.9411 24.128C22.8554 24.2238 22.7355 24.2822 22.6073 24.2908C22.479 24.2994 22.3524 24.2575 22.2547 24.174L21.7352 23.7084C21.6729 23.6526 21.5924 23.6216 21.5088 23.6212C21.4252 23.6208 21.3443 23.651 21.2814 23.7061L20.744 24.1773C20.6537 24.2568 20.5374 24.3004 20.4172 24.2997ZM21.5 27.4218C21.3694 27.4218 21.2442 27.3699 21.1519 27.2776C21.0596 27.1853 21.0078 27.0601 21.0078 26.9296V24.8243C21.0078 24.6938 21.0596 24.5686 21.1519 24.4763C21.2442 24.384 21.3694 24.3321 21.5 24.3321C21.6305 24.3321 21.7557 24.384 21.848 24.4763C21.9403 24.5686 21.9922 24.6938 21.9922 24.8243V26.9296C21.9922 27.0601 21.9403 27.1853 21.848 27.2776C21.7557 27.3699 21.6305 27.4218 21.5 27.4218ZM40.3967 1.91924C37.542 -1.09722 28.724 1.14092 23.8372 3.26028C23.0992 3.57897 22.3038 3.74337 21.5 3.74337C20.6961 3.74337 19.9007 3.57897 19.1627 3.26028C14.276 1.14092 5.45859 -1.09722 2.60324 1.91924C0.480603 4.16263 0.341478 8.18839 2.2492 11.5451C2.18981 13.1277 2.40637 14.8651 2.61013 15.3514C3.02193 16.343 5.30896 16.826 6.71662 16.826C6.85443 16.826 6.98437 16.8214 7.10282 16.8122C7.37605 16.7967 7.64534 16.7399 7.90148 16.6435C8.72179 17.4986 10.9435 17.8602 12.4296 17.8602C12.6317 17.8602 12.8201 17.8533 12.9897 17.8405C13.3859 17.8223 13.776 17.7368 14.1434 17.5875C14.4293 17.9758 14.8542 18.2387 15.3292 18.3212C16.4579 18.5239 17.6026 18.6235 18.7493 18.6188C19.2579 18.6188 19.7586 18.5995 20.2318 18.5604C20.6973 18.5321 21.1416 18.3559 21.5 18.0574C21.8581 18.3562 22.3023 18.5329 22.7678 18.5617C23.2413 18.6008 23.7417 18.6198 24.2506 18.6198C25.3973 18.6246 26.542 18.5251 27.6707 18.3225C28.146 18.2397 28.5708 17.9763 28.8565 17.5875C29.2241 17.7368 29.6145 17.8224 30.0109 17.8405C30.1805 17.8533 30.3689 17.8602 30.571 17.8602C32.0577 17.8602 34.2788 17.4993 35.0991 16.6435C35.3552 16.7399 35.6245 16.7967 35.8978 16.8122C36.0162 16.8214 36.1458 16.826 36.284 16.826C37.6916 16.826 39.9787 16.343 40.3905 15.3514C40.5929 14.8638 40.8095 13.1263 40.7514 11.5451C42.6585 8.18839 42.5193 4.16263 40.3967 1.91924ZM4.99199 15.6349C3.98662 15.3983 3.56399 15.0875 3.51707 14.9743C3.23128 14.2853 3.00618 10.6172 3.5827 9.62853C3.97185 8.96342 4.75049 9.032 5.06746 9.09238C5.63315 9.22264 6.15222 9.50572 6.56806 9.91074C6.98391 10.3158 7.28057 10.8272 7.4257 11.3893C7.46444 11.5559 7.47366 11.728 7.45293 11.8978C7.31435 13.1772 7.33165 14.4686 7.50445 15.7438C7.18289 15.8649 6.20278 15.9203 4.99298 15.6355L4.99199 15.6349ZM10.7959 16.7426C9.27239 16.4955 8.63024 16.0693 8.55839 15.902C8.22731 15.1328 8.2552 10.9696 8.95214 9.64658C9.21464 9.15013 10.0156 8.94931 10.9481 9.14717C12.2121 9.41525 13.5321 10.3845 13.7224 11.9579C13.7332 12.058 13.7342 12.1588 13.7254 12.2591C13.6353 13.6549 13.6411 15.0552 13.7428 16.4503C13.7487 16.5297 13.7634 16.6041 13.7756 16.6799C13.4662 16.8483 12.3404 16.9936 10.7969 16.7433L10.7959 16.7426ZM20.8365 17.3283C20.6456 17.4941 20.4003 17.5837 20.1474 17.58C18.5986 17.7005 17.0407 17.6249 15.5107 17.3552C15.2843 17.313 15.0803 17.1914 14.9356 17.0122C14.7908 16.833 14.7148 16.608 14.7212 16.3777C14.6651 15.623 14.5106 12.9954 14.8725 10.898C14.9378 10.3855 15.1912 9.91557 15.5835 9.57936C15.9758 9.24316 16.479 9.06469 16.9955 9.07859C17.8152 9.0701 18.6144 9.33527 19.2665 9.83211C19.9186 10.329 20.3863 11.0291 20.5957 11.8217C21.1466 14.1672 21.0823 16.7961 20.8388 17.329L20.8365 17.3283ZM28.2731 16.3768C28.2795 16.607 28.2035 16.8319 28.0588 17.0111C27.914 17.1902 27.7101 17.3118 27.4837 17.3539C25.9536 17.624 24.3956 17.6995 22.8466 17.5787C22.5937 17.5823 22.3484 17.4926 22.1575 17.3267C21.9144 16.7941 21.8501 14.1652 22.3977 11.8214C22.6033 11.0435 23.0578 10.3543 23.6917 9.85876C24.3256 9.36325 25.1042 9.08869 25.9087 9.07695H25.9963C26.5127 9.06305 27.0159 9.24152 27.4082 9.57772C27.8005 9.91393 28.0539 10.3839 28.1192 10.8964C28.4861 12.9961 28.3315 15.623 28.2754 16.3787L28.2731 16.3768ZM34.4379 15.9003C34.3661 16.068 33.7243 16.4942 32.2008 16.7413C30.6586 16.992 29.5318 16.846 29.2224 16.6783C29.3279 15.2057 29.3445 13.7281 29.2719 12.2535C29.2636 12.1552 29.2647 12.0563 29.2752 11.9582C29.4645 10.3832 30.7846 9.41361 32.0498 9.1452C32.9837 8.94833 33.7853 9.14816 34.0458 9.64461C34.7438 10.9702 34.7716 15.1335 34.4402 15.9023L34.4379 15.9003ZM39.4812 14.975C39.4343 15.0882 39.0117 15.3989 38.0047 15.6355C36.7939 15.921 35.8144 15.8652 35.4909 15.7458C35.6637 14.4706 35.681 13.1792 35.5424 11.8998C35.5217 11.73 35.5309 11.5579 35.5696 11.3912C35.7148 10.8292 36.0114 10.3177 36.4273 9.91271C36.8431 9.50769 37.3622 9.22461 37.9279 9.09435C38.2442 9.0343 39.0235 8.96506 39.4126 9.63017C39.9928 10.6178 39.7677 14.2869 39.4812 14.975ZM40.2638 9.13208C39.7746 8.29536 38.8342 7.91802 37.7454 8.12605C36.6968 8.35141 35.7776 8.97759 35.1841 9.87102C35.1183 9.63526 35.0299 9.40638 34.9203 9.18753C34.4445 8.28289 33.238 7.88816 31.8484 8.1838C30.6638 8.4291 29.6194 9.12183 28.9327 10.1178C28.7212 9.51959 28.3275 9.00274 27.807 8.63989C27.2866 8.27704 26.6655 8.08644 26.031 8.09488C25.0197 8.07893 24.0306 8.39254 23.2131 8.98833C22.3957 9.58413 21.7944 10.4297 21.5 11.3975C21.2071 10.429 20.6062 9.58266 19.7885 8.98684C18.9709 8.39102 17.9811 8.0783 16.9695 8.09619C16.3351 8.08775 15.714 8.27835 15.1936 8.6412C14.6731 9.00406 14.2794 9.5209 14.0679 10.1191C13.3812 9.12314 12.3368 8.43042 11.1522 8.18511C9.76228 7.8898 8.55609 8.28355 8.08031 9.18884C7.97029 9.40722 7.88151 9.63566 7.81518 9.87102C7.22164 8.97759 6.30252 8.35141 5.25384 8.12605C4.16643 7.919 3.22471 8.29536 2.73515 9.13241C2.62834 9.32476 2.5459 9.52967 2.48971 9.74239C1.49713 7.1023 1.77965 4.22366 3.31856 2.59616C5.44579 0.347189 12.9963 1.65903 18.7713 4.16328C19.6329 4.53537 20.5615 4.72732 21.5 4.72732C22.4385 4.72732 23.3671 4.53537 24.2287 4.16328C30.0037 1.65903 37.5545 0.347517 39.6814 2.59616C41.2216 4.22366 41.5028 7.1023 40.5102 9.74239C40.454 9.52952 40.3715 9.3245 40.2645 9.13208H40.2638ZM40.6877 31.2375C40.4451 30.8282 40.0973 30.4914 39.6803 30.2622C39.2634 30.033 38.7926 29.9197 38.317 29.9342C37.7562 29.9511 37.2042 30.0782 36.6926 30.3085C36.1809 30.5387 35.7196 30.8674 35.335 31.2759C34.8799 30.4487 33.9261 29.9746 32.71 29.9746C31.6213 29.9843 30.5634 30.3367 29.6864 30.9819C29.4498 31.1589 29.2375 31.3662 29.055 31.5985C28.7181 31.0759 28.2514 30.6497 27.7005 30.3614C27.1496 30.0732 26.5333 29.9328 25.9119 29.9539C25.022 29.9718 24.1511 30.2141 23.3798 30.6584C22.6086 31.1026 21.9619 31.7345 21.5 32.4952C21.0378 31.7346 20.391 31.1031 19.6197 30.659C18.8484 30.2149 17.9775 29.9727 17.0877 29.9549C16.4666 29.9337 15.8506 30.074 15.2999 30.3621C14.7492 30.6502 14.2827 31.0762 13.9459 31.5985C13.763 31.3657 13.5504 31.1579 13.3136 30.9803C12.4364 30.335 11.3782 29.9824 10.2892 29.9726C9.07518 29.9726 8.12099 30.4464 7.66424 31.2743C7.27981 30.8656 6.8186 30.5368 6.30698 30.3065C5.79536 30.0762 5.24337 29.9491 4.68257 29.9323C4.20671 29.918 3.73572 30.0315 3.31866 30.2611C2.90159 30.4907 2.5537 30.8278 2.31121 31.2375C1.39017 32.806 1.78424 37.0033 2.15338 37.8932C2.75976 39.3468 5.70403 39.6736 6.68774 39.6736C7.05412 39.6794 7.4198 39.6398 7.77646 39.5558C9.21234 40.6915 12.3637 40.7069 12.4011 40.7069C12.9384 40.7218 13.4752 40.6605 13.9954 40.5248C14.337 40.8539 14.7681 41.0747 15.2347 41.1597C16.3907 41.3669 17.5631 41.4691 18.7375 41.4652C19.271 41.4652 19.7875 41.4445 20.2724 41.4042C20.7036 41.3697 21.1223 41.2427 21.5 41.0317C21.8775 41.2427 22.2961 41.3698 22.7272 41.4045C23.2131 41.4448 23.7296 41.4655 24.2631 41.4655C25.4357 41.4695 26.6063 41.3676 27.7606 41.161C28.2302 41.076 28.6641 40.8537 29.0075 40.5222C29.1068 40.5517 29.2118 40.5778 29.3225 40.6006C29.742 40.6775 30.1681 40.7139 30.5946 40.7092C31.5983 40.7092 34.0156 40.4828 35.2149 39.5539C35.5743 39.6396 35.9431 39.68 36.3125 39.674C37.2969 39.674 40.2405 39.3458 40.8462 37.8952C41.2157 37.0037 41.6098 32.8063 40.6877 31.2375ZM39.9373 37.5175C39.5075 38.5478 35.1828 39.1581 34.9629 38.2427C34.9439 38.3139 34.9209 38.384 34.894 38.4527C34.4839 39.3977 31.1108 39.9522 29.5193 39.6372C29.0698 39.5453 28.7614 39.3878 28.7023 39.1516V39.1352C28.6411 39.4036 28.5014 39.6477 28.3009 39.8364C28.1005 40.0252 27.8484 40.15 27.5768 40.195C26.0036 40.4719 24.4017 40.5491 22.8092 40.4247C22.4581 40.3952 21.8806 40.2541 21.7132 39.8866C21.5984 39.6372 21.4015 39.6372 21.2867 39.8866C21.1193 40.2541 20.5418 40.3952 20.1907 40.4247C18.5982 40.5491 16.9963 40.4719 15.4231 40.195C15.1515 40.15 14.8994 40.0252 14.699 39.8364C14.4986 39.6477 14.3589 39.4036 14.2976 39.1352V39.1516C14.0187 40.2311 8.6309 39.6635 8.1059 38.4527C8.07903 38.384 8.05603 38.3139 8.03699 38.2427C7.81715 39.1581 3.49246 38.5478 3.06262 37.5175C2.7509 36.7661 2.46543 32.9205 3.16106 31.736C4.09949 30.1314 6.96731 31.0174 7.79746 33.2749C7.80779 33.3063 7.82837 33.3333 7.85589 33.3516C7.88342 33.3698 7.91629 33.3783 7.94923 33.3757C7.98218 33.373 8.01327 33.3594 8.03752 33.3369C8.06177 33.3145 8.07776 33.2845 8.08293 33.2519C8.15483 32.7402 8.30073 32.2417 8.51606 31.772C9.08371 30.6925 11.2592 30.6827 12.7259 31.772C13.4051 32.2774 13.7497 33.1731 14.0417 34.0295C14.0512 34.0595 14.0709 34.0852 14.0974 34.1021C14.1238 34.119 14.1554 34.1262 14.1866 34.1223C14.2178 34.1184 14.2466 34.1037 14.2681 34.0808C14.2895 34.0578 14.3023 34.0281 14.3042 33.9967C14.3272 33.6752 14.3567 33.3635 14.3895 33.1699C14.9998 29.6425 20.2629 30.5711 21.0767 34.0656C21.1456 34.3544 21.2047 34.653 21.2572 34.9516C21.2666 35.0091 21.2963 35.0614 21.3407 35.0992C21.3852 35.1369 21.4416 35.1576 21.5 35.1576C21.5583 35.1576 21.6147 35.1369 21.6592 35.0992C21.7037 35.0614 21.7333 35.0091 21.7428 34.9516C21.7953 34.653 21.8543 34.3544 21.9232 34.0656C22.737 30.5711 28.0001 29.6425 28.6104 33.1699C28.6268 33.2617 28.64 33.3831 28.6564 33.5177V33.5538C28.6728 33.6916 28.6859 33.8425 28.6957 33.9967C28.6976 34.0281 28.7104 34.0578 28.7319 34.0808C28.7533 34.1037 28.7822 34.1184 28.8134 34.1223C28.8445 34.1262 28.8761 34.119 28.9026 34.1021C28.929 34.0852 28.9487 34.0595 28.9583 34.0295C29.0337 33.813 29.1092 33.5931 29.1945 33.3799C29.4 32.755 29.7735 32.1988 30.274 31.772C31.7407 30.6827 33.9162 30.6925 34.4839 31.772C34.6992 32.2417 34.8451 32.7402 34.917 33.2519C34.9222 33.2845 34.9382 33.3145 34.9624 33.3369C34.9867 33.3594 35.0178 33.373 35.0507 33.3757C35.0836 33.3783 35.1165 33.3698 35.144 33.3516C35.1716 33.3333 35.1921 33.3063 35.2025 33.2749C36.0326 31.0174 38.9004 30.1314 39.8389 31.736C40.5345 32.9192 40.249 36.7648 39.9373 37.5162V37.5175Z" fill="#6C8B57"/>
</g>
<defs>
<clipPath id="clip0_167_765">
<rect width="42" height="42" fill="white" transform="translate(0.5)"/>
</clipPath>
</defs>
</svg>
