<svg width="161" height="354" viewBox="0 0 161 354" fill="none" xmlns="http://www.w3.org/2000/svg">
<path d="M81 353.983C50.0538 329.465 26.885 295.266 13.5863 256.139L89.9202 346.354C87.026 348.967 84.013 351.51 80.9852 353.965L81 353.983ZM103.827 332.394L3.38961 213.767C1.63822 201.859 0.777387 189.722 0.777387 177.428C0.777387 174.57 0.851574 171.711 0.910943 168.852L120.688 310.962C115.523 318.574 109.883 325.729 103.842 332.394H103.827ZM131.553 293.512L3.38961 141.475C5.06679 129.971 7.48608 118.781 10.7069 107.908L144.451 265.977C140.696 275.501 136.391 284.708 131.553 293.512ZM151.635 244.16L18.1577 86.3361C21.8534 77.2163 26.0835 68.3947 30.8479 59.9063L158.477 210.75C156.933 222.185 154.647 233.357 151.635 244.16ZM41.7273 42.5262C47.026 34.9147 52.7996 27.6891 59.0482 20.8668L157.468 137.196C159.545 150.297 160.629 163.696 160.629 177.428C160.629 179.252 160.629 181.076 160.555 182.988L41.7124 42.5438L41.7273 42.5262ZM73.0742 7.1346C75.5529 4.90727 78.18 2.76764 80.7922 0.628007C110.729 23.8834 133.23 56.4163 146.588 93.9475L73.0742 7.1346Z" fill="#FAF5F6"/>
</svg>
