<svg width="100" height="100" viewBox="0 0 100 100" fill="none" xmlns="http://www.w3.org/2000/svg">
<path d="M83.5647 73.5841C83.5647 73.5841 80.1985 73.6491 76.9918 74.3991C76.5914 74.4947 76.2448 74.7441 76.027 75.0934C75.8093 75.4427 75.7379 75.8637 75.8284 76.2653C76.0232 77.1039 76.8559 77.6236 77.6945 77.4287C80.4525 76.785 83.6238 76.72 83.6238 76.72L83.5647 73.59V73.5841ZM52.2649 34.6365C52.2649 34.6365 42.1958 41.3158 42.1958 54.6861C42.1958 68.0624 52.2649 74.7416 52.2649 74.7416C52.5214 74.9118 52.8223 75.0025 53.1301 75.0025C53.4378 75.0025 53.7388 74.9118 53.9952 74.7416C53.9952 74.7416 64.0643 68.1569 64.0643 54.6861C64.0643 41.3099 53.9952 34.6365 53.9952 34.6365C53.7388 34.4664 53.4378 34.3756 53.1301 34.3756C52.8223 34.3756 52.5214 34.4664 52.2649 34.6365ZM53.1271 37.9141C54.3614 39.0598 60.9344 44.4753 60.9344 54.6861C60.9374 57.8823 60.2399 61.0404 58.8911 63.9381C57.5422 66.8358 55.5748 69.4026 53.1271 71.4581C50.6767 69.405 48.7072 66.8386 47.3581 63.9404C46.009 61.0422 45.3132 57.8829 45.3199 54.6861C45.3199 44.4812 51.9224 39.0421 53.1271 37.9141Z" fill="white"/>
<path d="M71.7772 39.4023C71.7772 39.4023 65.6118 39.8039 59.6884 44.2095C59.6884 44.2095 61.5664 46.808 61.5605 46.7135C64.3215 44.6798 67.5078 43.2986 70.8796 42.6741C71.4524 44.3572 74.3226 52.3534 69.2673 61.1114C63.4503 71.1746 53.0269 71.8833 53.0269 71.8833C53.0269 71.8833 53.1981 74.8834 53.2336 74.9956C53.2336 74.9956 65.281 74.2515 71.9721 62.6646C78.6159 51.1664 73.2773 40.2646 73.2773 40.2646C73.1397 39.9893 72.924 39.7607 72.6572 39.6073C72.3904 39.454 72.0843 39.3827 71.7772 39.4023Z" fill="white"/>
<path d="M34.4771 39.4023C34.17 39.3827 33.8639 39.454 33.5971 39.6073C33.3303 39.7607 33.1146 39.9893 32.977 40.2646C32.977 40.2646 27.6088 51.1132 34.2763 62.6646C40.9673 74.2396 53.0325 75.0015 53.0325 75.0015C53.0148 75.0841 53.2392 71.8892 53.2392 71.8892C53.2392 71.8892 42.7922 71.1746 36.987 61.1173C35.3914 58.346 34.4204 55.2596 34.142 52.0739C33.8635 48.8883 34.2842 45.6802 35.3747 42.6741C36.2487 42.9103 40.3 43.4418 44.7056 46.7194C44.7765 46.684 46.5718 44.2154 46.5718 44.2154C40.6484 39.8039 34.483 39.4082 34.483 39.4082L34.4771 39.4023Z" fill="white"/>
<path d="M77.0153 7.9726C74.0743 8.64585 71.8715 11.4038 71.8715 14.7877C71.8715 16.7011 72.716 18.526 73.8203 20.3213C74.9247 22.1225 76.3361 23.8883 77.7417 25.4592C80.5587 28.5951 83.3579 30.9927 83.3579 30.9927C83.6412 31.2344 84.0014 31.3672 84.3737 31.3672C84.7461 31.3672 85.1062 31.2344 85.3895 30.9927C85.3895 30.9927 88.1946 28.5951 91.0057 25.4592C92.4113 23.8883 93.8404 22.1225 94.9389 20.3213C96.0432 18.526 96.8759 16.7011 96.8759 14.7877C96.8759 11.4038 94.6731 8.64585 91.738 7.9726C89.2695 7.40566 86.4702 8.30922 84.3737 10.7601C82.2772 8.31513 79.472 7.40566 77.0153 7.9726ZM77.724 11.014C79.224 10.6715 81.2319 11.2148 83.039 14.2208C83.6414 15.2247 85.106 15.2247 85.7143 14.2208C87.5214 11.2148 89.5234 10.6715 91.0293 11.014C92.5353 11.3624 93.7518 12.7089 93.7518 14.7877C93.7518 15.6913 93.2203 17.1381 92.2754 18.6854C91.3305 20.2327 90.0018 21.8863 88.673 23.3686C86.5293 25.7663 85.1651 26.9592 84.3737 27.7092C83.665 27.0242 82.2182 25.7663 80.0744 23.3686C78.7456 21.8922 77.4346 20.2386 76.4838 18.6854C75.533 17.1322 74.9956 15.6913 74.9956 14.7877C74.9956 12.7089 76.218 11.3624 77.7181 11.014H77.724ZM8.38599 1.77169C4.48827 2.68116 1.55908 6.31903 1.55908 10.8841C1.55908 13.4058 2.69296 15.9393 4.23433 18.461C5.76979 20.9827 7.77771 23.4749 9.76791 25.7072C12.2661 28.4857 14.9242 31.1162 17.7287 33.5853C18.3193 34.0873 19.1815 34.0873 19.772 33.5853C19.772 33.5853 23.7406 30.16 27.7269 25.7072C29.723 23.4749 31.725 20.9827 33.2664 18.461C34.8078 15.9393 35.9416 13.4058 35.9416 10.8841C35.9416 6.31312 33.0066 2.67526 29.1147 1.77169C25.6895 0.98034 21.8508 2.27367 18.7563 6.15367C15.6853 2.3032 11.8113 0.986245 8.38599 1.77169ZM9.09466 4.819C11.5455 4.25206 14.7641 5.32098 17.4039 9.72067C17.5427 9.95312 17.7395 10.1456 17.975 10.2792C18.2105 10.4128 18.4766 10.4831 18.7474 10.4831C19.0182 10.4831 19.2843 10.4128 19.5198 10.2792C19.7553 10.1456 19.9521 9.95312 20.0909 9.72067C22.7898 5.29145 25.9552 4.25206 28.412 4.819C30.8628 5.38594 32.8176 7.61236 32.8176 10.8782C32.8176 12.39 31.9908 14.5574 30.603 16.831C29.0667 19.2415 27.3239 21.5138 25.3942 23.6225C22.0752 27.3313 19.5772 29.5104 18.7504 30.2959C17.9295 29.5281 15.4137 27.3372 12.1006 23.6225C10.173 21.5136 8.43215 19.2412 6.89777 16.831C5.50995 14.5574 4.68316 12.39 4.68316 10.8782C4.68316 7.61236 6.63792 5.38594 9.09466 4.819ZM51.5266 23.4749C48.6328 23.5221 45.7627 23.782 43.4831 24.3725C29.6463 27.9513 20.3154 40.6425 20.3154 55.5838C20.3154 65.706 27.6088 72.592 33.7093 78.3559C37.9909 82.4012 39.6149 90.3738 39.0244 96.7224C39.0038 96.9395 39.0288 97.1585 39.0978 97.3653C39.1669 97.5722 39.2783 97.7623 39.4251 97.9235C39.5719 98.0848 39.7508 98.2136 39.9503 98.3017C40.1497 98.3898 40.3654 98.4352 40.5835 98.435H71.4935C72.2672 98.435 72.9227 97.874 73.0408 97.1063C73.4188 94.6082 73.7908 91.425 74.0152 87.8226H79.6964C81.7693 87.8226 83.2398 86.5824 83.8304 85.4367C84.4091 84.291 84.3796 83.1926 84.3796 83.1926V76.5074L85.0588 76.1826C85.3235 76.0551 85.5469 75.8557 85.7036 75.6071C85.8603 75.3585 85.9438 75.0709 85.9446 74.7771V69.0781L90.9998 67.838C91.2444 67.778 91.4708 67.66 91.66 67.4938C91.8492 67.3277 91.9955 67.1184 92.0865 66.8836C92.1775 66.6489 92.2105 66.3956 92.1828 66.1454C92.155 65.8951 92.0673 65.6553 91.927 65.4462L85.8915 56.5641C85.8265 49.6781 84.5745 42.4497 80.6945 36.4259C76.7023 30.2427 69.9344 25.4651 59.5464 23.906C56.8907 23.5513 54.2051 23.4071 51.5266 23.4749ZM51.5857 26.599C54.3141 26.5517 57.0779 26.7053 59.0799 27.0005C68.7533 28.4474 74.5231 32.6522 78.0547 38.1208C81.5803 43.5894 82.8146 50.4518 82.8146 57.1192C82.8146 57.4322 82.9091 57.7334 83.0804 57.9933L88.0647 65.3399L84.0076 66.332C83.6667 66.4155 83.3637 66.611 83.1474 66.8874C82.931 67.1637 82.8138 67.5047 82.8146 67.8557V73.7849C82.8146 73.7849 81.2792 75.5566 81.2496 75.5271V83.1985C81.2496 83.1985 81.226 83.6237 81.0311 84.0194C80.8303 84.4092 80.7417 84.6985 79.6905 84.6985H74.0743C73.2564 84.6974 72.4693 85.0106 71.8758 85.5734C71.2823 86.1361 70.9277 86.9054 70.8853 87.7222C70.7081 90.6809 70.3892 93.1022 70.0821 95.3109H42.243C42.5087 89.0037 40.8847 80.8303 35.8649 76.0822C29.7703 70.3242 23.4394 64.1883 23.4394 55.5897C23.4394 41.93 31.8254 30.6089 44.2686 27.3962C46.1289 26.912 48.8573 26.6462 51.5857 26.599Z" fill="white"/>
</svg>
