<svg width="512" height="512" viewBox="0 0 512 512" fill="none" xmlns="http://www.w3.org/2000/svg">
<g clip-path="url(#clip0_480_18)">
<path fill-rule="evenodd" clip-rule="evenodd" d="M384 512H128C94.0523 512 61.495 498.514 37.4903 474.51C13.4857 450.505 0 417.948 0 384V128C0 94.0523 13.4857 61.495 37.4903 37.4903C61.495 13.4857 94.0523 0 128 0L384 0C417.948 0 450.505 13.4857 474.51 37.4903C498.514 61.495 512 94.0523 512 128V384C512 417.948 498.514 450.505 474.51 474.51C450.505 498.514 417.948 512 384 512Z" fill="#2D0F1E"/>
<path fill-rule="evenodd" clip-rule="evenodd" d="M240 144H384C402.473 144.023 420.249 136.945 433.649 124.229C447.05 111.514 455.051 94.1338 455.996 75.6847C456.941 57.2355 450.759 39.1289 438.729 25.1101C426.698 11.0914 409.739 2.23321 391.36 0.368C388.912 0.232 386.488 0 384 0H128C94.0523 0 61.495 13.4857 37.4903 37.4903C13.4857 61.495 0 94.0523 0 128L0 384C0 320.348 25.2856 259.303 70.2944 214.294C115.303 169.286 176.348 144 240 144Z" fill="#501432"/>
<path fill-rule="evenodd" clip-rule="evenodd" d="M384 256C358.684 256 333.937 263.507 312.887 277.572C291.838 291.637 275.431 311.628 265.743 335.017C256.055 358.405 253.521 384.142 258.46 408.972C263.398 433.801 275.589 456.609 293.49 474.51C311.392 492.411 334.199 504.602 359.029 509.541C383.858 514.479 409.595 511.945 432.984 502.257C456.373 492.569 476.363 476.162 490.428 455.113C504.493 434.063 512 409.316 512 384V128C512 161.948 498.514 194.505 474.51 218.51C450.505 242.514 417.948 256 384 256Z" fill="black"/>
<path fill-rule="evenodd" clip-rule="evenodd" d="M272 112C272 107.757 273.686 103.687 276.686 100.686C279.687 97.6857 283.757 96 288 96H321.832C325.532 96.0008 329.117 97.2838 331.978 99.6307C334.838 101.978 336.797 105.243 337.52 108.872C340.416 123.305 348.224 136.287 359.616 145.61C371.009 154.932 385.28 160.017 400 160C404.244 160 408.313 161.686 411.314 164.686C414.314 167.687 416 171.757 416 176V208C416 212.243 414.314 216.313 411.314 219.314C408.313 222.314 404.244 224 400 224C377.528 224.033 355.447 218.118 336 206.856V336C336 358.152 329.431 379.806 317.125 398.224C304.818 416.642 287.326 430.998 266.861 439.475C246.395 447.952 223.876 450.17 202.15 445.848C180.424 441.526 160.468 430.859 144.804 415.196C129.141 399.532 118.474 379.576 114.152 357.85C109.831 336.124 112.049 313.605 120.526 293.139C129.003 272.674 143.358 255.182 161.776 242.875C180.194 230.569 201.849 224 224 224C228.244 224 232.313 225.686 235.314 228.686C238.314 231.687 240 235.757 240 240V272C240 276.243 238.314 280.313 235.314 283.314C232.313 286.314 228.244 288 224 288C214.507 288 205.226 290.815 197.333 296.089C189.439 301.364 183.287 308.86 179.654 317.631C176.021 326.402 175.07 336.053 176.922 345.364C178.774 354.675 183.346 363.228 190.059 369.941C196.772 376.654 205.325 381.226 214.636 383.078C223.947 384.93 233.598 383.979 242.369 380.346C251.14 376.713 258.636 370.561 263.911 362.667C269.185 354.774 272 345.494 272 336V112Z" fill="#FE2C55"/>
<path fill-rule="evenodd" clip-rule="evenodd" d="M256 96C256 91.7565 257.686 87.6869 260.686 84.6863C263.687 81.6857 267.757 80 272 80H305.832C309.532 80.0008 313.117 81.2838 315.978 83.6307C318.838 85.9777 320.797 89.2434 321.52 92.872C324.416 107.305 332.224 120.287 343.616 129.61C355.009 138.932 369.28 144.017 384 144C388.244 144 392.313 145.686 395.314 148.686C398.314 151.687 400 155.757 400 160V192C400 196.243 398.314 200.313 395.314 203.314C392.313 206.314 388.244 208 384 208C361.528 208.033 339.447 202.118 320 190.856V320C320 342.152 313.431 363.806 301.125 382.224C288.818 400.642 271.326 414.998 250.861 423.475C230.395 431.952 207.876 434.17 186.15 429.848C164.424 425.526 144.468 414.859 128.804 399.196C113.141 383.532 102.474 363.576 98.1521 341.85C93.8306 320.124 96.0485 297.605 104.526 277.139C113.003 256.674 127.358 239.182 145.776 226.875C164.194 214.569 185.849 208 208 208C212.244 208 216.313 209.686 219.314 212.686C222.314 215.687 224 219.757 224 224V256C224 260.243 222.314 264.313 219.314 267.314C216.313 270.314 212.244 272 208 272C198.507 272 189.226 274.815 181.333 280.089C173.439 285.364 167.287 292.86 163.654 301.631C160.021 310.402 159.07 320.053 160.922 329.364C162.774 338.675 167.346 347.228 174.059 353.941C180.772 360.654 189.325 365.226 198.636 367.078C207.947 368.93 217.598 367.979 226.369 364.346C235.14 360.713 242.636 354.561 247.911 346.667C253.185 338.774 256 329.494 256 320V96Z" fill="#25F4EE"/>
<path fill-rule="evenodd" clip-rule="evenodd" d="M183.008 360.992C188.456 369.934 196.679 376.85 206.423 380.685C216.166 384.519 226.897 385.062 236.978 382.231C247.059 379.4 255.938 373.35 262.261 365.003C268.584 356.657 272.004 346.471 272 336V112C272 107.757 273.686 103.687 276.686 100.686C279.687 97.6857 283.757 96 288 96H321.832L322.224 96.008C325.986 110.878 335.002 123.885 347.608 132.624C353.477 141.083 361.31 147.993 370.435 152.761C379.56 157.529 389.705 160.013 400 160V192C400 196.243 398.314 200.313 395.314 203.314C392.313 206.314 388.244 208 384 208C361.528 208.033 339.447 202.118 320 190.856V320C320.001 341.188 313.991 361.941 302.67 379.85C291.348 397.759 275.179 412.089 256.039 421.176C236.9 430.264 215.575 433.737 194.541 431.19C173.507 428.644 153.627 420.184 137.208 406.792C123.816 390.374 115.356 370.493 112.81 349.459C110.264 328.425 113.736 307.101 122.824 287.961C131.911 268.822 146.242 252.652 164.151 241.331C182.06 230.009 202.813 224 224 224V256C224 260.243 222.314 264.313 219.314 267.314C216.313 270.314 212.244 272 208 272C197.529 271.996 187.344 275.416 178.997 281.739C170.65 288.062 164.6 296.941 161.769 307.022C158.938 317.103 159.481 327.834 163.316 337.578C167.15 347.321 174.066 355.544 183.008 360.992Z" fill="white"/>
</g>
<defs>
<clipPath id="clip0_480_18">
<rect width="512" height="512" fill="white"/>
</clipPath>
</defs>
</svg>
