<svg width="49" height="48" viewBox="0 0 49 48" fill="none" xmlns="http://www.w3.org/2000/svg">
<g clip-path="url(#clip0_167_771)">
<path d="M0.792002 8.61676C0.791246 9.08208 0.894259 9.54172 1.09354 9.96221C1.29282 10.3827 1.58336 10.7535 1.944 11.0475L4.09725 12.81C3.83061 12.7701 3.56137 12.7501 3.29175 12.75C2.92438 12.7499 2.56628 12.8653 2.26821 13.0801C1.97014 13.2948 1.74722 13.5979 1.63104 13.9464C1.51487 14.295 1.51134 14.6712 1.62095 15.0218C1.73057 15.3725 1.94776 15.6797 2.24175 15.9L4.37925 17.5028C8.66829 20.7199 13.3576 23.3653 18.3293 25.3725L24.2063 32.7225C24.3235 32.8691 24.4915 32.9664 24.677 32.9951C24.8626 33.0239 25.0521 32.982 25.2082 32.8778L25.242 32.85L34.659 47.6528L35.925 46.8473L26.4367 31.9373C27.1574 31.3005 27.7881 30.5688 28.3117 29.7623C28.616 29.9155 28.9514 29.9969 29.292 30C29.4834 29.9992 29.674 29.974 29.859 29.925C30.0755 30.1823 30.3455 30.3894 30.6501 30.5319C30.9547 30.6743 31.2867 30.7488 31.623 30.75C31.9635 30.7512 32.2974 30.6569 32.5871 30.478C32.8767 30.299 33.1104 30.0425 33.2617 29.7375L33.3487 29.5635C33.3964 29.4795 33.464 29.4085 33.5455 29.3567C33.627 29.305 33.72 29.274 33.8163 29.2666C33.9126 29.2592 34.0092 29.2755 34.0977 29.3142C34.1862 29.3529 34.2638 29.4128 34.3237 29.4885L39.1807 36.4268C39.2492 36.5257 39.3405 36.6068 39.4469 36.663C39.5533 36.7193 39.6717 36.7491 39.792 36.75C39.9236 36.751 40.053 36.7168 40.167 36.651L40.542 36.4365L46.74 43.2548L47.85 42.2453L41.8267 35.619C43.7779 34.1704 45.1234 32.0506 45.6037 29.6685L46.842 30.6L47.742 29.4L45.786 27.933C45.786 27.8723 45.792 27.8115 45.792 27.75C45.792 27.6266 45.7616 27.505 45.7033 27.3962C45.6451 27.2873 45.5609 27.1945 45.4582 27.126L43.4332 25.776L42.5587 22.8593C42.1176 21.4057 41.3517 20.0714 40.319 18.9574C39.2863 17.8433 38.0138 16.9787 36.5977 16.4288L31.7115 14.55C30.8987 14.237 30.0125 14.1667 29.1605 14.3475C28.3084 14.5283 27.5272 14.9524 26.9115 15.5685L26.067 16.4168C25.526 15.0844 25.0877 13.7127 24.756 12.3135L22.8263 4.11901C22.6907 3.53967 22.3468 3.03042 21.86 2.68824C21.3733 2.34606 20.7777 2.19485 20.1867 2.26342C19.5956 2.33198 19.0505 2.61552 18.655 3.06004C18.2595 3.50457 18.0413 4.07902 18.042 4.67401C18.0421 6.09703 18.1598 7.51761 18.3938 8.92126L18.5805 10.0463C17.68 9.59764 16.8577 9.00682 16.1453 8.29651L9.624 1.77151C9.30116 1.44674 8.91711 1.18924 8.49407 1.01389C8.07104 0.838553 7.61743 0.748861 7.1595 0.750011C6.91429 0.749912 6.67147 0.798125 6.4449 0.891894C6.21833 0.985662 6.01245 1.12315 5.83903 1.2965C5.6656 1.46986 5.52803 1.67568 5.43417 1.90221C5.34031 2.12875 5.292 2.37155 5.292 2.61676V2.69176L4.7865 2.18626C4.45911 1.85942 4.04221 1.63693 3.58845 1.54687C3.13469 1.4568 2.66442 1.50322 2.23702 1.68024C1.80962 1.85727 1.44426 2.15697 1.18707 2.5415C0.929888 2.92603 0.792411 3.37815 0.792002 3.84076C0.791115 4.14829 0.851246 4.45294 0.968914 4.73707C1.08658 5.02119 1.25945 5.27915 1.4775 5.49601L2.733 6.75001C2.48197 6.74117 2.23172 6.78285 1.99711 6.8726C1.7625 6.96234 1.54831 7.09831 1.36726 7.27243C1.18622 7.44655 1.042 7.65527 0.943183 7.8862C0.844362 8.11714 0.792951 8.36557 0.792002 8.61676ZM26.9242 17.679L27.9742 16.629C28.3884 16.2245 28.9089 15.946 29.4752 15.8259C30.0415 15.7057 30.6303 15.7488 31.173 15.9503L36.0585 17.8253C37.2613 18.2921 38.3423 19.0264 39.2194 19.9726C40.0966 20.9188 40.7472 22.0521 41.1217 23.2868L42.0742 26.4615C42.1238 26.6285 42.2298 26.773 42.3742 26.8703L44.2807 28.1453C44.2127 29.5389 43.795 30.8931 43.0661 32.0829C42.3372 33.2728 41.3207 34.26 40.11 34.9538L40.0125 35.0093L35.5477 28.6343C35.3423 28.3411 35.0642 28.1063 34.7408 27.9528C34.4173 27.7994 34.0595 27.7325 33.7025 27.7588C33.3455 27.7851 33.0014 27.9037 32.7039 28.1029C32.4064 28.3021 32.1658 28.5751 32.0055 28.8953L31.9185 29.07C31.8907 29.1256 31.8479 29.1723 31.7948 29.2047C31.7418 29.237 31.6806 29.2538 31.6185 29.253C31.3984 29.2514 31.1878 29.1627 31.0329 29.0063C30.878 28.8498 30.7914 28.6384 30.792 28.4183C30.7919 27.8839 30.952 27.3617 31.2516 26.9192C31.5512 26.4767 31.9765 26.1341 32.4727 25.9358L35.5702 24.6968L35.0137 23.3033L31.917 24.5423C31.1423 24.8522 30.4782 25.387 30.0103 26.0779C29.5425 26.7687 29.2923 27.5839 29.292 28.4183C29.292 28.446 29.2995 28.4715 29.3002 28.4993H29.292C29.0931 28.4993 28.9023 28.4202 28.7617 28.2796C28.621 28.1389 28.542 27.9482 28.542 27.7493C28.5395 26.8962 28.7063 26.0512 29.0327 25.2631C29.359 24.4749 29.8385 23.7593 30.4432 23.1578C31.4003 22.1998 32.62 21.5472 33.948 21.2828L35.439 20.9828L35.142 19.515L33.6502 19.815C32.0319 20.1372 30.5456 20.9325 29.3797 22.1003C28.2526 23.2257 27.4902 24.6643 27.192 26.229C27.1429 26.2412 27.0926 26.2482 27.042 26.25C26.8431 26.25 26.6523 26.171 26.5117 26.0303C26.371 25.8897 26.292 25.6989 26.292 25.5C26.291 24.4698 26.5449 23.4554 27.0311 22.5471C27.5172 21.6388 28.2205 20.8649 29.0782 20.2943C29.9195 19.7325 30.8515 19.3202 31.833 19.0755L33.2235 18.7275L32.8605 17.2725L31.4692 17.6205C30.3202 17.9063 29.2292 18.3883 28.2442 19.0455C26.9835 19.8882 25.9984 21.083 25.4115 22.4813C25.2405 22.4479 25.086 22.3573 24.9734 22.2244C24.8608 22.0915 24.7968 21.9242 24.792 21.75C24.7909 20.92 25.0366 20.1084 25.4977 19.4183C25.9148 18.793 26.3926 18.2104 26.9242 17.679ZM2.88375 8.32501L9.33375 13.3403C9.48403 13.4635 9.67627 13.5236 9.86997 13.5079C10.0637 13.4921 10.2437 13.4018 10.3722 13.256C10.5006 13.1101 10.5674 12.9201 10.5585 12.726C10.5496 12.5319 10.4657 12.3488 10.3245 12.2153L2.538 4.43551C2.42032 4.31793 2.34017 4.16808 2.30768 4.00492C2.2752 3.84177 2.29185 3.67264 2.35553 3.51895C2.4192 3.36526 2.52704 3.23392 2.66539 3.14154C2.80375 3.04917 2.96639 2.99991 3.13275 3.00001C3.35559 3.00086 3.56918 3.0892 3.7275 3.24601L10.7618 10.2803C10.8952 10.4215 11.0784 10.5054 11.2725 10.5143C11.4666 10.5232 11.6566 10.4564 11.8025 10.3279C11.9483 10.1995 12.0386 10.0194 12.0543 9.82573C12.0701 9.63203 12.01 9.43979 11.8868 9.28951L6.867 2.84251C6.81792 2.77781 6.79156 2.69872 6.792 2.61751C6.79189 2.56926 6.80138 2.52146 6.81992 2.47691C6.83847 2.43236 6.86569 2.39194 6.9 2.35801C6.93355 2.3236 6.97368 2.29631 7.01801 2.27775C7.06234 2.2592 7.10995 2.24976 7.158 2.25001C7.41911 2.24932 7.67777 2.3004 7.91902 2.4003C8.16027 2.5002 8.37932 2.64693 8.5635 2.83201L15.0848 9.35701C16.2711 10.5409 17.7156 11.4337 19.305 11.9655C19.4276 12.006 19.5586 12.0142 19.6854 11.9892C19.8121 11.9642 19.9302 11.9069 20.0282 11.8229C20.1263 11.7388 20.201 11.6309 20.2451 11.5095C20.2892 11.3881 20.3012 11.2574 20.28 11.13L19.8713 8.67751C19.6516 7.35433 19.5415 6.01529 19.542 4.67401C19.5414 4.44699 19.6245 4.2277 19.7753 4.05799C19.9261 3.88828 20.1341 3.78003 20.3596 3.75388C20.5851 3.72773 20.8123 3.78552 20.998 3.91622C21.1836 4.04692 21.3146 4.24138 21.366 4.46251L23.292 12.657C23.697 14.3625 24.2524 16.0288 24.9517 17.6363C24.7043 17.943 24.4673 18.258 24.2483 18.5858C23.623 19.5225 23.2902 20.6238 23.292 21.75C23.2939 22.2452 23.4591 22.726 23.7621 23.1177C24.065 23.5095 24.4887 23.7903 24.9675 23.9168C24.8549 24.4371 24.7961 24.9676 24.792 25.5C24.792 26.0967 25.0291 26.669 25.451 27.091C25.873 27.513 26.4453 27.75 27.042 27.75C27.0428 28.0631 27.1092 28.3725 27.237 28.6583C26.6436 29.6551 25.8645 30.5288 24.942 31.2323L19.3815 24.2813C19.2999 24.1812 19.1941 24.1037 19.074 24.0563C14.1555 22.0886 9.51737 19.4819 5.27925 16.3035L3.14175 14.7C3.09962 14.6686 3.06846 14.6247 3.05272 14.5746C3.03698 14.5245 3.03745 14.4706 3.05406 14.4208C3.07068 14.3709 3.1026 14.3276 3.14527 14.2969C3.18795 14.2663 3.23921 14.2499 3.29175 14.25C3.98077 14.2513 4.65753 14.4323 5.25525 14.775L9.417 17.151C9.58029 17.2438 9.77246 17.272 9.95551 17.2299C10.1386 17.1879 10.2992 17.0787 10.4056 16.9239C10.512 16.7691 10.5565 16.5801 10.5302 16.3941C10.5039 16.2081 10.4089 16.0388 10.2638 15.9195L2.892 9.88726C2.70397 9.7333 2.55257 9.5394 2.44879 9.31965C2.345 9.09989 2.29145 8.85979 2.292 8.61676C2.29618 8.54995 2.31793 8.48542 2.35504 8.42971C2.39216 8.374 2.44332 8.32907 2.50336 8.29946C2.5634 8.26986 2.6302 8.25663 2.69699 8.26112C2.76378 8.26561 2.82821 8.28765 2.88375 8.32501Z" fill="#6C8B57"/>
</g>
<defs>
<clipPath id="clip0_167_771">
<rect width="48" height="48" fill="white" transform="translate(0.0419922)"/>
</clipPath>
</defs>
</svg>
