<svg xmlns="http://www.w3.org/2000/svg" version="1.1" xmlns:xlink="http://www.w3.org/1999/xlink" width="512" height="512" x="0" y="0" viewBox="0 0 500 500" style="enable-background:new 0 0 512 512" xml:space="preserve" class=""><g><path d="M140.692 138.571c-.061.036-.121.097-.169.133-.472.375-.931.762-1.379 1.149-.23.193-.472.375-.689.58a41.167 41.167 0 0 0-1.959 1.862 40.84 40.84 0 0 0-1.814 2.007c-.206.242-.399.496-.605.738-.363.459-.726.907-1.076 1.366-.048.073-.097.133-.145.194L14.825 32.305 0 2.329zM190.56 149.925a97.774 97.774 0 0 0-3.108 1.729c-.363.218-.725.423-1.076.641-.762.447-1.524.919-2.273 1.39-.302.194-.617.387-.919.58-.955.629-1.886 1.27-2.817 1.923-.363.254-.701.508-1.052.762a95.102 95.102 0 0 0-2.068 1.548c-.302.23-.617.46-.907.701a98.433 98.433 0 0 0-2.757 2.261c-.218.181-.435.375-.653.568-.435.375-.858.738-1.282 1.125-.314.278-.629.568-.943.858l-.762.725a80.42 80.42 0 0 0-2.709 2.648l-4.692 4.813-.097.097c-.858.883-1.681 1.778-2.503 2.685-.218.242-.447.496-.665.75l-.871.98c-.375.447-.75.895-1.124 1.354l-.508.617a98.746 98.746 0 0 0-2.201 2.817c-.23.314-.447.617-.677.931a64.06 64.06 0 0 0-1.487 2.092c-.242.363-.496.714-.75 1.088-.629.943-1.233 1.886-1.838 2.854-.194.314-.375.641-.581.967a135.78 135.78 0 0 0-1.294 2.237c-.218.375-.435.762-.641 1.137a100.79 100.79 0 0 0-1.572 2.999c-.024.048-.048.097-.072.133a33.31 33.31 0 0 1-3.325-2.817c-10.557-10.23-12.902-26.288-5.683-39.058 1.379-2.418 3.071-4.68 5.042-6.699s4.184-3.761 6.578-5.2a32.482 32.482 0 0 1 16.699-4.607 32.606 32.606 0 0 1 25.587 12.37zM425.281 402.591l-19.444 19.928-57.317-55.503 19.444-19.928zM295.29 170.724c-16.53-16.01-38.513-24.438-60.739-24.438-12.6 0-25.272 2.709-37.074 8.283v.012c-.048.012-.085.036-.133.061-1.004.484-2.007.98-2.999 1.499-.411.218-.81.435-1.221.653-.617.339-1.246.689-1.862 1.04-.46.266-.907.532-1.366.81-.556.338-1.112.677-1.657 1.016-.46.29-.919.581-1.366.883-.58.375-1.149.774-1.717 1.161-.399.278-.798.544-1.185.822a75.829 75.829 0 0 0-2.709 2.031c-.302.23-.605.484-.907.726a76.958 76.958 0 0 0-1.899 1.56c-.314.266-.629.544-.943.822a60.654 60.654 0 0 0-1.886 1.693c-.242.218-.471.423-.701.653a78.613 78.613 0 0 0-2.491 2.443l-4.704 4.813a95.493 95.493 0 0 0-2.406 2.576c-.193.218-.399.447-.593.677a86.745 86.745 0 0 0-1.669 1.947c-.266.314-.532.641-.798.967a73.198 73.198 0 0 0-1.475 1.898c-.254.326-.508.641-.75.967a86.433 86.433 0 0 0-1.935 2.733c-.29.411-.556.834-.834 1.258a124.73 124.73 0 0 0-1.076 1.681c-.29.472-.58.943-.858 1.415-.327.556-.653 1.1-.967 1.656-.266.472-.52.931-.774 1.403a53.77 53.77 0 0 0-.979 1.874c-.218.411-.423.81-.629 1.233a87.625 87.625 0 0 0-1.427 3.035c-.012.036-.036.085-.048.121h-.012c-14.535 32.903-6.917 71.839 18.973 96.907l120.655 116.846 125.807-128.915-120.643-116.822zm-2.987 218.227a3.635 3.635 0 0 1-2.6 1.088 3.634 3.634 0 0 1-2.527-1.016l-28.525-27.631-76.821-74.391c-13.229-12.818-20.666-30.025-20.919-48.453-.266-18.429 6.675-35.841 19.529-49.01l4.704-4.825c26.579-27.232 70.449-27.848 97.789-1.379l76.834 74.403 28.525 27.631c.689.665 1.088 1.584 1.1 2.551s-.363 1.899-1.028 2.588l-96.06 98.442zM499.998 375.468a15.789 15.789 0 0 1-4.522 11.318l-103.485 106.06c-6.155 6.312-16.312 6.445-22.649.314-3.059-2.963-4.789-6.941-4.849-11.197s1.548-8.271 4.522-11.33l39.481-40.46h.012l24.511-25.128s.012 0 .012-.012l39.469-40.448a16.01 16.01 0 0 1 11.488-4.825c4.027 0 8.066 1.499 11.173 4.51a15.8 15.8 0 0 1 4.837 11.197z" fill="#000000" opacity="1" data-original="#000000" class=""></path><path d="m380.625 288.042-90.994 93.255-23.313-22.576 90.993-93.255zM352.099 260.423l-90.993 93.243-74.234-71.888c-11.838-11.451-18.477-26.845-18.719-43.338-.23-16.482 5.973-32.056 17.485-43.834l4.692-4.813c12.128-12.431 28.259-18.67 44.402-18.67 15.562 0 31.137 5.804 43.157 17.425l74.21 71.876z" fill="#000000" opacity="1" data-original="#000000" class=""></path></g></svg>