<svg width="30" height="30" viewBox="0 0 30 30" fill="none" xmlns="http://www.w3.org/2000/svg">
<path d="M3.41981 27.99H3.35981C2.96981 27.96 2.69981 27.63 2.72981 27.27C3.11981 21.54 8.51981 17.07 14.9998 17.07C21.4798 17.07 26.8798 21.54 27.2698 27.24C27.2998 27.63 26.9998 27.93 26.6398 27.96C26.2498 27.99 25.9498 27.69 25.9198 27.33C25.5598 22.32 20.7598 18.42 14.9998 18.42C9.20981 18.42 4.40981 22.35 4.07981 27.36C4.04981 27.72 3.74981 27.99 3.41981 27.99ZM14.9998 15.69C11.2198 15.69 8.15981 12.63 8.15981 8.85001C8.15981 5.07001 11.2198 2.01001 14.9998 2.01001C18.7798 2.01001 21.8398 5.07001 21.8398 8.85001C21.8398 12.63 18.7798 15.69 14.9998 15.69ZM14.9998 3.39001C11.9998 3.39001 9.53981 5.85001 9.53981 8.85001C9.53981 11.85 11.9998 14.31 14.9998 14.31C17.9998 14.31 20.4598 11.85 20.4598 8.85001C20.4598 5.85001 17.9998 3.39001 14.9998 3.39001Z" fill="#6C8B57"/>
</svg>
