<svg width="18" height="18" viewBox="0 0 18 18" fill="none" xmlns="http://www.w3.org/2000/svg">
<path d="M11.6944 2.27012C11.0103 1.53148 10.0547 1.12473 9.00003 1.12473C7.93972 1.12473 6.98101 1.52902 6.30003 2.26308C5.61167 3.00523 5.27628 4.01387 5.35503 5.10301C5.51113 7.25175 7.14624 8.99972 9.00003 8.99972C10.8538 8.99972 12.4861 7.25211 12.6447 5.10371C12.7245 4.02441 12.387 3.01789 11.6944 2.27012Z" fill="white"/>
<path d="M15.1875 16.8739H2.81246C2.65048 16.876 2.49007 16.842 2.3429 16.7743C2.19573 16.7066 2.06549 16.607 1.96168 16.4826C1.73316 16.2095 1.64105 15.8365 1.70925 15.4592C2.00597 13.8132 2.93199 12.4305 4.38746 11.4599C5.6805 10.5982 7.31843 10.1239 8.99995 10.1239C10.6815 10.1239 12.3194 10.5985 13.6125 11.4599C15.0679 12.4302 15.9939 13.8129 16.2907 15.4589C16.3589 15.8361 16.2667 16.2091 16.0382 16.4823C15.9344 16.6067 15.8042 16.7064 15.6571 16.7742C15.5099 16.8419 15.3495 16.876 15.1875 16.8739Z" fill="white"/>
</svg>
