<svg width="49" height="48" viewBox="0 0 49 48" fill="none" xmlns="http://www.w3.org/2000/svg">
<g clip-path="url(#clip0_167_776)">
<path d="M31.8263 24.7267C31.7875 30.2119 28.745 35.8863 23.7345 38.427H24.3477C21.1347 36.7985 18.4808 33.5686 17.2358 30.2423C14.7677 23.6456 17.3236 16.5201 21.1786 11.0264C22.1601 9.6277 23.2396 8.24584 24.4711 7.05319H23.6112C25.162 8.55667 26.4915 10.3389 27.6588 12.1481C30.0829 15.9102 31.7942 20.2045 31.8263 24.7284C31.8314 25.5106 33.0477 25.5123 33.0426 24.7284C33.0088 20.0659 31.2959 15.6011 28.8176 11.7039C27.5743 9.74933 26.1418 7.81169 24.4727 6.19164C24.2346 5.96021 23.8528 5.96021 23.6129 6.19164C21.3729 8.3624 19.5011 11.067 18.0382 13.8054C15.4231 18.7043 14.0801 24.5544 15.8556 29.967C17.0364 33.5686 19.4977 36.6752 22.623 38.7987C23.1196 39.1365 23.7784 39.7176 24.3967 39.4558C25.2194 39.1061 25.9965 38.4456 26.6824 37.8932C30.6928 34.6632 33.0071 29.8825 33.0443 24.7301C33.0494 23.948 31.8331 23.9463 31.828 24.7301L31.8263 24.7267Z" fill="#6C8B57"/>
<path d="M24.4121 39.5602C28.757 39.0214 33.1897 37.6091 36.7069 34.94C40.8947 31.7624 42.9894 26.86 43.5976 21.7482C43.7496 20.4761 43.8425 19.1635 43.7479 17.8814C43.726 17.5705 43.4878 17.2496 43.1398 17.2732C39.7645 17.5063 36.3589 18.525 33.3283 19.993C32.6238 20.3342 33.2404 21.3833 33.9415 21.0437C36.766 19.6754 39.9892 18.7074 43.1381 18.4895L42.5299 17.8814C42.7479 20.8545 42.2022 24.0051 41.1852 26.7874C40.2629 29.3129 38.778 31.5985 36.7373 33.3605C34.8013 35.0329 32.4532 36.2104 30.0426 37.0314C28.2198 37.653 26.3227 38.1058 24.4104 38.3439C23.6435 38.4385 23.635 39.6565 24.4104 39.5602H24.4121Z" fill="#6C8B57"/>
<path d="M28.5998 40.6772C31.2959 41.3563 34.1238 41.5945 36.8588 40.9864C38.9924 40.5117 40.9993 39.5167 42.7629 38.2396C44.7411 36.807 46.6078 35.0113 47.9576 32.9588C48.1383 32.6851 48.0116 32.2848 47.7396 32.126C46.2108 31.2408 44.4996 30.6123 42.8136 30.1191C42.0602 29.8995 41.7392 31.0718 42.491 31.2914C44.084 31.7577 45.6854 32.3405 47.1264 33.175C47.0538 32.898 46.9811 32.6209 46.9085 32.3422C45.7159 34.1531 44.0536 35.7749 42.322 37.0604C40.7273 38.2446 38.9451 39.1923 37.0159 39.6941C34.3502 40.3884 31.5679 40.1671 28.9224 39.5015C28.1639 39.3106 27.8396 40.483 28.5998 40.6739V40.6772Z" fill="#6C8B57"/>
<path d="M23.6722 38.3439C19.6263 37.8422 15.4807 36.484 12.1883 34.0379C8.12718 31.0208 6.13211 26.1556 5.64728 21.2346C5.53747 20.1281 5.47159 18.9929 5.55268 17.8814L4.94453 18.4895C8.0934 18.7074 11.3166 19.6754 14.1411 21.0437C14.8422 21.3833 15.4605 20.3342 14.7543 19.993C11.7237 18.525 8.31807 17.5063 4.94284 17.2732C4.59822 17.2495 4.35665 17.5722 4.33469 17.8814C4.0948 21.1687 4.74012 24.7197 5.96994 27.757C7.0021 30.3062 8.55458 32.6087 10.6713 34.3825C12.6832 36.0668 15.0432 37.2729 17.5096 38.1362C19.503 38.8338 21.5741 39.3018 23.6688 39.5619C24.4442 39.6582 24.4375 38.4402 23.6688 38.3456L23.6722 38.3439Z" fill="#6C8B57"/>
<path d="M19.1614 39.5048C16.5193 40.1704 13.7302 40.3967 11.0679 39.6974C9.13871 39.1906 7.35818 38.2479 5.76178 37.0637C4.03024 35.7782 2.36796 34.1581 1.17531 32.3455C1.10267 32.6225 1.03003 32.8996 0.95739 33.1783C2.40006 32.3438 3.99983 31.761 5.59285 31.2947C6.34291 31.0751 6.02363 29.9011 5.27019 30.1224C3.58258 30.6156 1.87131 31.2441 0.344171 32.1293C0.0705035 32.2881 -0.0545053 32.6867 0.126251 32.9621C1.47601 35.0129 3.34269 36.8103 5.32087 38.2429C7.05241 39.4963 9.01539 40.4761 11.1051 40.961C13.8755 41.6046 16.749 41.3698 19.4857 40.6805C20.2442 40.4896 19.9233 39.3156 19.1631 39.5082L19.1614 39.5048Z" fill="#6C8B57"/>
</g>
<defs>
<clipPath id="clip0_167_776">
<rect width="48" height="35.3533" fill="white" transform="translate(0.0419922 6)"/>
</clipPath>
</defs>
</svg>
