<svg width="100" height="100" viewBox="0 0 100 100" fill="none" xmlns="http://www.w3.org/2000/svg">
<path d="M72.5 4C63.5417 4.01375 55.1498 8.38333 50 15.7131C47.4624 12.1009 44.0939 9.15145 40.1782 7.11303C36.2626 5.07461 31.9144 4.00696 27.5 4C12.85 4 0 17.6304 0 33.1667C0 48.3083 8.55 63.9031 24.7267 78.2667C32.2221 84.9088 40.4436 90.6832 49.235 95.4802C49.4716 95.6021 49.7339 95.6658 50 95.6658C50.2661 95.6658 50.5284 95.6021 50.765 95.4802C59.5535 90.6827 67.7723 84.9083 75.2652 78.2667C91.4502 63.9031 100 48.3083 100 33.1667C100 17.6304 87.15 4 72.5 4ZM50 92.1046C43.8785 88.7267 3.33333 65.1263 3.33333 33.1667C3.33333 19.4052 14.625 7.33333 27.5 7.33333C36.2223 7.34875 44.2625 12.0542 48.5481 19.6519C48.869 20.1417 49.4148 20.4365 50 20.4365C50.5852 20.4365 51.1312 20.1417 51.4519 19.6519C55.7373 12.0542 63.7777 7.34875 72.5 7.33333C85.375 7.33333 96.6667 19.4052 96.6667 33.1667C96.6667 65.1263 56.1215 88.7267 50 92.1046Z" fill="black"/>
</svg>
