<svg width="512" height="512" viewBox="0 0 512 512" fill="none" xmlns="http://www.w3.org/2000/svg">
<g clip-path="url(#clip0_477_18)">
<path d="M420.422 503.273C311.156 514.93 200.96 514.93 91.6946 503.273C70.4762 501.032 50.6669 491.586 35.5693 476.509C20.4716 461.433 10.9978 441.637 8.72733 420.422C-2.92994 311.156 -2.92994 200.96 8.72733 91.6945C10.968 70.4761 20.414 50.6668 35.4905 35.5691C50.567 20.4715 70.363 10.9977 91.5782 8.72721C200.844 -2.93007 311.04 -2.93007 420.305 8.72721C441.524 10.9679 461.333 20.4139 476.431 35.4904C491.528 50.5669 501.002 70.3629 503.273 91.5781C514.93 200.844 514.93 311.04 503.273 420.305C501.032 441.524 491.586 461.333 476.51 476.431C461.433 491.528 441.637 501.002 420.422 503.273Z" fill="#E60000"/>
<path d="M512 276.858C511.36 324.742 508.451 372.596 503.273 420.422C501.012 441.621 491.557 461.406 476.482 476.481C461.406 491.557 441.621 501.012 420.422 503.273C372.383 508.393 324.306 511.302 276.189 512L116.364 352C104.524 135.505 392 157.091 392 157.091L512 276.858Z" fill="#B50000"/>
<path d="M408.524 179.025C402.124 159.331 380.946 147.404 361.455 144.669C291.349 137.222 220.652 137.222 150.546 144.669C131.055 147.404 109.818 159.214 103.477 179.025C93.4987 229.867 93.4987 282.162 103.477 333.004C109.877 352.669 131.055 364.625 150.546 367.36C220.652 374.807 291.349 374.807 361.455 367.36C380.946 364.625 402.182 352.814 408.524 333.004C418.502 282.162 418.502 229.867 408.524 179.025ZM217.717 317.324V194.676L317.557 256C283.899 276.684 251.229 296.727 217.717 317.324Z" fill="white"/>
</g>
<defs>
<clipPath id="clip0_477_18">
<rect width="512" height="512" fill="white"/>
</clipPath>
</defs>
</svg>
