<svg width="32" height="22" viewBox="0 0 32 22" fill="none" xmlns="http://www.w3.org/2000/svg">
<path d="M21.3782 0C19.4776 0 17.6092 0.498663 15.9815 1.46402C14.3868 0.52823 12.5192 0 10.6218 0C4.76313 0 0 4.72611 0 10.5438C0 16.3615 4.76313 21.0909 10.6218 21.0909C12.5152 21.0909 14.3763 20.5954 16 19.6372C17.6237 20.5954 19.4848 21.0909 21.3782 21.0909C27.2369 21.0909 32 16.3615 32 10.5438C32 4.72611 27.2377 0 21.3782 0ZM16 18.5887C14.3216 17.4716 13.065 15.9133 12.3438 14.1304L16.4838 18.2411C16.3269 18.3602 16.1634 18.476 15.9992 18.588L16 18.5887ZM17.2381 17.605L11.7907 12.1996C11.6958 11.6571 11.649 11.104 11.649 10.5438C11.649 10.4135 11.653 10.2833 11.6563 10.1531L18.1526 16.6285C17.8724 16.9753 17.5665 17.3014 17.2389 17.605H17.2381ZM18.7418 15.8334L11.7907 8.90562C11.8817 8.38136 12.0129 7.87149 12.1875 7.37605L19.4414 14.5787C19.2377 15.0126 19.0043 15.4322 18.7418 15.8334ZM19.8309 13.5845L12.5917 6.39311C12.7921 5.97756 13.0215 5.57559 13.28 5.1888L20.2021 12.0622C20.1184 12.5833 19.9944 13.0923 19.8309 13.5845ZM13.87 4.39686C14.1574 4.05003 14.4706 3.72079 14.8094 3.40993L20.1473 8.7106C20.26 9.30755 20.3188 9.91813 20.3188 10.5438C20.3188 10.6269 20.3188 10.7101 20.3148 10.7972L13.8692 4.39766L13.87 4.39686ZM15.5701 2.7842C15.7046 2.6827 15.847 2.58521 15.9887 2.48772C17.6124 3.54738 18.8327 5.02978 19.5573 6.73993L15.5701 2.7842ZM0.891934 10.5438C0.891934 5.20319 5.24372 0.882246 10.6218 0.882246C12.231 0.882246 13.775 1.25465 15.1773 2.00344C12.4025 3.97731 10.7934 7.1411 10.7934 10.5438C10.7934 13.9466 12.4395 17.1103 15.1773 19.0842C13.7718 19.833 12.1949 20.2054 10.6218 20.2054C5.24372 20.2094 0.891934 15.8885 0.891934 10.5438ZM21.3782 20.2086C19.769 20.2086 18.225 19.8362 16.8227 19.0875C19.5975 17.1136 21.2067 13.9498 21.2067 10.547C21.2067 7.1443 19.5975 3.97731 16.8227 2.00664C18.2282 1.25784 19.769 0.885447 21.3782 0.885447C26.7563 0.885447 31.1081 5.20638 31.1081 10.547C31.1121 15.8877 26.7604 20.2086 21.3782 20.2086Z" fill="#2A0917"/>
</svg>
