<svg width="20" height="20" viewBox="0 0 20 20" fill="none" xmlns="http://www.w3.org/2000/svg">
<path fill-rule="evenodd" clip-rule="evenodd" d="M10.0004 6.66972C8.16105 6.66972 6.66972 8.16105 6.66972 10.0004C6.66972 11.8397 8.16105 13.3311 10.0004 13.3311C11.8397 13.3311 13.3311 11.8397 13.3311 10.0004C13.3311 8.16105 11.8397 6.66972 10.0004 6.66972ZM5.83105 10.0004C5.83105 7.69772 7.69772 5.83105 10.0004 5.83105C12.3031 5.83105 14.1697 7.69772 14.1697 10.0004C14.1697 12.3031 12.3031 14.1697 10.0004 14.1697C7.69772 14.1697 5.83105 12.3031 5.83105 10.0004Z" fill="black"/>
<path fill-rule="evenodd" clip-rule="evenodd" d="M0.359492 9.78423C2.54616 6.14356 6.03249 3.74756 10.0002 3.74756C13.9682 3.74756 17.4545 6.14356 19.6412 9.78423L19.7708 10.0002L19.6408 10.2162C17.4545 13.8569 13.9685 16.2529 10.0002 16.2529C6.03249 16.2529 2.54616 13.8569 0.359492 10.2162L0.229492 10.0002L0.359492 9.78423ZM1.21083 10.0002C3.28883 13.3276 6.47083 15.4142 10.0002 15.4142C13.5295 15.4142 16.7118 13.3276 18.7895 10.0002C16.7118 6.67289 13.5295 4.58623 10.0002 4.58623C6.47083 4.58623 3.28883 6.67289 1.21083 10.0002Z" fill="black"/>
<path d="M2.88135 4.2124L17.5688 14.564" stroke="black" stroke-linecap="round"/>
</svg>
