<svg width="19" height="20" viewBox="0 0 19 20" fill="none" xmlns="http://www.w3.org/2000/svg">
<g opacity="0.2">
<path fill-rule="evenodd" clip-rule="evenodd" d="M12.6426 6.48693C12.7583 6.55439 12.8603 6.64514 12.9427 6.754C13.0251 6.86286 13.0862 6.9877 13.1226 7.12138C13.1591 7.25505 13.17 7.39496 13.1549 7.53309C13.1398 7.67122 13.099 7.80488 13.0347 7.92642L10.2343 13.2187C10.17 13.3402 10.0835 13.4471 9.97979 13.5335C9.87607 13.6199 9.75717 13.684 9.62986 13.7221C9.50256 13.7603 9.36935 13.7717 9.23784 13.7558C9.10632 13.7399 8.97909 13.6969 8.86339 13.6293C8.74769 13.5618 8.64579 13.471 8.56352 13.3621C8.48125 13.2532 8.42021 13.1283 8.38389 12.9947C8.34758 12.861 8.33669 12.7211 8.35185 12.583C8.36701 12.4449 8.40793 12.3113 8.47227 12.1899L11.2716 6.89761C11.3359 6.77612 11.4224 6.66913 11.5262 6.58274C11.6299 6.49635 11.7488 6.43226 11.8761 6.39413C12.0034 6.35599 12.1366 6.34456 12.2681 6.36048C12.3996 6.37641 12.5269 6.41937 12.6426 6.48693Z" fill="#DBBFC5"/>
<path fill-rule="evenodd" clip-rule="evenodd" d="M5.76662 9.69152C5.93364 9.47252 6.17665 9.33211 6.44222 9.30115C6.7078 9.27018 6.97422 9.3512 7.18292 9.5264L9.98328 11.8783C10.0867 11.9651 10.1727 12.0726 10.2366 12.1944C10.3005 12.3162 10.3408 12.45 10.3554 12.5882C10.37 12.7264 10.3586 12.8662 10.3217 12.9998C10.2848 13.1333 10.2233 13.2579 10.1405 13.3665C10.0578 13.475 9.95551 13.5654 9.8395 13.6324C9.7235 13.6995 9.59606 13.7419 9.46445 13.7572C9.33284 13.7726 9.19964 13.7605 9.07246 13.7218C8.94528 13.6831 8.82661 13.6184 8.72322 13.5316L5.92287 11.1786C5.71429 11.0033 5.58057 10.7481 5.55108 10.4693C5.52159 10.1904 5.59976 9.91066 5.76662 9.69152Z" fill="#DBBFC5"/>
<path fill-rule="evenodd" clip-rule="evenodd" d="M10.5549 3.90958C10.4306 3.77915 10.262 3.70588 10.0862 3.70588C9.91041 3.70588 9.74181 3.77915 9.61744 3.90958C8.70315 4.86853 7.23946 5.45915 5.95219 5.39141C5.85933 5.38567 5.76637 5.40073 5.67947 5.43559C5.59258 5.47044 5.51373 5.52429 5.44816 5.59357C5.38477 5.65961 5.3349 5.73855 5.30162 5.82555C5.26834 5.91255 5.25234 6.00578 5.25462 6.09951C5.26873 6.8616 5.08627 7.62262 4.84636 8.24816C4.60644 8.87477 4.23548 9.55535 3.72239 10.0952C3.59816 10.2257 3.52839 10.4028 3.52839 10.5873C3.52839 10.7719 3.59816 10.9489 3.72239 11.0795C4.62257 12.0258 5.22841 13.515 5.25462 14.8539C5.25733 15.0335 5.32679 15.2048 5.44816 15.3313C5.56377 15.4542 5.71929 15.5268 5.88364 15.5345C6.59431 15.5716 7.30095 15.7917 7.89268 16.0669C8.48541 16.3432 9.11443 16.7454 9.61644 17.2736C9.7408 17.404 9.9094 17.4773 10.0852 17.4773C10.261 17.4773 10.4295 17.404 10.5539 17.2736C11.0569 16.7454 11.686 16.3432 12.2777 16.0669C12.8704 15.7917 13.5781 15.5716 14.2867 15.5345C14.4511 15.5268 14.6066 15.4542 14.7222 15.3313C14.8439 15.205 14.9138 15.0336 14.9167 14.8539C14.943 13.515 15.5478 12.0258 16.449 11.0795C16.5732 10.9489 16.643 10.7719 16.643 10.5873C16.643 10.4028 16.5732 10.2257 16.449 10.0952C15.9349 9.55535 15.5649 8.87477 15.325 8.24816C15.0851 7.62262 14.9016 6.8616 14.9167 6.09951C14.9189 6.00571 14.9027 5.91243 14.8693 5.82543C14.8358 5.73842 14.7858 5.65952 14.7222 5.59357C14.6568 5.52424 14.5782 5.47027 14.4915 5.43524C14.4048 5.4002 14.3119 5.3849 14.2192 5.39035C12.9309 5.45915 11.4672 4.86853 10.5549 3.90958ZM3.23953 6.14079C3.25465 6.94415 2.83833 8.03012 2.29701 8.59745C2.04805 8.85872 1.85056 9.16893 1.71581 9.51036C1.58107 9.85179 1.51172 10.2178 1.51172 10.5873C1.51172 10.9569 1.58107 11.3229 1.71581 11.6643C1.85056 12.0057 2.04805 12.316 2.29701 12.5772C2.83127 13.1361 3.22441 14.1056 3.23953 14.8973C3.25364 15.598 3.51473 16.2945 4.02379 16.828C4.49334 17.3223 5.1217 17.6148 5.78586 17.6483C6.58322 17.6906 7.62756 18.1775 8.19207 18.7702C8.44087 19.0315 8.73624 19.2387 9.06132 19.3801C9.3864 19.5215 9.73482 19.5942 10.0867 19.5942C10.4386 19.5942 10.787 19.5215 11.1121 19.3801C11.4371 19.2387 11.7325 19.0315 11.9813 18.7702C12.5458 18.1775 13.5902 17.6906 14.3875 17.6483C15.0517 17.6148 15.68 17.3223 16.1496 16.828C16.6388 16.3151 16.9196 15.6231 16.9328 14.8973C16.949 14.1056 17.3421 13.1361 17.8754 12.5762C18.1242 12.3149 18.3215 12.0048 18.4562 11.6634C18.5908 11.3221 18.6601 10.9563 18.6601 10.5868C18.6601 10.2173 18.5908 9.85151 18.4562 9.51017C18.3215 9.16884 18.1242 8.8587 17.8754 8.59745C17.335 8.03012 16.9177 6.94415 16.9338 6.14185C16.9414 5.76305 16.8759 5.38656 16.7411 5.0351C16.6063 4.68364 16.4051 4.36449 16.1496 4.09693C15.8848 3.81823 15.5671 3.60116 15.2171 3.45983C14.8672 3.31851 14.4928 3.25609 14.1184 3.27663C13.3986 3.31473 12.4904 2.94851 11.9813 2.41293C11.7325 2.15153 11.4371 1.94416 11.1119 1.80268C10.7867 1.6612 10.4382 1.58838 10.0862 1.58838C9.7342 1.58838 9.38566 1.6612 9.06049 1.80268C8.73532 1.94416 8.43988 2.15153 8.19106 2.41293C7.683 2.94745 6.77374 3.31473 6.054 3.27663C5.67973 3.25624 5.30557 3.31873 4.95581 3.46005C4.60604 3.60138 4.2885 3.81836 4.02379 4.09693C3.76843 4.36437 3.5673 4.68334 3.43251 5.03461C3.29772 5.38587 3.23208 5.76217 3.23953 6.14079Z" fill="#DBBFC5"/>
</g>
<path fill-rule="evenodd" clip-rule="evenodd" d="M11.3892 5.89117C11.447 5.92495 11.498 5.97035 11.5391 6.0248C11.5802 6.07925 11.6108 6.14168 11.6289 6.20851C11.6471 6.27535 11.6525 6.34529 11.6449 6.41433C11.6374 6.48338 11.6169 6.55018 11.5847 6.61092L8.78538 11.9032C8.75321 11.9639 8.70996 12.0174 8.65811 12.0606C8.60625 12.1038 8.5468 12.1358 8.48314 12.1549C8.41949 12.174 8.35289 12.1797 8.28713 12.1717C8.22137 12.1638 8.15776 12.1423 8.09991 12.1085C8.04206 12.0747 7.99111 12.0293 7.94997 11.9749C7.90884 11.9204 7.87832 11.858 7.86016 11.7912C7.842 11.7243 7.83656 11.6544 7.84414 11.5853C7.85172 11.5163 7.87218 11.4495 7.90434 11.3888L10.7037 6.09651C10.7359 6.03577 10.7791 5.98227 10.831 5.93908C10.8828 5.89588 10.9423 5.86384 11.0059 5.84477C11.0696 5.8257 11.1362 5.81999 11.2019 5.82795C11.2677 5.83591 11.3313 5.85739 11.3892 5.89117Z" fill="#14212A" fill-opacity="0.5"/>
<path fill-rule="evenodd" clip-rule="evenodd" d="M5.1516 8.96281C5.23511 8.85347 5.35651 8.78336 5.48917 8.76789C5.62183 8.75241 5.75493 8.79282 5.85925 8.88025L8.65961 11.2321C8.76401 11.3199 8.83094 11.4475 8.84569 11.5871C8.86043 11.7266 8.82178 11.8666 8.73824 11.9762C8.65469 12.0858 8.53309 12.1561 8.40019 12.1716C8.26729 12.1871 8.13398 12.1465 8.02958 12.0588L5.23023 9.70796C5.17852 9.66454 5.13547 9.61084 5.10353 9.54994C5.07159 9.48903 5.05139 9.42212 5.04409 9.35302C5.03679 9.28392 5.04252 9.21399 5.06097 9.14721C5.07942 9.08044 5.11022 9.01814 5.1516 8.96387" fill="#14212A" fill-opacity="0.5"/>
<path fill-rule="evenodd" clip-rule="evenodd" d="M3.22426 3.25899C3.06482 3.42579 2.93928 3.62483 2.85525 3.84406C2.77121 4.0633 2.73042 4.29815 2.73536 4.53442C2.74544 5.11657 2.60431 5.73259 2.39968 6.26604C2.19504 6.80056 1.8896 7.34778 1.49848 7.75952C1.34325 7.92248 1.22011 8.11596 1.13609 8.32889C1.05208 8.54183 1.00884 8.77006 1.00884 9.00055C1.00884 9.23104 1.05208 9.45927 1.13609 9.6722C1.22011 9.88514 1.34325 10.0786 1.49848 10.2416C2.2142 10.9941 2.71419 12.2241 2.73536 13.2889C2.74332 13.733 2.91176 14.1573 3.20656 14.4759C3.50136 14.7945 3.90047 14.9835 4.32303 15.0046C4.87746 15.0332 5.46111 15.2099 5.9732 15.4492C6.48428 15.6873 7.0004 16.0228 7.39253 16.4346C7.54774 16.5976 7.732 16.7269 7.9348 16.8151C8.13759 16.9033 8.35496 16.9487 8.57447 16.9487C8.79398 16.9487 9.01134 16.9033 9.21414 16.8151C9.41694 16.7269 9.6012 16.5976 9.7564 16.4346C10.1485 16.0228 10.6636 15.6873 11.1757 15.4481C11.6878 15.2099 12.2715 15.0332 12.8259 15.0046C13.2485 14.9837 13.6478 14.7948 13.9426 14.4762C14.2375 14.1575 14.4059 13.7331 14.4136 13.2889C14.4337 12.2241 14.9337 10.9941 15.6505 10.2405C15.9637 9.91145 16.1396 9.46525 16.1396 9.00002C16.1396 8.53479 15.9637 8.08859 15.6505 7.75952C15.2583 7.34778 14.9539 6.80056 14.7493 6.2671C14.5436 5.73259 14.4025 5.11551 14.4136 4.53442C14.4184 4.29808 14.3774 4.06317 14.2932 3.84394C14.209 3.6247 14.0833 3.4257 13.9237 3.25899C13.7587 3.08502 13.5607 2.94948 13.3426 2.86121C13.1244 2.77295 12.891 2.73393 12.6576 2.7467C11.6535 2.79962 10.4671 2.3212 9.7564 1.57499C9.6012 1.412 9.41694 1.2827 9.21414 1.19449C9.01134 1.10627 8.79398 1.06087 8.57447 1.06087C8.35496 1.06087 8.13759 1.10627 7.9348 1.19449C7.732 1.2827 7.54774 1.412 7.39253 1.57499C6.68186 2.3212 5.49539 2.79962 4.49137 2.7467C4.25774 2.73378 4.02413 2.77272 3.8058 2.86099C3.58746 2.94926 3.38931 3.08488 3.22426 3.25899ZM1.72731 4.55347C1.74243 5.35578 1.32611 6.4428 0.784785 7.01013C0.535978 7.27138 0.338613 7.58152 0.203959 7.92286C0.0693054 8.26419 0 8.63003 0 8.99949C0 9.36895 0.0693054 9.73479 0.203959 10.0761C0.338613 10.4175 0.535978 10.7276 0.784785 10.9888C1.31905 11.5488 1.71219 12.5183 1.72731 13.309C1.74142 14.0097 2.00251 14.7061 2.51157 15.2406C2.98112 15.735 3.60948 16.0275 4.27364 16.0609C5.071 16.1033 6.11534 16.5891 6.67984 17.1829C6.92865 17.4441 7.22402 17.6514 7.5491 17.7928C7.87418 17.9341 8.2226 18.0069 8.57447 18.0069C8.92633 18.0069 9.27475 17.9341 9.59983 17.7928C9.92491 17.6514 10.2203 17.4441 10.4691 17.1829C11.0336 16.5891 12.0779 16.1033 12.8753 16.0609C13.5395 16.0275 14.1678 15.735 14.6374 15.2406C15.1269 14.7276 15.4076 14.0351 15.4206 13.309C15.4367 12.5183 15.8299 11.5488 16.3631 10.9888C16.612 10.7276 16.8093 10.4175 16.944 10.0761C17.0786 9.73479 17.1479 9.36895 17.1479 8.99949C17.1479 8.63003 17.0786 8.26419 16.944 7.92286C16.8093 7.58152 16.612 7.27138 16.3631 7.01013C15.8228 6.4428 15.4055 5.35578 15.4216 4.55453C15.4294 4.17555 15.3638 3.79886 15.2291 3.44721C15.0943 3.09555 14.893 2.77624 14.6374 2.50855C14.3725 2.22985 14.0548 2.01278 13.7049 1.87146C13.3549 1.73013 12.9806 1.66771 12.6062 1.68825C11.8864 1.72635 10.9782 1.36013 10.4691 0.824554C10.2203 0.563148 9.92483 0.35578 9.59966 0.2143C9.27448 0.0728203 8.92595 0 8.57397 0C8.22198 0 7.87344 0.0728203 7.54827 0.2143C7.2231 0.35578 6.92766 0.563148 6.67884 0.824554C6.17078 1.36013 5.26152 1.72635 4.54178 1.68825C4.16751 1.66786 3.79335 1.73035 3.44358 1.87168C3.09382 2.013 2.77627 2.22999 2.51157 2.50855C2.25609 2.77611 2.05488 3.09526 1.92009 3.44672C1.7853 3.79818 1.71972 4.17467 1.72731 4.55347Z" fill="#14212A" fill-opacity="0.5"/>
</svg>
