<svg width="450" height="48" viewBox="0 0 450 48" fill="none" xmlns="http://www.w3.org/2000/svg">
<g clip-path="url(#clip0_167_199)">
<mask id="mask0_167_199" style="mask-type:luminance" maskUnits="userSpaceOnUse" x="0" y="0" width="450" height="48">
<path d="M449.887 0H0V47.191H449.887V0Z" fill="white"/>
</mask>
<g mask="url(#mask0_167_199)">
<path d="M47.8447 0C43.5921 0 39.4114 1.11576 35.7695 3.27576C32.2013 1.18192 28.0226 0 23.7772 0C10.6683 0 0.0107422 10.5747 0.0107422 23.592C0.0107422 36.6091 10.6683 47.191 23.7772 47.191C28.0136 47.191 32.1779 46.0824 35.8109 43.9385C39.444 46.0824 43.6082 47.191 47.8447 47.191C60.9535 47.191 71.6111 36.6091 71.6111 23.592C71.6111 10.5747 60.9553 0 47.8447 0ZM35.8109 41.5925C32.0555 39.0929 29.2438 35.6061 27.63 31.6168L36.8935 40.8147C36.5422 41.0811 36.1765 41.3403 35.8091 41.5908L35.8109 41.5925ZM38.5811 39.3913L26.3926 27.2968C26.1801 26.0828 26.0756 24.8454 26.0756 23.592C26.0756 23.3004 26.0845 23.009 26.0918 22.7176L40.6273 37.2064C40.0005 37.9824 39.3161 38.712 38.5829 39.3913H38.5811ZM41.9458 35.4273L26.3926 19.9264C26.5961 18.7534 26.8896 17.6125 27.2805 16.504L43.511 32.6199C43.0553 33.5909 42.533 34.5297 41.9458 35.4273ZM44.3827 30.3956L28.1847 14.3046C28.6332 13.3748 29.1466 12.4754 29.7248 11.61L45.2131 26.9892C45.0258 28.1552 44.7484 29.2942 44.3827 30.3956ZM31.045 9.83801C31.688 9.06199 32.3888 8.3253 33.147 7.62974L45.0905 19.4901C45.3427 20.8257 45.4743 22.1919 45.4743 23.592C45.4743 23.7779 45.4743 23.9639 45.4652 24.1588L31.0431 9.8398L31.045 9.83801ZM34.8491 6.22967C35.1499 6.00258 35.4686 5.78444 35.7857 5.5663C39.4187 7.93729 42.1492 11.2542 43.7704 15.0807L34.8491 6.22967ZM2.00645 23.592C2.00645 11.6422 11.7436 1.97403 23.7772 1.97403C27.3777 1.97403 30.8325 2.80729 33.9702 4.48272C27.7615 8.89928 24.161 15.9783 24.161 23.592C24.161 31.2056 27.8443 38.2845 33.9702 42.7011C30.8252 44.3766 27.2968 45.2098 23.7772 45.2098C11.7436 45.2188 2.00645 35.5507 2.00645 23.592ZM47.8447 45.2169C44.244 45.2169 40.7894 44.3837 37.6517 42.7084C43.8604 38.2918 47.4609 31.2128 47.4609 23.599C47.4609 15.9854 43.8604 8.89928 37.6517 4.48987C40.7965 2.81444 44.244 1.9812 47.8447 1.9812C59.8782 1.9812 69.6154 11.6493 69.6154 23.599C69.6245 35.5488 59.8873 45.2169 47.8447 45.2169Z" fill="#2A0917"/>
</g>
<path d="M429.401 17.0548H426.495V30.4444C426.495 30.5326 426.495 30.6499 426.495 30.7968C426.495 31.619 426.495 32.2503 426.495 32.6907C426.524 33.1311 426.553 33.7185 426.583 34.4525C426.612 35.1866 426.671 35.7592 426.758 36.1702C426.876 36.5813 427.01 37.0218 427.156 37.4916C427.303 37.9321 427.493 38.255 427.727 38.4607C427.992 38.6661 428.301 38.7689 428.653 38.7689C428.74 38.7689 428.815 38.7543 428.874 38.7249V39.2093C424.087 39.2093 421.694 34.981 421.694 26.5244V17.0548H419.403V16.6583H420.329C421.357 16.6583 422.311 16.3353 423.192 15.6894C424.102 15.014 424.776 14.3093 425.218 13.5752C425.658 12.8411 425.879 12.2392 425.879 11.7693H426.495V16.6583H429.401V17.0548Z" fill="#2A0917"/>
<path d="M419.705 38.637H412.702C413.435 38.0791 413.803 37.3596 413.803 36.4788V28.7269C413.803 24.7042 413.407 21.7384 412.613 19.8298C411.849 17.8918 410.631 16.9229 408.957 16.9229C408.489 16.9229 407.975 17.0403 407.417 17.2751C406.859 17.5101 406.271 17.8771 405.654 18.3764C405.039 18.8754 404.525 19.6389 404.113 20.6666C403.731 21.6944 403.54 22.8983 403.54 24.2783V36.4788C403.54 37.3596 403.908 38.0791 404.641 38.637H397.638C398.373 38.0791 398.739 37.3596 398.739 36.4788V19.2132C398.739 18.3029 398.373 17.5835 397.638 17.055H399.356C400.237 17.055 401.044 17.2898 401.779 17.7597C402.543 18.2296 403.129 18.8607 403.54 19.6535C405.185 17.5689 406.99 16.5264 408.957 16.5264C411.983 16.5264 414.345 17.6275 416.049 19.8298C417.752 22.0026 418.604 24.8215 418.604 28.2865V36.4788C418.604 37.3596 418.97 38.0791 419.705 38.637Z" fill="#2A0917"/>
<path d="M395.874 33.6595L396.27 33.8356C393.949 37.4179 390.94 39.2092 387.239 39.2092C384.039 39.2092 381.308 38.1081 379.048 35.9058C376.817 33.6742 375.701 30.9875 375.701 27.8456C375.701 24.7036 376.817 22.0316 379.048 19.8293C381.308 17.5977 384.039 16.482 387.239 16.482C388.326 16.482 389.37 16.6875 390.367 17.0986C391.365 17.5097 392.218 18.0969 392.923 18.8604C393.656 19.6239 394.141 20.5635 394.375 21.6792C394.64 22.7658 394.596 23.999 394.244 25.379C394.008 26.1718 393.583 26.9206 392.966 27.6253C392.378 28.3006 391.66 28.8733 390.807 29.343C389.956 29.7836 389.09 30.18 388.208 30.5322C387.357 30.8847 386.432 31.1783 385.434 31.4132C384.465 31.6481 383.658 31.8243 383.012 31.9417C382.365 32.0592 381.735 32.1474 381.118 32.206C381.676 33.9972 382.498 35.4654 383.584 36.6104C384.671 37.7263 385.889 38.3135 387.239 38.3724C390.794 38.666 393.671 37.095 395.874 33.6595ZM380.501 27.8456C380.501 29.2256 380.678 30.5617 381.03 31.8536C381.617 31.7361 382.219 31.604 382.835 31.4572C383.452 31.2811 384.201 31.0021 385.082 30.6204C385.992 30.2093 386.799 29.7394 387.504 29.2109C388.239 28.6824 388.915 27.9924 389.53 27.1409C390.147 26.2599 390.573 25.291 390.807 24.2339C391.013 23.5291 391.057 22.7658 390.94 21.9435C390.823 21.092 390.617 20.2992 390.324 19.5651C390.059 18.8311 389.619 18.229 389.002 17.7593C388.385 17.2601 387.666 17.0105 386.843 17.0105C385.699 17.0105 384.686 17.3922 383.805 18.1557C382.953 18.919 382.293 19.8881 381.823 21.0627C381.383 22.2078 381.044 23.3676 380.81 24.5422C380.604 25.6874 380.501 26.7885 380.501 27.8456Z" fill="#2A0917"/>
<path d="M367.274 38.637C368.007 38.0791 368.375 37.3596 368.375 36.4788V28.7269C368.375 24.7921 367.92 21.8412 367.01 19.8738C366.1 17.9065 364.793 16.9229 363.089 16.9229C362.297 16.9229 361.446 17.2311 360.534 17.8478C359.655 18.4643 358.95 19.4481 358.421 20.7988C358.097 21.6209 358.084 22.4579 358.377 23.3093C358.935 24.8363 359.213 26.4952 359.213 28.2865V36.4788C359.213 37.3596 359.581 38.0791 360.315 38.637H353.313C354.046 38.0791 354.413 37.3596 354.413 36.4788V28.7269C354.413 24.7921 353.958 21.8412 353.048 19.8738C352.138 17.9065 350.83 16.9229 349.128 16.9229C348.629 16.9229 348.1 17.0255 347.542 17.2311C347.013 17.4367 346.441 17.789 345.824 18.2882C345.207 18.7874 344.693 19.5509 344.282 20.5785C343.901 21.6062 343.709 22.8394 343.709 24.2783V36.4788C343.709 37.3596 344.077 38.0791 344.811 38.637H337.809C338.542 38.0791 338.909 37.3596 338.909 36.4788V19.2132C338.909 18.3029 338.542 17.5835 337.809 17.055H339.526C340.113 17.055 340.67 17.1725 341.2 17.4073C341.757 17.6129 342.241 17.9065 342.652 18.2882C343.094 18.6699 343.446 19.125 343.709 19.6535C345.354 17.5689 347.161 16.5264 349.128 16.5264C352.387 16.5264 354.956 17.7743 356.835 20.2702C357.629 19.1545 358.642 18.2589 359.874 17.5835C361.138 16.8787 362.208 16.5264 363.089 16.5264C365.115 16.5264 366.892 17.0403 368.419 18.0679C369.976 19.0957 371.151 20.4905 371.943 22.2523C372.765 24.014 373.177 26.0255 373.177 28.2865V36.4788C373.177 37.3596 373.542 38.0791 374.277 38.637H367.274Z" fill="#2A0917"/>
<path d="M336.925 17.0548H334.018V30.4444C334.018 30.5326 334.018 30.6499 334.018 30.7968C334.018 31.619 334.018 32.2503 334.018 32.6907C334.047 33.1311 334.077 33.7185 334.106 34.4525C334.136 35.1866 334.195 35.7592 334.283 36.1702C334.401 36.5813 334.532 37.0218 334.679 37.4916C334.825 37.9321 335.016 38.255 335.252 38.4607C335.516 38.6661 335.825 38.7689 336.177 38.7689C336.265 38.7689 336.337 38.7543 336.396 38.7249V39.2093C331.61 39.2093 329.217 34.981 329.217 26.5244V17.0548H326.928V16.6583H327.851C328.879 16.6583 329.833 16.3353 330.715 15.6894C331.625 15.014 332.301 14.3093 332.741 13.5752C333.181 12.8411 333.401 12.2392 333.401 11.7693H334.018V16.6583H336.925V17.0548Z" fill="#2A0917"/>
<path d="M326.002 26.6563V36.4783C326.002 37.3593 326.369 38.0786 327.103 38.6366H326.002C324.475 38.6366 323.285 38.1814 322.434 37.2711C321.612 36.3608 321.2 35.2158 321.2 33.8356V33.4834C320.349 35.4507 319.218 36.9042 317.809 37.8438C316.429 38.7541 314.976 39.2092 313.449 39.2092C313.097 39.2092 312.758 39.1798 312.436 39.121C310.616 38.8862 309.103 38.1814 307.899 37.0069C306.725 35.8323 306.254 34.2908 306.49 32.3821C306.607 31.5893 306.827 30.87 307.151 30.224C307.503 29.5486 307.958 28.9761 308.516 28.5062C309.074 28.007 309.647 27.5813 310.234 27.2289C310.85 26.8766 311.57 26.5682 312.393 26.3039C313.213 26.0397 313.948 25.8195 314.594 25.6433C315.241 25.4671 315.989 25.3057 316.84 25.1589C317.486 25.0121 318.015 24.8946 318.426 24.8065C319.866 24.454 320.511 23.3676 320.364 21.5471C320.334 21.048 320.203 20.5342 319.968 20.0056C319.763 19.4476 319.483 18.9485 319.131 18.508C318.778 18.0383 318.339 17.6565 317.809 17.3629C317.311 17.0692 316.768 16.9224 316.18 16.9224C315.475 16.9224 314.786 17.0987 314.11 17.4509C313.434 17.8033 312.817 18.3172 312.259 18.9925C311.702 19.6385 311.218 20.402 310.807 21.2828L308.648 19.2568C309.676 18.4053 310.85 17.7298 312.172 17.2308C313.522 16.7316 314.858 16.482 316.18 16.482C319.234 16.482 321.627 17.3629 323.359 19.1247C325.121 20.8571 326.002 23.3676 326.002 26.6563ZM321.2 30.6204V27.8456C321.2 26.3774 321.113 25.0267 320.937 23.7934C320.437 24.5275 319.102 25.1147 316.928 25.5553C314.902 25.937 313.316 26.7738 312.172 28.0658C311.026 29.3284 310.395 30.8407 310.277 32.6024C310.19 33.5713 310.234 34.4083 310.411 35.113C310.586 35.8176 310.894 36.405 311.334 36.8747C311.804 37.3153 312.406 37.6089 313.141 37.7557C316.018 38.3429 318.249 37.4621 319.835 35.113C320.745 33.7916 321.2 32.2942 321.2 30.6204Z" fill="#2A0917"/>
<path d="M304.943 33.6595L305.341 33.8356C303.02 37.4179 300.01 39.2092 296.311 39.2092C293.11 39.2092 290.38 38.1081 288.118 35.9058C285.887 33.6742 284.771 30.9875 284.771 27.8456C284.771 24.7036 285.887 22.0316 288.118 19.8293C290.38 17.5977 293.11 16.482 296.311 16.482C297.398 16.482 298.44 16.6875 299.439 17.0986C300.437 17.5097 301.288 18.0969 301.992 18.8604C302.727 19.6239 303.213 20.5635 303.447 21.6792C303.711 22.7658 303.668 23.999 303.314 25.379C303.079 26.1718 302.653 26.9206 302.038 27.6253C301.45 28.3006 300.73 28.8733 299.879 29.343C299.028 29.7836 298.161 30.18 297.28 30.5322C296.429 30.8847 295.504 31.1783 294.506 31.4132C293.537 31.6481 292.729 31.8243 292.082 31.9417C291.437 32.0592 290.806 32.1474 290.19 32.206C290.747 33.9972 291.57 35.4654 292.655 36.6104C293.742 37.7263 294.961 38.3135 296.311 38.3724C299.864 38.666 302.742 37.095 304.943 33.6595ZM289.573 27.8456C289.573 29.2256 289.748 30.5617 290.1 31.8536C290.688 31.7361 291.29 31.604 291.907 31.4572C292.524 31.2811 293.272 31.0021 294.154 30.6204C295.064 30.2093 295.871 29.7394 296.575 29.2109C297.31 28.6824 297.984 27.9924 298.601 27.1409C299.218 26.2599 299.645 25.291 299.879 24.2339C300.084 23.5291 300.128 22.7658 300.01 21.9435C299.894 21.092 299.688 20.2992 299.395 19.5651C299.131 18.8311 298.689 18.229 298.074 17.7593C297.457 17.2601 296.737 17.0105 295.915 17.0105C294.77 17.0105 293.757 17.3922 292.876 18.1557C292.025 18.919 291.364 19.8881 290.894 21.0627C290.454 22.2078 290.115 23.3676 289.881 24.5422C289.675 25.6874 289.573 26.7885 289.573 27.8456Z" fill="#2A0917"/>
<path d="M278.973 16.5264C280.353 16.5264 281.587 16.776 282.674 17.2751C283.759 17.7743 284.611 18.4643 285.227 19.3453L283.289 21.2833C283.173 20.696 282.908 20.0794 282.497 19.4334C282.086 18.7581 281.558 18.1707 280.911 17.6715C280.294 17.1725 279.649 16.9229 278.973 16.9229C278.504 16.9229 277.99 17.0403 277.432 17.2751C276.875 17.4807 276.286 17.8332 275.67 18.3322C275.054 18.8314 274.54 19.6096 274.129 20.6666C273.746 21.6944 273.556 22.8983 273.556 24.2783V36.4788C273.556 37.3596 273.923 38.0791 274.657 38.637H267.654C268.389 38.0791 268.754 37.3596 268.754 36.4788V19.2132C268.754 18.3029 268.389 17.5835 267.654 17.055H269.371C271.045 17.055 272.338 17.745 273.248 19.125C273.335 19.2425 273.453 19.316 273.6 19.3453C273.747 19.3453 273.864 19.3013 273.952 19.2132C275.509 17.4219 277.183 16.5264 278.973 16.5264Z" fill="#2A0917"/>
<path d="M269.607 12.7385C269.402 11.9751 268.566 11.0942 267.098 10.0959C265.659 9.09749 263.897 8.59833 261.812 8.59833H259.08C259.933 8.98004 260.607 9.56731 261.108 10.3601C261.635 11.1236 261.9 11.9898 261.9 12.9588V36.8311C261.9 37.7414 262.268 38.4608 263.001 38.9894H255.998C256.733 38.4608 257.1 37.7414 257.1 36.8311V8.59833C255.044 8.62769 253.296 9.14155 251.859 10.1399C250.419 11.1089 249.597 11.9751 249.391 12.7385V8.15787H269.607V12.7385Z" fill="#2A0917"/>
<path d="M234.986 26.6563V36.4783C234.986 37.3593 235.353 38.0786 236.088 38.6366H234.986C233.459 38.6366 232.271 38.1814 231.419 37.2711C230.597 36.3608 230.186 35.2158 230.186 33.8356V33.4834C229.335 35.4507 228.204 36.9042 226.795 37.8438C225.414 38.7541 223.96 39.2092 222.433 39.2092C222.081 39.2092 221.744 39.1798 221.42 39.121C219.6 38.8862 218.088 38.1814 216.885 37.0069C215.71 35.8323 215.24 34.2908 215.474 32.3821C215.592 31.5893 215.813 30.87 216.135 30.224C216.487 29.5486 216.942 28.9761 217.5 28.5062C218.058 28.007 218.631 27.5813 219.219 27.2289C219.836 26.8766 220.554 26.5682 221.376 26.3039C222.199 26.0397 222.934 25.8195 223.579 25.6433C224.225 25.4671 224.973 25.3057 225.826 25.1589C226.471 25.0121 227 24.8946 227.41 24.8065C228.849 24.454 229.495 23.3676 229.348 21.5471C229.319 21.048 229.186 20.5342 228.952 20.0056C228.746 19.4476 228.468 18.9485 228.116 18.508C227.764 18.0383 227.322 17.6565 226.795 17.3629C226.294 17.0692 225.751 16.9224 225.165 16.9224C224.46 16.9224 223.769 17.0987 223.094 17.4509C222.419 17.8033 221.803 18.3172 221.245 18.9925C220.687 19.6385 220.201 20.402 219.79 21.2828L217.633 19.2568C218.661 18.4053 219.836 17.7298 221.157 17.2308C222.507 16.7316 223.844 16.482 225.165 16.482C228.219 16.482 230.61 17.3629 232.343 19.1247C234.106 20.8571 234.986 23.3676 234.986 26.6563ZM230.186 30.6204V27.8456C230.186 26.3774 230.098 25.0267 229.921 23.7934C229.422 24.5275 228.086 25.1147 225.913 25.5553C223.887 25.937 222.301 26.7738 221.157 28.0658C220.011 29.3284 219.379 30.8407 219.263 32.6024C219.175 33.5713 219.219 34.4083 219.394 35.113C219.571 35.8176 219.88 36.405 220.319 36.8747C220.79 37.3153 221.391 37.6089 222.125 37.7557C225.003 38.3429 227.235 37.4621 228.821 35.113C229.731 33.7916 230.186 32.2942 230.186 30.6204Z" fill="#2A0917"/>
<path d="M202.215 38.6366H195.212C195.74 38.0788 195.829 37.3594 195.475 36.4785L191.819 26.9208C191.644 26.4802 191.336 26.1866 190.896 26.0398C190.485 25.893 190.087 25.937 189.706 26.172C189.325 26.3776 188.958 26.5684 188.605 26.7445V36.4785C188.605 37.3888 188.971 38.1081 189.706 38.6366H182.703C183.436 38.1081 183.804 37.3888 183.804 36.4785V9.91939C183.804 9.03851 183.436 8.33378 182.703 7.80524H188.605V26.2601C190.748 25.1442 192.569 23.9697 194.066 22.7365C195.007 21.9437 195.726 21.0041 196.225 19.9177C196.753 18.8018 197.002 17.6714 196.973 16.5261H199.837C199.865 16.9665 199.734 17.4657 199.439 18.0236C199.146 18.5521 198.662 19.1395 197.986 19.7855C197.341 20.4315 196.796 20.9601 196.356 21.3711C195.917 21.7529 195.315 22.2519 194.551 22.8686C194.346 23.0447 194.199 23.1622 194.11 23.221C193.67 23.5733 193.186 23.9403 192.657 24.3221C193.097 24.2339 193.539 24.2486 193.978 24.3661C194.418 24.4542 194.814 24.645 195.168 24.9388C195.549 25.2324 195.829 25.5995 196.004 26.0398L200.277 36.4785C200.629 37.3888 201.274 38.1081 202.215 38.6366Z" fill="#2A0917"/>
<path d="M181.155 33.6595L181.551 33.8356C179.232 37.4179 176.221 39.2092 172.522 39.2092C169.321 39.2092 166.59 38.1081 164.329 35.9058C162.097 33.6742 160.981 30.9875 160.981 27.8456C160.981 24.7036 162.097 22.0316 164.329 19.8293C166.59 17.5977 169.321 16.482 172.522 16.482C175.37 16.482 177.88 17.4069 180.052 19.2568L177.895 21.2828C177.25 19.9321 176.456 18.8751 175.517 18.1116C174.576 17.3188 173.579 16.9224 172.522 16.9224C170.643 16.9224 169.042 17.9941 167.72 20.1378C166.428 22.2519 165.782 24.8211 165.782 27.8456C165.782 30.8112 166.428 33.2778 167.72 35.2451C169.013 37.1831 170.612 38.2256 172.522 38.3724C176.075 38.666 178.952 37.095 181.155 33.6595Z" fill="#2A0917"/>
<path d="M159.518 33.6595L159.914 33.8356C157.594 37.4179 154.585 39.2092 150.885 39.2092C147.684 39.2092 144.954 38.1081 142.693 35.9058C140.461 33.6742 139.345 30.9875 139.345 27.8456C139.345 24.7036 140.461 22.0316 142.693 19.8293C144.954 17.5977 147.684 16.482 150.885 16.482C151.972 16.482 153.014 16.6875 154.012 17.0986C155.011 17.5097 155.862 18.0969 156.567 18.8604C157.301 19.6239 157.785 20.5635 158.02 21.6792C158.285 22.7658 158.24 23.999 157.888 25.379C157.653 26.1718 157.228 26.9206 156.611 27.6253C156.024 28.3006 155.304 28.8733 154.453 29.343C153.601 29.7836 152.735 30.18 151.854 30.5322C151.002 30.8847 150.077 31.1783 149.079 31.4132C148.11 31.6481 147.303 31.8243 146.657 31.9417C146.011 32.0592 145.379 32.1474 144.763 32.206C145.321 33.9972 146.143 35.4654 147.229 36.6104C148.316 37.7263 149.534 38.3135 150.885 38.3724C154.438 38.666 157.316 37.095 159.518 33.6595ZM144.146 27.8456C144.146 29.2256 144.322 30.5617 144.675 31.8536C145.262 31.7361 145.864 31.604 146.48 31.4572C147.097 31.2811 147.846 31.0021 148.727 30.6204C149.637 30.2093 150.445 29.7394 151.149 29.2109C151.883 28.6824 152.559 27.9924 153.175 27.1409C153.792 26.2599 154.218 25.291 154.453 24.2339C154.658 23.5291 154.702 22.7658 154.585 21.9435C154.467 21.092 154.262 20.2992 153.968 19.5651C153.704 18.8311 153.264 18.229 152.647 17.7593C152.03 17.2601 151.311 17.0105 150.489 17.0105C149.343 17.0105 148.33 17.3922 147.45 18.1557C146.598 18.919 145.937 19.8881 145.468 21.0627C145.027 22.2078 144.689 23.3676 144.454 24.5422C144.249 25.6874 144.146 26.7885 144.146 27.8456Z" fill="#2A0917"/>
<path d="M137.832 38.6366H130.829C131.563 38.0788 131.93 37.3594 131.93 36.4785V28.7265C131.93 25.9664 131.797 23.7496 131.533 22.0758C131.269 20.402 130.814 19.1248 130.168 18.2439C129.522 17.3629 128.641 16.9225 127.525 16.9225C127.055 16.9225 126.556 17.04 126.028 17.275C125.499 17.4804 124.956 17.8475 124.398 18.376C123.84 18.8752 123.341 19.6387 122.9 20.6663C122.489 21.6941 122.225 22.8979 122.108 24.2781V36.4785C122.108 37.3594 122.475 38.0788 123.209 38.6366H116.206C116.94 38.0788 117.307 37.3594 117.307 36.4785V9.96345C117.307 9.05319 116.94 8.33378 116.206 7.80524H122.108V19.6534C123.752 17.5686 125.558 16.5261 127.525 16.5261C130.52 16.5261 132.796 17.6125 134.352 19.7855C135.938 21.929 136.731 24.7625 136.731 28.2861V36.4785C136.731 37.3594 137.098 38.0788 137.832 38.6366Z" fill="#2A0917"/>
<path d="M106.511 8.2017C104.867 7.96681 103.267 8.45129 101.711 9.65518C100.154 10.8591 98.8184 12.5915 97.7026 14.8525C96.5867 17.1135 95.8527 19.6387 95.5003 22.4282C94.9425 26.6272 95.4857 30.2242 97.1299 33.2193C98.8037 36.1849 101.094 37.8733 104.001 38.2844C106.174 38.578 108.273 38.0641 110.299 36.7428C112.355 35.4214 113.808 33.8065 114.66 31.8979L115.056 32.074C114.175 34.0707 112.766 35.8178 110.828 37.3155C108.919 38.8129 106.805 39.5617 104.485 39.5617C101.96 39.5617 99.6258 38.8569 97.4823 37.4476C95.3682 36.0088 93.6944 34.0707 92.4612 31.6337C91.228 29.1671 90.6113 26.4951 90.6113 23.6174C90.6113 20.7104 91.228 18.0384 92.4612 15.6012C93.6944 13.1347 95.3682 11.1968 97.4823 9.78732C99.6258 8.34853 101.96 7.62912 104.485 7.62912C106.394 7.62912 108.2 8.05488 109.903 8.90643C111.635 9.75796 113.133 10.9325 114.396 12.43L110.916 15.9536C110.916 14.8084 110.754 13.6926 110.432 12.6062C110.138 11.4904 109.639 10.5067 108.934 9.65518C108.259 8.80365 107.451 8.31915 106.511 8.2017Z" fill="#2A0917"/>
</g>
<defs>
<clipPath id="clip0_167_199">
<rect width="450" height="47.191" fill="white"/>
</clipPath>
</defs>
</svg>
