<svg width="150" height="150" viewBox="0 0 150 150" fill="none" xmlns="http://www.w3.org/2000/svg">
<g clip-path="url(#clip0_274_2)">
<path d="M7.5 122.5H20V137.5C20.004 140.814 21.3222 143.991 23.6655 146.334C26.0089 148.678 29.186 149.996 32.5 150H117.5C120.814 149.996 123.991 148.678 126.334 146.334C128.678 143.991 129.996 140.814 130 137.5V122.5H142.5C144.489 122.5 146.397 121.71 147.803 120.303C149.21 118.897 150 116.989 150 115V90C150 88.0109 149.21 86.1032 147.803 84.6967C146.397 83.2902 144.489 82.5 142.5 82.5H130V67.5C129.996 64.186 128.678 61.0089 126.334 58.6655C123.991 56.3222 120.814 55.004 117.5 55V42.5C117.5 19.0275 98.4725 0 75 0C51.5275 0 32.5 19.0275 32.5 42.5V55C29.186 55.004 26.0089 56.3222 23.6655 58.6655C21.3222 61.0089 20.004 64.186 20 67.5V82.5H7.5C5.51088 82.5 3.60322 83.2902 2.1967 84.6967C0.790176 86.1032 0 88.0109 0 90L0 115C0 116.989 0.790176 118.897 2.1967 120.303C3.60322 121.71 5.51088 122.5 7.5 122.5ZM125 137.5C125 139.489 124.21 141.397 122.803 142.803C121.397 144.21 119.489 145 117.5 145H32.5C30.5109 145 28.6032 144.21 27.1967 142.803C25.7902 141.397 25 139.489 25 137.5V122.5H125V137.5ZM37.5 42.5C37.5 21.79 54.29 5 75 5C95.71 5 112.5 21.79 112.5 42.5V55H102.5V42.5C102.5 27.3125 90.1875 15 75 15C59.8125 15 47.5 27.3125 47.5 42.5V55H37.5V42.5ZM52.5 55V42.5C52.5 36.5326 54.8705 30.8097 59.0901 26.5901C63.3097 22.3705 69.0326 20 75 20C80.9674 20 86.6903 22.3705 90.9099 26.5901C95.1295 30.8097 97.5 36.5326 97.5 42.5V55H52.5ZM25 67.5C25 65.5109 25.7902 63.6032 27.1967 62.1967C28.6032 60.7902 30.5109 60 32.5 60H117.5C119.489 60 121.397 60.7902 122.803 62.1967C124.21 63.6032 125 65.5109 125 67.5V82.5H25V67.5ZM5 90C5 89.337 5.26339 88.7011 5.73223 88.2322C6.20107 87.7634 6.83696 87.5 7.5 87.5H142.5C143.163 87.5 143.799 87.7634 144.268 88.2322C144.737 88.7011 145 89.337 145 90V115C145 115.663 144.737 116.299 144.268 116.768C143.799 117.237 143.163 117.5 142.5 117.5H7.5C6.83696 117.5 6.20107 117.237 5.73223 116.768C5.26339 116.299 5 115.663 5 115V90Z" fill="white"/>
<path d="M10.4199 108.888C10.6021 109.161 10.8363 109.395 11.1092 109.578C11.3821 109.761 11.6882 109.888 12.0102 109.952C12.3322 110.016 12.6638 110.017 12.9859 109.953C13.3079 109.889 13.6143 109.762 13.8874 109.58L17.4999 107.17V110C17.4999 110.663 17.7633 111.299 18.2322 111.768C18.701 112.237 19.3369 112.5 19.9999 112.5C20.663 112.5 21.2989 112.237 21.7677 111.768C22.2366 111.299 22.4999 110.663 22.4999 110V107.17L26.1124 109.58C26.6641 109.948 27.3393 110.082 27.9896 109.952C28.6399 109.822 29.212 109.439 29.5799 108.888C29.9479 108.336 30.0817 107.661 29.9518 107.01C29.822 106.36 29.4391 105.788 28.8874 105.42L24.4999 102.5L28.8799 99.58C29.1531 99.3978 29.3877 99.1636 29.5703 98.8907C29.7529 98.6178 29.88 98.3117 29.9443 97.9897C30.0086 97.6677 30.0089 97.3362 29.9451 97.0141C29.8813 96.692 29.7547 96.3857 29.5724 96.1125C29.3902 95.8394 29.156 95.6048 28.8831 95.4221C28.6103 95.2395 28.3041 95.1124 27.9821 95.0481C27.6601 94.9838 27.3286 94.9836 27.0065 95.0474C26.6845 95.1112 26.3781 95.2378 26.1049 95.42L22.4999 97.83V95C22.4999 94.337 22.2366 93.7011 21.7677 93.2322C21.2989 92.7634 20.663 92.5 19.9999 92.5C19.3369 92.5 18.701 92.7634 18.2322 93.2322C17.7633 93.7011 17.4999 94.337 17.4999 95V97.83L13.8874 95.42C13.3358 95.052 12.6606 94.9182 12.0103 95.0481C11.36 95.178 10.7879 95.5609 10.4199 96.1125C10.052 96.6642 9.91818 97.3394 10.0481 97.9897C10.1779 98.64 10.5608 99.212 11.1124 99.58L15.4999 102.5L11.1124 105.42C10.8393 105.602 10.6046 105.836 10.422 106.109C10.2393 106.382 10.1122 106.688 10.0479 107.01C9.98362 107.332 9.98337 107.664 10.0472 107.986C10.111 108.308 10.2377 108.614 10.4199 108.888ZM37.9199 108.888C38.1021 109.161 38.3363 109.395 38.6092 109.578C38.8821 109.761 39.1883 109.888 39.5102 109.952C39.8322 110.016 40.1638 110.017 40.4859 109.953C40.8079 109.889 41.1143 109.762 41.3874 109.58L44.9999 107.17V110C44.9999 110.663 45.2633 111.299 45.7322 111.768C46.201 112.237 46.8369 112.5 47.4999 112.5C48.163 112.5 48.7989 112.237 49.2677 111.768C49.7366 111.299 49.9999 110.663 49.9999 110V107.17L53.6124 109.58C54.1641 109.948 54.8393 110.082 55.4896 109.952C56.1399 109.822 56.712 109.439 57.0799 108.888C57.4479 108.336 57.5817 107.661 57.4518 107.01C57.322 106.36 56.9391 105.788 56.3874 105.42L51.9999 102.5L56.3799 99.58C56.6531 99.3978 56.8877 99.1636 57.0703 98.8907C57.2529 98.6178 57.38 98.3117 57.4443 97.9897C57.5086 97.6677 57.5089 97.3362 57.4451 97.0141C57.3813 96.692 57.2547 96.3857 57.0724 96.1125C56.8902 95.8394 56.656 95.6048 56.3831 95.4221C56.1103 95.2395 55.8041 95.1124 55.4821 95.0481C55.1601 94.9838 54.8286 94.9836 54.5065 95.0474C54.1845 95.1112 53.8781 95.2378 53.6049 95.42L49.9999 97.83V95C49.9999 94.337 49.7366 93.7011 49.2677 93.2322C48.7989 92.7634 48.163 92.5 47.4999 92.5C46.8369 92.5 46.201 92.7634 45.7322 93.2322C45.2633 93.7011 44.9999 94.337 44.9999 95V97.83L41.3874 95.42C40.8358 95.052 40.1606 94.9182 39.5103 95.0481C38.86 95.178 38.2879 95.5609 37.9199 96.1125C37.552 96.6642 37.4182 97.3394 37.5481 97.9897C37.6779 98.64 38.0608 99.212 38.6124 99.58L42.9999 102.5L38.6199 105.42C38.3462 105.602 38.1109 105.835 37.9275 106.108C37.7441 106.381 37.6163 106.687 37.5513 107.009C37.4862 107.331 37.4853 107.662 37.5486 107.985C37.6119 108.307 37.7381 108.614 37.9199 108.888ZM92.9199 108.888C93.1021 109.161 93.3363 109.395 93.6092 109.578C93.8821 109.761 94.1883 109.888 94.5103 109.952C94.8323 110.016 95.1638 110.017 95.4859 109.953C95.8079 109.889 96.1143 109.762 96.3874 109.58L99.9999 107.17V110C99.9999 110.663 100.263 111.299 100.732 111.768C101.201 112.237 101.837 112.5 102.5 112.5C103.163 112.5 103.799 112.237 104.268 111.768C104.737 111.299 105 110.663 105 110V107.17L108.612 109.58C109.164 109.948 109.839 110.082 110.49 109.952C111.14 109.822 111.712 109.439 112.08 108.888C112.448 108.336 112.582 107.661 112.452 107.01C112.322 106.36 111.939 105.788 111.387 105.42L107 102.5L111.38 99.58C111.653 99.3978 111.888 99.1636 112.07 98.8907C112.253 98.6178 112.38 98.3117 112.444 97.9897C112.509 97.6677 112.509 97.3362 112.445 97.0141C112.381 96.692 112.255 96.3857 112.072 96.1125C111.89 95.8394 111.656 95.6048 111.383 95.4221C111.11 95.2395 110.804 95.1124 110.482 95.0481C110.16 94.9838 109.829 94.9836 109.507 95.0474C109.184 95.1112 108.878 95.2378 108.605 95.42L105 97.83V95C105 94.337 104.737 93.7011 104.268 93.2322C103.799 92.7634 103.163 92.5 102.5 92.5C101.837 92.5 101.201 92.7634 100.732 93.2322C100.263 93.7011 99.9999 94.337 99.9999 95V97.83L96.3874 95.42C95.8358 95.052 95.1606 94.9182 94.5103 95.0481C93.86 95.178 93.2879 95.5609 92.9199 96.1125C92.552 96.6642 92.4182 97.3394 92.5481 97.9897C92.6779 98.64 93.0608 99.212 93.6124 99.58L98 102.5L93.62 105.42C93.3462 105.602 93.1109 105.835 92.9275 106.108C92.7441 106.381 92.6163 106.687 92.5513 107.009C92.4862 107.331 92.4853 107.662 92.5486 107.985C92.6119 108.307 92.7381 108.614 92.9199 108.888ZM65.4199 108.888C65.6021 109.161 65.8363 109.395 66.1092 109.578C66.3821 109.761 66.6883 109.888 67.0102 109.952C67.3322 110.016 67.6638 110.017 67.9859 109.953C68.3079 109.889 68.6143 109.762 68.8874 109.58L72.4999 107.17V110C72.4999 110.663 72.7633 111.299 73.2322 111.768C73.701 112.237 74.3369 112.5 74.9999 112.5C75.663 112.5 76.2989 112.237 76.7677 111.768C77.2366 111.299 77.4999 110.663 77.4999 110V107.17L81.1124 109.58C81.6641 109.948 82.3393 110.082 82.9896 109.952C83.6399 109.822 84.212 109.439 84.5799 108.888C84.9479 108.336 85.0817 107.661 84.9518 107.01C84.822 106.36 84.4391 105.788 83.8874 105.42L79.4999 102.5L83.8799 99.58C84.1531 99.3978 84.3877 99.1636 84.5703 98.8907C84.7529 98.6178 84.88 98.3117 84.9443 97.9897C85.0086 97.6677 85.0089 97.3362 84.9451 97.0141C84.8813 96.692 84.7547 96.3857 84.5724 96.1125C84.3902 95.8394 84.156 95.6048 83.8831 95.4221C83.6103 95.2395 83.3041 95.1124 82.9821 95.0481C82.6601 94.9838 82.3286 94.9836 82.0065 95.0474C81.6845 95.1112 81.3781 95.2378 81.105 95.42L77.4999 97.83V95C77.4999 94.337 77.2366 93.7011 76.7677 93.2322C76.2989 92.7634 75.663 92.5 74.9999 92.5C74.3369 92.5 73.701 92.7634 73.2322 93.2322C72.7633 93.7011 72.4999 94.337 72.4999 95V97.83L68.8874 95.42C68.3358 95.052 67.6606 94.9182 67.0103 95.0481C66.36 95.178 65.7879 95.5609 65.4199 96.1125C65.052 96.6642 64.9182 97.3394 65.0481 97.9897C65.1779 98.64 65.5608 99.212 66.1124 99.58L70.4999 102.5L66.1199 105.42C65.8462 105.602 65.6109 105.835 65.4275 106.108C65.2441 106.381 65.1163 106.687 65.0513 107.009C64.9862 107.331 64.9853 107.662 65.0486 107.985C65.1119 108.307 65.2381 108.614 65.4199 108.888ZM39.9999 65H32.4999C31.8369 65 31.201 65.2634 30.7322 65.7322C30.2633 66.2011 29.9999 66.837 29.9999 67.5V75C29.9999 75.663 30.2633 76.2989 30.7322 76.7678C31.201 77.2366 31.8369 77.5 32.4999 77.5C33.163 77.5 33.7989 77.2366 34.2677 76.7678C34.7366 76.2989 34.9999 75.663 34.9999 75V70H39.9999C40.663 70 41.2989 69.7366 41.7677 69.2678C42.2366 68.7989 42.4999 68.163 42.4999 67.5C42.4999 66.837 42.2366 66.2011 41.7677 65.7322C41.2989 65.2634 40.663 65 39.9999 65ZM122.5 112.5H137.5C138.163 112.5 138.799 112.237 139.268 111.768C139.737 111.299 140 110.663 140 110C140 109.337 139.737 108.701 139.268 108.232C138.799 107.763 138.163 107.5 137.5 107.5H122.5C121.837 107.5 121.201 107.763 120.732 108.232C120.263 108.701 120 109.337 120 110C120 110.663 120.263 111.299 120.732 111.768C121.201 112.237 121.837 112.5 122.5 112.5Z" fill="white"/>
</g>
<defs>
<clipPath id="clip0_274_2">
<rect width="150" height="150" fill="white"/>
</clipPath>
</defs>
</svg>
