<svg width="46" height="48" viewBox="0 0 46 48" fill="none" xmlns="http://www.w3.org/2000/svg">
<g clip-path="url(#clip0_167_658)">
<path d="M33.4645 36.5807C31.7111 38.3341 31.7111 41.1876 33.4645 42.9411C34.3412 43.8178 35.4925 44.257 36.6438 44.257C37.795 44.257 38.9463 43.8196 39.823 42.9411C41.5764 41.1876 41.5764 38.3341 39.823 36.5807C38.0696 34.8273 35.2161 34.8273 33.4645 36.5807ZM38.6004 41.7166C37.5223 42.7946 35.7689 42.7946 34.6908 41.7166C33.6128 40.6385 33.6128 38.8851 34.6908 37.807C35.2307 37.2689 35.9372 36.998 36.6456 36.998C37.3539 36.998 38.0604 37.2671 38.6004 37.807C39.6784 38.8851 39.6784 40.6385 38.6004 41.7166Z" fill="#6C8B57"/>
<path d="M33.4662 32.1662C33.1551 32.2961 32.8311 32.2449 32.6206 32.0344L28.4402 27.854C28.2334 27.6471 28.2316 27.347 28.248 27.1859C28.3395 26.3458 28.1766 25.4709 27.7795 24.5868C28.4603 24.4331 29.0753 24.111 29.564 23.6204L42.5922 10.5923C45.2937 7.89071 45.819 3.71027 43.8698 0.423028C43.7325 0.192408 43.4982 0.0386616 43.2328 0.00571596C42.9674 -0.0272297 42.702 0.0624557 42.5135 0.252808L24.3568 18.4095C23.901 18.8653 23.5899 19.429 23.4233 20.0513C22.6125 19.634 21.798 19.4052 21.0146 19.3796C20.8334 18.8927 20.5515 18.4535 20.1818 18.0837L2.53027 0.43767C2.33992 0.247318 2.06903 0.157632 1.81095 0.190578C1.54556 0.223523 1.30945 0.37727 1.174 0.607889C-0.777111 3.8933 -0.24998 8.07557 2.45156 10.7771L14.9709 23.2965C15.3406 23.6662 15.7799 23.9481 16.2668 24.1293C16.2961 25.0792 16.6274 26.0676 17.2277 27.0468L12.4231 31.8514C12.2126 32.0618 11.8887 32.1131 11.5775 31.9831C8.48062 30.6854 4.94445 31.3791 2.57237 33.7512C0.91593 35.4058 0.0410399 37.6956 0.170992 40.0347C0.300945 42.372 1.43025 44.5574 3.27338 46.0308C4.76325 47.2223 6.57892 47.8172 8.3946 47.8172C10.2103 47.8172 12.1065 47.1967 13.6128 45.9576C16.4681 43.6093 17.418 39.751 15.9739 36.3558C15.8531 36.0739 15.8989 35.7774 16.0911 35.5852L21.0128 30.6617C22.0542 31.2254 23.0847 31.4725 24.0676 31.3645C24.2286 31.3462 24.5288 31.3499 24.7356 31.5567L28.949 35.7701C29.1394 35.9604 29.1851 36.2624 29.0662 36.5406C27.6221 39.934 28.572 43.7942 31.4273 46.1425C32.9336 47.3816 34.7896 48.0021 36.6455 48.0021C38.5014 48.0021 40.2787 47.4072 41.7667 46.2157C43.6099 44.7423 44.7392 42.5569 44.8691 40.2196C44.9991 37.8804 44.1242 35.5907 42.4677 33.9361C40.0956 31.564 36.5613 30.8721 33.4626 32.168L33.4662 32.1662ZM25.0376 20.7322C25.0999 20.3076 25.2866 19.9287 25.5794 19.6358L42.8759 2.33937C43.7892 4.74257 43.2328 7.50085 41.3659 9.36777L28.3377 22.396C28.0467 22.687 27.666 22.8755 27.2413 22.9359C27.1041 22.956 26.9814 23.0091 26.8753 23.0842C26.5623 22.665 26.2036 22.2459 25.7881 21.8304C25.5026 21.5449 25.2134 21.2923 24.9205 21.0543C24.9791 20.9573 25.0193 20.8493 25.0358 20.7304L25.0376 20.7322ZM14.8666 34.3607C14.1747 35.0526 13.9825 36.1032 14.3797 37.0348C15.52 39.7162 14.7696 42.7637 12.511 44.6196C10.1975 46.5213 6.69057 46.5488 4.35326 44.6782C2.87254 43.494 2.00131 41.8101 1.89698 39.9377C1.79448 38.0909 2.48634 36.2807 3.79318 34.9739C5.6656 33.1015 8.455 32.5542 10.904 33.5792C11.8594 33.9782 12.9356 33.7823 13.6421 33.074L18.2765 28.4397C18.4156 28.5952 18.5565 28.7508 18.7102 28.9046C18.9903 29.1846 19.2722 29.4335 19.554 29.6678L14.8629 34.3607H14.8666ZM43.1413 40.1226C43.037 41.995 42.1657 43.6789 40.685 44.8631C38.3495 46.7318 34.8408 46.7062 32.5273 44.8045C30.2705 42.9486 29.5201 39.8993 30.6585 37.2197C31.0557 36.288 30.8635 35.2393 30.1717 34.5456L25.9583 30.3322C25.5025 29.8764 24.8693 29.6257 24.1866 29.6257C24.0859 29.6257 23.9816 29.6312 23.8791 29.6422C22.7278 29.7666 21.3258 29.0693 19.9366 27.6801C18.5199 26.2634 17.839 24.812 18.0202 23.5966C18.0532 23.3697 17.9964 23.1372 17.8592 22.9524C17.7219 22.7675 17.5169 22.6449 17.2881 22.6119C16.8635 22.5497 16.4828 22.363 16.1917 22.0702L3.67604 9.55264C1.80912 7.68389 1.25271 4.9256 2.16604 2.5224L4.82548 5.18185L3.63761 6.36972C3.299 6.70833 3.299 7.25559 3.63761 7.5942C3.806 7.76259 4.0293 7.84861 4.25076 7.84861C4.47223 7.84861 4.6937 7.76442 4.86392 7.5942L6.05179 6.40633L6.86811 7.22265L5.48806 8.6027C5.14945 8.94131 5.14945 9.48857 5.48806 9.82718C5.65645 9.99557 5.87974 10.0816 6.10121 10.0816C6.32268 10.0816 6.54415 9.9974 6.71437 9.82718L8.09442 8.44713L8.91074 9.26345L7.53069 10.6435C7.19208 10.9821 7.19208 11.5294 7.53069 11.868C7.69908 12.0364 7.92237 12.1224 8.14384 12.1224C8.36531 12.1224 8.58678 12.0382 8.757 11.868L10.1371 10.4879L10.9534 11.3042L9.57332 12.6843C9.23471 13.0229 9.23471 13.5702 9.57332 13.9088C9.74171 14.0772 9.96501 14.1632 10.1865 14.1632C10.4079 14.1632 10.6294 14.079 10.7996 13.9088L12.1797 12.5287L12.996 13.345L11.6159 14.7251C11.2773 15.0637 11.2773 15.611 11.6159 15.9496C11.7843 16.118 12.0076 16.204 12.2291 16.204C12.4506 16.204 12.672 16.1198 12.8423 15.9496L14.2223 14.5695L15.0386 15.3858L13.6586 16.7659C13.32 17.1045 13.32 17.6518 13.6586 17.9904C13.827 18.1588 14.0503 18.2448 14.2717 18.2448C14.4932 18.2448 14.7147 18.1606 14.8849 17.9904L16.2649 16.6103L17.0813 17.4266L15.7012 18.8067C15.3626 19.1453 15.3626 19.6926 15.7012 20.0312C15.8696 20.1996 16.0929 20.2856 16.3144 20.2856C16.5358 20.2856 16.7573 20.2014 16.9275 20.0312L18.3076 18.6511L18.9592 19.3027C19.252 19.5956 19.4387 19.9744 19.5009 20.3991C19.5339 20.626 19.6565 20.831 19.8414 20.9701C20.0262 21.1074 20.2587 21.166 20.4857 21.1312C21.6973 20.9518 23.1524 21.6309 24.5691 23.0475C25.9858 24.4642 26.6556 25.8388 26.5312 26.99C26.4452 27.7881 26.6959 28.5458 27.2212 29.0693L31.4017 33.2497C32.1082 33.9562 33.1825 34.1557 34.1398 33.7549C36.5888 32.7299 39.3782 33.2772 41.2506 35.1496C42.5574 36.4564 43.2493 38.2648 43.1468 40.1134L43.1413 40.1226Z" fill="#6C8B57"/>
<path d="M5.21718 36.3976C3.46374 38.151 3.46374 41.0045 5.21718 42.7579C6.0939 43.6347 7.24517 44.0739 8.39644 44.0739C9.5477 44.0739 10.699 43.6365 11.5757 42.7579C13.3291 41.0045 13.3291 38.151 11.5757 36.3976C9.82225 34.6442 6.96879 34.6442 5.21535 36.3976H5.21718ZM10.3512 41.5316C9.27316 42.6097 7.51972 42.6097 6.44166 41.5316C5.36361 40.4536 5.36361 38.7001 6.44166 37.6221C6.9816 37.084 7.68811 36.8131 8.39644 36.8131C9.10477 36.8131 9.81127 37.0821 10.3512 37.6221C11.4293 38.7001 11.4293 40.4536 10.3512 41.5316Z" fill="#6C8B57"/>
<path d="M23.0941 25.0752C23.0703 25.024 23.041 24.9709 23.0135 24.9251C22.9787 24.8794 22.944 24.8336 22.9037 24.7989C22.5852 24.4694 21.9977 24.4694 21.6792 24.7989C21.639 24.8336 21.6042 24.8794 21.5749 24.9251C21.5401 24.9709 21.5108 25.024 21.4944 25.0752C21.4706 25.1265 21.4541 25.185 21.4431 25.2363C21.4321 25.2949 21.4248 25.3516 21.4248 25.4047C21.4248 25.52 21.4486 25.6353 21.4889 25.7396C21.5346 25.844 21.5987 25.9355 21.6792 26.0233C21.7598 26.1039 21.8586 26.1679 21.9629 26.2082C22.0672 26.2539 22.1752 26.2777 22.2924 26.2777C22.4095 26.2777 22.5175 26.2539 22.6273 26.2082C22.7316 26.1679 22.8232 26.1039 22.9055 26.0233C22.9861 25.9373 23.0501 25.844 23.0959 25.7396C23.1361 25.6353 23.1599 25.52 23.1599 25.4047C23.1599 25.3534 23.1545 25.2949 23.1416 25.2363C23.1307 25.185 23.1124 25.1265 23.0959 25.0752H23.0941Z" fill="#6C8B57"/>
</g>
<defs>
<clipPath id="clip0_167_658">
<rect width="45.0422" height="48" fill="white"/>
</clipPath>
</defs>
</svg>
