<svg width="100" height="100" viewBox="0 0 100 100" fill="none" xmlns="http://www.w3.org/2000/svg">
<g clip-path="url(#clip0_485_49)">
<path d="M0.118783 70.3703C-0.0398322 70.7547 -0.0397823 71.1862 0.118922 71.5705C0.277626 71.9548 0.582067 72.2607 0.965658 72.4211C1.15549 72.5003 1.35915 72.5412 1.56486 72.5412C1.77056 72.5413 1.97424 72.5006 2.16413 72.4215C2.35402 72.3424 2.52635 72.2264 2.67116 72.0803C2.81598 71.9342 2.93041 71.7609 3.00785 71.5703C8.36331 58.5492 15.4532 49.6531 22.5383 43.5719C23.0118 43.8219 23.4797 44.0719 23.9321 44.3195C25.4797 45.1664 27.0024 46.0867 28.6149 47.0617C33.8953 50.2531 39.3555 53.5531 45.6852 54.1258C46.4341 54.1935 47.1782 54.2274 47.9172 54.2274C51.66 54.252 55.3489 53.3359 58.6453 51.5633C59.4164 52.1148 60.338 52.4166 61.286 52.4281H61.3524C62.5738 52.43 63.7468 51.9506 64.6172 51.0938L71.9703 43.9031L74.6524 53.893L69.4071 58.9523C69.385 58.9738 69.3637 58.996 69.343 59.0188C68.8934 59.5061 68.5516 60.0828 68.3399 60.7112C68.1283 61.3396 68.0516 62.0056 68.1149 62.6656L70.2766 88.3156C70.3366 88.9435 70.5234 89.5526 70.8257 90.1061C71.128 90.6596 71.5394 91.1461 72.0352 91.5359C72.8517 92.1877 73.8654 92.5428 74.9102 92.543C75.1284 92.5428 75.3464 92.5274 75.5625 92.4969C75.6875 92.4797 75.8086 92.4516 75.9297 92.4242C76.236 93.1692 76.7276 93.8235 77.3578 94.325C78.1574 94.9636 79.1502 95.3118 80.1735 95.3125C80.3912 95.3123 80.6087 95.2966 80.8243 95.2656C81.8832 95.1014 82.8542 94.5804 83.5766 93.7888C84.2989 92.9973 84.7292 91.9828 84.7961 90.9133L86.0719 71.8898L97.2688 61.0383C98.4526 59.9929 99.3036 58.6232 99.7165 57.0988C100.129 55.5744 100.086 53.9624 99.5914 52.4625L98.3672 48.5164C98.3555 48.4789 98.3367 48.4453 98.3227 48.4086C98.3141 48.3859 98.3102 48.3617 98.3008 48.3398L88.3157 26.0516C87.8462 24.8366 87.0784 23.7594 86.0831 22.9193C85.0877 22.0792 83.8969 21.5033 82.6203 21.2445C82.422 21.6416 82.1986 22.0257 81.9516 22.3945C81.4788 23.0849 80.9234 23.7148 80.2977 24.2703L80.6586 24.2398C81.6771 24.1537 82.6958 24.4037 83.5589 24.9514C84.4219 25.4991 85.0818 26.3144 85.4375 27.2727L94.6961 47.9445L77.5305 52.5586L74.5344 41.3953L82.5352 33.5703C82.8324 33.2793 83.0025 32.8825 83.0083 32.4666C83.0142 32.0507 82.8553 31.6493 82.5664 31.35C82.4238 31.202 82.2533 31.0838 82.0648 31.002C81.8762 30.9203 81.6734 30.8767 81.4679 30.8738C81.2624 30.8709 81.0584 30.9088 80.8676 30.9851C80.6768 31.0615 80.503 31.1749 80.3563 31.3188L62.4391 48.8438C62.1422 49.1332 61.7427 49.293 61.3282 49.2883C61.1227 49.2858 60.9197 49.2425 60.7311 49.1608C60.5425 49.0791 60.3721 48.9607 60.2297 48.8125C59.9408 48.5133 59.7818 48.1121 59.7874 47.6962C59.7929 47.2804 59.9626 46.8835 60.2594 46.5922L75.618 31.5727C75.9151 31.2815 76.085 30.8847 76.0908 30.4688C76.0965 30.0529 75.9375 29.6515 75.6485 29.3523C75.5058 29.2043 75.3353 29.086 75.1467 29.0042C74.9581 28.9224 74.7552 28.8787 74.5497 28.8757C74.3441 28.8727 74.14 28.9105 73.9491 28.9868C73.7583 29.0631 73.5844 29.1765 73.4375 29.3203L71.7383 30.9828C71.5583 30.3201 71.1658 29.7348 70.621 29.3167C70.0763 28.8985 69.4094 28.6706 68.7227 28.668C68.6563 28.668 68.5891 28.6695 68.5211 28.6742L54.3414 29.6008C53.9373 29.6415 53.5324 29.5315 53.2045 29.2918C52.8765 29.0522 52.6488 28.6998 52.5649 28.3024C52.5278 28.0838 52.5375 27.86 52.5933 27.6455C52.6491 27.431 52.7497 27.2308 52.8884 27.058C53.0272 26.8852 53.201 26.7437 53.3984 26.643C53.5958 26.5422 53.8123 26.4845 54.0336 26.4734L67.9422 25.307C66.7058 24.5611 65.6268 23.5811 64.7657 22.4219L53.8024 23.3414C52.7029 23.4137 51.6642 23.8715 50.8692 24.6344C50.0742 25.3973 49.5738 26.4162 49.4563 27.5117C43.2675 28.4012 37.2864 30.3853 31.793 33.3711C28.3545 35.2007 25.1004 37.3576 22.0758 39.8117C16.1774 36.882 8.99456 34.2438 1.43597 34.8555C1.0212 34.8894 0.636856 35.0866 0.36737 35.4037C0.0978835 35.7208 -0.0347042 36.1319 -0.00126681 36.5467C0.0321706 36.9615 0.228898 37.3461 0.5457 37.616C0.862501 37.8858 1.27347 38.0189 1.68831 37.9859C8.02581 37.468 14.2094 39.5469 19.4743 42.0367C12.5891 48.2375 5.50785 57.2672 0.118783 70.3703ZM95.8313 50.8906L96.6203 53.432C96.9282 54.349 96.958 55.3365 96.7062 56.2703C96.4543 57.2042 95.9319 58.0427 95.2047 58.6805C95.1803 58.7013 95.1566 58.7229 95.1336 58.7453L83.4703 70.0492C83.1912 70.3204 83.0223 70.6852 82.9961 71.0734L81.6789 90.7016C81.6613 91.0551 81.5236 91.3921 81.2885 91.6567C81.0534 91.9214 80.735 92.0979 80.386 92.157C80.1925 92.1848 79.9954 92.1724 79.807 92.1206C79.6186 92.0689 79.4428 91.9789 79.2907 91.8563C79.122 91.7219 78.9825 91.5546 78.8807 91.3645C78.7788 91.1745 78.7168 90.9656 78.6985 90.7508L76.5719 68.8516C76.5502 68.6122 76.5795 68.371 76.6579 68.1438C76.7363 67.9166 76.862 67.7087 77.0266 67.5336L81.9117 61.5828C82.1754 61.261 82.3012 60.848 82.2617 60.4339C82.2222 60.0198 82.0206 59.638 81.7008 59.3719C81.5427 59.2409 81.3603 59.1423 81.164 59.082C80.9677 59.0217 80.7614 59.0007 80.557 59.0203C80.3526 59.0399 80.154 59.0997 79.9728 59.1962C79.7915 59.2928 79.6312 59.4241 79.5008 59.5828L74.6617 65.4813C74.2183 65.9776 73.8826 66.5605 73.6759 67.1932C73.4692 67.8259 73.396 68.4946 73.461 69.157L75.4188 89.3164C75.1759 89.4014 74.9153 89.4232 74.6617 89.3797C74.408 89.3362 74.1696 89.229 73.9688 89.068C73.8074 88.942 73.673 88.7849 73.5735 88.606C73.4739 88.4271 73.4112 88.2301 73.3891 88.0266L71.2274 62.3766C71.206 62.1617 71.229 61.9448 71.2948 61.7392C71.3607 61.5336 71.468 61.3437 71.6102 61.1813L77.0422 55.9414L95.8313 50.8906ZM50.2016 30.5938C50.6748 31.2997 51.325 31.869 52.0873 32.2447C52.8497 32.6203 53.6973 32.7892 54.5453 32.7344L68.725 31.8086L69.1758 33.4891L58.0805 44.3406C57.6375 44.7721 57.2842 45.2868 57.0408 45.8553C56.7975 46.4238 56.6689 47.0348 56.6625 47.6531C56.6569 48.1009 56.7145 48.5472 56.8336 48.9789C53.4772 50.6743 49.7062 51.375 45.9649 50.9984C40.35 50.4891 35.2024 47.3781 30.2243 44.3695C28.6547 43.4211 27.0321 42.4399 25.425 41.5609L25.1766 41.4273C36.4539 32.7969 47.1625 30.9555 50.2016 30.5938Z" fill="white"/>
<path d="M79.3719 20.6234C79.9334 19.7921 80.3198 18.8552 80.5076 17.8698C80.6954 16.8843 80.6806 15.8709 80.4641 14.8914L79.6352 10.9555C79.2298 9.00181 78.0951 7.2761 76.4621 6.12962C74.8291 4.98314 72.8206 4.50208 70.8454 4.78437C69.8978 4.93686 68.9915 5.28204 68.1826 5.79857C67.3737 6.3151 66.6793 6.99201 66.1422 7.78749C65.5808 8.61884 65.1945 9.55578 65.0069 10.5412C64.8193 11.5267 64.8342 12.54 65.0508 13.5195L65.8797 17.4555C66.2493 19.207 67.2026 20.7811 68.5836 21.9199C69.9647 23.0588 71.6915 23.695 73.4813 23.7242C73.8797 23.7242 74.2774 23.6913 74.6704 23.6258C75.6176 23.4731 76.5235 23.128 77.3321 22.6116C78.1408 22.0952 78.835 21.4186 79.3719 20.6234ZM76.7922 18.8516C76.4914 19.2958 76.1027 19.6737 75.6501 19.9619C75.1976 20.2501 74.6908 20.4426 74.161 20.5273C72.9802 20.6869 71.7829 20.3908 70.8125 19.6994C69.8421 19.0079 69.1715 17.9729 68.9368 16.8047L68.1086 12.8695C67.9811 12.3048 67.9699 11.72 68.0756 11.1508C68.1813 10.5816 68.4017 10.0399 68.7235 9.55859C69.0243 9.11454 69.4129 8.73683 69.8653 8.44875C70.3177 8.16067 70.8243 7.96833 71.354 7.88359C71.5838 7.84561 71.8163 7.82653 72.0493 7.82655C73.1205 7.85096 74.1518 8.23811 74.9745 8.92468C75.7971 9.61126 76.3625 10.5566 76.5782 11.6062L77.4063 15.5414C77.5338 16.106 77.5451 16.6905 77.4395 17.2596C77.3339 17.8287 77.1137 18.3703 76.7922 18.8516Z" fill="white"/>
</g>
<defs>
<clipPath id="clip0_485_49">
<rect width="100" height="100" fill="white"/>
</clipPath>
</defs>
</svg>
