<svg width="100" height="100" viewBox="0 0 100 100" fill="none" xmlns="http://www.w3.org/2000/svg">
<path d="M79.1056 31.6666C80.5674 31.6635 82.0028 31.2773 83.2688 30.5465C84.5348 29.8156 85.5871 28.7657 86.3208 27.5014C86.4677 27.2477 86.545 26.9598 86.545 26.6666C86.545 26.3735 86.4677 26.0856 86.3208 25.8319C85.5895 24.5654 84.5378 23.5138 83.2713 22.7827C82.0048 22.0515 80.5681 21.6666 79.1057 21.6666C77.6433 21.6666 76.2067 22.0515 74.9402 22.7827C73.6737 23.5138 72.6219 24.5654 71.8906 25.8319C71.7438 26.0856 71.6665 26.3735 71.6665 26.6666C71.6665 26.9598 71.7438 27.2477 71.8906 27.5014C72.6243 28.7657 73.6766 29.8156 74.9426 30.5464C76.2085 31.2772 77.6439 31.6635 79.1056 31.6666ZM79.1056 25C79.8084 25.0016 80.503 25.1507 81.1445 25.4379C81.786 25.725 82.36 26.1436 82.8294 26.6666C82.361 27.191 81.7872 27.6104 81.1456 27.8977C80.5039 28.1849 79.8088 28.3334 79.1057 28.3334C78.4027 28.3334 77.7076 28.1849 77.0659 27.8977C76.4242 27.6104 75.8504 27.191 75.3821 26.6666C75.8515 26.1436 76.4254 25.725 77.0669 25.4379C77.7083 25.1508 78.4029 25.0016 79.1056 25Z" fill="white"/>
<path d="M89.9303 85.5777C88.8353 84.6796 87.5422 83.7215 86.0762 82.7198C93.3182 78.4029 98.3333 69.3398 98.3333 60C98.3333 51.5342 94.9974 41.3885 87.5449 37.8067C84.4628 36.3254 79.7212 35.5567 73.4941 38.9694C73.1964 35.9931 72.292 33.505 71.4407 31.1689C69.8322 26.7556 68.5618 23.2698 71.4905 17.4121L68.5093 15.9212C64.9385 23.0629 66.6518 27.7639 68.3089 32.3104C69.2724 34.9542 70.2543 37.6514 70.2464 41.0496C70.163 41.1098 70.0824 41.1665 69.9995 41.2281C65.4247 37.8252 61.5191 36.6285 58.3328 36.555V26.6667C58.3309 26.3064 58.2142 25.956 57.9995 25.6667L48.3332 12.7779V3.33332C48.3332 2.8913 48.1577 2.46737 47.8451 2.15481C47.5325 1.84225 47.1086 1.66666 46.6666 1.66666H16.6666C16.2245 1.66666 15.8006 1.84225 15.4881 2.15481C15.1755 2.46737 14.9999 2.8913 14.9999 3.33332V12.7779L5.33324 25.6667C5.11858 25.956 5.00181 26.3064 4.99991 26.6667V62.7387C3.5071 63.6436 2.42115 65.0897 1.96845 66.7756C1.26449 69.2044 1.43782 72.734 6.26178 75.7619C7.38206 76.4494 8.56013 77.038 9.78262 77.521C4.84241 80.2069 4.25095 83.5002 4.26866 84.9937C4.30512 88.046 6.6897 90.7021 10.3437 91.7617C10.8868 91.9166 11.4491 91.9938 12.0139 91.9908C15.017 91.9908 18.7245 89.9594 23.0657 85.9283C24.371 84.7165 25.5657 83.4827 26.5641 82.3927C26.7403 83.8735 27.2676 85.2908 28.1022 86.5267C30.126 89.5237 33.9874 91.6715 41.0137 93.7079C47.7668 95.6652 60.5291 97.5204 71.3595 98.1206C73.8818 98.2602 76.2528 98.329 78.4337 98.329C81.0783 98.3514 83.7219 98.2156 86.3503 97.9225C91.4685 97.2908 94.1574 95.9433 94.8126 93.6827C95.4678 91.4221 93.9166 88.8483 89.9303 85.5777ZM69.8124 44.9844C69.5771 46.0772 69.27 47.1534 68.893 48.2058C68.2213 48.0526 67.5882 47.7628 67.0333 47.3544C66.4783 46.946 66.0133 46.4278 65.6672 45.8321L62.7818 47.5012C63.5136 48.7678 64.5658 49.8194 65.8327 50.5506C67.0996 51.2818 68.5365 51.6667 69.9993 51.6667C71.462 51.6667 72.899 51.2818 74.1659 50.5506C75.4328 49.8194 76.485 48.7678 77.2168 47.5012L74.3314 45.8321C73.909 46.5591 73.3104 47.1681 72.5908 47.6029C73.0524 46.0504 73.3608 44.4564 73.5114 42.8437C78.2066 39.7975 82.5193 39.089 86.1003 40.8102C91.3405 43.3292 94.9999 51.22 94.9999 60C94.9999 68.6962 89.8453 77.3969 82.8891 80.6433C81.1976 79.5881 79.3491 78.4996 77.3683 77.3933C67.8958 72.1085 56.1182 66.8517 49.366 64.8948C47.9112 64.4731 46.5701 64.1294 45.3262 63.86C45.1113 62.5845 45.0021 61.2935 44.9999 60C44.9999 51.22 48.6593 43.3292 53.8989 40.811C58.1001 38.7917 63.3076 40.1139 68.9587 44.6348C69.2044 44.8298 69.5005 44.9511 69.8124 44.9844ZM8.33324 28.3333H34.9999V38.3333H8.33324V28.3333ZM38.3332 28.3333H54.9999V36.9029C54.1219 37.1129 53.2687 37.4159 52.4549 37.8067C45.0024 41.3885 41.6666 51.5342 41.6666 60C41.668 61.0963 41.7371 62.1916 41.8737 63.2794C40.6991 63.1376 39.5139 63.1048 38.3332 63.1815V28.3333ZM39.9999 25L46.6666 16.111L53.3332 25H39.9999ZM18.3332 4.99999H44.9999V11.6667H18.3332V4.99999ZM17.4999 15H43.3332L35.8332 25H9.99991L17.4999 15ZM8.33324 41.6667H34.9999V63.9014C34.8701 63.9519 34.7412 64.0039 34.6147 64.0594C33.2491 64.6556 32.0455 65.5693 31.1041 66.7244C30.8426 65.2702 30.4941 63.5917 30.0397 61.8719C28.2324 55.0319 25.6647 51.085 22.4078 50.1412C18.7537 49.0821 15.3178 50.0517 13.6553 52.6117C12.8428 53.8633 11.5801 56.9633 14.3187 61.8746C13.0271 61.6293 11.7166 61.4969 10.402 61.4787H10.3395C9.66868 61.4763 8.99855 61.5221 8.33428 61.6156L8.33324 41.6667ZM11.2707 88.56C9.05991 87.9194 7.61949 86.5037 7.60095 84.954C7.58012 83.1879 9.51762 80.6815 15.0205 78.9437C15.3616 78.836 15.6589 78.6213 15.8686 78.3315C16.0783 78.0417 16.1891 77.6922 16.1848 77.3345C16.1806 76.9769 16.0613 76.6301 15.8447 76.3454C15.6282 76.0607 15.3258 75.8533 14.9822 75.7537C7.44241 73.5681 4.2322 70.935 5.1697 67.7037C5.7272 65.78 7.41282 64.8212 10.2768 64.8212C12.2237 64.8212 14.7155 65.2646 17.7672 66.149C18.1108 66.2485 18.4773 66.2349 18.8125 66.1102C19.1478 65.9854 19.434 65.7561 19.6288 65.4561C19.8237 65.1561 19.9169 64.8014 19.8946 64.4444C19.8723 64.0873 19.7358 63.747 19.5051 63.4735C15.7849 59.0625 15.4874 55.9085 16.4497 54.4275C17.2941 53.1277 19.2682 52.7021 21.4791 53.3427C25.0872 54.3885 27.6822 64.3658 28.4187 71.3089L26.7432 77.0892C22.4082 82.5625 14.8799 89.6054 11.2718 88.56H11.2707ZM91.6124 92.7575C91.3795 93.5612 87.1928 95.6604 71.5441 94.7942C68.9176 94.6483 66.1785 94.4287 63.4443 94.1515L65.0718 88.5358L61.8703 87.6079L60.0812 93.7812C52.9562 92.9356 46.1985 91.7419 41.9418 90.5081C35.811 88.7312 32.3945 86.9285 30.8647 84.6631C29.4689 82.596 29.4443 79.7442 30.7814 75.1271C32.1185 70.51 33.6655 68.1131 35.9503 67.1129C36.9212 66.6879 38.0939 66.4733 39.5237 66.4733C41.7824 66.4733 44.682 67.0092 48.4364 68.0971C48.938 68.2429 49.4718 68.4096 50.0285 68.5912L45.8618 82.9683L49.0632 83.8962L53.1768 69.7029C59.7324 72.1652 68.4222 76.2208 75.7426 80.3052C77.5228 81.2983 79.1105 82.2296 80.5285 83.101L78.8062 89.0458L82.0076 89.974L83.457 84.974C90.3935 89.6056 91.7916 92.1373 91.6124 92.7575Z" fill="white"/>
</svg>
