<svg width="49" height="48" viewBox="0 0 49 48" fill="none" xmlns="http://www.w3.org/2000/svg">
<g clip-path="url(#clip0_302_38)">
<path fill-rule="evenodd" clip-rule="evenodd" d="M26.9471 47.9999C22.7486 47.9999 19.333 44.5843 19.333 40.3858V35.0802C19.333 34.7697 19.5895 34.5132 19.9 34.5132C20.2038 34.5132 20.4603 34.7697 20.4603 35.0802V40.3858C20.4603 43.9633 23.3696 46.8726 26.9471 46.8726C30.5247 46.8726 33.4407 43.9633 33.4407 40.3858V35.0802C33.4407 34.7697 33.6905 34.5132 34.001 34.5132C34.3115 34.5132 34.5612 34.7697 34.5612 35.0802V40.3858C34.5612 44.5843 31.1457 47.9999 26.9471 47.9999Z" fill="#6C8B57"/>
<path fill-rule="evenodd" clip-rule="evenodd" d="M10.0111 43.9297C9.21459 43.9297 8.70158 43.8892 8.62058 43.8892C8.34382 43.8622 8.12107 43.6394 8.10757 43.3559L7.81731 38.3406C7.79706 38.0301 8.03332 37.7668 8.34382 37.7466C8.65433 37.7263 8.91758 37.9626 8.93783 38.2731L9.20109 42.7889C10.8954 42.8429 16.5992 42.8092 19.5017 39.9809C19.7245 39.7649 20.0823 39.7716 20.2983 39.9944C20.5143 40.2171 20.5143 40.5681 20.2915 40.7909C17.4362 43.5652 12.4344 43.9297 10.0111 43.9297ZM43.6199 43.8959C40.5216 43.8959 36.1408 43.2547 33.6095 40.7909C33.3867 40.5749 33.38 40.2171 33.596 39.9944C33.812 39.7716 34.1697 39.7649 34.3925 39.9809C37.3085 42.8227 43.0731 42.8564 44.6931 42.7417L46.0094 20.1491C46.2794 15.4375 44.5649 10.8677 41.1763 7.27661C37.4908 3.3683 32.3067 1.12727 26.9471 1.12727C21.5943 1.12727 16.4102 3.3683 12.7246 7.27661C9.33609 10.8677 7.61481 15.4375 7.89157 20.1491L8.44507 29.7815C8.46532 30.092 8.22907 30.3552 7.91857 30.3755C7.60806 30.3957 7.33806 30.1595 7.32456 29.849L6.7643 20.2166C6.47404 15.1877 8.30332 10.3209 11.9079 6.50035C15.8027 2.36929 21.2905 0 26.9471 0C32.6105 0 38.0983 2.36929 41.9998 6.5071C45.5977 10.3277 47.4202 15.1945 47.1299 20.2166L45.7934 43.2682C45.7799 43.4774 45.6382 43.6732 45.4424 43.7542C45.2737 43.8284 44.5851 43.8959 43.6199 43.8959ZM44.6729 43.1939C44.6661 43.2074 44.6661 43.2209 44.6661 43.2344L44.6729 43.1939Z" fill="#6C8B57"/>
<path fill-rule="evenodd" clip-rule="evenodd" d="M26.2654 12.1909C26.1574 12.1909 26.0832 12.1774 26.0427 12.1706L26.2924 11.0704C26.2924 11.0704 26.2789 11.0636 26.2519 11.0636C26.2924 11.0704 28.8035 11.0771 31.193 1.0262C31.3618 0.317435 32.4755 0.513188 32.2798 1.32995C31.1592 6.00777 29.843 9.24107 28.3782 10.9286C27.4264 12.0289 26.6434 12.1909 26.2654 12.1909ZM23.5451 21.2833C23.4844 21.2833 23.4169 21.2765 23.3561 21.2495C21.9251 20.7298 20.6358 20.723 19.3938 21.2428C19.1103 21.3575 18.7796 21.2225 18.6581 20.939C18.5433 20.6488 18.6783 20.3247 18.9618 20.2032C20.4536 19.5822 22.0601 19.5755 23.7409 20.1897C24.3281 20.4057 24.1729 21.2833 23.5451 21.2833ZM34.7166 21.2833C34.6558 21.2833 34.5883 21.2765 34.5208 21.2495C33.0965 20.7298 31.8005 20.723 30.5652 21.2428C30.2817 21.3575 29.951 21.2225 29.8295 20.939C29.708 20.6488 29.843 20.3247 30.1332 20.2032C31.625 19.5822 33.2315 19.5755 34.9123 20.1897C35.4996 20.4057 35.3376 21.2833 34.7166 21.2833Z" fill="#6C8B57"/>
<path fill-rule="evenodd" clip-rule="evenodd" d="M26.9471 37.8883C22.6136 37.8883 18.5972 35.7013 15.931 31.8807C15.7352 31.5972 15.8364 31.2057 16.1402 31.0505C17.6657 30.3012 19.1913 29.2347 20.2308 28.1952C20.4468 27.9792 20.8045 27.9792 21.0205 28.1952C21.2433 28.4179 21.2433 28.7757 21.0205 28.9917C20.0418 29.9772 18.658 30.983 17.2337 31.7525C19.6773 34.9453 23.1873 36.761 26.9471 36.761C34.001 36.761 39.7386 30.3754 39.7386 22.5251V17.773L26.1641 12.2244L14.1557 17.0035V21.5666C14.1557 21.8771 13.9059 22.1268 13.5954 22.1268C13.2849 22.1268 13.0352 21.8771 13.0352 21.5666V16.6187C13.0352 16.3892 13.1769 16.18 13.3862 16.0922L25.9616 11.0971C26.0966 11.0431 26.2451 11.0431 26.3801 11.0971L40.5148 16.8752C40.7241 16.963 40.8658 17.1722 40.8658 17.395V22.5251C40.8658 26.6021 39.4213 30.4429 36.7955 33.3522C34.1562 36.2818 30.6597 37.8883 26.9471 37.8883Z" fill="#6C8B57"/>
<path fill-rule="evenodd" clip-rule="evenodd" d="M26.9472 32.063C25.388 32.063 23.9299 31.4555 22.8297 30.3552C22.6069 30.1324 22.6069 29.7814 22.8297 29.5587C23.0457 29.3427 23.4034 29.3427 23.6194 29.5587C25.469 31.4015 28.439 31.3947 30.275 29.5587C30.4978 29.3427 30.8488 29.3427 31.0716 29.5587C31.2943 29.7814 31.2943 30.1324 31.0716 30.3552C29.9713 31.4555 28.5065 32.063 26.9472 32.063ZM14.3178 32.927C14.1693 32.927 14.0275 32.873 13.9195 32.765L9.43072 28.2694C9.28897 28.1277 9.22822 27.9251 9.28222 27.7294C9.84248 25.6369 11.4895 22.8761 13.1973 21.1683C13.2985 21.0738 13.4268 21.013 13.5685 21.0063C15.2898 20.9118 17.1798 21.8096 18.7391 23.4498C20.3861 25.0159 21.2772 26.8991 21.1894 28.6272C21.1827 28.7622 21.1219 28.8972 21.0207 28.9917C19.3129 30.7062 16.5521 32.3532 14.4663 32.9135C14.4123 32.9202 14.365 32.927 14.3178 32.927ZM10.4567 27.7091L14.4798 31.7322C16.2686 31.1719 18.5771 29.7814 20.0689 28.3572C20.0554 27.0206 19.2791 25.5086 17.9561 24.2598L17.9359 24.2396C16.6803 22.9166 15.1683 22.1403 13.8385 22.1268C12.4143 23.6118 11.017 25.9204 10.4567 27.7091Z" fill="#6C8B57"/>
<path fill-rule="evenodd" clip-rule="evenodd" d="M13.7101 26.5619C13.2714 26.5619 12.9879 26.0691 13.2444 25.6911L15.7689 21.9111C15.9444 21.6546 16.2954 21.5803 16.5519 21.7558C16.8084 21.9246 16.8759 22.2756 16.7072 22.5321L14.1759 26.3121C14.0679 26.4741 13.8924 26.5619 13.7101 26.5619ZM16.4169 28.8232C15.8634 28.8232 15.6407 28.1009 16.0997 27.7904L19.63 25.4346C19.8865 25.2591 20.2375 25.3266 20.4062 25.5899C20.5817 25.8464 20.5142 26.1974 20.251 26.3661L16.7274 28.7287C16.6329 28.7894 16.5249 28.8232 16.4169 28.8232ZM6.89252 40.3523C6.75077 40.3523 6.60902 40.2983 6.49426 40.1903L2.00544 35.6948C1.78269 35.472 1.78269 35.121 2.00544 34.8983L9.43056 27.4799C9.64656 27.2571 10.0043 27.2571 10.2203 27.4799L14.7159 31.9687C14.9319 32.1915 14.9319 32.5425 14.7159 32.7652L7.29078 40.1903C7.18277 40.2983 7.04102 40.3523 6.89252 40.3523ZM3.20021 35.2965L6.89252 38.9956L13.5211 32.367L9.82207 28.6679L3.20021 35.2965Z" fill="#6C8B57"/>
</g>
<defs>
<clipPath id="clip0_302_38">
<rect width="48" height="48" fill="white" transform="translate(0.5)"/>
</clipPath>
</defs>
</svg>
